<svg width="12" height="12" viewBox="0 0 12 12" fill="none" xmlns="http://www.w3.org/2000/svg">
<g clip-path="url(#clip0_60_8469)">
<path d="M2.30065 2.4643C2.30065 1.85839 2.53968 1.27728 2.96515 0.848836C3.39063 0.420387 3.96769 0.179688 4.5694 0.179688C5.17111 0.179688 5.74818 0.420387 6.17365 0.848836C6.59912 1.27728 6.83815 1.85839 6.83815 2.4643C6.83815 3.07022 6.59912 3.65132 6.17365 4.07977C5.74818 4.50822 5.17111 4.74892 4.5694 4.74892C3.96769 4.74892 3.39063 4.50822 2.96515 4.07977C2.53968 3.65132 2.30065 3.07022 2.30065 2.4643ZM8.3369 7.90123C8.19024 6.84892 6.57232 6.01815 4.59232 6.01815C2.6169 6.01815 0.998986 6.84892 0.85232 7.90123H0.83857V11.7043C0.83857 11.7043 0.82482 11.8197 0.92107 11.8197H8.2544C8.2544 11.8197 8.35065 11.8428 8.35065 11.7135V7.90123H8.3369ZM9.30399 10.9474H11.4673V8.40892H11.4536C11.3252 7.49507 10.1244 6.74738 8.53399 6.53507C8.53399 6.53507 9.30399 6.812 9.30399 7.73046V10.9474Z" fill="black"/>
<path d="M7.47156 1.34202C7.83845 1.28064 8.21485 1.31534 8.56457 1.44277C8.91429 1.57021 9.22557 1.78611 9.46849 2.06971C9.71141 2.3533 9.87779 2.69506 9.95163 3.06212C10.0255 3.42918 10.0043 3.8092 9.89015 4.16564C9.776 4.52208 9.5727 4.84295 9.29981 5.0974C9.02692 5.35186 8.69361 5.53134 8.33192 5.61859C7.97024 5.70584 7.59235 5.69792 7.23458 5.5956C6.87682 5.49328 6.55121 5.29999 6.28906 5.03433C6.28906 5.03433 7.25156 4.36048 7.53573 3.37279C7.81073 2.40356 7.47156 1.34202 7.47156 1.34202Z" fill="black"/>
</g>
<defs>
<clipPath id="clip0_60_8469">
<rect width="11" height="12" fill="white" transform="translate(0.5)"/>
</clipPath>
</defs>
</svg>
