<svg width="32" height="32" viewBox="0 0 32 32" fill="none" xmlns="http://www.w3.org/2000/svg">
<path d="M31.36 13.8809C31.3232 13.8371 31.2793 13.7999 31.23 13.7709C30.9798 13.6262 30.6986 13.5439 30.41 13.5309C30.24 13.0909 30.27 12.5309 30.31 11.9509C30.33 11.5309 30.35 11.0509 30.29 10.5909C30.2729 10.4703 30.2125 10.3601 30.12 10.2809C29.78 9.98089 29.37 9.91089 28.99 10.0809C28.83 10.1609 28.7 10.2609 28.59 10.3809L28.53 10.1909C28.87 10.0909 29.18 9.92089 29.44 9.67089C30.11 9.03089 30.37 7.98089 30.08 7.12089C29.9501 6.75537 29.7233 6.43202 29.4239 6.18543C29.1244 5.93883 28.7636 5.77826 28.38 5.72089C28.5 5.59089 28.63 5.42089 28.65 5.19089C28.6557 5.12023 28.6463 5.04916 28.6225 4.98238C28.5987 4.91561 28.5609 4.85467 28.5118 4.8036C28.4626 4.75254 28.4031 4.71251 28.3373 4.68618C28.2715 4.65985 28.2008 4.64783 28.13 4.65089C27.73 4.67089 27.33 4.81089 26.96 5.05089V5.02089C26.96 4.62089 26.96 4.20089 27.12 3.89089C27.25 3.46089 27.1 3.23089 26.96 3.11089C26.86 3.03089 26.6 2.88089 26.21 3.11089C25.81 3.35089 25.15 4.09089 24.73 4.99089V4.98089C24.63 4.48089 24.17 4.37089 23.95 4.32089L23.78 4.27089L23.76 4.20089C23.46 3.36089 22.7 3.40089 22.24 3.43089C21.9 3.43089 21.74 3.43089 21.66 3.35089C21.6368 3.32097 21.6099 3.29409 21.58 3.27089V3.23089C21.5225 2.9268 21.4009 2.63843 21.2233 2.38497C21.0457 2.13151 20.8161 1.91877 20.55 1.76089C20.3466 1.64866 20.1208 1.58323 19.889 1.56939C19.6572 1.55555 19.4252 1.59364 19.21 1.68089C19.1294 1.70999 19.0577 1.7593 19.0016 1.82409C18.9456 1.88888 18.9071 1.96698 18.89 2.05089C18.58 1.97089 18.21 1.95089 17.81 2.00089C17.6898 2.01787 17.58 2.07796 17.5008 2.16995C17.4217 2.26195 17.3788 2.37957 17.38 2.50089C17.2342 2.47997 17.0865 2.47661 16.94 2.49089C16.78 1.99089 16.35 1.58089 15.82 1.41089C15.34 1.27089 14.83 1.35089 14.49 1.64089C14.28 1.78089 14.16 1.94089 14.09 2.11089C14.0155 2.07542 13.9387 2.04534 13.86 2.02089C13.14 1.89089 12.76 2.17089 12.59 2.42089C12.52 2.54089 12.47 2.65089 12.44 2.76089L12.12 2.75089C11.66 2.72089 11 2.69089 10.65 3.07089C10.5937 3.06099 10.5362 3.06099 10.48 3.07089C9.78602 3.15448 9.12858 3.42783 8.57996 3.86089C8.56617 3.81495 8.54597 3.77119 8.51996 3.73089C7.95996 2.96089 7.31996 3.12089 7.13996 3.19089C6.57996 3.39089 6.19996 4.09089 6.26996 4.80089C6.26996 4.90089 6.28996 4.98089 6.31996 5.07089C5.84996 5.11089 5.47996 5.49089 5.39996 6.02089C5.34996 6.37089 5.43996 6.69089 5.63996 6.92089C5.54705 7.01503 5.4827 7.13356 5.45439 7.26276C5.42607 7.39195 5.43494 7.52653 5.47996 7.65089L5.19996 7.95089C4.82996 7.80089 4.33996 8.00089 4.15996 8.38089C4.10534 8.48918 4.07606 8.60847 4.07432 8.72974C4.07259 8.85101 4.09845 8.97109 4.14996 9.08089C3.99646 9.15555 3.86538 9.26938 3.76996 9.41089C3.47996 9.81089 3.43996 10.4209 3.54996 10.8309C3.67996 11.2209 4.00996 11.3809 4.22996 11.4509C3.69996 11.4509 3.17996 11.9509 2.84996 12.4309C2.69996 12.6609 2.36996 13.2109 2.49996 13.7109L2.47996 13.7509C1.99996 14.7509 2.11996 15.7109 2.22996 16.5609L2.24996 16.6809C2.14996 16.6309 2.04996 16.6009 1.94996 16.5809C1.38996 16.4909 0.819957 16.7609 0.549957 17.2409C0.269957 17.7709 0.299957 18.3409 0.609957 18.8409C0.792995 19.1188 1.0425 19.3467 1.33586 19.5039C1.62922 19.661 1.95716 19.7425 2.28996 19.7409H2.36996C2.68996 19.7409 2.96996 19.6609 3.20996 19.5309C3.27996 20.0609 3.50996 20.4309 3.90996 20.5709C3.85996 20.9309 4.07996 21.3109 4.21996 21.5509L4.25996 21.6209L4.29996 21.6709C4.32996 21.8409 4.41996 21.9809 4.53996 22.0909C4.40996 22.2709 4.33996 22.4909 4.32996 22.7009C4.32996 22.9009 4.37996 23.5709 5.40996 23.8409H5.47996C5.63996 23.8409 5.79996 23.8109 5.95996 23.7409C6.02422 23.8641 6.11674 23.9703 6.22996 24.0509C6.19996 24.3509 6.26996 24.6309 6.43996 24.8909L6.49996 25.0309C6.60996 25.3309 6.80996 25.8309 7.19996 26.0309C7.20581 26.1087 7.22978 26.184 7.26996 26.2509C7.64996 26.8309 8.18996 27.2909 8.83996 27.6009C8.63996 27.8309 8.52996 28.1609 8.54996 28.4909C8.59996 28.9509 8.94996 29.4709 9.84996 29.5409C10.6 29.5209 11.28 28.9009 11.41 28.0809C11.64 28.5809 12.17 28.9609 13.08 29.2809C13.13 29.3109 13.18 29.3209 13.25 29.3209C13.32 29.3209 13.42 29.2909 13.46 29.2809C13.5307 29.2572 13.5953 29.218 13.649 29.166C13.7026 29.1141 13.744 29.0509 13.77 28.9809C14.07 29.1809 14.47 29.2109 14.77 29.2309C14.86 29.2309 15.03 29.2409 15.1 29.2709C15.19 29.2909 15.28 29.2909 15.36 29.2709C15.4 29.3809 15.46 29.5009 15.52 29.5909C15.69 29.8209 15.94 29.9509 16.19 29.9509H16.24C16.7 29.9909 17.11 29.7709 17.36 29.3809C17.59 29.0209 17.63 28.5609 17.47 28.1609H17.49C17.84 29.1109 18.69 29.1809 19.57 29.2609H19.82C20.16 29.2609 20.34 29.1009 20.43 28.9709C20.63 28.6909 20.54 28.3509 20.47 28.1109C20.52 28.1009 20.57 28.0809 20.6 28.0509C20.5933 28.1174 20.5933 28.1844 20.6 28.2509C20.6 28.7309 20.95 29.1809 21.39 29.2809C21.46 29.3009 21.55 29.3009 21.61 29.2809C22.62 29.0709 22.85 28.5309 22.89 28.2209C22.97 27.7209 22.65 27.1909 22.09 26.8809H22.07L22.67 26.5509C22.81 26.6009 22.93 26.6209 23.05 26.6109C23.32 26.6009 23.55 26.4609 23.7 26.2409C23.7327 26.2528 23.7661 26.2628 23.8 26.2709C23.9 26.3109 24.02 26.3109 24.12 26.2709C25.33 25.8309 25.79 25.4909 25.89 24.9809C25.9166 24.8024 25.885 24.6201 25.8 24.4609C26.06 24.2109 26.22 23.8609 26.37 23.5309C26.6 23.8509 27.02 23.9609 27.48 23.8309C27.88 23.7209 28.21 23.3709 28.33 22.9309C28.45 22.5309 28.37 22.1409 28.11 21.8609C28.0649 21.8109 28.0106 21.7702 27.95 21.7409L27.84 21.6809C27.9297 21.5409 27.9909 21.3846 28.02 21.2209C28.67 20.9209 29.14 20.2509 29.46 19.7909C29.5188 19.7052 29.5495 19.6033 29.5477 19.4993C29.5459 19.3953 29.5117 19.2945 29.45 19.2109C29.4261 19.1785 29.3994 19.1484 29.37 19.1209C29.75 18.4709 29.7 17.7509 29.64 17.1609C29.74 17.1909 29.84 17.1909 29.92 17.1809C30.41 17.1809 30.81 16.8809 30.96 16.4109C31.02 16.2409 31.04 16.0609 31.03 15.8709C31.3 15.8009 31.52 15.6009 31.63 15.3309C31.83 14.8309 31.64 14.2009 31.36 13.8809ZM21.72 21.7709C21.6399 21.6842 21.5317 21.6285 21.4146 21.6139C21.2974 21.5993 21.1789 21.6265 21.08 21.6909C21 21.7509 20.81 21.8709 20.78 22.1209C20.75 22.3009 20.82 22.4309 20.88 22.5209C20.8 22.5909 20.71 22.6409 20.61 22.7009C20.4811 22.7843 20.3544 22.871 20.23 22.9609C19.76 22.9109 19.26 23.1609 18.85 23.3809C18.57 23.5209 18.25 23.6809 18.07 23.6909C17.96 23.5109 17.77 23.2909 17.42 23.3309C17.3121 23.3506 17.2126 23.402 17.1342 23.4786C17.0558 23.5552 17.0021 23.6535 16.98 23.7609L16.4 23.8409C16.35 23.8509 16.3 23.8609 16.25 23.8909C15.6793 23.6872 15.0756 23.5922 14.47 23.6109H14.4L14 23.5809C14 23.4909 13.98 23.4109 13.93 23.3309C13.8823 23.2405 13.814 23.1626 13.7306 23.1035C13.6472 23.0444 13.5511 23.0058 13.45 22.9909C13.3517 22.974 13.2507 22.9869 13.1598 23.0279C13.0689 23.0689 12.9924 23.1361 12.94 23.2209C12.8056 23.1966 12.6747 23.1563 12.55 23.1009C12.5544 22.9859 12.5191 22.8729 12.45 22.7809C12.15 22.3809 11.65 22.0809 11.15 21.7809C10.92 21.6309 10.7 21.5009 10.53 21.3709V21.2009C10.5111 21.0899 10.4618 20.9863 10.3877 20.9016C10.3136 20.8169 10.2174 20.7544 10.11 20.7209C10.2853 20.6837 10.4475 20.6 10.5794 20.4786C10.7114 20.3572 10.8083 20.2026 10.86 20.0309C11 19.5809 10.81 19.0409 10.43 18.7809C10.2362 18.6507 10.001 18.5972 9.76996 18.6309C10.24 18.4609 10.41 18.1509 10.47 17.9609C10.6 17.5409 10.42 17.0609 10.03 16.7609C9.72996 16.5309 9.38996 16.4609 9.05996 16.5309C9.01959 16.072 8.99957 15.6116 8.99996 15.1509C9.74996 15.1309 10.1 14.7209 10.17 14.3209L10.29 14.3409C10.82 14.3409 11.24 14.0409 11.39 13.5409C11.475 13.2609 11.4727 12.9616 11.3834 12.6829C11.2941 12.4042 11.122 12.1593 10.89 11.9809C10.79 11.9209 10.59 11.8109 10.32 11.8109C10.41 11.7009 10.53 11.5909 10.71 11.5109C10.7989 11.603 10.9193 11.6582 11.0471 11.6656C11.175 11.673 11.3009 11.6321 11.4 11.5509L11.49 11.4809L11.53 11.4509L11.54 11.4309C11.66 11.4709 11.79 11.4909 11.92 11.4909C12.19 11.4909 12.75 11.3109 13.08 10.9809H13.11C13.56 11.0809 14.06 10.7609 14.29 10.4409C14.56 10.0709 14.44 9.78089 14.38 9.66089C14.3373 9.58624 14.2798 9.52111 14.211 9.46951C14.1422 9.41792 14.0636 9.38095 13.98 9.36089C14.19 9.25089 14.41 9.14089 14.63 9.05089C14.83 9.30089 15.12 9.40089 15.39 9.32089C15.4289 9.30531 15.4658 9.28517 15.5 9.26089C15.5644 9.22046 15.6218 9.1698 15.67 9.11089C16.01 9.30089 16.37 9.38089 16.74 9.38089C16.41 9.68089 16.15 10.0209 16.01 10.3809C15.9476 10.4737 15.9169 10.5842 15.9223 10.6959C15.9277 10.8075 15.969 10.9145 16.04 11.0009C16.13 11.1009 16.27 11.1709 16.39 11.1709H16.52C16.64 11.1509 16.75 11.0909 16.85 11.0509C17.2281 10.8476 17.6507 10.7411 18.08 10.7409C17.96 10.8509 17.86 10.9709 17.78 11.0909C17.48 11.5209 17.37 11.9909 17.46 12.4709C17.4773 12.5589 17.5181 12.6406 17.5779 12.7075C17.6377 12.7744 17.7144 12.8239 17.8 12.8509C17.8855 12.8793 17.9771 12.8841 18.0651 12.8647C18.1531 12.8454 18.2343 12.8026 18.3 12.7409C18.67 12.3909 19.15 12.1709 19.65 12.1309C19.61 12.3109 19.61 12.4909 19.65 12.6409C19.66 12.8009 19.75 12.9409 19.89 13.0309C20.09 13.1609 20.4 13.1009 20.55 12.9109C20.84 12.5409 21.29 12.3009 21.73 12.2909C21.8965 12.2928 22.0605 12.3325 22.2094 12.407C22.3584 12.4814 22.4885 12.5888 22.59 12.7209C22.54 13.0309 22.64 13.3009 22.79 13.5309C22.55 13.5709 22.35 13.6709 22.2 13.8309C22.03 14.0109 21.8 14.4009 22.03 15.0709C22.0563 15.1389 22.0973 15.2004 22.15 15.2509C22.68 15.7809 23.21 15.6909 23.51 15.4509L23.56 15.4009C23.5977 15.476 23.6214 15.5573 23.63 15.6409C23.5475 15.7274 23.483 15.8294 23.44 15.9409L23.41 16.0109C23.3656 16.1943 23.3588 16.3848 23.39 16.5709C23.3075 16.5557 23.2233 16.5523 23.14 16.5609C22.88 16.5609 22.39 16.6909 22.05 17.4209C21.91 17.8509 22.01 18.2609 22.32 18.5409C22.64 18.8309 23.12 18.9109 23.5 18.7509H23.52L23.5 18.8109C23.4243 18.8893 23.3757 18.9898 23.3613 19.0977C23.3469 19.2057 23.3675 19.3155 23.42 19.4109C23.45 19.4709 23.5 19.5309 23.56 19.5709C23.5062 19.7199 23.4393 19.8638 23.36 20.0009C22.86 20.2709 22.56 20.7009 22.28 21.1309C22.11 21.3809 21.94 21.6309 21.75 21.8109L21.72 21.7709Z" fill="#30302F"/>
<path d="M14.46 8.56951C13.86 8.81951 13.24 9.11951 12.75 9.55951C12.6316 9.39453 12.4633 9.27186 12.27 9.20951C12.8 8.84951 13.46 8.68951 13.84 8.14951C13.9 8.06951 14.06 7.81951 14.02 7.74951C13.56 6.81951 13.24 5.77951 12.79 4.82951C12.89 4.83951 13.09 4.65951 13.17 4.82951C13.47 5.77951 13.83 6.74951 14.23 7.70951C14.23 7.70951 14.51 8.54951 14.46 8.56951ZM12.81 10.3895C12.64 9.94951 12.37 9.29951 11.86 9.51951C11.25 10.0095 11.94 10.8095 12.09 10.2195C12.09 10.1095 11.82 10.1395 11.85 9.97951C12.14 9.42951 12.69 10.3995 12.19 10.6395C11.63 10.9995 11.09 10.1595 11.39 9.67951C11.81 8.70951 13.25 8.67951 13.67 7.73951L13.44 7.18951C13 8.27951 11.4 8.55951 10.82 9.49951C10.98 9.65951 10.9 9.93951 10.69 10.0295C11.03 10.4495 11.41 11.0095 11.9 10.9995C12.14 10.9995 12.91 10.7195 12.81 10.3995V10.3895ZM13.21 10.4995C13.74 10.6795 14.47 9.64951 13.67 9.72951C13.58 9.69951 13.39 9.92951 13.54 9.92951C13.69 9.81951 13.88 10.0795 13.71 10.1795C13.37 10.4295 12.96 9.91951 13.28 9.63951L13.23 9.56951C13.11 9.64951 13 9.73951 12.9 9.82951C12.97 10.0195 13.1 10.2295 13.13 10.4295C13.17 10.4795 13.13 10.4995 13.21 10.4995ZM12.58 26.6595C12.89 25.8795 13.01 25.0095 13.31 24.2195C13.34 24.0195 13.71 23.5395 13.36 23.4795C13.1 23.8795 13.07 24.5095 12.92 24.9795C12.87 25.5295 12.44 26.1095 12.58 26.6595ZM12.05 23.0795C11.65 22.5495 10.7 22.1495 10.15 21.7095C9.98005 21.8995 9.53005 22.3195 9.27005 22.5595C9.7896 23.1973 10.514 23.6354 11.32 23.7995C11.79 23.8695 12.02 23.2595 12.05 23.0795ZM12.85 27.6395C12.93 27.6495 12.95 27.5995 12.97 27.4895C13.15 26.8395 13.14 26.0895 13.57 25.5495L13.25 25.4495C13.05 25.8595 13.1 27.0195 12.51 26.9595C12.46 27.3595 12.32 27.5995 12.84 27.6395H12.85ZM8.13005 21.6895C8.08959 21.7628 8.03911 21.8301 7.98005 21.8895L8.13005 22.0595C8.17005 21.9495 8.14005 21.8095 8.13005 21.6895ZM16.16 24.4095C15.96 24.0695 14.06 24.1395 13.7 24.0395C13.6 24.2895 13.37 25.0095 13.34 25.1595C14.04 25.3595 14.52 25.4395 15.24 25.4395C16.12 25.4795 16.39 25.2895 16.16 24.4095ZM8.42005 20.4995H8.50005L8.51005 20.4695C8.71005 20.4395 8.99005 20.3195 9.05005 20.0995C8.63005 19.4195 8.18005 18.7295 7.91005 17.9495L6.81005 18.2595C6.87005 18.9295 7.58005 20.3195 8.42005 20.4995ZM7.94005 22.2995L7.72005 22.0495C7.58921 22.0984 7.44786 22.1122 7.31005 22.0895C7.24582 22.1147 7.17859 22.1315 7.11005 22.1395C7.06005 22.3295 6.95005 22.4995 6.85005 22.6395C6.93005 22.7395 7.02005 22.8395 7.10005 22.9595C7.33005 22.7595 7.66005 22.5195 7.94005 22.3095V22.2995ZM7.38005 16.2995C7.62005 16.2895 7.87005 16.2795 7.82005 15.9195C7.7449 15.1187 7.77853 14.3113 7.92005 13.5195L6.79005 13.3195C6.65005 14.1395 6.29005 16.1695 7.39005 16.2895L7.38005 16.2995ZM7.21005 16.5895C7.21005 16.8295 7.24005 17.0595 7.29005 17.2895L7.83005 17.1395L7.73005 16.5595C7.55979 16.5998 7.3838 16.6099 7.21005 16.5895ZM8.51005 22.0895L8.46005 22.0195C8.46005 22.0795 8.43005 22.1395 8.41005 22.1995L8.51005 22.0795V22.0895ZM8.98005 21.5695C8.84005 21.4195 8.46005 20.9995 8.82005 20.9095C9.01005 20.9495 9.02005 21.2495 9.19005 21.3495C9.29005 21.2495 9.39005 21.1295 9.50005 21.0395L9.10005 20.5495H9.07005C8.44005 21.0295 7.87005 20.7095 7.42005 20.1895C7.69005 20.5895 8.08005 21.1295 8.72005 21.8495L8.98005 21.5695ZM22.36 6.94951C22.26 7.15951 22.19 7.39951 22.06 7.51951C22.2 7.63951 22.32 7.77951 22.47 7.91951C22.67 7.58951 22.57 7.06951 22.36 6.94951ZM6.49005 6.90951C6.25005 7.04951 5.83005 7.25951 5.96005 7.50951C6.27005 7.99951 6.93005 8.16951 7.36005 8.53951C9.04005 9.57951 7.02005 11.2095 7.07005 12.6695L7.40005 12.7295C7.43005 12.5295 7.45005 12.2995 7.55005 12.1095C7.00005 10.7795 9.53005 9.53951 7.98005 8.60951C7.25005 7.99951 5.47005 7.22951 7.50005 6.87951C8.13005 6.97951 8.82005 7.97951 9.34005 8.32951L9.43005 8.22951C8.42005 7.69951 7.80005 5.81951 6.49005 6.89951V6.90951ZM23.27 7.21951C23.15 7.55951 22.92 7.81951 22.67 8.06951C22.92 8.19951 23.15 8.30951 23.44 8.33951C23.5219 7.95794 23.4614 7.55962 23.27 7.21951ZM22.11 6.52951C22.11 6.48951 22.12 6.42951 22.11 6.38951L21.44 6.37951C21.37 6.83951 22.02 6.91951 22.11 6.52951ZM21.43 6.95951C21.37 7.00951 21.33 7.13951 21.31 7.27951C21.41 7.32951 21.88 7.44951 21.88 7.44951C22.09 6.97951 21.72 6.71951 21.43 6.94951V6.95951ZM22.93 7.19951C23.05 7.05951 23.23 6.74951 23.21 6.34951L22.57 6.33951C22.67 6.48951 22.74 7.35951 22.94 7.19951H22.93ZM23.91 7.21951C24.07 6.98951 24.1 6.67951 24.09 6.40951L23.54 6.39951C23.69 6.69951 23.76 7.08951 23.75 7.42951C23.82 7.38951 23.87 7.27951 23.91 7.22951V7.21951ZM24.5 6.05951C24.25 6.07951 23.47 6.06951 22.33 6.06951C21.09 6.06951 20.45 5.99951 20.36 6.17951C20.21 6.47951 20.06 7.03951 19.76 7.15951C19.46 7.28951 17.96 7.14951 17.62 7.13951C17.38 7.12951 17.52 6.79951 17.09 6.77951C16.66 6.75951 16.64 6.99951 16.63 7.13951C16.63 7.25951 16.69 7.55951 17.05 7.58951C17.39 7.61951 17.34 7.35951 17.71 7.36951C18.08 7.37951 19.33 7.52951 19.64 7.52951C19.84 7.52951 21 7.56951 21.42 7.75951C21.8 7.91951 21.85 8.06951 22.22 8.28951C22.58 8.50951 23.1 8.86951 24.28 8.84951L24.24 8.72951C23.8264 8.78145 23.4063 8.72697 23.0196 8.57123C22.6328 8.41549 22.2923 8.16364 22.03 7.83951C21.59 7.27951 19.97 7.67951 20.23 6.98951C20.58 6.31951 20.42 6.02951 21.37 6.14951C21.82 6.05951 24.45 6.39951 24.5 6.04951V6.05951ZM23.95 7.52951C23.84 7.97951 23.8 8.27951 23.74 8.44951L24.19 8.49951L24.29 8.27951C24.38 8.02951 24.19 7.69951 23.95 7.52951ZM20.9 4.33951C21.26 4.71951 21.34 5.42951 21.09 5.79951H20.43C20.38 5.79951 20.17 5.80951 20.05 5.90951C20.0076 5.94896 19.9736 5.99658 19.95 6.04951C19.909 6.12399 19.8819 6.20531 19.87 6.28951C19.6476 6.24037 19.4446 6.12684 19.2863 5.96308C19.128 5.79932 19.0214 5.59257 18.9798 5.36863C18.9382 5.14468 18.9635 4.91345 19.0524 4.70376C19.1414 4.49408 19.2901 4.31522 19.48 4.18951C19.54 4.14951 19.97 4.04951 20.34 4.16951L20.9 4.33951ZM20.63 5.18951C20.63 5.04894 20.5742 4.91414 20.4748 4.81474C20.3754 4.71535 20.2406 4.65951 20.1 4.65951C19.9595 4.65951 19.8247 4.71535 19.7253 4.81474C19.6259 4.91414 19.57 5.04894 19.57 5.18951C19.57 5.3314 19.6264 5.46748 19.7267 5.56781C19.8271 5.66814 19.9632 5.72451 20.105 5.72451C20.2469 5.72451 20.383 5.66814 20.4834 5.56781C20.5837 5.46748 20.64 5.3314 20.64 5.18951H20.63ZM15.61 2.99951C15.54 2.91951 15.45 3.03951 15.46 3.10951C15.5 3.25951 15.76 3.20951 15.87 3.20951C16.39 2.80951 15.17 2.04951 14.92 2.83951C14.73 3.39951 15.19 3.50951 16.08 3.73951C16.97 3.96951 17.2 5.79951 18.68 4.51951C18.55 4.46951 18.48 4.35951 18.42 4.23951C18.24 4.35951 17.8 4.60951 17.75 4.56951C16.95 4.63951 17 3.23951 15.83 3.42951C14.83 3.57951 15.34 2.31951 15.78 2.89951C15.78 2.98951 15.68 3.06951 15.61 2.99951ZM24.71 8.62951C24.78 8.87951 24.84 9.17951 24.61 9.37951H24.6C25.3 9.97951 25.92 10.6895 26.36 11.4895C26.53 11.7895 26.61 11.7095 26.53 11.3795C26.49 11.2395 26.52 11.0395 26.48 10.9195C26.182 9.96407 25.5502 9.14772 24.7 8.61951L24.71 8.62951ZM24.79 10.8695C25.09 10.7895 25.39 10.8795 25.63 11.0495C25.81 11.1595 25.85 11.0495 25.7 10.8595C25.33 10.3595 24.88 9.89951 24.4 9.48951C24.2 9.58951 24.16 9.85951 24.1 10.0395C24.37 10.2795 24.62 10.5495 24.8 10.8695H24.79ZM26.65 10.2695C26.638 10.0897 26.6314 9.90967 26.63 9.72951C26.43 9.62951 26.26 9.50951 26.09 9.37951C26.09 9.47951 26.12 9.57951 26.13 9.67951C26.27 9.86951 26.4 10.0695 26.51 10.2795C26.59 10.4195 26.67 10.4195 26.65 10.2795V10.2695ZM17.35 8.74951C20.5 7.78951 18.87 9.57951 20.22 10.0495C19.92 9.52951 19.86 8.69951 19.45 8.28951C18.7037 8.09314 17.9108 8.18601 17.23 8.54951C14.8 8.94951 14.55 4.94951 17.2 5.67951C17.7493 6.00436 18.3831 6.15758 19.02 6.11951C18.7441 5.81297 18.5973 5.41173 18.61 4.99951C18.61 4.93951 18.53 4.91951 18.48 4.95951C18.38 5.03951 18.28 5.09951 18.15 5.13951C18.13 5.29951 18.47 5.76951 18.11 5.65951C17.31 4.85951 16.35 5.02951 15.4 5.80951C14.1 7.10951 15.6 9.48951 17.34 8.74951H17.35ZM18.5 10.3195C18.65 10.3695 18.8 10.4095 18.93 10.4795C19.2 10.3095 19.61 10.4095 19.3 9.99951C19.17 9.69951 19.15 9.09951 18.78 8.99951C17.8 9.02951 16.78 9.73951 16.43 10.6595L16.41 10.6795H16.44C16.49 10.7395 17.47 10.0095 18.5 10.3195ZM18.97 28.0395C19.17 28.0795 18.95 27.6495 18.75 27.0995C18.69 26.9495 18.65 26.9895 18.63 27.1395C18.6231 27.2125 18.6008 27.2832 18.5646 27.347C18.5284 27.4107 18.4792 27.4661 18.42 27.5095C18.45 27.9095 18.59 28.0395 18.97 28.0395ZM17.26 24.8395C17.21 24.6895 17.19 24.3995 17.13 24.2595L16.46 24.3495C16.52 24.5095 16.55 24.6495 16.54 24.7795V24.8495H17.26V24.8395ZM18.52 26.1095C18.52 25.8895 18.55 25.6795 18.67 25.5095L18.35 25.6095C18.36 25.7395 18.41 25.9195 18.47 26.1195C18.5 26.2195 18.52 26.2195 18.52 26.1095ZM20.5 23.6495C19.93 23.0095 18.82 24.2195 18.05 24.1995L18.29 25.2995C19.03 24.9795 21.09 24.8995 20.5 23.6495ZM10.04 21.2995C9.89005 20.5995 7.89005 23.3695 7.60005 23.6695L7.61005 23.7495C8.35005 22.8895 9.39005 22.2095 10.04 21.2995ZM7.41005 21.7995C7.67005 21.7995 7.91005 21.6295 7.91005 21.3495C7.28005 20.7695 6.83005 19.1595 5.78005 19.8195C6.25005 20.5295 6.59005 21.5295 7.41005 21.7995ZM5.38005 19.9995C5.62005 20.7995 6.53005 21.4095 6.73005 22.2495C7.03005 21.6495 5.75005 20.8295 5.50005 19.9495L5.38005 19.9995ZM7.41005 24.0495C7.38005 24.2595 7.43005 24.4595 7.55005 24.6195C8.05005 24.0295 8.45005 23.1695 9.25005 22.9695C9.18157 22.9047 9.11487 22.838 9.05005 22.7695C8.51005 23.1095 8.07005 24.1095 7.41005 24.0495ZM27.67 20.3795C28.87 19.3295 26.2 19.7595 25.94 19.0895L25.84 19.3495C26.27 19.5695 27.75 19.5995 27.44 20.3095C27.51 20.3395 27.6 20.3795 27.67 20.3795ZM28.5 11.8695C28.59 12.5195 28.74 13.2195 28.98 14.0095C29.16 13.9595 29.76 13.8195 29.98 13.7795C29.58 12.8595 29.93 11.6895 29.8 10.6495C29.1 10.0495 28.5 11.2495 28.5 11.8695ZM22.93 23.4095C23.19 23.8695 24.2 24.4395 23.75 25.0095C23.82 25.0695 23.92 25.1095 24.02 25.1095C25.06 24.8195 23.02 23.8095 23.2 23.1395L22.93 23.4095ZM23.85 19.3295C24.93 19.6295 25.92 19.8995 26.98 20.2295C27.87 20.0295 24.12 19.2795 23.86 19.1495V19.3295H23.85ZM25.45 20.6895L25.71 20.7995L25.85 20.5695C25.69 20.5195 25.48 20.5095 25.45 20.6895ZM26.32 21.5195C26.59 21.4095 27 21.5495 27.26 21.6395C27.36 21.4895 27.49 21.3395 27.53 21.1595C26.93 21.0195 27.38 21.1395 26.15 20.6695L25.97 20.9695C26.07 21.0595 26.29 21.2495 26.32 21.5195ZM25.32 20.9695C25.13 21.3195 24.88 21.7295 24.53 22.1595C24.03 22.6995 23.9 23.0295 24.74 23.6195C25.17 22.8395 26.91 21.4395 25.32 20.9595V20.9695ZM3.89005 13.1595C4.72005 13.4095 5.63005 13.2195 6.44005 13.5095L6.49005 13.2795C6.02005 13.0795 4.39005 13.3795 4.72005 12.5395C4.32005 12.3595 4.03005 12.8395 3.89005 13.1595ZM7.76005 7.31951C7.50005 7.03951 7.16005 7.30951 6.86005 7.40951C7.53005 7.96951 8.24005 8.38951 8.80005 9.10951L8.95005 8.93951C8.67005 8.58951 7.10005 7.56951 7.76005 7.31951ZM7.70005 12.7995L8.16005 12.8895L8.20005 12.5895C8.04005 12.5595 7.92005 12.4895 7.78005 12.3795C7.74485 12.5177 7.71813 12.658 7.70005 12.7995ZM8.62005 11.9895C8.97005 11.1095 9.40005 10.3795 9.92005 9.76951L9.64005 9.50951L9.18005 9.11951C8.78005 9.77951 6.93005 11.8495 8.29005 12.2995C8.45005 12.2995 8.56005 12.1195 8.62005 11.9895ZM10.13 10.5295C10.0504 10.4521 9.96698 10.3787 9.88005 10.3095C9.27005 10.9395 9.15005 12.0495 8.51005 12.5595C8.50005 12.7095 8.46005 12.8595 8.45005 12.9995C8.65005 13.1195 8.61005 13.4295 8.40005 13.5095C8.42005 13.9495 8.50005 14.4695 8.90005 14.6495C10.46 14.6895 9.27005 12.8395 9.00005 13.6895C8.86005 13.9795 9.21005 14.1895 9.26005 13.9395C9.11005 13.8795 9.17005 13.6395 9.32005 13.6395C9.56005 13.6695 9.67005 14.0095 9.50005 14.1895C9.04005 14.5595 8.64005 14.0995 8.68005 13.4195C8.77005 12.2295 9.31005 11.1595 10.13 10.5195V10.5295ZM11.22 11.0495C10.89 10.7795 10.63 10.4395 10.37 10.1095C10.29 10.1095 10.21 10.0395 10.15 9.97951C10.1198 10.0126 10.0898 10.0459 10.06 10.0795C10.47 10.3695 10.76 10.7795 11.08 11.1695L11.22 11.0495ZM9.76005 20.2495C10.92 20.2595 10.33 18.5995 9.50005 19.2895C9.53005 19.4595 9.92005 19.8895 9.99005 19.5195C9.98005 19.4895 9.96005 19.4895 9.94005 19.4895C9.66005 19.5695 9.68005 19.1295 9.95005 19.1795C10.99 19.4595 9.44005 21.1095 8.93005 18.5395C8.73732 18.5031 8.56175 18.4048 8.43005 18.2595C8.39005 18.1995 8.34005 18.2395 8.38005 18.3195C8.63005 18.8895 9.08005 19.4695 9.36005 20.0795C9.48005 20.2195 9.64005 20.2495 9.76005 20.2495ZM8.12005 17.0595C8.59005 16.9095 8.92005 17.4995 8.44005 17.7595C8.65005 18.0995 8.86005 18.2595 9.09005 18.2595C10.8 18.1695 9.76005 16.5795 8.96005 17.0995C9.00005 17.3595 9.21005 17.7195 9.42005 17.4995C9.43005 17.4895 9.42005 17.4695 9.39005 17.4695C9.26005 17.4595 9.16005 17.2695 9.30005 17.1895C9.58005 17.0095 9.90005 17.3695 9.70005 17.6395C8.33005 18.7295 8.55005 15.5895 8.48005 14.7295C8.3184 14.5154 8.20265 14.2703 8.14005 14.0095C7.94005 14.7895 8.30005 15.6595 8.01005 16.4095L8.12005 17.0595ZM9.86005 12.4895C9.53005 13.3195 10.33 13.1395 10.36 12.9795C10.36 12.9395 10.28 12.9495 10.26 12.9595C10.14 13.0595 9.92005 12.8895 10 12.7595C10.14 12.4195 10.76 12.5795 10.66 12.9695C9.81005 14.5195 8.76005 11.8095 10.56 11.0195C10.489 10.9277 10.4156 10.8377 10.34 10.7495C9.65005 11.2495 9.17005 12.1495 9.00005 13.1995C9.30005 13.0895 9.65005 13.2595 9.80005 13.5295C9.96005 13.6195 10.1 13.8095 10.29 13.8395C11.48 13.8395 10.89 11.6695 9.86005 12.4895ZM9.85005 7.63951C10.49 7.48951 10.98 6.90951 11.55 6.55951C11.92 6.29951 11.64 5.86951 11.48 5.57951C10.99 5.95951 8.50005 7.03951 9.85005 7.63951ZM8.00005 7.53951C7.95005 7.57951 7.90005 7.59951 7.84005 7.61951C8.66005 8.38951 9.64005 8.99951 10.41 9.81951C10.46 9.76951 10.53 9.75951 10.51 9.69951C10.42 9.35951 8.91005 8.39951 8.00005 7.53951ZM8.23005 13.0795C7.49005 12.9395 5.85005 12.7795 5.03005 12.6395C4.96005 12.7095 4.94005 12.7895 5.03005 12.8595C5.18005 12.9295 5.33005 12.9595 5.55005 12.9695C6.65005 13.0495 8.21005 13.3695 8.25005 13.2895C8.29005 13.1995 8.30005 13.1895 8.23005 13.0795ZM7.94005 6.39951C8.41005 6.79951 8.84005 7.44951 9.37005 7.79951C9.44005 7.85951 9.48005 7.84951 9.40005 7.76951C9.29506 7.67895 9.21844 7.56 9.17942 7.42696C9.14039 7.29392 9.14061 7.15243 9.18005 7.01951C8.72005 6.91951 8.44005 5.85951 7.95005 6.39951H7.94005ZM4.74005 18.4095C4.54005 18.4695 4.32005 18.5395 4.36005 18.7795C4.36005 18.9195 4.33005 19.1195 4.40005 19.1995C5.14005 19.0995 5.77005 18.5995 6.53005 18.5295L6.50005 18.3295C5.88005 18.3595 4.90005 19.3295 4.73005 18.4095H4.74005ZM5.04005 18.3095L5.06005 18.4995C9.36005 17.2395 9.32005 16.9095 5.04005 18.2995V18.3095ZM8.65005 6.10951C8.85005 6.37951 9.03005 6.53951 9.26005 6.71951H9.34005C9.88005 6.07951 10.67 5.74951 11.36 5.29951C11.23 5.04951 11.14 4.82951 10.98 4.57951C10.18 5.01951 9.28005 5.40951 8.66005 6.11951L8.65005 6.10951ZM6.22005 12.0295C6.30005 12.0495 6.38005 12.0695 6.47005 12.0695C6.57005 12.0695 6.71005 12.0695 6.76005 11.9695C6.58309 11.9742 6.40884 11.9254 6.26005 11.8295L6.22005 12.0295ZM7.38005 10.6495C7.63005 10.1995 7.89005 9.71951 7.64005 9.25951C7.54005 9.05951 7.36005 8.93951 7.19005 8.78951C6.85005 9.46951 5.60005 11.3495 6.69005 11.6695C7.13005 11.6595 7.11005 10.9495 7.38005 10.6495ZM5.10005 20.1095L4.98005 20.1495C4.76005 20.0895 4.51005 20.3395 4.41005 20.4995C4.23005 20.7495 4.73005 21.3795 4.77005 21.5595C4.84005 21.8695 5.22005 21.8495 5.47005 21.8095C6.17005 21.9395 6.20005 22.9795 5.52005 23.0095C5.34005 23.0195 4.98005 22.7995 5.06005 22.5495C5.12005 22.4495 5.29005 22.4495 5.34005 22.5695C5.46005 22.8195 5.80005 22.6495 5.71005 22.4095C5.31005 21.5195 4.09005 22.9795 5.43005 23.3395C5.78005 23.3495 6.10005 23.1395 6.27005 22.8495C6.83005 21.8195 5.30005 21.0995 5.10005 20.1095ZM6.64005 22.8895C6.44005 23.1095 6.19005 23.4095 6.51005 23.6495C6.61005 23.4795 6.73005 23.3095 6.87005 23.1595C6.77005 23.0895 6.72005 22.9795 6.65005 22.8895H6.64005ZM8.25005 24.9995C9.38005 22.5995 10.91 24.3595 12.64 24.8795L12.93 23.7195C12.6858 23.6813 12.4494 23.6036 12.23 23.4895C11.62 24.8295 10.24 23.5895 9.39005 23.2495C8.62005 23.2995 8.19005 24.5995 7.57005 24.9895C6.50005 24.3695 7.54005 23.1695 8.09005 22.5695C7.43005 23.0695 6.29005 23.7295 6.91005 24.6895C7.06005 25.0395 7.25005 25.6695 7.60005 25.6295C7.83005 25.6295 8.08005 25.3595 8.25005 24.9995ZM7.09005 19.7295C6.89005 19.4195 6.73005 19.0895 6.62005 18.8295C5.94005 18.7295 4.30005 20.1495 4.08005 19.1295C4.00005 18.7095 4.08005 18.2295 4.58005 18.1395L6.38005 17.5595C6.35091 17.5006 6.32422 17.4406 6.30005 17.3795C5.71005 17.8295 4.78005 17.6395 4.16005 18.0495C3.66005 18.1995 3.48005 19.8895 4.09005 20.0895C6.29005 19.3295 6.59005 19.1095 7.09005 19.7295ZM7.93005 25.7895L7.70005 25.9695C8.06005 26.5195 8.60005 26.9595 9.23005 27.2095C9.83005 27.3395 10.78 28.0295 10.07 28.6195C9.79005 28.8895 9.03005 28.3295 9.51005 28.1195C9.57005 28.1195 9.65005 28.1695 9.66005 28.2595C9.73005 28.4995 10.07 28.3195 10.01 28.1395C9.44005 26.8995 8.27005 28.8995 9.85005 29.0195C10.36 29.0195 10.85 28.5695 10.92 28.0595C10.9 26.8695 8.52005 26.8795 7.92005 25.7895H7.93005ZM4.03005 17.2895C4.03005 17.4395 4.07005 17.5895 4.13005 17.7295L4.33005 17.6395L4.19005 17.1695C4.11005 17.1795 4.06005 17.2595 4.02005 17.2995L4.03005 17.2895ZM11.18 25.2395C11.41 25.2095 11.68 25.0895 11.79 24.8895C11.02 24.6395 9.79005 23.4295 9.13005 24.2995C9.78005 24.6595 10.44 25.0795 11.18 25.2395ZM10.48 26.8495C10.73 26.8695 10.8 26.5895 10.8 26.4995C10.73 25.6795 9.20005 25.4495 8.63005 24.9695C7.72005 26.1295 9.68005 26.5795 10.47 26.8495H10.48ZM4.62005 17.5495L4.86005 17.4895C4.81894 17.311 4.78558 17.1309 4.76005 16.9495C4.68291 17.022 4.59072 17.0767 4.49005 17.1095L4.62005 17.5495ZM5.01005 11.7495C5.08005 11.7595 5.70005 11.8795 5.93005 11.9495C5.96005 11.8295 5.99005 11.6595 6.04005 11.5595L5.98005 11.2695C5.70005 11.3995 5.35005 11.4695 5.04005 11.4195L5.01005 11.7495ZM3.45005 14.1595C3.27005 14.1395 3.07005 14.1495 2.94005 13.9595C2.16005 15.5895 3.22005 17.1595 2.63005 18.2795C2.09005 19.0795 0.840047 18.2095 1.57005 17.5195C1.67005 17.4395 1.83005 17.4995 1.87005 17.6195C1.94005 17.7595 1.72005 17.8495 1.74005 17.9695C1.83005 18.5395 2.59005 18.0395 2.44005 17.6495C2.29005 16.8695 1.31005 16.9195 1.00005 17.4595C0.520047 18.3795 1.42005 19.2695 2.36005 19.2295C4.76005 19.1595 2.53005 15.6295 3.45005 14.1595ZM4.62005 11.0395C4.85005 11.0895 5.09005 11.1395 5.32005 11.1395C6.32005 11.2095 6.23005 9.35951 6.95005 8.60951L6.34005 8.22951C5.46005 8.77951 5.68005 10.7095 4.82005 10.7495C4.32005 10.7995 4.01005 9.94951 4.60005 9.87951C4.87005 9.86951 4.85005 10.2495 4.59005 10.1995C4.53005 10.3295 4.71005 10.4595 4.81005 10.4395C5.05005 10.4395 5.09005 10.1495 5.15005 9.96951C5.28005 9.71951 4.77005 9.47951 4.51005 9.46951C4.05005 9.51951 3.93005 10.2995 4.03005 10.6595C4.13005 10.9395 4.46005 10.9795 4.62005 11.0395ZM3.94005 17.0195C4.14005 17.0195 4.36005 16.8395 4.51005 16.7995C4.93005 16.2195 4.44005 14.9395 4.58005 14.1795C3.64005 13.8795 3.55005 14.6495 3.65005 15.3695C3.76005 15.7695 3.52005 16.8695 3.94005 17.0195ZM5.28005 9.49951C5.43005 8.99951 5.64005 8.45951 6.06005 8.06951C6.00359 8.03017 5.95011 7.98671 5.90005 7.93951C5.72005 8.11951 5.53005 8.30951 5.41005 8.49951C5.46005 8.79951 4.99005 9.01951 4.81005 8.73951C4.75005 8.59951 4.94005 8.45951 5.07005 8.56951C5.22005 8.13951 3.73005 8.59951 5.28005 9.49951ZM6.67005 17.4795L6.99005 17.3795C6.92961 17.0867 6.89945 16.7885 6.90005 16.4895C6.17005 15.9095 6.33005 14.6895 6.38005 13.8295C5.58005 13.4295 4.30005 13.8495 3.61005 13.3095C3.51005 12.6495 4.39005 11.8795 5.05005 12.3295C5.62005 12.4095 6.20005 12.4995 6.77005 12.6095C6.77005 12.5095 6.79005 12.4295 6.80005 12.3295C6.00005 12.5195 5.10005 11.9495 4.28005 11.9595C3.61005 11.8495 2.18005 13.9595 3.52005 13.8195C7.50005 13.7795 5.60005 14.8495 6.67005 17.4795ZM4.85005 14.2195C4.82005 15.2495 4.99005 16.3195 5.15005 17.4295C5.41005 17.3195 6.04005 17.4295 6.08005 17.0195L5.96005 15.4495C5.92005 15.0595 6.02005 14.2795 5.49005 14.2995L4.85005 14.2195ZM11.89 25.2595C10.96 26.0095 9.85005 24.9995 8.93005 24.5595C8.88534 24.6151 8.842 24.6718 8.80005 24.7295C12.83 26.4995 9.93005 26.6195 11.5 27.3295C11.45 26.6795 12.22 25.8295 11.9 25.2595H11.89ZM21.97 24.3795C22.37 25.5395 20.46 25.9795 19.73 26.4595L19.8 26.6995C20.48 26.4295 21.18 26.0795 21.99 25.5995C22.25 25.4195 22.48 25.5995 22.63 25.8295C22.82 26.1795 23.19 26.2295 23.36 25.8495C22.8669 25.3861 22.4305 24.8658 22.06 24.2995L21.97 24.3795ZM20.25 27.4695L20.34 27.6295C20.8 27.2695 22.05 27.4295 22.02 28.1395C21.92 28.3795 21.42 28.5295 21.39 28.0395C21.37 27.9795 21.41 27.8495 21.37 27.8195C20.88 27.9695 21.11 28.6995 21.51 28.7895C23.61 28.3495 21.55 26.3495 20.25 27.4695ZM23.95 23.3195C23.32 22.4795 25.25 21.1495 25.4 19.9895C25.2 19.9095 25.02 19.8395 24.83 19.7895C24.68 20.0595 24.53 20.3395 24.41 20.6495C24.83 21.8495 22.73 22.7095 23.85 23.7595C24.39 24.2095 25.21 25.2495 24.01 25.4295C23.28 25.2795 22.92 24.4295 22.4 23.9495L22.28 24.0795C22.84 24.7795 23.18 25.5395 23.96 25.7995C26.39 24.9095 25.29 24.5695 23.95 23.3195ZM22.24 25.8195C21.47 26.2295 20.71 26.6795 19.89 26.9895L19.99 27.2495C20.79 26.9695 21.6 26.5895 22.45 26.0995C22.39 26.0195 22.31 25.8295 22.24 25.8195ZM26.58 21.7795C26 21.9295 25.52 23.4395 25.05 23.8495L25.38 24.1695C25.98 23.7195 26.04 22.2295 26.93 22.2195C27.19 22.1995 27.47 22.2895 27.56 22.5595C27.78 23.2895 26.49 23.1395 27.06 22.7395C27.19 22.8195 27.36 22.7495 27.23 22.5895C26.54 22.3395 26.43 23.6095 27.35 23.3495C27.78 23.2295 28.08 22.5695 27.74 22.1895C27.36 22.0095 27.01 21.8195 26.58 21.7795ZM30.98 14.1995C30.18 13.7395 29.18 14.2995 28.17 14.6195C27.83 14.7595 27.75 15.1095 27.92 15.7195C28.12 16.7195 28.07 17.7595 27.98 18.7395C28.07 18.7395 28.15 18.7595 28.23 18.7695L28.32 18.7795C28.92 17.4395 27.3 14.1795 29.97 14.8295C30.05 14.2895 30.81 14.1895 30.97 14.7595C31.05 14.9495 30.9 15.2895 30.69 15.0895C30.64 14.9895 30.69 14.8295 30.61 14.7195C30.51 14.6295 30.34 14.6795 30.29 14.8095C30.25 15.0395 30.63 15.3495 30.84 15.3995C31.36 15.3395 31.25 14.5195 30.98 14.1995ZM17.45 25.6995L17.32 25.1395H16.49C16.24 26.2995 14.64 25.4595 13.82 25.7195C13.4 26.2595 13.46 27.0195 13.24 27.6595C13.12 28.0995 12.64 27.9295 12.32 27.7995C11.89 27.4395 12.42 25.6995 12.56 25.1995L12.08 24.9995C12.99 26.3995 10.21 27.6995 13.25 28.8095H13.3C14.1 24.7995 13.67 26.0695 17.45 25.6995ZM26.28 17.9995C26.15 16.7095 26.53 15.2395 25.68 14.1495C25.12 13.3995 23.86 11.2995 23.1 12.7195C22.84 13.5395 24.6 14.0995 24.74 15.5495C26.13 15.9495 26.23 17.1795 26.08 18.4895C26.02 19.5495 27.65 19.0395 28.18 19.5895C28.41 19.9395 28.15 20.6695 27.68 20.6895C27.48 20.6695 27.26 20.5595 27.06 20.5195C26.57 20.5195 26.13 20.2595 25.68 20.0995L25.63 20.2395C26.33 20.2395 26.93 20.7995 27.62 20.8595C28.22 20.6995 28.69 20.0095 29.04 19.5095C28.37 18.5995 26.43 19.5095 26.28 17.9995ZM28.63 15.6495C28.62 16.7195 29.02 17.7995 28.62 18.8495C28.7 18.8795 28.79 18.9095 28.88 18.9595C29.55 17.9795 28.83 16.7395 29.24 15.7595C29.65 15.1395 30.58 15.8095 30.05 16.3395C29.91 16.4795 29.69 16.2395 29.85 16.1095C30.05 15.8795 29.65 15.6895 29.5 15.9195C29.2 16.2395 29.6 16.7295 29.92 16.6795C30.61 16.6795 30.72 15.7095 30.25 15.3495C29.83 14.9195 28.73 14.8795 28.63 15.6495ZM14.03 27.6795C13.92 27.6995 13.88 27.8495 13.88 27.8495C13.84 28.0295 13.89 28.2895 13.98 28.4695C14.18 28.7895 14.88 28.6795 15.23 28.7795C15.57 28.6895 15.41 28.1595 16.09 28.1495C16.89 28.1295 17.04 29.1395 16.22 29.1495C15.95 29.1995 15.97 28.8095 16.25 28.8495C16.48 28.8495 16.53 28.5195 16.28 28.4495C16.14 28.4295 15.93 28.4495 15.85 28.5595C15.71 28.8595 15.85 29.4995 16.27 29.4495C16.94 29.4795 17.24 28.7695 16.96 28.2395C16.44 27.2095 14.9 28.0495 14.03 27.6795ZM13.97 26.9295C14.8585 26.97 15.7488 26.9298 16.63 26.8095C16.8 26.6695 16.65 26.2795 16.66 26.0695C15.79 26.2495 14.07 25.6295 13.96 26.9295H13.97ZM17.02 26.7595L17.36 26.7295L17.23 26.0295C17.16 26.0295 17.06 26.0295 16.96 26.0495L17.02 26.7595ZM21.72 24.5695C21.12 25.1395 19.9 25.3295 19.67 26.1495C20.3 25.7795 21.89 25.2495 21.72 24.5695ZM22.2 23.7295L21.83 23.3095C21.53 23.5395 21.23 23.7595 20.93 23.9595C21.03 25.1895 19.41 24.9295 18.93 25.6795C18.5 26.5795 19.45 27.3495 19.35 28.1795C19.13 28.4595 18.58 28.3195 18.31 28.1495C18.18 27.9795 18.17 27.7495 18.11 27.5495C17.96 27.5195 17.88 27.3895 17.83 27.2495C17.91 28.6895 18.53 28.6595 19.8 28.7695C20.11 28.7595 20.1 28.5695 20 28.2695C18.47 24.7495 20.2 25.7695 22.2 23.7295ZM13.94 27.2295L13.92 27.4995C14.9 27.6195 16.12 27.1395 16.99 27.6995C17.19 27.6995 17.41 27.6795 17.59 27.6095C17.547 27.4144 17.497 27.221 17.44 27.0295C16.29 27.1595 15.14 27.2995 13.94 27.2295ZM21.63 23.0795C21.55 22.9895 21.45 22.8595 21.38 22.7995C21.13 22.9795 20.86 23.1295 20.6 23.2995C20.72 23.3995 20.79 23.4995 20.84 23.6395C21.11 23.4595 21.37 23.2795 21.63 23.0795ZM22.5 14.8995C23.28 15.6795 23.63 14.3195 23 14.6695C23.3 14.9495 22.7 15.0895 22.68 14.7295C22.67 13.4895 24.08 15.0695 24.12 15.5595C24.22 15.5295 24.32 15.5095 24.42 15.5095C24.09 13.6695 21.92 13.5695 22.5 14.8995ZM24.17 18.9195C24.77 17.9595 23.19 16.1595 22.52 17.5795C22.26 18.3795 23.5 18.5995 23.51 17.9595C23.35 17.9895 23.07 18.0695 22.96 17.9195C22.87 17.7595 22.9 17.5195 23.03 17.4395C23.73 17.2395 24.21 18.4095 23.99 18.8795L24.17 18.9195ZM23.9 16.1295C23.66 17.0695 25.05 17.9695 24.47 18.9895L25.55 19.2695C25.87 18.4395 26.07 17.0195 25.33 16.2495C25.12 15.9295 24.13 15.5495 23.9 16.1295ZM24.52 19.6995C24.38 19.6695 24.22 19.6295 24.08 19.5795C24.02 19.7795 23.94 19.9795 23.83 20.1795C23.98 20.2295 24.11 20.3195 24.19 20.3895L24.52 19.6995ZM23.73 11.9595L23.65 11.8895C22.45 12.0695 22.05 11.1095 20.95 11.2195C20.53 11.5595 19.97 12.0395 20.15 12.5995V12.6095C20.79 11.7795 22.12 11.3795 22.97 12.4095C23.15 12.1595 23.43 11.9495 23.73 11.9495V11.9595ZM24.59 10.9295C24.4371 10.6829 24.2521 10.4576 24.04 10.2595C23.92 10.7295 24.02 11.2295 24.1 11.4395C24.1983 11.2138 24.3763 11.0322 24.6 10.9295H24.59ZM23.92 9.12951C23.15 9.06951 22.36 8.94951 21.84 8.31951C21.11 7.69951 20.07 7.88951 19.18 7.78951C18.68 7.78951 18.13 7.61951 17.63 7.69951C17.09 8.13951 16.23 7.79951 16.29 7.05951C16.35 6.38951 17.38 6.29951 17.69 6.83951C18.35 6.79951 19.43 7.21951 19.82 6.53951C19.17 6.21951 18.37 6.40951 17.72 6.17951C17.31 5.91951 16.86 5.71951 16.36 5.82951C14.58 6.25951 15.86 8.95951 17.37 8.26951C17.97 7.83951 18.67 7.98951 19.36 8.03951C19.71 8.03951 19.81 8.39951 19.93 8.66951C20.2 9.29951 20.58 11.0095 21.47 10.6095C21.46 10.2395 21.44 9.65951 21.69 9.36951C21.76 9.23951 22.09 8.89951 22.12 9.20951C21.84 10.4695 22.3 11.6095 23.57 11.4095C23.4143 10.6831 23.5318 9.92475 23.9 9.27951C23.92 9.22951 23.93 9.17951 23.92 9.11951V9.12951ZM21.08 7.24951C21.08 6.84951 20.59 6.99951 20.56 7.24951H21.08ZM18.6 4.10951C18.64 4.17951 18.69 4.26951 18.74 4.30951H18.75C20.04 3.30951 21.1 4.52951 21.05 3.87951L21.07 3.80951C20.67 3.69951 20.22 3.54951 19.8 3.59951C19.37 3.66951 18.97 3.87951 18.6 4.10951ZM23.6 20.4395C22.88 20.8395 22.6 21.7895 21.92 22.3195L22.73 23.1895C23.23 22.5895 25.04 20.8095 23.6 20.4395ZM17.95 12.3695C18.2394 12.0909 18.5864 11.8793 18.9666 11.7497C19.3468 11.6201 19.7508 11.5756 20.15 11.6195C20.2 11.3895 20.75 11.2995 20.59 11.0695C20.1 10.8695 20.09 10.5795 19.69 10.4495C18.79 10.5995 17.76 11.4095 17.95 12.3695ZM21 6.33951C20.82 6.33951 20.7 6.45951 20.64 6.60951L20.6 6.70951H20.61C20.63 6.76951 21.09 6.57951 21 6.33951ZM17.74 24.1995L17.7 24.2195L17.71 24.0795C16.99 22.7295 18 27.1495 18.21 27.2495C18.62 27.2495 17.74 24.6395 17.74 24.1995ZM23.64 24.7295C23.22 23.8895 22.22 23.1595 21.65 22.4895L21.35 22.1095C21.25 22.1795 21.25 22.1895 21.33 22.2795C22.07 23.0795 22.78 24.0095 23.54 24.7595L23.64 24.7295ZM26.51 15.3795C26.75 15.0795 27.23 15.0595 27.52 15.2095C27.28 13.7795 26.53 11.5195 25 11.1095C24.47 11.0795 24.14 11.6895 24.32 12.1395C25.34 12.9795 26.31 14.1695 26.52 15.3795H26.51ZM25.91 7.35951V7.11951C25.94 6.87951 26.14 6.24951 26.38 5.97951C26.57 5.36951 26.31 4.31951 26.64 3.72951C26.91 2.89951 25.34 4.33951 24.94 5.84951C24.91 5.94951 25.04 5.98951 24.96 6.15951C24.93 6.21951 24.86 6.27951 24.86 6.33951C24.84 6.50951 24.84 6.67951 24.87 6.83951C25.25 6.94951 25.58 7.13951 25.9 7.35951H25.91ZM14.93 8.61951C14.97 8.71951 15.08 8.88951 15.21 8.83951C15.25 8.81951 15.25 8.73951 15.21 8.60951C15.16 8.38951 14.89 8.03951 14.71 7.59951C14.56 7.24951 14.5 6.69951 14.31 6.29951C13.53 4.56951 12.89 2.96951 13.44 2.81951C13.82 2.71951 13.96 3.13951 13.63 3.04951C13.62 3.05951 13.61 3.07951 13.59 3.07951C13.69 3.94951 14.79 2.85951 13.77 2.50951C12.37 2.26951 12.93 3.88951 13.33 4.57951C13.73 5.56951 14.01 6.44951 14.36 7.37951C14.52 7.79951 14.77 8.19951 14.93 8.62951V8.61951ZM17.72 4.23951C18.71 3.46951 19.82 2.93951 21.08 3.33951C20.91 2.53951 20.24 1.81951 19.38 2.13951C19.38 2.32951 19.84 3.41951 19.4 3.11951C19.18 2.48951 18.45 2.41951 17.87 2.49951C17.9 2.69951 18.6 3.68951 18.1 3.50951C17.9379 3.28413 17.7064 3.11809 17.4409 3.03682C17.1754 2.95555 16.8906 2.96352 16.63 3.05951L16.61 3.07951V3.11951C16.67 3.25951 16.96 3.53951 17.19 3.81951L17.52 4.24951C17.56 4.28951 17.68 4.25951 17.72 4.23951ZM14.94 2.43951C15.55 2.00951 16.24 2.46951 16.18 3.15951C16.18 3.17951 16.42 3.21951 16.41 3.18951C16.4303 3.16689 16.4441 3.13927 16.45 3.10951C16.51 2.96951 16.51 2.80951 16.47 2.68951C16.27 1.98951 15.35 1.56951 14.76 2.04951C14.23 2.39951 14.56 3.16951 14.16 3.52951C13.95 3.65951 13.68 3.61951 13.5 3.46951C13.92 4.56951 14.22 5.17951 14.6 6.25951C14.75 5.17951 15.75 4.95951 16.82 4.79951C16.82 4.79951 16.32 4.04951 15.99 3.94951C15.66 3.84951 14.91 3.74951 14.75 3.44951C14.57 3.12951 14.6 2.64951 14.95 2.43951H14.94ZM9.63005 8.45951C10.15 8.85951 10.27 8.94951 10.6 9.25951C11.13 8.23951 13.39 7.96951 13.17 6.54951L12.5 4.94951C12.32 4.64951 12.66 4.48951 12.88 4.51951C12.91 4.50951 12.94 4.47951 12.93 4.40951L12.95 4.37951C12.79 4.06951 12.65 3.57951 12.58 3.24951C12.18 3.29951 11.04 3.04951 10.92 3.50951C11.04 4.37951 11.79 5.25951 12.03 6.12951C11.91 7.25951 10.21 7.53951 9.63005 8.45951ZM7.60005 5.61951C8.70005 5.28951 9.36005 4.02951 10.58 3.83951C10.5554 3.74779 10.5386 3.65411 10.53 3.55951C9.88005 3.62951 9.23005 3.91951 8.73005 4.35951C8.33005 4.84951 7.32005 5.39951 7.10005 4.48951C7.00005 4.12951 7.73005 3.69951 7.80005 4.15951C7.78005 4.27951 7.66005 4.30951 7.56005 4.26951C6.92005 4.66951 8.36005 4.98951 8.11005 4.02951C7.08005 2.60951 5.92005 5.32951 7.60005 5.62951V5.61951ZM8.00005 5.99951C8.11662 5.93782 8.25148 5.92007 8.38005 5.94951C9.03005 5.18951 9.96005 4.77951 10.82 4.31951C10.7891 4.25121 10.7624 4.18108 10.74 4.10951C9.71005 4.63951 8.83005 5.22951 7.97005 5.93951C7.84005 6.03951 7.86005 6.05951 8.00005 5.99951ZM28.09 11.1295C28.03 10.7195 27.73 10.5295 27.45 10.5295C25.91 10.9195 27.64 13.5695 27.71 14.5695C27.96 14.2695 28.46 14.1595 28.68 14.0995C28.3802 13.1323 28.1792 12.1372 28.08 11.1295H28.09ZM27.35 9.99951C27.18 9.96951 27.01 9.89951 26.85 9.82951L26.88 10.3395C26.88 10.3895 26.97 10.4395 27.01 10.4095C27.1418 10.3262 27.2942 10.2812 27.45 10.2795L27.35 9.99951ZM27.68 18.7195C27.67 18.0195 28.06 15.5995 27.22 15.4495C26.97 15.4595 26.68 15.4995 26.54 15.8495C26.76 16.9295 25.93 18.5795 27.68 18.7195ZM28 10.0995C27.83 10.0995 27.77 10.0795 27.6 10.0395L27.69 10.2895C27.84 10.3095 27.86 10.3595 27.99 10.4495C28.03 10.4895 28.09 10.4495 28.06 10.3895L28 10.0995ZM22.21 4.73951C22.03 4.83951 21.67 4.77951 21.48 4.66951C21.73 5.09951 21.6 5.52951 21.44 5.80951L24.24 5.79951C24.08 5.59951 24.24 5.31951 24.24 5.09951C24.15 4.66951 23.42 4.96951 23.29 4.37951C22.97 3.47951 21.81 4.30951 21.28 3.67951C21.28 3.81951 21.28 4.00951 21.18 4.12951C21.16 4.14951 21.46 4.32951 21.54 4.36951C21.94 4.53951 22.24 4.37951 22.21 4.73951ZM6.21005 6.72951C6.31005 6.65951 6.44005 6.58951 6.56005 6.52951C6.54579 6.51714 6.53242 6.50377 6.52005 6.48951C6.16005 6.48951 6.00005 5.88951 6.37005 5.78951C6.49005 5.76951 6.60005 5.97951 6.48005 6.05951C6.42005 6.09951 6.50005 6.19951 6.56005 6.17951C7.00005 6.11951 6.70005 5.55951 6.42005 5.57951C5.84005 5.54951 5.67005 6.57951 6.22005 6.72951H6.21005ZM26.29 7.65951C26.25 7.04951 26.52 6.43951 27.03 6.07951C27.25 5.93951 27.48 5.84951 27.73 5.80951C27.74 5.55951 28.13 5.36951 28.15 5.15951C27.07 5.19951 26 6.44951 26.11 7.51951L26.29 7.65951ZM26.83 7.95951C27.25 8.63951 28.77 8.25951 28.33 7.35951C28.19 7.00951 27.53 7.27951 27.72 7.57951C27.83 7.65951 27.69 7.81951 27.58 7.74951C27.5172 7.71097 27.4687 7.65308 27.4416 7.58455C27.4146 7.51602 27.4105 7.44055 27.43 7.36951C27.53 6.88951 28.23 6.80951 28.5 7.16951C29.18 8.14951 27.95 8.86951 27.15 8.51951C26.2 8.20951 25.55 7.31951 24.19 7.16951C24.52 7.49951 24.59 7.91951 24.6 8.01951C25.27 8.13951 26.8 9.45951 27.2 9.61951C29.75 10.6195 30.86 6.47951 28.05 6.17951C27.12 6.04951 26.3 7.15951 26.83 7.96951V7.95951Z" fill="url(#paint0_linear_262_43926)"/>
<path d="M2.25977 20.1406H31.0998V24.7006H2.25977V20.1406Z" fill="url(#paint1_linear_262_43926)"/>
<path d="M2.64014 20.5508H6.42014V24.3308H2.64014V20.5508ZM6.66014 20.5508H10.4401V24.3308H6.66014V20.5508ZM10.7001 20.5508H14.4801V24.3308H10.7001V20.5508ZM14.7401 20.5508H18.5201V24.3308H14.7401V20.5508ZM18.7801 20.5508H22.5601V24.3308H18.7801V20.5508ZM22.8001 20.5508H26.5801V24.3308H22.8001V20.5508ZM26.8401 20.5508H30.6201V24.3308H26.8401V20.5508Z" fill="#30302F"/>
<path opacity="0.77" d="M2.7998 20.7305H30.2998V24.2505H2.7998V20.7305Z" fill="url(#paint2_linear_262_43926)"/>
<path d="M9.31986 23.1517L7.96986 21.0117H7.60986V23.8717H8.00986V21.7717L9.34986 23.8717H9.71986V21.0117H9.31986V23.1517Z" fill="url(#paint3_linear_262_43926)"/>
<path d="M4.50996 21.0117L3.45996 23.8717H3.88996L4.09996 23.2417H5.25996L5.46996 23.8717H5.90996L4.84996 21.0117H4.50996ZM4.23996 22.9117L4.67996 21.6117L5.12996 22.9117H4.22996H4.23996Z" fill="url(#paint4_linear_262_43926)"/>
<path d="M13.2699 21.8095H13.6799C13.5599 20.8895 12.2499 20.6395 11.8299 21.4695C11.6399 21.7695 11.7299 22.4695 11.6999 22.8095C11.6599 24.1095 13.4499 24.2695 13.6799 23.0295H13.2799C13.0799 23.7495 12.0699 23.5695 12.1199 22.8095C12.1299 22.5695 12.0599 21.8895 12.1899 21.6795C12.3999 21.1795 13.1599 21.2995 13.2699 21.8095Z" fill="url(#paint5_linear_262_43926)"/>
<path d="M27.73 21.0117V21.3917H28.53V23.8717H28.93V21.3917H29.74V21.0117H27.73Z" fill="url(#paint6_linear_262_43926)"/>
<path d="M16.02 21.3917H16.44V23.4917H16.02V23.8717H17.26V23.4917H16.84V21.3917H17.26V21.0117H16.02V21.3917Z" fill="url(#paint7_linear_262_43926)"/>
<path d="M25.3499 23.1517L23.9999 21.0117H23.6299V23.8717H24.0299V21.7717L25.3799 23.8717H25.7399V21.0117H25.3499V23.1517Z" fill="url(#paint8_linear_262_43926)"/>
<path d="M19.79 23.8717H21.63V23.4917H20.2V22.6417H21.41V22.2617H20.2V21.3917H21.63V21.0117H19.79V23.8717Z" fill="url(#paint9_linear_262_43926)"/>
<defs>
<linearGradient id="paint0_linear_262_43926" x1="16.03" y1="5.41951" x2="16.03" y2="27.5495" gradientUnits="userSpaceOnUse">
<stop stop-color="#FFF7C4"/>
<stop offset="0.23" stop-color="#D6BE77"/>
<stop offset="0.39" stop-color="#FFF7C4"/>
<stop offset="0.6" stop-color="#A5935C"/>
<stop offset="0.74" stop-color="#423B27"/>
<stop offset="0.77" stop-color="#48402A"/>
<stop offset="0.8" stop-color="#595033"/>
<stop offset="0.84" stop-color="#766943"/>
<stop offset="0.89" stop-color="#9D8C58"/>
<stop offset="0.9" stop-color="#A5935C"/>
<stop offset="1" stop-color="#A8A66A"/>
</linearGradient>
<linearGradient id="paint1_linear_262_43926" x1="16.5998" y1="20.5806" x2="16.8198" y2="25.6606" gradientUnits="userSpaceOnUse">
<stop stop-color="#FFF7C4"/>
<stop offset="0.52" stop-color="#A5935C"/>
<stop offset="1" stop-color="#FFF7C4"/>
</linearGradient>
<linearGradient id="paint2_linear_262_43926" x1="16.5498" y1="24.2105" x2="16.5498" y2="20.7805" gradientUnits="userSpaceOnUse">
<stop stop-color="#3B3421" stop-opacity="0"/>
<stop offset="0.22" stop-color="#353229" stop-opacity="0.3"/>
<stop offset="0.52" stop-color="#30302F" stop-opacity="0.71"/>
<stop offset="0.97" stop-color="#3A3422" stop-opacity="0.04"/>
<stop offset="1" stop-color="#3B3421" stop-opacity="0"/>
</linearGradient>
<linearGradient id="paint3_linear_262_43926" x1="8.66986" y1="21.9917" x2="8.66986" y2="24.6417" gradientUnits="userSpaceOnUse">
<stop stop-color="#FFF7C4"/>
<stop offset="0.52" stop-color="#A5935C"/>
<stop offset="1" stop-color="#FFF7C4"/>
</linearGradient>
<linearGradient id="paint4_linear_262_43926" x1="4.67996" y1="21.9917" x2="4.67996" y2="24.6417" gradientUnits="userSpaceOnUse">
<stop stop-color="#FFF7C4"/>
<stop offset="0.52" stop-color="#A5935C"/>
<stop offset="1" stop-color="#FFF7C4"/>
</linearGradient>
<linearGradient id="paint5_linear_262_43926" x1="12.6899" y1="21.9895" x2="12.6899" y2="24.6395" gradientUnits="userSpaceOnUse">
<stop stop-color="#FFF7C4"/>
<stop offset="0.52" stop-color="#A5935C"/>
<stop offset="1" stop-color="#FFF7C4"/>
</linearGradient>
<linearGradient id="paint6_linear_262_43926" x1="28.73" y1="21.9917" x2="28.73" y2="24.6417" gradientUnits="userSpaceOnUse">
<stop stop-color="#FFF7C4"/>
<stop offset="0.52" stop-color="#A5935C"/>
<stop offset="1" stop-color="#FFF7C4"/>
</linearGradient>
<linearGradient id="paint7_linear_262_43926" x1="16.64" y1="21.9917" x2="16.64" y2="24.6417" gradientUnits="userSpaceOnUse">
<stop stop-color="#FFF7C4"/>
<stop offset="0.52" stop-color="#A5935C"/>
<stop offset="1" stop-color="#FFF7C4"/>
</linearGradient>
<linearGradient id="paint8_linear_262_43926" x1="24.6899" y1="21.9917" x2="24.6899" y2="24.6417" gradientUnits="userSpaceOnUse">
<stop stop-color="#FFF7C4"/>
<stop offset="0.52" stop-color="#A5935C"/>
<stop offset="1" stop-color="#FFF7C4"/>
</linearGradient>
<linearGradient id="paint9_linear_262_43926" x1="20.71" y1="21.9917" x2="20.71" y2="24.6417" gradientUnits="userSpaceOnUse">
<stop stop-color="#FFF7C4"/>
<stop offset="0.52" stop-color="#A5935C"/>
<stop offset="1" stop-color="#FFF7C4"/>
</linearGradient>
</defs>
</svg>
