<svg width="503" height="96" viewBox="0 0 503 96" fill="none" xmlns="http://www.w3.org/2000/svg">
<path d="M0 4C0 1.79086 1.79086 0 4 0H213C215.209 0 217 1.79086 217 4V48H0V4Z" fill="#50556E"/>
<line x1="161.5" y1="12.5" x2="161.5" y2="35.5" stroke="#BEBEBE"/>
<rect x="189" y="23" width="8" height="2" fill="#BEBEBE"/>
<path d="M0 0H217H0ZM217 48.5H0V47.5H217V48.5ZM0 48V0V48ZM217 0V48V0Z" fill="#F5F5F5"/>
<path d="M0 48H217V92C217 94.2091 215.209 96 213 96H3.99999C1.79086 96 0 94.2091 0 92V48Z" fill="#50556E"/>
<line x1="161.5" y1="60.5" x2="161.5" y2="83.5" stroke="#BEBEBE"/>
<rect x="189" y="71" width="8" height="2" fill="#BEBEBE"/>
<path d="M0 47.5H217V48.5H0V47.5ZM217 96H0H217ZM0 96V48V96ZM217 48V96V48Z" fill="#F5F5F5"/>
<path d="M286 4C286 1.79086 287.791 0 290 0H499C501.209 0 503 1.79086 503 4V48H286V4Z" fill="#50556E"/>
<line x1="447.5" y1="12.5" x2="447.5" y2="35.5" stroke="#BEBEBE"/>
<rect x="475" y="23" width="8" height="2" fill="#BEBEBE"/>
<path d="M286 0H503H286ZM503 48.5H286V47.5H503V48.5ZM286 48V0V48ZM503 0V48V0Z" fill="#F5F5F5"/>
<path d="M286 48H503V92C503 94.2091 501.209 96 499 96H290C287.791 96 286 94.2091 286 92V48Z" fill="#50556E"/>
<line x1="447.5" y1="60.5" x2="447.5" y2="83.5" stroke="#BEBEBE"/>
<rect x="475" y="71" width="8" height="2" fill="#BEBEBE"/>
<path d="M286 47.5H503V48.5H286V47.5ZM503 96H286H503ZM286 96V48V96ZM503 48V96V48Z" fill="#F5F5F5"/>
<path d="M217 46.5C216.167 46.5 215.5 47.1667 215.5 48C215.5 48.8333 216.167 49.5 217 49.5C217.833 49.5 218.5 48.8333 218.5 48C218.5 47.1667 217.833 46.5 217 46.5Z" fill="white"/>
<path d="M286.354 48.3536C286.549 48.1583 286.549 47.8417 286.354 47.6464L283.172 44.4645C282.976 44.2692 282.66 44.2692 282.464 44.4645C282.269 44.6597 282.269 44.9763 282.464 45.1716L285.293 48L282.464 50.8284C282.269 51.0237 282.269 51.3403 282.464 51.5355C282.66 51.7308 282.976 51.7308 283.172 51.5355L286.354 48.3536ZM216 48C216 47.4428 216.443 47 217 47V46C215.891 46 215 46.8905 215 48H216ZM217 47C217.557 47 218 47.4428 218 48H219C219 46.8905 218.109 46 217 46V47ZM218 48C218 48.5572 217.557 49 217 49V50C218.109 50 219 49.1095 219 48H218ZM217 49C216.443 49 216 48.5572 216 48H215C215 49.1095 215.891 50 217 50V49ZM218.5 48.5H286V47.5H218.5V48.5Z" fill="#464646"/>
</svg>
