<svg width="1157" height="262" viewBox="0 0 1157 262" fill="none" xmlns="http://www.w3.org/2000/svg">
<path d="M38.5625 164.528C38.0663 164.581 37.6799 164.805 37.4034 165.199C37.1269 165.589 36.9886 166.097 36.9886 166.722C36.9886 167.161 37.0549 167.538 37.1875 167.852C37.3201 168.167 37.5 168.407 37.7273 168.574C37.9545 168.741 38.214 168.826 38.5057 168.83C38.7481 168.83 38.9583 168.775 39.1364 168.665C39.3144 168.551 39.4659 168.398 39.5909 168.205C39.7121 168.011 39.8144 167.797 39.8977 167.562C39.9811 167.328 40.0511 167.091 40.108 166.852L40.3807 165.761C40.483 165.322 40.6212 164.9 40.7955 164.494C40.9697 164.085 41.1894 163.72 41.4545 163.398C41.7197 163.072 42.0398 162.814 42.4148 162.625C42.7898 162.436 43.2292 162.341 43.733 162.341C44.4148 162.341 45.0152 162.515 45.5341 162.864C46.0492 163.212 46.4527 163.716 46.7443 164.375C47.0322 165.03 47.1761 165.824 47.1761 166.756C47.1761 167.661 47.036 168.447 46.7557 169.114C46.4754 169.777 46.0663 170.295 45.5284 170.67C44.9905 171.042 44.3352 171.242 43.5625 171.273V169.199C43.9678 169.169 44.3049 169.044 44.5739 168.824C44.8428 168.604 45.0436 168.318 45.1761 167.966C45.3087 167.61 45.375 167.212 45.375 166.773C45.375 166.314 45.3068 165.913 45.1705 165.568C45.0303 165.22 44.8371 164.947 44.5909 164.75C44.3409 164.553 44.0492 164.453 43.7159 164.449C43.4129 164.453 43.1629 164.542 42.9659 164.716C42.7652 164.89 42.5985 165.134 42.4659 165.449C42.3295 165.759 42.2083 166.123 42.1023 166.54L41.7614 167.864C41.5152 168.822 41.142 169.58 40.642 170.136C40.1383 170.689 39.4697 170.966 38.6364 170.966C37.9508 170.966 37.3504 170.78 36.8352 170.409C36.3201 170.034 35.9205 169.525 35.6364 168.881C35.3485 168.237 35.2045 167.508 35.2045 166.693C35.2045 165.867 35.3485 165.144 35.6364 164.523C35.9205 163.898 36.3163 163.407 36.8239 163.051C37.3277 162.695 37.9072 162.511 38.5625 162.5V164.528ZM37.1307 160.973H35.3636V151.689H37.1307V155.286H47V157.376H37.1307V160.973ZM47 149.811V152.061L35.3636 147.964V145.362L47 141.26V143.51L37.75 146.618V146.709L47 149.811ZM42.4375 149.737V143.601H44.1307V149.737H42.4375ZM37.1307 141.645H35.3636V132.361H37.1307V135.957H47V138.048H37.1307V141.645ZM35.3636 128.463H47V130.571H35.3636V128.463ZM38.5625 119.857C38.0663 119.91 37.6799 120.133 37.4034 120.527C37.1269 120.917 36.9886 121.425 36.9886 122.05C36.9886 122.489 37.0549 122.866 37.1875 123.18C37.3201 123.495 37.5 123.735 37.7273 123.902C37.9545 124.069 38.214 124.154 38.5057 124.158C38.7481 124.158 38.9583 124.103 39.1364 123.993C39.3144 123.879 39.4659 123.726 39.5909 123.533C39.7121 123.339 39.8144 123.125 39.8977 122.891C39.9811 122.656 40.0511 122.419 40.108 122.18L40.3807 121.089C40.483 120.65 40.6212 120.228 40.7955 119.822C40.9697 119.413 41.1894 119.048 41.4545 118.726C41.7197 118.4 42.0398 118.143 42.4148 117.953C42.7898 117.764 43.2292 117.669 43.733 117.669C44.4148 117.669 45.0152 117.843 45.5341 118.192C46.0492 118.54 46.4527 119.044 46.7443 119.703C47.0322 120.358 47.1761 121.152 47.1761 122.084C47.1761 122.989 47.036 123.775 46.7557 124.442C46.4754 125.105 46.0663 125.624 45.5284 125.999C44.9905 126.37 44.3352 126.571 43.5625 126.601V124.527C43.9678 124.497 44.3049 124.372 44.5739 124.152C44.8428 123.932 45.0436 123.646 45.1761 123.294C45.3087 122.938 45.375 122.54 45.375 122.101C45.375 121.643 45.3068 121.241 45.1705 120.896C45.0303 120.548 44.8371 120.275 44.5909 120.078C44.3409 119.881 44.0492 119.781 43.7159 119.777C43.4129 119.781 43.1629 119.87 42.9659 120.044C42.7652 120.218 42.5985 120.463 42.4659 120.777C42.3295 121.088 42.2083 121.451 42.1023 121.868L41.7614 123.192C41.5152 124.15 41.142 124.908 40.642 125.464C40.1383 126.018 39.4697 126.294 38.6364 126.294C37.9508 126.294 37.3504 126.108 36.8352 125.737C36.3201 125.362 35.9205 124.853 35.6364 124.209C35.3485 123.565 35.2045 122.836 35.2045 122.021C35.2045 121.196 35.3485 120.472 35.6364 119.851C35.9205 119.226 36.3163 118.735 36.8239 118.379C37.3277 118.023 37.9072 117.839 38.5625 117.828V119.857ZM37.1307 116.301H35.3636V107.017H37.1307V110.614H47V112.705H37.1307V116.301ZM35.3636 103.119H47V105.227H35.3636V103.119ZM39.2898 90.8764V93.0014C38.9413 93.062 38.6326 93.1738 38.3636 93.3366C38.0909 93.4995 37.8598 93.7022 37.6705 93.9446C37.4811 94.187 37.339 94.4635 37.2443 94.7741C37.1458 95.081 37.0966 95.4124 37.0966 95.7685C37.0966 96.401 37.2557 96.9616 37.5739 97.4503C37.8883 97.9389 38.3504 98.3215 38.9602 98.598C39.5663 98.8745 40.3068 99.0128 41.1818 99.0128C42.072 99.0128 42.822 98.8745 43.4318 98.598C44.0379 98.3177 44.4962 97.9351 44.8068 97.4503C45.1136 96.9616 45.267 96.4029 45.267 95.7741C45.267 95.4257 45.2216 95.0999 45.1307 94.7969C45.036 94.4901 44.8977 94.2154 44.7159 93.973C44.5341 93.7268 44.3106 93.5204 44.0455 93.3537C43.7803 93.1832 43.4773 93.0658 43.1364 93.0014L43.1477 90.8764C43.7008 90.956 44.2197 91.1283 44.7045 91.3935C45.1894 91.6548 45.6174 91.9976 45.9886 92.4219C46.3561 92.8461 46.6439 93.3423 46.8523 93.9105C47.0568 94.4787 47.1591 95.1094 47.1591 95.8026C47.1591 96.8253 46.9223 97.7382 46.4489 98.5412C45.9754 99.3442 45.2917 99.9768 44.3977 100.439C43.5038 100.901 42.4318 101.132 41.1818 101.132C39.928 101.132 38.8561 100.899 37.9659 100.433C37.072 99.9673 36.3883 99.3329 35.9148 98.5298C35.4413 97.7268 35.2045 96.8177 35.2045 95.8026C35.2045 95.1548 35.2955 94.5526 35.4773 93.9957C35.6591 93.4389 35.9261 92.9427 36.2784 92.5071C36.6269 92.0715 37.0549 91.7135 37.5625 91.4332C38.0663 91.1491 38.642 90.9635 39.2898 90.8764Z" fill="#464646"/>
<path d="M99.0314 7.40137H99.9338C100.376 7.40137 100.74 7.32845 101.028 7.18262C101.319 7.03223 101.536 6.82943 101.677 6.57422C101.823 6.31445 101.896 6.02279 101.896 5.69922C101.896 5.31641 101.832 4.99512 101.704 4.73535C101.577 4.47559 101.385 4.27962 101.13 4.14746C100.875 4.0153 100.551 3.94922 100.159 3.94922C99.8039 3.94922 99.4895 4.01986 99.216 4.16113C98.9471 4.29785 98.7352 4.49382 98.5803 4.74902C98.4299 5.00423 98.3547 5.30501 98.3547 5.65137H97.09C97.09 5.14551 97.2176 4.68522 97.4729 4.27051C97.7281 3.85579 98.0858 3.52539 98.5461 3.2793C99.0109 3.0332 99.5487 2.91016 100.159 2.91016C100.761 2.91016 101.287 3.01725 101.738 3.23145C102.19 3.44108 102.541 3.75553 102.791 4.1748C103.042 4.58952 103.167 5.10677 103.167 5.72656C103.167 5.97721 103.108 6.24609 102.989 6.5332C102.876 6.81576 102.696 7.08008 102.449 7.32617C102.208 7.57227 101.893 7.77507 101.506 7.93457C101.119 8.08952 100.654 8.16699 100.112 8.16699H99.0314V7.40137ZM99.0314 8.44043V7.68164H100.112C100.745 7.68164 101.269 7.75684 101.684 7.90723C102.099 8.05762 102.424 8.25814 102.661 8.50879C102.903 8.75944 103.071 9.03516 103.167 9.33594C103.267 9.63216 103.318 9.92839 103.318 10.2246C103.318 10.6895 103.238 11.1019 103.078 11.4619C102.923 11.8219 102.702 12.1273 102.415 12.3779C102.133 12.6286 101.8 12.8177 101.417 12.9453C101.034 13.0729 100.617 13.1367 100.166 13.1367C99.7333 13.1367 99.3254 13.0752 98.9426 12.9521C98.5643 12.8291 98.2294 12.6514 97.9377 12.4189C97.646 12.182 97.4182 11.8926 97.2541 11.5508C97.09 11.2044 97.008 10.8102 97.008 10.3682H98.2727C98.2727 10.7145 98.3479 11.0176 98.4982 11.2773C98.6532 11.5371 98.8719 11.7399 99.1545 11.8857C99.4416 12.027 99.7788 12.0977 100.166 12.0977C100.554 12.0977 100.886 12.0316 101.164 11.8994C101.447 11.7627 101.663 11.5576 101.814 11.2842C101.969 11.0107 102.046 10.6667 102.046 10.252C102.046 9.83724 101.96 9.49772 101.786 9.2334C101.613 8.96452 101.367 8.76628 101.048 8.63867C100.734 8.50651 100.362 8.44043 99.9338 8.44043H99.0314ZM105.818 12.3301C105.818 12.1159 105.884 11.9359 106.016 11.79C106.153 11.6396 106.349 11.5645 106.604 11.5645C106.859 11.5645 107.053 11.6396 107.185 11.79C107.322 11.9359 107.39 12.1159 107.39 12.3301C107.39 12.5397 107.322 12.7174 107.185 12.8633C107.053 13.0091 106.859 13.082 106.604 13.082C106.349 13.082 106.153 13.0091 106.016 12.8633C105.884 12.7174 105.818 12.5397 105.818 12.3301ZM116.474 11.9609V13H109.959V12.0908L113.22 8.46094C113.621 8.01432 113.931 7.63607 114.149 7.32617C114.373 7.01172 114.528 6.73145 114.614 6.48535C114.705 6.2347 114.751 5.97949 114.751 5.71973C114.751 5.3916 114.683 5.09538 114.546 4.83105C114.414 4.56217 114.218 4.34798 113.958 4.18848C113.698 4.02897 113.384 3.94922 113.015 3.94922C112.573 3.94922 112.203 4.03581 111.907 4.20898C111.616 4.3776 111.397 4.61458 111.251 4.91992C111.105 5.22526 111.032 5.57617 111.032 5.97266H109.768C109.768 5.41211 109.891 4.89941 110.137 4.43457C110.383 3.96973 110.747 3.60059 111.23 3.32715C111.714 3.04915 112.308 2.91016 113.015 2.91016C113.644 2.91016 114.181 3.02181 114.628 3.24512C115.075 3.46387 115.416 3.77376 115.653 4.1748C115.895 4.57129 116.016 5.03613 116.016 5.56934C116.016 5.861 115.965 6.15723 115.865 6.45801C115.77 6.75423 115.635 7.05046 115.462 7.34668C115.293 7.6429 115.095 7.93457 114.867 8.22168C114.644 8.50879 114.405 8.79134 114.149 9.06934L111.483 11.9609H116.474Z" fill="#111111"/>
<path d="M103.707 66.2109V67.25H97.1926V66.3408L100.453 62.7109C100.854 62.2643 101.164 61.8861 101.383 61.5762C101.606 61.2617 101.761 60.9814 101.848 60.7354C101.939 60.4847 101.985 60.2295 101.985 59.9697C101.985 59.6416 101.916 59.3454 101.779 59.0811C101.647 58.8122 101.451 58.598 101.192 58.4385C100.932 58.279 100.617 58.1992 100.248 58.1992C99.8062 58.1992 99.437 58.2858 99.1408 58.459C98.8492 58.6276 98.6304 58.8646 98.4846 59.1699C98.3387 59.4753 98.2658 59.8262 98.2658 60.2227H97.0012C97.0012 59.6621 97.1242 59.1494 97.3703 58.6846C97.6164 58.2197 97.981 57.8506 98.4641 57.5771C98.9471 57.2992 99.5419 57.1602 100.248 57.1602C100.877 57.1602 101.415 57.2718 101.862 57.4951C102.308 57.7139 102.65 58.0238 102.887 58.4248C103.128 58.8213 103.249 59.2861 103.249 59.8193C103.249 60.111 103.199 60.4072 103.099 60.708C103.003 61.0042 102.869 61.3005 102.696 61.5967C102.527 61.8929 102.329 62.1846 102.101 62.4717C101.877 62.7588 101.638 63.0413 101.383 63.3193L98.717 66.2109H103.707ZM105.818 66.5801C105.818 66.3659 105.884 66.1859 106.016 66.04C106.153 65.8896 106.349 65.8145 106.604 65.8145C106.859 65.8145 107.053 65.8896 107.185 66.04C107.322 66.1859 107.39 66.3659 107.39 66.5801C107.39 66.7897 107.322 66.9674 107.185 67.1133C107.053 67.2591 106.859 67.332 106.604 67.332C106.349 67.332 106.153 67.2591 106.016 67.1133C105.884 66.9674 105.818 66.7897 105.818 66.5801ZM116.228 64.5566C116.228 65.1628 116.086 65.6777 115.804 66.1016C115.526 66.5208 115.147 66.8398 114.669 67.0586C114.195 67.2773 113.66 67.3867 113.062 67.3867C112.465 67.3867 111.928 67.2773 111.449 67.0586C110.971 66.8398 110.592 66.5208 110.314 66.1016C110.036 65.6777 109.897 65.1628 109.897 64.5566C109.897 64.1602 109.973 63.7979 110.123 63.4697C110.278 63.137 110.494 62.8477 110.772 62.6016C111.055 62.3555 111.388 62.1663 111.771 62.0342C112.158 61.8975 112.584 61.8291 113.049 61.8291C113.66 61.8291 114.204 61.9476 114.683 62.1846C115.161 62.417 115.537 62.7383 115.811 63.1484C116.089 63.5586 116.228 64.028 116.228 64.5566ZM114.956 64.5293C114.956 64.1602 114.876 63.8343 114.717 63.5518C114.557 63.2646 114.334 63.0413 114.047 62.8818C113.76 62.7223 113.427 62.6426 113.049 62.6426C112.661 62.6426 112.326 62.7223 112.044 62.8818C111.766 63.0413 111.549 63.2646 111.395 63.5518C111.24 63.8343 111.162 64.1602 111.162 64.5293C111.162 64.9121 111.237 65.2402 111.388 65.5137C111.543 65.7826 111.761 65.9899 112.044 66.1357C112.331 66.277 112.671 66.3477 113.062 66.3477C113.454 66.3477 113.792 66.277 114.074 66.1357C114.357 65.9899 114.573 65.7826 114.724 65.5137C114.879 65.2402 114.956 64.9121 114.956 64.5293ZM115.995 59.8877C115.995 60.3708 115.868 60.806 115.612 61.1934C115.357 61.5807 115.008 61.8861 114.566 62.1094C114.124 62.3327 113.623 62.4443 113.062 62.4443C112.493 62.4443 111.985 62.3327 111.538 62.1094C111.096 61.8861 110.75 61.5807 110.499 61.1934C110.248 60.806 110.123 60.3708 110.123 59.8877C110.123 59.3089 110.248 58.8167 110.499 58.4111C110.754 58.0055 111.103 57.6956 111.545 57.4814C111.987 57.2673 112.491 57.1602 113.056 57.1602C113.625 57.1602 114.131 57.2673 114.573 57.4814C115.015 57.6956 115.362 58.0055 115.612 58.4111C115.868 58.8167 115.995 59.3089 115.995 59.8877ZM114.73 59.9082C114.73 59.5755 114.66 59.2816 114.519 59.0264C114.377 58.7712 114.181 58.5706 113.931 58.4248C113.68 58.2744 113.388 58.1992 113.056 58.1992C112.723 58.1992 112.431 58.2699 112.181 58.4111C111.935 58.5479 111.741 58.7438 111.6 58.999C111.463 59.2542 111.395 59.5573 111.395 59.9082C111.395 60.25 111.463 60.5485 111.6 60.8037C111.741 61.0589 111.937 61.2572 112.188 61.3984C112.438 61.5397 112.73 61.6104 113.062 61.6104C113.395 61.6104 113.685 61.5397 113.931 61.3984C114.181 61.2572 114.377 61.0589 114.519 60.8037C114.66 60.5485 114.73 60.25 114.73 59.9082Z" fill="#111111"/>
<path d="M103.707 120.461V121.5H97.1926V120.591L100.453 116.961C100.854 116.514 101.164 116.136 101.383 115.826C101.606 115.512 101.761 115.231 101.848 114.985C101.939 114.735 101.985 114.479 101.985 114.22C101.985 113.892 101.916 113.595 101.779 113.331C101.647 113.062 101.451 112.848 101.192 112.688C100.932 112.529 100.617 112.449 100.248 112.449C99.8062 112.449 99.437 112.536 99.1408 112.709C98.8492 112.878 98.6304 113.115 98.4846 113.42C98.3387 113.725 98.2658 114.076 98.2658 114.473H97.0012C97.0012 113.912 97.1242 113.399 97.3703 112.935C97.6164 112.47 97.981 112.101 98.4641 111.827C98.9471 111.549 99.5419 111.41 100.248 111.41C100.877 111.41 101.415 111.522 101.862 111.745C102.308 111.964 102.65 112.274 102.887 112.675C103.128 113.071 103.249 113.536 103.249 114.069C103.249 114.361 103.199 114.657 103.099 114.958C103.003 115.254 102.869 115.55 102.696 115.847C102.527 116.143 102.329 116.435 102.101 116.722C101.877 117.009 101.638 117.291 101.383 117.569L98.717 120.461H103.707ZM105.818 120.83C105.818 120.616 105.884 120.436 106.016 120.29C106.153 120.14 106.349 120.064 106.604 120.064C106.859 120.064 107.053 120.14 107.185 120.29C107.322 120.436 107.39 120.616 107.39 120.83C107.39 121.04 107.322 121.217 107.185 121.363C107.053 121.509 106.859 121.582 106.604 121.582C106.349 121.582 106.153 121.509 106.016 121.363C105.884 121.217 105.818 121.04 105.818 120.83ZM116.679 118.15V119.189H109.487V118.444L113.944 111.547H114.977L113.869 113.543L110.923 118.15H116.679ZM115.291 111.547V121.5H114.026V111.547H115.291Z" fill="#111111"/>
<path d="M103.434 169.98V171.498C103.434 172.314 103.361 173.002 103.215 173.562C103.069 174.123 102.86 174.574 102.586 174.916C102.313 175.258 101.982 175.506 101.595 175.661C101.212 175.812 100.779 175.887 100.296 175.887C99.9133 175.887 99.5601 175.839 99.2365 175.743C98.913 175.647 98.6213 175.495 98.3615 175.285C98.1063 175.071 97.8876 174.793 97.7053 174.451C97.523 174.109 97.384 173.695 97.2883 173.207C97.1926 172.719 97.1447 172.15 97.1447 171.498V169.98C97.1447 169.165 97.2176 168.481 97.3635 167.93C97.5139 167.378 97.7258 166.936 97.9992 166.604C98.2727 166.266 98.6008 166.025 98.9836 165.879C99.371 165.733 99.8039 165.66 100.282 165.66C100.67 165.66 101.025 165.708 101.349 165.804C101.677 165.895 101.969 166.043 102.224 166.248C102.479 166.449 102.696 166.717 102.873 167.055C103.056 167.387 103.195 167.795 103.29 168.278C103.386 168.761 103.434 169.329 103.434 169.98ZM102.162 171.703V169.769C102.162 169.322 102.135 168.93 102.08 168.593C102.03 168.251 101.955 167.959 101.855 167.718C101.754 167.476 101.627 167.28 101.472 167.13C101.321 166.979 101.146 166.87 100.946 166.802C100.75 166.729 100.529 166.692 100.282 166.692C99.9816 166.692 99.715 166.749 99.4826 166.863C99.2502 166.973 99.0542 167.148 98.8947 167.39C98.7398 167.631 98.6213 167.948 98.5393 168.34C98.4572 168.732 98.4162 169.208 98.4162 169.769V171.703C98.4162 172.15 98.4413 172.544 98.4914 172.886C98.5461 173.228 98.6258 173.524 98.7307 173.774C98.8355 174.021 98.9631 174.223 99.1135 174.383C99.2639 174.542 99.437 174.661 99.633 174.738C99.8335 174.811 100.055 174.848 100.296 174.848C100.606 174.848 100.877 174.788 101.11 174.67C101.342 174.551 101.536 174.367 101.691 174.116C101.85 173.861 101.969 173.535 102.046 173.139C102.124 172.738 102.162 172.259 102.162 171.703ZM105.818 175.08C105.818 174.866 105.884 174.686 106.016 174.54C106.153 174.39 106.349 174.314 106.604 174.314C106.859 174.314 107.053 174.39 107.185 174.54C107.322 174.686 107.39 174.866 107.39 175.08C107.39 175.29 107.322 175.467 107.185 175.613C107.053 175.759 106.859 175.832 106.604 175.832C106.349 175.832 106.153 175.759 106.016 175.613C105.884 175.467 105.818 175.29 105.818 175.08ZM114.806 165.783H114.915V166.856H114.806C114.136 166.856 113.575 166.966 113.124 167.185C112.673 167.399 112.315 167.688 112.051 168.053C111.786 168.413 111.595 168.818 111.477 169.27C111.363 169.721 111.306 170.179 111.306 170.644V172.106C111.306 172.549 111.358 172.94 111.463 173.282C111.568 173.619 111.711 173.904 111.894 174.137C112.076 174.369 112.281 174.545 112.509 174.663C112.741 174.782 112.983 174.841 113.233 174.841C113.525 174.841 113.785 174.786 114.013 174.677C114.241 174.563 114.432 174.406 114.587 174.205C114.746 174 114.867 173.758 114.949 173.48C115.031 173.202 115.072 172.897 115.072 172.564C115.072 172.268 115.036 171.983 114.963 171.71C114.89 171.432 114.778 171.186 114.628 170.972C114.478 170.753 114.288 170.582 114.061 170.459C113.837 170.331 113.571 170.268 113.261 170.268C112.91 170.268 112.582 170.354 112.276 170.527C111.976 170.696 111.727 170.919 111.531 171.197C111.34 171.471 111.23 171.769 111.203 172.093L110.533 172.086C110.597 171.576 110.715 171.14 110.889 170.78C111.066 170.416 111.285 170.119 111.545 169.892C111.809 169.659 112.103 169.491 112.427 169.386C112.755 169.276 113.101 169.222 113.466 169.222C113.963 169.222 114.391 169.315 114.751 169.502C115.111 169.689 115.407 169.939 115.64 170.254C115.872 170.564 116.043 170.915 116.152 171.307C116.266 171.694 116.323 172.093 116.323 172.503C116.323 172.972 116.257 173.412 116.125 173.822C115.993 174.232 115.795 174.592 115.53 174.902C115.271 175.212 114.949 175.454 114.566 175.627C114.184 175.8 113.739 175.887 113.233 175.887C112.696 175.887 112.226 175.777 111.825 175.559C111.424 175.335 111.091 175.039 110.827 174.67C110.563 174.301 110.365 173.891 110.232 173.439C110.1 172.988 110.034 172.53 110.034 172.065V171.471C110.034 170.769 110.105 170.081 110.246 169.406C110.387 168.732 110.631 168.121 110.978 167.574C111.328 167.027 111.814 166.592 112.434 166.269C113.053 165.945 113.844 165.783 114.806 165.783Z" fill="#111111"/>
<path d="M116.2 224.23V225.748C116.2 226.564 116.127 227.252 115.981 227.812C115.836 228.373 115.626 228.824 115.353 229.166C115.079 229.508 114.749 229.756 114.361 229.911C113.979 230.062 113.546 230.137 113.062 230.137C112.68 230.137 112.326 230.089 112.003 229.993C111.679 229.897 111.388 229.745 111.128 229.535C110.873 229.321 110.654 229.043 110.472 228.701C110.289 228.359 110.15 227.945 110.055 227.457C109.959 226.969 109.911 226.4 109.911 225.748V224.23C109.911 223.415 109.984 222.731 110.13 222.18C110.28 221.628 110.492 221.186 110.766 220.854C111.039 220.516 111.367 220.275 111.75 220.129C112.137 219.983 112.57 219.91 113.049 219.91C113.436 219.91 113.792 219.958 114.115 220.054C114.443 220.145 114.735 220.293 114.99 220.498C115.245 220.699 115.462 220.967 115.64 221.305C115.822 221.637 115.961 222.045 116.057 222.528C116.152 223.011 116.2 223.579 116.2 224.23ZM114.929 225.953V224.019C114.929 223.572 114.901 223.18 114.847 222.843C114.797 222.501 114.721 222.209 114.621 221.968C114.521 221.726 114.393 221.53 114.238 221.38C114.088 221.229 113.912 221.12 113.712 221.052C113.516 220.979 113.295 220.942 113.049 220.942C112.748 220.942 112.481 220.999 112.249 221.113C112.017 221.223 111.821 221.398 111.661 221.64C111.506 221.881 111.388 222.198 111.306 222.59C111.224 222.982 111.183 223.458 111.183 224.019V225.953C111.183 226.4 111.208 226.794 111.258 227.136C111.312 227.478 111.392 227.774 111.497 228.024C111.602 228.271 111.729 228.473 111.88 228.633C112.03 228.792 112.203 228.911 112.399 228.988C112.6 229.061 112.821 229.098 113.062 229.098C113.372 229.098 113.644 229.038 113.876 228.92C114.108 228.801 114.302 228.617 114.457 228.366C114.617 228.111 114.735 227.785 114.812 227.389C114.89 226.988 114.929 226.509 114.929 225.953Z" fill="#111111"/>
<path d="M129 10H1153" stroke="#ECECEC"/>
<path d="M129 65.75H1153" stroke="#ECECEC"/>
<path d="M129 121.5H1153" stroke="#ECECEC"/>
<path d="M129 177.25H1153" stroke="#ECECEC"/>
<path d="M129 233H1153" stroke="#ECECEC"/>
<line x1="129.04" y1="65.5016" x2="1153.04" y2="147.502" stroke="#BEBEBE"/>
<line x1="129.04" y1="85.5016" x2="1153.04" y2="167.502" stroke="#111111"/>
<path d="M134.608 248.992V259H133.344V250.571L130.794 251.501V250.359L134.41 248.992H134.608Z" fill="#111111"/>
</svg>
