<svg width="16" height="17" viewBox="0 0 16 17" fill="none" xmlns="http://www.w3.org/2000/svg">
<rect width="16" height="16" transform="translate(0 0.5)" fill="white" fill-opacity="0.01"/>
<path fill-rule="evenodd" clip-rule="evenodd" d="M8.5109 3.15537C8.67288 3.22249 8.82004 3.32086 8.94399 3.44487L13.056 7.55621C13.1801 7.68016 13.2786 7.82737 13.3457 7.98941C13.4129 8.15144 13.4475 8.32513 13.4475 8.50054C13.4475 8.67595 13.4129 8.84964 13.3457 9.01168C13.2786 9.17371 13.1801 9.32092 13.056 9.44487L8.94399 13.5562C8.82004 13.6802 8.67288 13.7786 8.5109 13.8457C8.34893 13.9128 8.17532 13.9474 7.99999 13.9474C7.82466 13.9474 7.65104 13.9128 7.48907 13.8457C7.32709 13.7786 7.17993 13.6802 7.05599 13.5562L2.94399 9.44487C2.81988 9.32092 2.72142 9.17371 2.65424 9.01168C2.58707 8.84964 2.55249 8.67595 2.55249 8.50054C2.55249 8.32513 2.58707 8.15144 2.65424 7.98941C2.72142 7.82737 2.81988 7.68016 2.94399 7.55621L7.05599 3.44487C7.17993 3.32086 7.32709 3.22249 7.48907 3.15537C7.65104 3.08826 7.82466 3.05371 7.99999 3.05371C8.17532 3.05371 8.34893 3.08826 8.5109 3.15537ZM7.52858 9.63827C7.6536 9.7633 7.82317 9.83354 7.99998 9.83354C8.1768 9.83354 8.34636 9.7633 8.47139 9.63827C8.59641 9.51325 8.66665 9.34368 8.66665 9.16687V5.83354C8.66665 5.65673 8.59641 5.48716 8.47139 5.36213C8.34636 5.23711 8.1768 5.16687 7.99998 5.16687C7.82317 5.16687 7.6536 5.23711 7.52858 5.36213C7.40356 5.48716 7.33332 5.65673 7.33332 5.83354V9.16687C7.33332 9.34368 7.40356 9.51325 7.52858 9.63827ZM7.52858 11.6383C7.6536 11.7633 7.82317 11.8335 7.99998 11.8335C8.1768 11.8335 8.34636 11.7633 8.47139 11.6383C8.59641 11.5133 8.66665 11.3437 8.66665 11.1669C8.66665 10.9901 8.59641 10.8205 8.47139 10.6955C8.34636 10.5704 8.1768 10.5002 7.99998 10.5002C7.82317 10.5002 7.6536 10.5704 7.52858 10.6955C7.40356 10.8205 7.33332 10.9901 7.33332 11.1669C7.33332 11.3437 7.40356 11.5133 7.52858 11.6383Z" fill="#DE350B"/>
</svg>
