<svg width="20" height="20" viewBox="0 0 20 20" fill="none" xmlns="http://www.w3.org/2000/svg">
<g clip-path="url(#clip0_225_2983)">
<rect width="20" height="20" fill="white" fill-opacity="0.01"/>
<path d="M8.24992 3.53301C8.82353 3.39874 9.4108 3.33162 9.99992 3.33301C15.8333 3.33301 19.1666 9.99967 19.1666 9.99967C18.6607 10.946 18.0575 11.837 17.3666 12.658M11.7666 11.7663C11.5377 12.012 11.2617 12.209 10.955 12.3456C10.6484 12.4822 10.3173 12.5557 9.98166 12.5616C9.64598 12.5676 9.31255 12.5058 9.00126 12.3801C8.68997 12.2543 8.40719 12.0672 8.16979 11.8298C7.93239 11.5924 7.74525 11.3096 7.61951 10.9983C7.49377 10.687 7.43202 10.3536 7.43795 10.0179C7.44387 9.68226 7.51734 9.35121 7.65398 9.04455C7.79062 8.73788 7.98763 8.46188 8.23325 8.23301M0.833252 0.833008L19.1666 19.1663M14.9499 14.9497C13.5254 16.0355 11.7908 16.6371 9.99992 16.6663C4.16658 16.6663 0.833252 9.99967 0.833252 9.99967C1.86983 8.06792 3.30753 6.38018 5.04992 5.04967L14.9499 14.9497Z" stroke="#C2C2C2" stroke-width="2" stroke-linecap="round" stroke-linejoin="round"/>
</g>
<defs>
<clipPath id="clip0_225_2983">
<rect width="20" height="20" fill="white"/>
</clipPath>
</defs>
</svg>
