<svg width="25" height="24" viewBox="0 0 25 24" fill="none" xmlns="http://www.w3.org/2000/svg">
<g clip-path="url(#clip0_380_6070)">
<path d="M10.4184 23.88C4.71844 22.86 0.398438 17.94 0.398438 12C0.398438 5.4 5.79844 0 12.3984 0C18.9984 0 24.3984 5.4 24.3984 12C24.3984 17.94 20.0784 22.86 14.3784 23.88L13.7184 23.34H11.0784L10.4184 23.88Z" fill="url(#paint0_linear_380_6070)"/>
<path d="M17.0785 15.3597L17.6185 11.9997H14.4385V9.65969C14.4385 8.69969 14.7985 7.97969 16.2385 7.97969H17.7985V4.91969C16.9585 4.79969 15.9985 4.67969 15.1585 4.67969C12.3985 4.67969 10.4785 6.35969 10.4785 9.35969V11.9997H7.47852V15.3597H10.4785V23.8197C11.1385 23.9397 11.7985 23.9997 12.4585 23.9997C13.1185 23.9997 13.7785 23.9397 14.4385 23.8197V15.3597H17.0785Z" fill="white"/>
</g>
<defs>
<linearGradient id="paint0_linear_380_6070" x1="12.399" y1="23.1654" x2="12.399" y2="-0.00442066" gradientUnits="userSpaceOnUse">
<stop stop-color="#0062E0"/>
<stop offset="1" stop-color="#19AFFF"/>
</linearGradient>
<clipPath id="clip0_380_6070">
<rect width="24" height="24" fill="white" transform="translate(0.398438)"/>
</clipPath>
</defs>
</svg>
