<svg width="32" height="32" viewBox="0 0 32 32" fill="none" xmlns="http://www.w3.org/2000/svg">
<g clip-path="url(#clip0_32_6194)">
<path d="M16.0001 32C24.8366 32 32.0001 24.8366 32.0001 16C32.0001 7.16344 24.8366 0 16.0001 0C7.16351 0 6.10352e-05 7.16344 6.10352e-05 16C6.10352e-05 24.8366 7.16351 32 16.0001 32Z" fill="#464646"/>
<path d="M21.2028 4.91113H17.6584C15.5551 4.91113 13.2155 5.79578 13.2155 8.84469C13.2258 9.90704 13.2155 10.9245 13.2155 12.0695H10.7822V15.9416H13.2908V27.0888H17.9005V15.8681H20.9431L21.2184 12.0587H17.8211C17.8211 12.0587 17.8287 10.3641 17.8211 9.87195C17.8211 8.66708 19.0748 8.73608 19.1502 8.73608C19.7468 8.73608 20.9068 8.73782 21.2046 8.73608V4.91113H21.2028Z" fill="white"/>
</g>
<defs>
<clipPath id="clip0_32_6194">
<rect width="32" height="32" fill="white"/>
</clipPath>
</defs>
</svg>
