<svg width="1157" height="262" viewBox="0 0 1157 262" fill="none" xmlns="http://www.w3.org/2000/svg">
<path d="M47 170.852H35.3636V163.284H37.1307V168.744H40.2898V163.676H42.0568V168.744H45.233V163.239H47V170.852ZM47 161.134H35.3636V159.026H45.233V153.901H47V161.134ZM41.1818 142.126C42.4356 142.126 43.5095 142.361 44.4034 142.831C45.2936 143.297 45.9754 143.933 46.4489 144.74C46.9223 145.543 47.1591 146.454 47.1591 147.473C47.1591 148.492 46.9223 149.405 46.4489 150.212C45.9716 151.015 45.2879 151.651 44.3977 152.121C43.5038 152.587 42.4318 152.82 41.1818 152.82C39.928 152.82 38.8561 152.587 37.9659 152.121C37.072 151.651 36.3883 151.015 35.9148 150.212C35.4413 149.405 35.2045 148.492 35.2045 147.473C35.2045 146.454 35.4413 145.543 35.9148 144.74C36.3883 143.933 37.072 143.297 37.9659 142.831C38.8561 142.361 39.928 142.126 41.1818 142.126ZM41.1818 144.246C40.2992 144.246 39.5549 144.384 38.9489 144.661C38.339 144.933 37.8788 145.312 37.5682 145.797C37.2538 146.282 37.0966 146.84 37.0966 147.473C37.0966 148.106 37.2538 148.664 37.5682 149.149C37.8788 149.634 38.339 150.015 38.9489 150.291C39.5549 150.564 40.2992 150.7 41.1818 150.7C42.0644 150.7 42.8106 150.564 43.4205 150.291C44.0265 150.015 44.4867 149.634 44.8011 149.149C45.1117 148.664 45.267 148.106 45.267 147.473C45.267 146.84 45.1117 146.282 44.8011 145.797C44.4867 145.312 44.0265 144.933 43.4205 144.661C42.8106 144.384 42.0644 144.246 41.1818 144.246ZM47 134.67V136.92L35.3636 132.824V130.222L47 126.119V128.369L37.75 131.477V131.568L47 134.67ZM42.4375 134.597V128.46H44.1307V134.597H42.4375ZM39.2898 115.173V117.298C38.9413 117.359 38.6326 117.471 38.3636 117.634C38.0909 117.796 37.8598 117.999 37.6705 118.241C37.4811 118.484 37.339 118.76 37.2443 119.071C37.1458 119.378 37.0966 119.709 37.0966 120.065C37.0966 120.698 37.2557 121.259 37.5739 121.747C37.8883 122.236 38.3504 122.618 38.9602 122.895C39.5663 123.171 40.3068 123.31 41.1818 123.31C42.072 123.31 42.822 123.171 43.4318 122.895C44.0379 122.615 44.4962 122.232 44.8068 121.747C45.1136 121.259 45.267 120.7 45.267 120.071C45.267 119.723 45.2216 119.397 45.1307 119.094C45.036 118.787 44.8977 118.512 44.7159 118.27C44.5341 118.024 44.3106 117.817 44.0455 117.651C43.7803 117.48 43.4773 117.363 43.1364 117.298L43.1477 115.173C43.7008 115.253 44.2197 115.425 44.7045 115.69C45.1894 115.952 45.6174 116.295 45.9886 116.719C46.3561 117.143 46.6439 117.639 46.8523 118.207C47.0568 118.776 47.1591 119.406 47.1591 120.099C47.1591 121.122 46.9223 122.035 46.4489 122.838C45.9754 123.641 45.2917 124.274 44.3977 124.736C43.5038 125.198 42.4318 125.429 41.1818 125.429C39.928 125.429 38.8561 125.196 37.9659 124.73C37.072 124.264 36.3883 123.63 35.9148 122.827C35.4413 122.024 35.2045 121.115 35.2045 120.099C35.2045 119.452 35.2955 118.849 35.4773 118.293C35.6591 117.736 35.9261 117.24 36.2784 116.804C36.6269 116.368 37.0549 116.01 37.5625 115.73C38.0663 115.446 38.642 115.26 39.2898 115.173ZM47 113.243H35.3636V111.135H40.2898V105.743H35.3636V103.629H47V105.743H42.0568V111.135H47V113.243ZM35.3636 99.2287H47V101.337H35.3636V99.2287ZM47 96.946H35.3636V89.3778H37.1307V94.8381H40.2898V89.7699H42.0568V94.8381H45.233V89.3324H47V96.946ZM35.3636 85.6705L44.5227 82.642V82.5227L35.3636 79.5V77.1818L47 81.2841V83.8864L35.3636 87.983V85.6705ZM47 75.6491H35.3636V68.081H37.1307V73.5412H40.2898V68.473H42.0568V73.5412H45.233V68.0355H47V75.6491ZM47 61.9872V65.9304H35.3636V61.9077C35.3636 60.7524 35.5966 59.7599 36.0625 58.9304C36.5246 58.0971 37.1894 57.4569 38.0568 57.0099C38.9242 56.563 39.9621 56.3395 41.1705 56.3395C42.3826 56.3395 43.4242 56.5649 44.2955 57.0156C45.1667 57.4626 45.8352 58.1084 46.3011 58.9531C46.767 59.794 47 60.8054 47 61.9872ZM45.1761 63.8224V62.0895C45.1761 61.2789 45.0284 60.6027 44.733 60.0611C44.4337 59.5194 43.9886 59.1122 43.3977 58.8395C42.803 58.5668 42.0606 58.4304 41.1705 58.4304C40.2803 58.4304 39.5417 58.5668 38.9545 58.8395C38.3636 59.1122 37.9223 59.5156 37.6307 60.0497C37.3352 60.58 37.1875 61.2391 37.1875 62.027V63.8224H45.1761Z" fill="#3B415C"/>
<path d="M86.1268 8.2627L85.115 8.00293L85.6141 3.04688H90.7205V4.21582H86.6873L86.3865 6.92285C86.5688 6.81803 86.799 6.72005 87.077 6.62891C87.3595 6.53776 87.6831 6.49219 88.0477 6.49219C88.5079 6.49219 88.9204 6.57194 89.285 6.73145C89.6495 6.88639 89.9594 7.1097 90.2146 7.40137C90.4744 7.69303 90.6727 8.04395 90.8094 8.4541C90.9461 8.86426 91.0145 9.32227 91.0145 9.82812C91.0145 10.3066 90.9484 10.7464 90.8162 11.1475C90.6886 11.5485 90.4949 11.8994 90.2352 12.2002C89.9754 12.4964 89.6473 12.7266 89.2508 12.8906C88.8589 13.0547 88.3963 13.1367 87.8631 13.1367C87.462 13.1367 87.0815 13.082 86.7215 12.9727C86.366 12.8587 86.047 12.6878 85.7645 12.46C85.4865 12.2275 85.2586 11.9404 85.0809 11.5986C84.9077 11.2523 84.7983 10.8467 84.7527 10.3818H85.9559C86.0105 10.7555 86.1199 11.07 86.284 11.3252C86.448 11.5804 86.6622 11.7741 86.9266 11.9062C87.1954 12.0339 87.5076 12.0977 87.8631 12.0977C88.1639 12.0977 88.4305 12.0452 88.6629 11.9404C88.8953 11.8356 89.0913 11.6852 89.2508 11.4893C89.4103 11.2933 89.5311 11.0563 89.6131 10.7783C89.6997 10.5003 89.743 10.1882 89.743 9.8418C89.743 9.52734 89.6997 9.23568 89.6131 8.9668C89.5265 8.69792 89.3966 8.46322 89.2234 8.2627C89.0548 8.06217 88.8475 7.90723 88.6014 7.79785C88.3553 7.68392 88.0727 7.62695 87.7537 7.62695C87.3299 7.62695 87.0086 7.68392 86.7898 7.79785C86.5757 7.91178 86.3546 8.06673 86.1268 8.2627ZM97.1584 2.99219V13H95.8938V4.57129L93.3439 5.50098V4.35938L96.9602 2.99219H97.1584ZM103.077 8.2627L102.065 8.00293L102.564 3.04688H107.671V4.21582H103.637L103.337 6.92285C103.519 6.81803 103.749 6.72005 104.027 6.62891C104.31 6.53776 104.633 6.49219 104.998 6.49219C105.458 6.49219 105.87 6.57194 106.235 6.73145C106.6 6.88639 106.909 7.1097 107.165 7.40137C107.424 7.69303 107.623 8.04395 107.759 8.4541C107.896 8.86426 107.964 9.32227 107.964 9.82812C107.964 10.3066 107.898 10.7464 107.766 11.1475C107.639 11.5485 107.445 11.8994 107.185 12.2002C106.925 12.4964 106.597 12.7266 106.201 12.8906C105.809 13.0547 105.346 13.1367 104.813 13.1367C104.412 13.1367 104.032 13.082 103.671 12.9727C103.316 12.8587 102.997 12.6878 102.714 12.46C102.436 12.2275 102.209 11.9404 102.031 11.5986C101.858 11.2523 101.748 10.8467 101.703 10.3818H102.906C102.961 10.7555 103.07 11.07 103.234 11.3252C103.398 11.5804 103.612 11.7741 103.877 11.9062C104.145 12.0339 104.458 12.0977 104.813 12.0977C105.114 12.0977 105.38 12.0452 105.613 11.9404C105.845 11.8356 106.041 11.6852 106.201 11.4893C106.36 11.2933 106.481 11.0563 106.563 10.7783C106.65 10.5003 106.693 10.1882 106.693 9.8418C106.693 9.52734 106.65 9.23568 106.563 8.9668C106.476 8.69792 106.347 8.46322 106.173 8.2627C106.005 8.06217 105.797 7.90723 105.551 7.79785C105.305 7.68392 105.023 7.62695 104.704 7.62695C104.28 7.62695 103.959 7.68392 103.74 7.79785C103.526 7.91178 103.305 8.06673 103.077 8.2627ZM116.2 7.23047V8.74805C116.2 9.5638 116.127 10.252 115.981 10.8125C115.836 11.373 115.626 11.8242 115.353 12.166C115.079 12.5078 114.749 12.7562 114.361 12.9111C113.979 13.0615 113.546 13.1367 113.062 13.1367C112.68 13.1367 112.326 13.0889 112.003 12.9932C111.679 12.8975 111.388 12.7448 111.128 12.5352C110.873 12.321 110.654 12.043 110.472 11.7012C110.289 11.3594 110.15 10.9447 110.055 10.457C109.959 9.9694 109.911 9.39974 109.911 8.74805V7.23047C109.911 6.41471 109.984 5.73112 110.13 5.17969C110.28 4.62826 110.492 4.1862 110.766 3.85352C111.039 3.51628 111.367 3.27474 111.75 3.12891C112.137 2.98307 112.57 2.91016 113.049 2.91016C113.436 2.91016 113.792 2.95801 114.115 3.05371C114.443 3.14486 114.735 3.29297 114.99 3.49805C115.245 3.69857 115.462 3.96745 115.64 4.30469C115.822 4.63737 115.961 5.04525 116.057 5.52832C116.152 6.01139 116.2 6.57878 116.2 7.23047ZM114.929 8.95312V7.01855C114.929 6.57194 114.901 6.18001 114.847 5.84277C114.797 5.50098 114.721 5.20931 114.621 4.96777C114.521 4.72624 114.393 4.53027 114.238 4.37988C114.088 4.22949 113.912 4.12012 113.712 4.05176C113.516 3.97884 113.295 3.94238 113.049 3.94238C112.748 3.94238 112.481 3.99935 112.249 4.11328C112.017 4.22266 111.821 4.39811 111.661 4.63965C111.506 4.88118 111.388 5.19792 111.306 5.58984C111.224 5.98177 111.183 6.45801 111.183 7.01855V8.95312C111.183 9.39974 111.208 9.79395 111.258 10.1357C111.312 10.4775 111.392 10.7738 111.497 11.0244C111.602 11.2705 111.729 11.4733 111.88 11.6328C112.03 11.7923 112.203 11.9108 112.399 11.9883C112.6 12.0612 112.821 12.0977 113.062 12.0977C113.372 12.0977 113.644 12.0384 113.876 11.9199C114.108 11.8014 114.302 11.6169 114.457 11.3662C114.617 11.111 114.735 10.7852 114.812 10.3887C114.89 9.98763 114.929 9.50911 114.929 8.95312Z" fill="#111111"/>
<path d="M86.1268 35.2627L85.115 35.0029L85.6141 30.0469H90.7205V31.2158H86.6873L86.3865 33.9229C86.5688 33.818 86.799 33.7201 87.077 33.6289C87.3595 33.5378 87.6831 33.4922 88.0477 33.4922C88.5079 33.4922 88.9204 33.5719 89.285 33.7314C89.6495 33.8864 89.9594 34.1097 90.2146 34.4014C90.4744 34.693 90.6727 35.0439 90.8094 35.4541C90.9461 35.8643 91.0145 36.3223 91.0145 36.8281C91.0145 37.3066 90.9484 37.7464 90.8162 38.1475C90.6886 38.5485 90.4949 38.8994 90.2352 39.2002C89.9754 39.4964 89.6473 39.7266 89.2508 39.8906C88.8589 40.0547 88.3963 40.1367 87.8631 40.1367C87.462 40.1367 87.0815 40.082 86.7215 39.9727C86.366 39.8587 86.047 39.6878 85.7645 39.46C85.4865 39.2275 85.2586 38.9404 85.0809 38.5986C84.9077 38.2523 84.7983 37.8467 84.7527 37.3818H85.9559C86.0105 37.7555 86.1199 38.07 86.284 38.3252C86.448 38.5804 86.6622 38.7741 86.9266 38.9062C87.1954 39.0339 87.5076 39.0977 87.8631 39.0977C88.1639 39.0977 88.4305 39.0452 88.6629 38.9404C88.8953 38.8356 89.0913 38.6852 89.2508 38.4893C89.4103 38.2933 89.5311 38.0563 89.6131 37.7783C89.6997 37.5003 89.743 37.1882 89.743 36.8418C89.743 36.5273 89.6997 36.2357 89.6131 35.9668C89.5265 35.6979 89.3966 35.4632 89.2234 35.2627C89.0548 35.0622 88.8475 34.9072 88.6014 34.7979C88.3553 34.6839 88.0727 34.627 87.7537 34.627C87.3299 34.627 87.0086 34.6839 86.7898 34.7979C86.5757 34.9118 86.3546 35.0667 86.1268 35.2627ZM97.1584 29.9922V40H95.8938V31.5713L93.3439 32.501V31.3594L96.9602 29.9922H97.1584ZM107.725 34.2305V35.748C107.725 36.5638 107.652 37.252 107.506 37.8125C107.361 38.373 107.151 38.8242 106.878 39.166C106.604 39.5078 106.274 39.7562 105.886 39.9111C105.504 40.0615 105.071 40.1367 104.588 40.1367C104.205 40.1367 103.851 40.0889 103.528 39.9932C103.204 39.8975 102.913 39.7448 102.653 39.5352C102.398 39.321 102.179 39.043 101.997 38.7012C101.814 38.3594 101.675 37.9447 101.58 37.457C101.484 36.9694 101.436 36.3997 101.436 35.748V34.2305C101.436 33.4147 101.509 32.7311 101.655 32.1797C101.805 31.6283 102.017 31.1862 102.291 30.8535C102.564 30.5163 102.892 30.2747 103.275 30.1289C103.662 29.9831 104.095 29.9102 104.574 29.9102C104.961 29.9102 105.317 29.958 105.64 30.0537C105.968 30.1449 106.26 30.293 106.515 30.498C106.77 30.6986 106.987 30.9674 107.165 31.3047C107.347 31.6374 107.486 32.0452 107.582 32.5283C107.677 33.0114 107.725 33.5788 107.725 34.2305ZM106.454 35.9531V34.0186C106.454 33.5719 106.426 33.18 106.372 32.8428C106.322 32.501 106.246 32.2093 106.146 31.9678C106.046 31.7262 105.918 31.5303 105.763 31.3799C105.613 31.2295 105.437 31.1201 105.237 31.0518C105.041 30.9788 104.82 30.9424 104.574 30.9424C104.273 30.9424 104.006 30.9993 103.774 31.1133C103.542 31.2227 103.346 31.3981 103.186 31.6396C103.031 31.8812 102.913 32.1979 102.831 32.5898C102.749 32.9818 102.708 33.458 102.708 34.0186V35.9531C102.708 36.3997 102.733 36.7939 102.783 37.1357C102.838 37.4775 102.917 37.7738 103.022 38.0244C103.127 38.2705 103.254 38.4733 103.405 38.6328C103.555 38.7923 103.728 38.9108 103.924 38.9883C104.125 39.0612 104.346 39.0977 104.588 39.0977C104.897 39.0977 105.169 39.0384 105.401 38.9199C105.633 38.8014 105.827 38.6169 105.982 38.3662C106.142 38.111 106.26 37.7852 106.338 37.3887C106.415 36.9876 106.454 36.5091 106.454 35.9531ZM116.2 34.2305V35.748C116.2 36.5638 116.127 37.252 115.981 37.8125C115.836 38.373 115.626 38.8242 115.353 39.166C115.079 39.5078 114.749 39.7562 114.361 39.9111C113.979 40.0615 113.546 40.1367 113.062 40.1367C112.68 40.1367 112.326 40.0889 112.003 39.9932C111.679 39.8975 111.388 39.7448 111.128 39.5352C110.873 39.321 110.654 39.043 110.472 38.7012C110.289 38.3594 110.15 37.9447 110.055 37.457C109.959 36.9694 109.911 36.3997 109.911 35.748V34.2305C109.911 33.4147 109.984 32.7311 110.13 32.1797C110.28 31.6283 110.492 31.1862 110.766 30.8535C111.039 30.5163 111.367 30.2747 111.75 30.1289C112.137 29.9831 112.57 29.9102 113.049 29.9102C113.436 29.9102 113.792 29.958 114.115 30.0537C114.443 30.1449 114.735 30.293 114.99 30.498C115.245 30.6986 115.462 30.9674 115.64 31.3047C115.822 31.6374 115.961 32.0452 116.057 32.5283C116.152 33.0114 116.2 33.5788 116.2 34.2305ZM114.929 35.9531V34.0186C114.929 33.5719 114.901 33.18 114.847 32.8428C114.797 32.501 114.721 32.2093 114.621 31.9678C114.521 31.7262 114.393 31.5303 114.238 31.3799C114.088 31.2295 113.912 31.1201 113.712 31.0518C113.516 30.9788 113.295 30.9424 113.049 30.9424C112.748 30.9424 112.481 30.9993 112.249 31.1133C112.017 31.2227 111.821 31.3981 111.661 31.6396C111.506 31.8812 111.388 32.1979 111.306 32.5898C111.224 32.9818 111.183 33.458 111.183 34.0186V35.9531C111.183 36.3997 111.208 36.7939 111.258 37.1357C111.312 37.4775 111.392 37.7738 111.497 38.0244C111.602 38.2705 111.729 38.4733 111.88 38.6328C112.03 38.7923 112.203 38.9108 112.399 38.9883C112.6 39.0612 112.821 39.0977 113.062 39.0977C113.372 39.0977 113.644 39.0384 113.876 38.9199C114.108 38.8014 114.302 38.6169 114.457 38.3662C114.617 38.111 114.735 37.7852 114.812 37.3887C114.89 36.9876 114.929 36.5091 114.929 35.9531Z" fill="#111111"/>
<path d="M86.1268 62.2627L85.115 62.0029L85.6141 57.0469H90.7205V58.2158H86.6873L86.3865 60.9229C86.5688 60.818 86.799 60.7201 87.077 60.6289C87.3595 60.5378 87.6831 60.4922 88.0477 60.4922C88.5079 60.4922 88.9204 60.5719 89.285 60.7314C89.6495 60.8864 89.9594 61.1097 90.2146 61.4014C90.4744 61.693 90.6727 62.0439 90.8094 62.4541C90.9461 62.8643 91.0145 63.3223 91.0145 63.8281C91.0145 64.3066 90.9484 64.7464 90.8162 65.1475C90.6886 65.5485 90.4949 65.8994 90.2352 66.2002C89.9754 66.4964 89.6473 66.7266 89.2508 66.8906C88.8589 67.0547 88.3963 67.1367 87.8631 67.1367C87.462 67.1367 87.0815 67.082 86.7215 66.9727C86.366 66.8587 86.047 66.6878 85.7645 66.46C85.4865 66.2275 85.2586 65.9404 85.0809 65.5986C84.9077 65.2523 84.7983 64.8467 84.7527 64.3818H85.9559C86.0105 64.7555 86.1199 65.07 86.284 65.3252C86.448 65.5804 86.6622 65.7741 86.9266 65.9062C87.1954 66.0339 87.5076 66.0977 87.8631 66.0977C88.1639 66.0977 88.4305 66.0452 88.6629 65.9404C88.8953 65.8356 89.0913 65.6852 89.2508 65.4893C89.4103 65.2933 89.5311 65.0563 89.6131 64.7783C89.6997 64.5003 89.743 64.1882 89.743 63.8418C89.743 63.5273 89.6997 63.2357 89.6131 62.9668C89.5265 62.6979 89.3966 62.4632 89.2234 62.2627C89.0548 62.0622 88.8475 61.9072 88.6014 61.7979C88.3553 61.6839 88.0727 61.627 87.7537 61.627C87.3299 61.627 87.0086 61.6839 86.7898 61.7979C86.5757 61.9118 86.3546 62.0667 86.1268 62.2627ZM99.2502 61.2305V62.748C99.2502 63.5638 99.1773 64.252 99.0314 64.8125C98.8856 65.373 98.676 65.8242 98.4025 66.166C98.1291 66.5078 97.7987 66.7562 97.4113 66.9111C97.0285 67.0615 96.5956 67.1367 96.1125 67.1367C95.7297 67.1367 95.3765 67.0889 95.0529 66.9932C94.7294 66.8975 94.4377 66.7448 94.1779 66.5352C93.9227 66.321 93.704 66.043 93.5217 65.7012C93.3394 65.3594 93.2004 64.9447 93.1047 64.457C93.009 63.9694 92.9611 63.3997 92.9611 62.748V61.2305C92.9611 60.4147 93.0341 59.7311 93.1799 59.1797C93.3303 58.6283 93.5422 58.1862 93.8156 57.8535C94.0891 57.5163 94.4172 57.2747 94.8 57.1289C95.1874 56.9831 95.6203 56.9102 96.0988 56.9102C96.4862 56.9102 96.8417 56.958 97.1652 57.0537C97.4934 57.1449 97.785 57.293 98.0402 57.498C98.2954 57.6986 98.5119 57.9674 98.6896 58.3047C98.8719 58.6374 99.0109 59.0452 99.1066 59.5283C99.2023 60.0114 99.2502 60.5788 99.2502 61.2305ZM97.9787 62.9531V61.0186C97.9787 60.5719 97.9514 60.18 97.8967 59.8428C97.8466 59.501 97.7714 59.2093 97.6711 58.9678C97.5708 58.7262 97.4432 58.5303 97.2883 58.3799C97.1379 58.2295 96.9624 58.1201 96.7619 58.0518C96.566 57.9788 96.3449 57.9424 96.0988 57.9424C95.798 57.9424 95.5314 57.9993 95.299 58.1133C95.0666 58.2227 94.8706 58.3981 94.7111 58.6396C94.5562 58.8812 94.4377 59.1979 94.3557 59.5898C94.2736 59.9818 94.2326 60.458 94.2326 61.0186V62.9531C94.2326 63.3997 94.2577 63.7939 94.3078 64.1357C94.3625 64.4775 94.4423 64.7738 94.5471 65.0244C94.6519 65.2705 94.7795 65.4733 94.9299 65.6328C95.0803 65.7923 95.2535 65.9108 95.4494 65.9883C95.6499 66.0612 95.871 66.0977 96.1125 66.0977C96.4224 66.0977 96.6936 66.0384 96.926 65.9199C97.1584 65.8014 97.3521 65.6169 97.507 65.3662C97.6665 65.111 97.785 64.7852 97.8625 64.3887C97.94 63.9876 97.9787 63.5091 97.9787 62.9531ZM103.077 62.2627L102.065 62.0029L102.564 57.0469H107.671V58.2158H103.637L103.337 60.9229C103.519 60.818 103.749 60.7201 104.027 60.6289C104.31 60.5378 104.633 60.4922 104.998 60.4922C105.458 60.4922 105.87 60.5719 106.235 60.7314C106.6 60.8864 106.909 61.1097 107.165 61.4014C107.424 61.693 107.623 62.0439 107.759 62.4541C107.896 62.8643 107.964 63.3223 107.964 63.8281C107.964 64.3066 107.898 64.7464 107.766 65.1475C107.639 65.5485 107.445 65.8994 107.185 66.2002C106.925 66.4964 106.597 66.7266 106.201 66.8906C105.809 67.0547 105.346 67.1367 104.813 67.1367C104.412 67.1367 104.032 67.082 103.671 66.9727C103.316 66.8587 102.997 66.6878 102.714 66.46C102.436 66.2275 102.209 65.9404 102.031 65.5986C101.858 65.2523 101.748 64.8467 101.703 64.3818H102.906C102.961 64.7555 103.07 65.07 103.234 65.3252C103.398 65.5804 103.612 65.7741 103.877 65.9062C104.145 66.0339 104.458 66.0977 104.813 66.0977C105.114 66.0977 105.38 66.0452 105.613 65.9404C105.845 65.8356 106.041 65.6852 106.201 65.4893C106.36 65.2933 106.481 65.0563 106.563 64.7783C106.65 64.5003 106.693 64.1882 106.693 63.8418C106.693 63.5273 106.65 63.2357 106.563 62.9668C106.476 62.6979 106.347 62.4632 106.173 62.2627C106.005 62.0622 105.797 61.9072 105.551 61.7979C105.305 61.6839 105.023 61.627 104.704 61.627C104.28 61.627 103.959 61.6839 103.74 61.7979C103.526 61.9118 103.305 62.0667 103.077 62.2627ZM116.2 61.2305V62.748C116.2 63.5638 116.127 64.252 115.981 64.8125C115.836 65.373 115.626 65.8242 115.353 66.166C115.079 66.5078 114.749 66.7562 114.361 66.9111C113.979 67.0615 113.546 67.1367 113.062 67.1367C112.68 67.1367 112.326 67.0889 112.003 66.9932C111.679 66.8975 111.388 66.7448 111.128 66.5352C110.873 66.321 110.654 66.043 110.472 65.7012C110.289 65.3594 110.15 64.9447 110.055 64.457C109.959 63.9694 109.911 63.3997 109.911 62.748V61.2305C109.911 60.4147 109.984 59.7311 110.13 59.1797C110.28 58.6283 110.492 58.1862 110.766 57.8535C111.039 57.5163 111.367 57.2747 111.75 57.1289C112.137 56.9831 112.57 56.9102 113.049 56.9102C113.436 56.9102 113.792 56.958 114.115 57.0537C114.443 57.1449 114.735 57.293 114.99 57.498C115.245 57.6986 115.462 57.9674 115.64 58.3047C115.822 58.6374 115.961 59.0452 116.057 59.5283C116.152 60.0114 116.2 60.5788 116.2 61.2305ZM114.929 62.9531V61.0186C114.929 60.5719 114.901 60.18 114.847 59.8428C114.797 59.501 114.721 59.2093 114.621 58.9678C114.521 58.7262 114.393 58.5303 114.238 58.3799C114.088 58.2295 113.912 58.1201 113.712 58.0518C113.516 57.9788 113.295 57.9424 113.049 57.9424C112.748 57.9424 112.481 57.9993 112.249 58.1133C112.017 58.2227 111.821 58.3981 111.661 58.6396C111.506 58.8812 111.388 59.1979 111.306 59.5898C111.224 59.9818 111.183 60.458 111.183 61.0186V62.9531C111.183 63.3997 111.208 63.7939 111.258 64.1357C111.312 64.4775 111.392 64.7738 111.497 65.0244C111.602 65.2705 111.729 65.4733 111.88 65.6328C112.03 65.7923 112.203 65.9108 112.399 65.9883C112.6 66.0612 112.821 66.0977 113.062 66.0977C113.372 66.0977 113.644 66.0384 113.876 65.9199C114.108 65.8014 114.302 65.6169 114.457 65.3662C114.617 65.111 114.735 64.7852 114.812 64.3887C114.89 63.9876 114.929 63.5091 114.929 62.9531Z" fill="#111111"/>
<path d="M86.1268 89.2627L85.115 89.0029L85.6141 84.0469H90.7205V85.2158H86.6873L86.3865 87.9229C86.5688 87.818 86.799 87.7201 87.077 87.6289C87.3595 87.5378 87.6831 87.4922 88.0477 87.4922C88.5079 87.4922 88.9204 87.5719 89.285 87.7314C89.6495 87.8864 89.9594 88.1097 90.2146 88.4014C90.4744 88.693 90.6727 89.0439 90.8094 89.4541C90.9461 89.8643 91.0145 90.3223 91.0145 90.8281C91.0145 91.3066 90.9484 91.7464 90.8162 92.1475C90.6886 92.5485 90.4949 92.8994 90.2352 93.2002C89.9754 93.4964 89.6473 93.7266 89.2508 93.8906C88.8589 94.0547 88.3963 94.1367 87.8631 94.1367C87.462 94.1367 87.0815 94.082 86.7215 93.9727C86.366 93.8587 86.047 93.6878 85.7645 93.46C85.4865 93.2275 85.2586 92.9404 85.0809 92.5986C84.9077 92.2523 84.7983 91.8467 84.7527 91.3818H85.9559C86.0105 91.7555 86.1199 92.07 86.284 92.3252C86.448 92.5804 86.6622 92.7741 86.9266 92.9062C87.1954 93.0339 87.5076 93.0977 87.8631 93.0977C88.1639 93.0977 88.4305 93.0452 88.6629 92.9404C88.8953 92.8356 89.0913 92.6852 89.2508 92.4893C89.4103 92.2933 89.5311 92.0563 89.6131 91.7783C89.6997 91.5003 89.743 91.1882 89.743 90.8418C89.743 90.5273 89.6997 90.2357 89.6131 89.9668C89.5265 89.6979 89.3966 89.4632 89.2234 89.2627C89.0548 89.0622 88.8475 88.9072 88.6014 88.7979C88.3553 88.6839 88.0727 88.627 87.7537 88.627C87.3299 88.627 87.0086 88.6839 86.7898 88.7979C86.5757 88.9118 86.3546 89.0667 86.1268 89.2627ZM99.2502 88.2305V89.748C99.2502 90.5638 99.1773 91.252 99.0314 91.8125C98.8856 92.373 98.676 92.8242 98.4025 93.166C98.1291 93.5078 97.7987 93.7562 97.4113 93.9111C97.0285 94.0615 96.5956 94.1367 96.1125 94.1367C95.7297 94.1367 95.3765 94.0889 95.0529 93.9932C94.7294 93.8975 94.4377 93.7448 94.1779 93.5352C93.9227 93.321 93.704 93.043 93.5217 92.7012C93.3394 92.3594 93.2004 91.9447 93.1047 91.457C93.009 90.9694 92.9611 90.3997 92.9611 89.748V88.2305C92.9611 87.4147 93.0341 86.7311 93.1799 86.1797C93.3303 85.6283 93.5422 85.1862 93.8156 84.8535C94.0891 84.5163 94.4172 84.2747 94.8 84.1289C95.1874 83.9831 95.6203 83.9102 96.0988 83.9102C96.4862 83.9102 96.8417 83.958 97.1652 84.0537C97.4934 84.1449 97.785 84.293 98.0402 84.498C98.2954 84.6986 98.5119 84.9674 98.6896 85.3047C98.8719 85.6374 99.0109 86.0452 99.1066 86.5283C99.2023 87.0114 99.2502 87.5788 99.2502 88.2305ZM97.9787 89.9531V88.0186C97.9787 87.5719 97.9514 87.18 97.8967 86.8428C97.8466 86.501 97.7714 86.2093 97.6711 85.9678C97.5708 85.7262 97.4432 85.5303 97.2883 85.3799C97.1379 85.2295 96.9624 85.1201 96.7619 85.0518C96.566 84.9788 96.3449 84.9424 96.0988 84.9424C95.798 84.9424 95.5314 84.9993 95.299 85.1133C95.0666 85.2227 94.8706 85.3981 94.7111 85.6396C94.5562 85.8812 94.4377 86.1979 94.3557 86.5898C94.2736 86.9818 94.2326 87.458 94.2326 88.0186V89.9531C94.2326 90.3997 94.2577 90.7939 94.3078 91.1357C94.3625 91.4775 94.4423 91.7738 94.5471 92.0244C94.6519 92.2705 94.7795 92.4733 94.9299 92.6328C95.0803 92.7923 95.2535 92.9108 95.4494 92.9883C95.6499 93.0612 95.871 93.0977 96.1125 93.0977C96.4224 93.0977 96.6936 93.0384 96.926 92.9199C97.1584 92.8014 97.3521 92.6169 97.507 92.3662C97.6665 92.111 97.785 91.7852 97.8625 91.3887C97.94 90.9876 97.9787 90.5091 97.9787 89.9531ZM107.725 88.2305V89.748C107.725 90.5638 107.652 91.252 107.506 91.8125C107.361 92.373 107.151 92.8242 106.878 93.166C106.604 93.5078 106.274 93.7562 105.886 93.9111C105.504 94.0615 105.071 94.1367 104.588 94.1367C104.205 94.1367 103.851 94.0889 103.528 93.9932C103.204 93.8975 102.913 93.7448 102.653 93.5352C102.398 93.321 102.179 93.043 101.997 92.7012C101.814 92.3594 101.675 91.9447 101.58 91.457C101.484 90.9694 101.436 90.3997 101.436 89.748V88.2305C101.436 87.4147 101.509 86.7311 101.655 86.1797C101.805 85.6283 102.017 85.1862 102.291 84.8535C102.564 84.5163 102.892 84.2747 103.275 84.1289C103.662 83.9831 104.095 83.9102 104.574 83.9102C104.961 83.9102 105.317 83.958 105.64 84.0537C105.968 84.1449 106.26 84.293 106.515 84.498C106.77 84.6986 106.987 84.9674 107.165 85.3047C107.347 85.6374 107.486 86.0452 107.582 86.5283C107.677 87.0114 107.725 87.5788 107.725 88.2305ZM106.454 89.9531V88.0186C106.454 87.5719 106.426 87.18 106.372 86.8428C106.322 86.501 106.246 86.2093 106.146 85.9678C106.046 85.7262 105.918 85.5303 105.763 85.3799C105.613 85.2295 105.437 85.1201 105.237 85.0518C105.041 84.9788 104.82 84.9424 104.574 84.9424C104.273 84.9424 104.006 84.9993 103.774 85.1133C103.542 85.2227 103.346 85.3981 103.186 85.6396C103.031 85.8812 102.913 86.1979 102.831 86.5898C102.749 86.9818 102.708 87.458 102.708 88.0186V89.9531C102.708 90.3997 102.733 90.7939 102.783 91.1357C102.838 91.4775 102.917 91.7738 103.022 92.0244C103.127 92.2705 103.254 92.4733 103.405 92.6328C103.555 92.7923 103.728 92.9108 103.924 92.9883C104.125 93.0612 104.346 93.0977 104.588 93.0977C104.897 93.0977 105.169 93.0384 105.401 92.9199C105.633 92.8014 105.827 92.6169 105.982 92.3662C106.142 92.111 106.26 91.7852 106.338 91.3887C106.415 90.9876 106.454 90.5091 106.454 89.9531ZM116.2 88.2305V89.748C116.2 90.5638 116.127 91.252 115.981 91.8125C115.836 92.373 115.626 92.8242 115.353 93.166C115.079 93.5078 114.749 93.7562 114.361 93.9111C113.979 94.0615 113.546 94.1367 113.062 94.1367C112.68 94.1367 112.326 94.0889 112.003 93.9932C111.679 93.8975 111.388 93.7448 111.128 93.5352C110.873 93.321 110.654 93.043 110.472 92.7012C110.289 92.3594 110.15 91.9447 110.055 91.457C109.959 90.9694 109.911 90.3997 109.911 89.748V88.2305C109.911 87.4147 109.984 86.7311 110.13 86.1797C110.28 85.6283 110.492 85.1862 110.766 84.8535C111.039 84.5163 111.367 84.2747 111.75 84.1289C112.137 83.9831 112.57 83.9102 113.049 83.9102C113.436 83.9102 113.792 83.958 114.115 84.0537C114.443 84.1449 114.735 84.293 114.99 84.498C115.245 84.6986 115.462 84.9674 115.64 85.3047C115.822 85.6374 115.961 86.0452 116.057 86.5283C116.152 87.0114 116.2 87.5788 116.2 88.2305ZM114.929 89.9531V88.0186C114.929 87.5719 114.901 87.18 114.847 86.8428C114.797 86.501 114.721 86.2093 114.621 85.9678C114.521 85.7262 114.393 85.5303 114.238 85.3799C114.088 85.2295 113.912 85.1201 113.712 85.0518C113.516 84.9788 113.295 84.9424 113.049 84.9424C112.748 84.9424 112.481 84.9993 112.249 85.1133C112.017 85.2227 111.821 85.3981 111.661 85.6396C111.506 85.8812 111.388 86.1979 111.306 86.5898C111.224 86.9818 111.183 87.458 111.183 88.0186V89.9531C111.183 90.3997 111.208 90.7939 111.258 91.1357C111.312 91.4775 111.392 91.7738 111.497 92.0244C111.602 92.2705 111.729 92.4733 111.88 92.6328C112.03 92.7923 112.203 92.9108 112.399 92.9883C112.6 93.0612 112.821 93.0977 113.062 93.0977C113.372 93.0977 113.644 93.0384 113.876 92.9199C114.108 92.8014 114.302 92.6169 114.457 92.3662C114.617 92.111 114.735 91.7852 114.812 91.3887C114.89 90.9876 114.929 90.5091 114.929 89.9531Z" fill="#111111"/>
<path d="M91.2537 117.65V118.689H84.0623V117.944L88.5193 111.047H89.5516L88.4441 113.043L85.4979 117.65H91.2537ZM89.866 111.047V121H88.6014V111.047H89.866ZM94.26 119.94H94.3898C95.119 119.94 95.7115 119.838 96.1672 119.633C96.6229 119.428 96.9738 119.152 97.2199 118.806C97.466 118.459 97.6346 118.07 97.7258 117.637C97.8169 117.199 97.8625 116.75 97.8625 116.29V114.766C97.8625 114.314 97.8101 113.913 97.7053 113.562C97.605 113.212 97.4637 112.918 97.2814 112.681C97.1037 112.444 96.9009 112.264 96.673 112.141C96.4452 112.018 96.2036 111.956 95.9484 111.956C95.6568 111.956 95.3947 112.015 95.1623 112.134C94.9344 112.248 94.7408 112.41 94.5813 112.619C94.4263 112.829 94.3078 113.075 94.2258 113.357C94.1438 113.64 94.1027 113.948 94.1027 114.28C94.1027 114.576 94.1392 114.864 94.2121 115.142C94.285 115.42 94.3967 115.67 94.5471 115.894C94.6975 116.117 94.8843 116.295 95.1076 116.427C95.3355 116.554 95.6021 116.618 95.9074 116.618C96.19 116.618 96.4543 116.563 96.7004 116.454C96.951 116.34 97.1721 116.188 97.3635 115.996C97.5594 115.8 97.7144 115.579 97.8283 115.333C97.9468 115.087 98.0152 114.829 98.0334 114.561H98.635C98.635 114.939 98.5598 115.312 98.4094 115.682C98.2635 116.046 98.0585 116.379 97.7941 116.68C97.5298 116.98 97.2199 117.222 96.8645 117.404C96.509 117.582 96.1216 117.671 95.7023 117.671C95.2102 117.671 94.7841 117.575 94.424 117.384C94.064 117.192 93.7678 116.937 93.5354 116.618C93.3075 116.299 93.1366 115.944 93.0227 115.552C92.9133 115.155 92.8586 114.754 92.8586 114.349C92.8586 113.875 92.9247 113.43 93.0568 113.016C93.189 112.601 93.385 112.236 93.6447 111.922C93.9045 111.603 94.2258 111.354 94.6086 111.177C94.996 110.999 95.4426 110.91 95.9484 110.91C96.5181 110.91 97.0035 111.024 97.4045 111.252C97.8055 111.48 98.1314 111.785 98.382 112.168C98.6372 112.551 98.8241 112.981 98.9426 113.46C99.0611 113.938 99.1203 114.431 99.1203 114.937V115.395C99.1203 115.91 99.0861 116.434 99.0178 116.967C98.954 117.495 98.8286 118.001 98.6418 118.484C98.4595 118.967 98.1929 119.4 97.842 119.783C97.4911 120.161 97.0331 120.462 96.468 120.686C95.9074 120.904 95.2147 121.014 94.3898 121.014H94.26V119.94ZM103.077 116.263L102.065 116.003L102.564 111.047H107.671V112.216H103.637L103.337 114.923C103.519 114.818 103.749 114.72 104.027 114.629C104.31 114.538 104.633 114.492 104.998 114.492C105.458 114.492 105.87 114.572 106.235 114.731C106.6 114.886 106.909 115.11 107.165 115.401C107.424 115.693 107.623 116.044 107.759 116.454C107.896 116.864 107.964 117.322 107.964 117.828C107.964 118.307 107.898 118.746 107.766 119.147C107.639 119.549 107.445 119.899 107.185 120.2C106.925 120.496 106.597 120.727 106.201 120.891C105.809 121.055 105.346 121.137 104.813 121.137C104.412 121.137 104.032 121.082 103.671 120.973C103.316 120.859 102.997 120.688 102.714 120.46C102.436 120.228 102.209 119.94 102.031 119.599C101.858 119.252 101.748 118.847 101.703 118.382H102.906C102.961 118.756 103.07 119.07 103.234 119.325C103.398 119.58 103.612 119.774 103.877 119.906C104.145 120.034 104.458 120.098 104.813 120.098C105.114 120.098 105.38 120.045 105.613 119.94C105.845 119.836 106.041 119.685 106.201 119.489C106.36 119.293 106.481 119.056 106.563 118.778C106.65 118.5 106.693 118.188 106.693 117.842C106.693 117.527 106.65 117.236 106.563 116.967C106.476 116.698 106.347 116.463 106.173 116.263C106.005 116.062 105.797 115.907 105.551 115.798C105.305 115.684 105.023 115.627 104.704 115.627C104.28 115.627 103.959 115.684 103.74 115.798C103.526 115.912 103.305 116.067 103.077 116.263ZM116.2 115.23V116.748C116.2 117.564 116.127 118.252 115.981 118.812C115.836 119.373 115.626 119.824 115.353 120.166C115.079 120.508 114.749 120.756 114.361 120.911C113.979 121.062 113.546 121.137 113.062 121.137C112.68 121.137 112.326 121.089 112.003 120.993C111.679 120.897 111.388 120.745 111.128 120.535C110.873 120.321 110.654 120.043 110.472 119.701C110.289 119.359 110.15 118.945 110.055 118.457C109.959 117.969 109.911 117.4 109.911 116.748V115.23C109.911 114.415 109.984 113.731 110.13 113.18C110.28 112.628 110.492 112.186 110.766 111.854C111.039 111.516 111.367 111.275 111.75 111.129C112.137 110.983 112.57 110.91 113.049 110.91C113.436 110.91 113.792 110.958 114.115 111.054C114.443 111.145 114.735 111.293 114.99 111.498C115.245 111.699 115.462 111.967 115.64 112.305C115.822 112.637 115.961 113.045 116.057 113.528C116.152 114.011 116.2 114.579 116.2 115.23ZM114.929 116.953V115.019C114.929 114.572 114.901 114.18 114.847 113.843C114.797 113.501 114.721 113.209 114.621 112.968C114.521 112.726 114.393 112.53 114.238 112.38C114.088 112.229 113.912 112.12 113.712 112.052C113.516 111.979 113.295 111.942 113.049 111.942C112.748 111.942 112.481 111.999 112.249 112.113C112.017 112.223 111.821 112.398 111.661 112.64C111.506 112.881 111.388 113.198 111.306 113.59C111.224 113.982 111.183 114.458 111.183 115.019V116.953C111.183 117.4 111.208 117.794 111.258 118.136C111.312 118.478 111.392 118.774 111.497 119.024C111.602 119.271 111.729 119.473 111.88 119.633C112.03 119.792 112.203 119.911 112.399 119.988C112.6 120.061 112.821 120.098 113.062 120.098C113.372 120.098 113.644 120.038 113.876 119.92C114.108 119.801 114.302 119.617 114.457 119.366C114.617 119.111 114.735 118.785 114.812 118.389C114.89 117.988 114.929 117.509 114.929 116.953Z" fill="#111111"/>
<path d="M91.2537 144.65V145.689H84.0623V144.944L88.5193 138.047H89.5516L88.4441 140.043L85.4979 144.65H91.2537ZM89.866 138.047V148H88.6014V138.047H89.866ZM94.26 146.94H94.3898C95.119 146.94 95.7115 146.838 96.1672 146.633C96.6229 146.428 96.9738 146.152 97.2199 145.806C97.466 145.459 97.6346 145.07 97.7258 144.637C97.8169 144.199 97.8625 143.75 97.8625 143.29V141.766C97.8625 141.314 97.8101 140.913 97.7053 140.562C97.605 140.212 97.4637 139.918 97.2814 139.681C97.1037 139.444 96.9009 139.264 96.673 139.141C96.4452 139.018 96.2036 138.956 95.9484 138.956C95.6568 138.956 95.3947 139.015 95.1623 139.134C94.9344 139.248 94.7408 139.41 94.5813 139.619C94.4263 139.829 94.3078 140.075 94.2258 140.357C94.1438 140.64 94.1027 140.948 94.1027 141.28C94.1027 141.576 94.1392 141.864 94.2121 142.142C94.285 142.42 94.3967 142.67 94.5471 142.894C94.6975 143.117 94.8843 143.295 95.1076 143.427C95.3355 143.554 95.6021 143.618 95.9074 143.618C96.19 143.618 96.4543 143.563 96.7004 143.454C96.951 143.34 97.1721 143.188 97.3635 142.996C97.5594 142.8 97.7144 142.579 97.8283 142.333C97.9468 142.087 98.0152 141.829 98.0334 141.561H98.635C98.635 141.939 98.5598 142.312 98.4094 142.682C98.2635 143.046 98.0585 143.379 97.7941 143.68C97.5298 143.98 97.2199 144.222 96.8645 144.404C96.509 144.582 96.1216 144.671 95.7023 144.671C95.2102 144.671 94.7841 144.575 94.424 144.384C94.064 144.192 93.7678 143.937 93.5354 143.618C93.3075 143.299 93.1366 142.944 93.0227 142.552C92.9133 142.155 92.8586 141.754 92.8586 141.349C92.8586 140.875 92.9247 140.43 93.0568 140.016C93.189 139.601 93.385 139.236 93.6447 138.922C93.9045 138.603 94.2258 138.354 94.6086 138.177C94.996 137.999 95.4426 137.91 95.9484 137.91C96.5181 137.91 97.0035 138.024 97.4045 138.252C97.8055 138.48 98.1314 138.785 98.382 139.168C98.6372 139.551 98.8241 139.981 98.9426 140.46C99.0611 140.938 99.1203 141.431 99.1203 141.937V142.395C99.1203 142.91 99.0861 143.434 99.0178 143.967C98.954 144.495 98.8286 145.001 98.6418 145.484C98.4595 145.967 98.1929 146.4 97.842 146.783C97.4911 147.161 97.0331 147.462 96.468 147.686C95.9074 147.904 95.2147 148.014 94.3898 148.014H94.26V146.94ZM107.725 142.23V143.748C107.725 144.564 107.652 145.252 107.506 145.812C107.361 146.373 107.151 146.824 106.878 147.166C106.604 147.508 106.274 147.756 105.886 147.911C105.504 148.062 105.071 148.137 104.588 148.137C104.205 148.137 103.851 148.089 103.528 147.993C103.204 147.897 102.913 147.745 102.653 147.535C102.398 147.321 102.179 147.043 101.997 146.701C101.814 146.359 101.675 145.945 101.58 145.457C101.484 144.969 101.436 144.4 101.436 143.748V142.23C101.436 141.415 101.509 140.731 101.655 140.18C101.805 139.628 102.017 139.186 102.291 138.854C102.564 138.516 102.892 138.275 103.275 138.129C103.662 137.983 104.095 137.91 104.574 137.91C104.961 137.91 105.317 137.958 105.64 138.054C105.968 138.145 106.26 138.293 106.515 138.498C106.77 138.699 106.987 138.967 107.165 139.305C107.347 139.637 107.486 140.045 107.582 140.528C107.677 141.011 107.725 141.579 107.725 142.23ZM106.454 143.953V142.019C106.454 141.572 106.426 141.18 106.372 140.843C106.322 140.501 106.246 140.209 106.146 139.968C106.046 139.726 105.918 139.53 105.763 139.38C105.613 139.229 105.437 139.12 105.237 139.052C105.041 138.979 104.82 138.942 104.574 138.942C104.273 138.942 104.006 138.999 103.774 139.113C103.542 139.223 103.346 139.398 103.186 139.64C103.031 139.881 102.913 140.198 102.831 140.59C102.749 140.982 102.708 141.458 102.708 142.019V143.953C102.708 144.4 102.733 144.794 102.783 145.136C102.838 145.478 102.917 145.774 103.022 146.024C103.127 146.271 103.254 146.473 103.405 146.633C103.555 146.792 103.728 146.911 103.924 146.988C104.125 147.061 104.346 147.098 104.588 147.098C104.897 147.098 105.169 147.038 105.401 146.92C105.633 146.801 105.827 146.617 105.982 146.366C106.142 146.111 106.26 145.785 106.338 145.389C106.415 144.988 106.454 144.509 106.454 143.953ZM116.2 142.23V143.748C116.2 144.564 116.127 145.252 115.981 145.812C115.836 146.373 115.626 146.824 115.353 147.166C115.079 147.508 114.749 147.756 114.361 147.911C113.979 148.062 113.546 148.137 113.062 148.137C112.68 148.137 112.326 148.089 112.003 147.993C111.679 147.897 111.388 147.745 111.128 147.535C110.873 147.321 110.654 147.043 110.472 146.701C110.289 146.359 110.15 145.945 110.055 145.457C109.959 144.969 109.911 144.4 109.911 143.748V142.23C109.911 141.415 109.984 140.731 110.13 140.18C110.28 139.628 110.492 139.186 110.766 138.854C111.039 138.516 111.367 138.275 111.75 138.129C112.137 137.983 112.57 137.91 113.049 137.91C113.436 137.91 113.792 137.958 114.115 138.054C114.443 138.145 114.735 138.293 114.99 138.498C115.245 138.699 115.462 138.967 115.64 139.305C115.822 139.637 115.961 140.045 116.057 140.528C116.152 141.011 116.2 141.579 116.2 142.23ZM114.929 143.953V142.019C114.929 141.572 114.901 141.18 114.847 140.843C114.797 140.501 114.721 140.209 114.621 139.968C114.521 139.726 114.393 139.53 114.238 139.38C114.088 139.229 113.912 139.12 113.712 139.052C113.516 138.979 113.295 138.942 113.049 138.942C112.748 138.942 112.481 138.999 112.249 139.113C112.017 139.223 111.821 139.398 111.661 139.64C111.506 139.881 111.388 140.198 111.306 140.59C111.224 140.982 111.183 141.458 111.183 142.019V143.953C111.183 144.4 111.208 144.794 111.258 145.136C111.312 145.478 111.392 145.774 111.497 146.024C111.602 146.271 111.729 146.473 111.88 146.633C112.03 146.792 112.203 146.911 112.399 146.988C112.6 147.061 112.821 147.098 113.062 147.098C113.372 147.098 113.644 147.038 113.876 146.92C114.108 146.801 114.302 146.617 114.457 146.366C114.617 146.111 114.735 145.785 114.812 145.389C114.89 144.988 114.929 144.509 114.929 143.953Z" fill="#111111"/>
<path d="M91.2537 171.65V172.689H84.0623V171.944L88.5193 165.047H89.5516L88.4441 167.043L85.4979 171.65H91.2537ZM89.866 165.047V175H88.6014V165.047H89.866ZM99.2775 172.307C99.2775 172.913 99.1363 173.428 98.8537 173.852C98.5757 174.271 98.1975 174.59 97.7189 174.809C97.245 175.027 96.7095 175.137 96.1125 175.137C95.5155 175.137 94.9777 175.027 94.4992 174.809C94.0207 174.59 93.6424 174.271 93.3645 173.852C93.0865 173.428 92.9475 172.913 92.9475 172.307C92.9475 171.91 93.0227 171.548 93.173 171.22C93.328 170.887 93.5445 170.598 93.8225 170.352C94.105 170.105 94.4377 169.916 94.8205 169.784C95.2079 169.647 95.634 169.579 96.0988 169.579C96.7095 169.579 97.2541 169.698 97.7326 169.935C98.2111 170.167 98.5871 170.488 98.8605 170.898C99.1385 171.309 99.2775 171.778 99.2775 172.307ZM98.0061 172.279C98.0061 171.91 97.9263 171.584 97.7668 171.302C97.6073 171.015 97.384 170.791 97.0969 170.632C96.8098 170.472 96.4771 170.393 96.0988 170.393C95.7115 170.393 95.3765 170.472 95.0939 170.632C94.816 170.791 94.5995 171.015 94.4445 171.302C94.2896 171.584 94.2121 171.91 94.2121 172.279C94.2121 172.662 94.2873 172.99 94.4377 173.264C94.5926 173.533 94.8114 173.74 95.0939 173.886C95.3811 174.027 95.7206 174.098 96.1125 174.098C96.5044 174.098 96.8417 174.027 97.1242 173.886C97.4068 173.74 97.6232 173.533 97.7736 173.264C97.9286 172.99 98.0061 172.662 98.0061 172.279ZM99.0451 167.638C99.0451 168.121 98.9175 168.556 98.6623 168.943C98.4071 169.331 98.0585 169.636 97.6164 169.859C97.1744 170.083 96.673 170.194 96.1125 170.194C95.5428 170.194 95.0347 170.083 94.5881 169.859C94.146 169.636 93.7997 169.331 93.549 168.943C93.2984 168.556 93.173 168.121 93.173 167.638C93.173 167.059 93.2984 166.567 93.549 166.161C93.8042 165.756 94.1529 165.446 94.5949 165.231C95.037 165.017 95.5406 164.91 96.1057 164.91C96.6753 164.91 97.1812 165.017 97.6232 165.231C98.0653 165.446 98.4117 165.756 98.6623 166.161C98.9175 166.567 99.0451 167.059 99.0451 167.638ZM97.7805 167.658C97.7805 167.326 97.7098 167.032 97.5686 166.776C97.4273 166.521 97.2313 166.321 96.9807 166.175C96.73 166.024 96.4383 165.949 96.1057 165.949C95.773 165.949 95.4813 166.02 95.2307 166.161C94.9846 166.298 94.7909 166.494 94.6496 166.749C94.5129 167.004 94.4445 167.307 94.4445 167.658C94.4445 168 94.5129 168.299 94.6496 168.554C94.7909 168.809 94.9869 169.007 95.2375 169.148C95.4882 169.29 95.7798 169.36 96.1125 169.36C96.4452 169.36 96.7346 169.29 96.9807 169.148C97.2313 169.007 97.4273 168.809 97.5686 168.554C97.7098 168.299 97.7805 168 97.7805 167.658ZM103.077 170.263L102.065 170.003L102.564 165.047H107.671V166.216H103.637L103.337 168.923C103.519 168.818 103.749 168.72 104.027 168.629C104.31 168.538 104.633 168.492 104.998 168.492C105.458 168.492 105.87 168.572 106.235 168.731C106.6 168.886 106.909 169.11 107.165 169.401C107.424 169.693 107.623 170.044 107.759 170.454C107.896 170.864 107.964 171.322 107.964 171.828C107.964 172.307 107.898 172.746 107.766 173.147C107.639 173.549 107.445 173.899 107.185 174.2C106.925 174.496 106.597 174.727 106.201 174.891C105.809 175.055 105.346 175.137 104.813 175.137C104.412 175.137 104.032 175.082 103.671 174.973C103.316 174.859 102.997 174.688 102.714 174.46C102.436 174.228 102.209 173.94 102.031 173.599C101.858 173.252 101.748 172.847 101.703 172.382H102.906C102.961 172.756 103.07 173.07 103.234 173.325C103.398 173.58 103.612 173.774 103.877 173.906C104.145 174.034 104.458 174.098 104.813 174.098C105.114 174.098 105.38 174.045 105.613 173.94C105.845 173.836 106.041 173.685 106.201 173.489C106.36 173.293 106.481 173.056 106.563 172.778C106.65 172.5 106.693 172.188 106.693 171.842C106.693 171.527 106.65 171.236 106.563 170.967C106.476 170.698 106.347 170.463 106.173 170.263C106.005 170.062 105.797 169.907 105.551 169.798C105.305 169.684 105.023 169.627 104.704 169.627C104.28 169.627 103.959 169.684 103.74 169.798C103.526 169.912 103.305 170.067 103.077 170.263ZM116.2 169.23V170.748C116.2 171.564 116.127 172.252 115.981 172.812C115.836 173.373 115.626 173.824 115.353 174.166C115.079 174.508 114.749 174.756 114.361 174.911C113.979 175.062 113.546 175.137 113.062 175.137C112.68 175.137 112.326 175.089 112.003 174.993C111.679 174.897 111.388 174.745 111.128 174.535C110.873 174.321 110.654 174.043 110.472 173.701C110.289 173.359 110.15 172.945 110.055 172.457C109.959 171.969 109.911 171.4 109.911 170.748V169.23C109.911 168.415 109.984 167.731 110.13 167.18C110.28 166.628 110.492 166.186 110.766 165.854C111.039 165.516 111.367 165.275 111.75 165.129C112.137 164.983 112.57 164.91 113.049 164.91C113.436 164.91 113.792 164.958 114.115 165.054C114.443 165.145 114.735 165.293 114.99 165.498C115.245 165.699 115.462 165.967 115.64 166.305C115.822 166.637 115.961 167.045 116.057 167.528C116.152 168.011 116.2 168.579 116.2 169.23ZM114.929 170.953V169.019C114.929 168.572 114.901 168.18 114.847 167.843C114.797 167.501 114.721 167.209 114.621 166.968C114.521 166.726 114.393 166.53 114.238 166.38C114.088 166.229 113.912 166.12 113.712 166.052C113.516 165.979 113.295 165.942 113.049 165.942C112.748 165.942 112.481 165.999 112.249 166.113C112.017 166.223 111.821 166.398 111.661 166.64C111.506 166.881 111.388 167.198 111.306 167.59C111.224 167.982 111.183 168.458 111.183 169.019V170.953C111.183 171.4 111.208 171.794 111.258 172.136C111.312 172.478 111.392 172.774 111.497 173.024C111.602 173.271 111.729 173.473 111.88 173.633C112.03 173.792 112.203 173.911 112.399 173.988C112.6 174.061 112.821 174.098 113.062 174.098C113.372 174.098 113.644 174.038 113.876 173.92C114.108 173.801 114.302 173.617 114.457 173.366C114.617 173.111 114.735 172.785 114.812 172.389C114.89 171.988 114.929 171.509 114.929 170.953Z" fill="#111111"/>
<path d="M91.2537 198.65V199.689H84.0623V198.944L88.5193 192.047H89.5516L88.4441 194.043L85.4979 198.65H91.2537ZM89.866 192.047V202H88.6014V192.047H89.866ZM99.2775 199.307C99.2775 199.913 99.1363 200.428 98.8537 200.852C98.5757 201.271 98.1975 201.59 97.7189 201.809C97.245 202.027 96.7095 202.137 96.1125 202.137C95.5155 202.137 94.9777 202.027 94.4992 201.809C94.0207 201.59 93.6424 201.271 93.3645 200.852C93.0865 200.428 92.9475 199.913 92.9475 199.307C92.9475 198.91 93.0227 198.548 93.173 198.22C93.328 197.887 93.5445 197.598 93.8225 197.352C94.105 197.105 94.4377 196.916 94.8205 196.784C95.2079 196.647 95.634 196.579 96.0988 196.579C96.7095 196.579 97.2541 196.698 97.7326 196.935C98.2111 197.167 98.5871 197.488 98.8605 197.898C99.1385 198.309 99.2775 198.778 99.2775 199.307ZM98.0061 199.279C98.0061 198.91 97.9263 198.584 97.7668 198.302C97.6073 198.015 97.384 197.791 97.0969 197.632C96.8098 197.472 96.4771 197.393 96.0988 197.393C95.7115 197.393 95.3765 197.472 95.0939 197.632C94.816 197.791 94.5995 198.015 94.4445 198.302C94.2896 198.584 94.2121 198.91 94.2121 199.279C94.2121 199.662 94.2873 199.99 94.4377 200.264C94.5926 200.533 94.8114 200.74 95.0939 200.886C95.3811 201.027 95.7206 201.098 96.1125 201.098C96.5044 201.098 96.8417 201.027 97.1242 200.886C97.4068 200.74 97.6232 200.533 97.7736 200.264C97.9286 199.99 98.0061 199.662 98.0061 199.279ZM99.0451 194.638C99.0451 195.121 98.9175 195.556 98.6623 195.943C98.4071 196.331 98.0585 196.636 97.6164 196.859C97.1744 197.083 96.673 197.194 96.1125 197.194C95.5428 197.194 95.0347 197.083 94.5881 196.859C94.146 196.636 93.7997 196.331 93.549 195.943C93.2984 195.556 93.173 195.121 93.173 194.638C93.173 194.059 93.2984 193.567 93.549 193.161C93.8042 192.756 94.1529 192.446 94.5949 192.231C95.037 192.017 95.5406 191.91 96.1057 191.91C96.6753 191.91 97.1812 192.017 97.6232 192.231C98.0653 192.446 98.4117 192.756 98.6623 193.161C98.9175 193.567 99.0451 194.059 99.0451 194.638ZM97.7805 194.658C97.7805 194.326 97.7098 194.032 97.5686 193.776C97.4273 193.521 97.2313 193.321 96.9807 193.175C96.73 193.024 96.4383 192.949 96.1057 192.949C95.773 192.949 95.4813 193.02 95.2307 193.161C94.9846 193.298 94.7909 193.494 94.6496 193.749C94.5129 194.004 94.4445 194.307 94.4445 194.658C94.4445 195 94.5129 195.299 94.6496 195.554C94.7909 195.809 94.9869 196.007 95.2375 196.148C95.4882 196.29 95.7798 196.36 96.1125 196.36C96.4452 196.36 96.7346 196.29 96.9807 196.148C97.2313 196.007 97.4273 195.809 97.5686 195.554C97.7098 195.299 97.7805 195 97.7805 194.658ZM107.725 196.23V197.748C107.725 198.564 107.652 199.252 107.506 199.812C107.361 200.373 107.151 200.824 106.878 201.166C106.604 201.508 106.274 201.756 105.886 201.911C105.504 202.062 105.071 202.137 104.588 202.137C104.205 202.137 103.851 202.089 103.528 201.993C103.204 201.897 102.913 201.745 102.653 201.535C102.398 201.321 102.179 201.043 101.997 200.701C101.814 200.359 101.675 199.945 101.58 199.457C101.484 198.969 101.436 198.4 101.436 197.748V196.23C101.436 195.415 101.509 194.731 101.655 194.18C101.805 193.628 102.017 193.186 102.291 192.854C102.564 192.516 102.892 192.275 103.275 192.129C103.662 191.983 104.095 191.91 104.574 191.91C104.961 191.91 105.317 191.958 105.64 192.054C105.968 192.145 106.26 192.293 106.515 192.498C106.77 192.699 106.987 192.967 107.165 193.305C107.347 193.637 107.486 194.045 107.582 194.528C107.677 195.011 107.725 195.579 107.725 196.23ZM106.454 197.953V196.019C106.454 195.572 106.426 195.18 106.372 194.843C106.322 194.501 106.246 194.209 106.146 193.968C106.046 193.726 105.918 193.53 105.763 193.38C105.613 193.229 105.437 193.12 105.237 193.052C105.041 192.979 104.82 192.942 104.574 192.942C104.273 192.942 104.006 192.999 103.774 193.113C103.542 193.223 103.346 193.398 103.186 193.64C103.031 193.881 102.913 194.198 102.831 194.59C102.749 194.982 102.708 195.458 102.708 196.019V197.953C102.708 198.4 102.733 198.794 102.783 199.136C102.838 199.478 102.917 199.774 103.022 200.024C103.127 200.271 103.254 200.473 103.405 200.633C103.555 200.792 103.728 200.911 103.924 200.988C104.125 201.061 104.346 201.098 104.588 201.098C104.897 201.098 105.169 201.038 105.401 200.92C105.633 200.801 105.827 200.617 105.982 200.366C106.142 200.111 106.26 199.785 106.338 199.389C106.415 198.988 106.454 198.509 106.454 197.953ZM116.2 196.23V197.748C116.2 198.564 116.127 199.252 115.981 199.812C115.836 200.373 115.626 200.824 115.353 201.166C115.079 201.508 114.749 201.756 114.361 201.911C113.979 202.062 113.546 202.137 113.062 202.137C112.68 202.137 112.326 202.089 112.003 201.993C111.679 201.897 111.388 201.745 111.128 201.535C110.873 201.321 110.654 201.043 110.472 200.701C110.289 200.359 110.15 199.945 110.055 199.457C109.959 198.969 109.911 198.4 109.911 197.748V196.23C109.911 195.415 109.984 194.731 110.13 194.18C110.28 193.628 110.492 193.186 110.766 192.854C111.039 192.516 111.367 192.275 111.75 192.129C112.137 191.983 112.57 191.91 113.049 191.91C113.436 191.91 113.792 191.958 114.115 192.054C114.443 192.145 114.735 192.293 114.99 192.498C115.245 192.699 115.462 192.967 115.64 193.305C115.822 193.637 115.961 194.045 116.057 194.528C116.152 195.011 116.2 195.579 116.2 196.23ZM114.929 197.953V196.019C114.929 195.572 114.901 195.18 114.847 194.843C114.797 194.501 114.721 194.209 114.621 193.968C114.521 193.726 114.393 193.53 114.238 193.38C114.088 193.229 113.912 193.12 113.712 193.052C113.516 192.979 113.295 192.942 113.049 192.942C112.748 192.942 112.481 192.999 112.249 193.113C112.017 193.223 111.821 193.398 111.661 193.64C111.506 193.881 111.388 194.198 111.306 194.59C111.224 194.982 111.183 195.458 111.183 196.019V197.953C111.183 198.4 111.208 198.794 111.258 199.136C111.312 199.478 111.392 199.774 111.497 200.024C111.602 200.271 111.729 200.473 111.88 200.633C112.03 200.792 112.203 200.911 112.399 200.988C112.6 201.061 112.821 201.098 113.062 201.098C113.372 201.098 113.644 201.038 113.876 200.92C114.108 200.801 114.302 200.617 114.457 200.366C114.617 200.111 114.735 199.785 114.812 199.389C114.89 198.988 114.929 198.509 114.929 197.953Z" fill="#111111"/>
<path d="M91.2537 225.65V226.689H84.0623V225.944L88.5193 219.047H89.5516L88.4441 221.043L85.4979 225.65H91.2537ZM89.866 219.047V229H88.6014V219.047H89.866ZM99.4348 219.047V219.758L95.3127 229H93.9797L98.0949 220.086H92.7082V219.047H99.4348ZM103.077 224.263L102.065 224.003L102.564 219.047H107.671V220.216H103.637L103.337 222.923C103.519 222.818 103.749 222.72 104.027 222.629C104.31 222.538 104.633 222.492 104.998 222.492C105.458 222.492 105.87 222.572 106.235 222.731C106.6 222.886 106.909 223.11 107.165 223.401C107.424 223.693 107.623 224.044 107.759 224.454C107.896 224.864 107.964 225.322 107.964 225.828C107.964 226.307 107.898 226.746 107.766 227.147C107.639 227.549 107.445 227.899 107.185 228.2C106.925 228.496 106.597 228.727 106.201 228.891C105.809 229.055 105.346 229.137 104.813 229.137C104.412 229.137 104.032 229.082 103.671 228.973C103.316 228.859 102.997 228.688 102.714 228.46C102.436 228.228 102.209 227.94 102.031 227.599C101.858 227.252 101.748 226.847 101.703 226.382H102.906C102.961 226.756 103.07 227.07 103.234 227.325C103.398 227.58 103.612 227.774 103.877 227.906C104.145 228.034 104.458 228.098 104.813 228.098C105.114 228.098 105.38 228.045 105.613 227.94C105.845 227.836 106.041 227.685 106.201 227.489C106.36 227.293 106.481 227.056 106.563 226.778C106.65 226.5 106.693 226.188 106.693 225.842C106.693 225.527 106.65 225.236 106.563 224.967C106.476 224.698 106.347 224.463 106.173 224.263C106.005 224.062 105.797 223.907 105.551 223.798C105.305 223.684 105.023 223.627 104.704 223.627C104.28 223.627 103.959 223.684 103.74 223.798C103.526 223.912 103.305 224.067 103.077 224.263ZM116.2 223.23V224.748C116.2 225.564 116.127 226.252 115.981 226.812C115.836 227.373 115.626 227.824 115.353 228.166C115.079 228.508 114.749 228.756 114.361 228.911C113.979 229.062 113.546 229.137 113.062 229.137C112.68 229.137 112.326 229.089 112.003 228.993C111.679 228.897 111.388 228.745 111.128 228.535C110.873 228.321 110.654 228.043 110.472 227.701C110.289 227.359 110.15 226.945 110.055 226.457C109.959 225.969 109.911 225.4 109.911 224.748V223.23C109.911 222.415 109.984 221.731 110.13 221.18C110.28 220.628 110.492 220.186 110.766 219.854C111.039 219.516 111.367 219.275 111.75 219.129C112.137 218.983 112.57 218.91 113.049 218.91C113.436 218.91 113.792 218.958 114.115 219.054C114.443 219.145 114.735 219.293 114.99 219.498C115.245 219.699 115.462 219.967 115.64 220.305C115.822 220.637 115.961 221.045 116.057 221.528C116.152 222.011 116.2 222.579 116.2 223.23ZM114.929 224.953V223.019C114.929 222.572 114.901 222.18 114.847 221.843C114.797 221.501 114.721 221.209 114.621 220.968C114.521 220.726 114.393 220.53 114.238 220.38C114.088 220.229 113.912 220.12 113.712 220.052C113.516 219.979 113.295 219.942 113.049 219.942C112.748 219.942 112.481 219.999 112.249 220.113C112.017 220.223 111.821 220.398 111.661 220.64C111.506 220.881 111.388 221.198 111.306 221.59C111.224 221.982 111.183 222.458 111.183 223.019V224.953C111.183 225.4 111.208 225.794 111.258 226.136C111.312 226.478 111.392 226.774 111.497 227.024C111.602 227.271 111.729 227.473 111.88 227.633C112.03 227.792 112.203 227.911 112.399 227.988C112.6 228.061 112.821 228.098 113.062 228.098C113.372 228.098 113.644 228.038 113.876 227.92C114.108 227.801 114.302 227.617 114.457 227.366C114.617 227.111 114.735 226.785 114.812 226.389C114.89 225.988 114.929 225.509 114.929 224.953Z" fill="#111111"/>
<path d="M129 10H1153" stroke="#ECECEC"/>
<path d="M129 37H1153" stroke="#ECECEC"/>
<path d="M129 64H1153" stroke="#ECECEC"/>
<path d="M129 91H1153" stroke="#ECECEC"/>
<path d="M129 118H1153" stroke="#ECECEC"/>
<path d="M129 145H1153" stroke="#ECECEC"/>
<path d="M129 172H1153" stroke="#ECECEC"/>
<path d="M129 199H1153" stroke="#ECECEC"/>
<path d="M129 226H1153" stroke="#ECECEC"/>
<path d="M198.759 249.273H201.034L203.438 255.136H203.54L205.943 249.273H208.219V258H206.429V252.32H206.357L204.098 257.957H202.879L200.621 252.298H200.548V258H198.759V249.273ZM211.159 258H209.182L212.195 249.273H214.573L217.581 258H215.604L213.418 251.267H213.35L211.159 258ZM211.036 254.57H215.706V256.01H211.036V254.57ZM217.146 249.273H219.212L221.202 253.031H221.288L223.278 249.273H225.344L222.161 254.915V258H220.329V254.915L217.146 249.273Z" fill="#464646"/>
<path d="M615.253 249.273H617.077V255.358C617.077 255.92 616.95 256.409 616.697 256.824C616.447 257.239 616.099 257.558 615.653 257.783C615.207 258.007 614.689 258.119 614.098 258.119C613.572 258.119 613.095 258.027 612.666 257.842C612.24 257.655 611.902 257.371 611.652 256.99C611.402 256.607 611.278 256.125 611.281 255.545H613.118C613.124 255.776 613.17 255.973 613.259 256.138C613.349 256.3 613.473 256.425 613.629 256.513C613.788 256.598 613.976 256.641 614.192 256.641C614.419 256.641 614.611 256.592 614.767 256.496C614.926 256.396 615.047 256.251 615.129 256.061C615.212 255.871 615.253 255.636 615.253 255.358V249.273ZM623.909 249.273H625.754V254.94C625.754 255.577 625.602 256.134 625.298 256.611C624.997 257.088 624.575 257.46 624.032 257.727C623.49 257.991 622.858 258.124 622.136 258.124C621.412 258.124 620.778 257.991 620.236 257.727C619.693 257.46 619.271 257.088 618.97 256.611C618.669 256.134 618.518 255.577 618.518 254.94V249.273H620.363V254.783C620.363 255.115 620.436 255.411 620.581 255.669C620.729 255.928 620.936 256.131 621.203 256.278C621.47 256.426 621.781 256.5 622.136 256.5C622.494 256.5 622.805 256.426 623.069 256.278C623.336 256.131 623.542 255.928 623.687 255.669C623.835 255.411 623.909 255.115 623.909 254.783V249.273ZM634.488 249.273V258H632.894L629.097 252.507H629.033V258H627.188V249.273H628.807L632.575 254.761H632.651V249.273H634.488ZM635.928 258V249.273H641.809V250.794H637.774V252.874H641.507V254.395H637.774V256.479H641.826V258H635.928Z" fill="#464646"/>
<path d="M1032.25 249.273H1034.08V255.358C1034.08 255.92 1033.95 256.409 1033.7 256.824C1033.45 257.239 1033.1 257.558 1032.65 257.783C1032.21 258.007 1031.69 258.119 1031.1 258.119C1030.57 258.119 1030.1 258.027 1029.67 257.842C1029.24 257.655 1028.9 257.371 1028.65 256.99C1028.4 256.607 1028.28 256.125 1028.28 255.545H1030.12C1030.12 255.776 1030.17 255.973 1030.26 256.138C1030.35 256.3 1030.47 256.425 1030.63 256.513C1030.79 256.598 1030.98 256.641 1031.19 256.641C1031.42 256.641 1031.61 256.592 1031.77 256.496C1031.93 256.396 1032.05 256.251 1032.13 256.061C1032.21 255.871 1032.25 255.636 1032.25 255.358V249.273ZM1040.91 249.273H1042.75V254.94C1042.75 255.577 1042.6 256.134 1042.3 256.611C1042 257.088 1041.58 257.46 1041.03 257.727C1040.49 257.991 1039.86 258.124 1039.14 258.124C1038.41 258.124 1037.78 257.991 1037.24 257.727C1036.69 257.46 1036.27 257.088 1035.97 256.611C1035.67 256.134 1035.52 255.577 1035.52 254.94V249.273H1037.36V254.783C1037.36 255.115 1037.44 255.411 1037.58 255.669C1037.73 255.928 1037.94 256.131 1038.2 256.278C1038.47 256.426 1038.78 256.5 1039.14 256.5C1039.49 256.5 1039.81 256.426 1040.07 256.278C1040.34 256.131 1040.54 255.928 1040.69 255.669C1040.84 255.411 1040.91 255.115 1040.91 254.783V249.273ZM1044.19 258V249.273H1046.03V256.479H1049.77V258H1044.19ZM1049.29 249.273H1051.35L1053.34 253.031H1053.43L1055.42 249.273H1057.49L1054.3 254.915V258H1052.47V254.915L1049.29 249.273Z" fill="#464646"/>
<path d="M144 37L167 10H317L444.5 28.5H519L544.5 9C554.167 60 579.4 167.4 603 189H626.5L643.5 205.5L651.5 223.5L727.5 103H847.5L885 189L936 28.5L965 9H1022V74.5H1107.5L1153 65" stroke="#D36611" stroke-width="2"/>
</svg>
