<svg width="200" height="44" viewBox="0 0 200 44" fill="none" xmlns="http://www.w3.org/2000/svg">
<path fill-rule="evenodd" clip-rule="evenodd" d="M25.9313 4.69459e-07C19.4876 -0.00152257 13.6605 3.70292 11.1099 9.41924L0.652858 33.1521C-1.61155 38.294 2.29265 43.9996 8.077 43.9996H42.1268C43.7429 43.9996 45.2025 43.0678 45.8365 41.6318L49.2205 33.9739H13.3854L22.9664 12.2697L17.7639 9.89272H57.1965C58.8125 9.89272 60.2721 8.96089 60.9062 7.52501L64.23 0.00457973L25.9313 4.69459e-07Z" fill="#111111"/>
<path fill-rule="evenodd" clip-rule="evenodd" d="M90.1614 4.69459e-07C83.7176 -0.00152257 77.8905 3.70292 75.3399 9.41924L64.8829 33.1521C62.6185 38.294 66.5227 43.9996 72.307 43.9996H106.357C107.973 43.9996 109.432 43.0678 110.067 41.6318L113.451 33.9739H77.6154L87.1964 12.2697L81.994 9.89272H121.427C123.043 9.89272 124.502 8.96089 125.136 7.52501L128.46 0.00457973L90.1614 4.69459e-07Z" fill="#111111"/>
<path fill-rule="evenodd" clip-rule="evenodd" d="M172.291 33.9739L175.399 26.9393L175.4 26.9378L148.221 26.9393C142.439 26.9393 138.535 21.2399 140.793 16.0995L143.689 9.50481C146.217 3.74267 152.067 0 158.546 0H200L196.691 7.5189C196.059 8.95796 194.596 9.89124 192.979 9.89124H150.145L155.218 12.2682L153.224 16.7992H180.376C186.164 16.7992 190.07 22.5123 187.797 27.6542L184.758 34.5314C182.222 40.2737 176.38 44 169.917 44H128.46L131.871 36.3323C132.508 34.9008 133.965 33.9739 135.578 33.9739H172.291Z" fill="#111111"/>
</svg>
