<svg width="1153" height="268" viewBox="0 0 1153 268" fill="none" xmlns="http://www.w3.org/2000/svg">
<path d="M47 173.852H35.3636V171.744H40.7102V171.602L35.3636 167.062V164.489L40.5852 168.989L47 164.449V166.983L42.0114 170.455L43.5341 171.744H47V173.852ZM34.8182 158.365L48.75 162.115V163.916L34.8182 160.166V158.365ZM47 153.018V156.962H35.3636V152.939C35.3636 151.784 35.5966 150.791 36.0625 149.962C36.5246 149.128 37.1894 148.488 38.0568 148.041C38.9242 147.594 39.9621 147.371 41.1705 147.371C42.3826 147.371 43.4242 147.596 44.2955 148.047C45.1667 148.494 45.8352 149.14 46.3011 149.984C46.767 150.825 47 151.837 47 153.018ZM45.1761 154.854V153.121C45.1761 152.31 45.0284 151.634 44.733 151.092C44.4337 150.551 43.9886 150.143 43.3977 149.871C42.803 149.598 42.0606 149.462 41.1705 149.462C40.2803 149.462 39.5417 149.598 38.9545 149.871C38.3636 150.143 37.9223 150.547 37.6307 151.081C37.3352 151.611 37.1875 152.27 37.1875 153.058V154.854H45.1761ZM47 141.399H35.3636V137.036C35.3636 136.142 35.5189 135.392 35.8295 134.786C36.1402 134.176 36.5758 133.715 37.1364 133.405C37.6932 133.09 38.3428 132.933 39.0852 132.933C39.8314 132.933 40.4792 133.092 41.0284 133.411C41.5739 133.725 41.9962 134.189 42.2955 134.803C42.5909 135.416 42.7386 136.17 42.7386 137.064V140.172H40.9886V137.348C40.9886 136.825 40.9167 136.397 40.7727 136.064C40.625 135.731 40.411 135.484 40.1307 135.325C39.8466 135.162 39.4981 135.081 39.0852 135.081C38.6723 135.081 38.3201 135.162 38.0284 135.325C37.733 135.488 37.5095 135.736 37.358 136.07C37.2027 136.403 37.125 136.833 37.125 137.359V139.291H47V141.399ZM41.7273 135.388L47 132.507V134.859L41.7273 137.689V135.388ZM47 129.499V131.749L35.3636 127.652V125.05L47 120.947V123.197L37.75 126.305V126.396L47 129.499ZM42.4375 129.425V123.288H44.1307V129.425H42.4375ZM37.1307 121.332H35.3636V112.048H37.1307V115.645H47V117.736H37.1307V121.332ZM35.3636 108.151H47V110.259H35.3636L35.3636 108.151ZM41.1818 95.4702C42.4356 95.4702 43.5095 95.705 44.4034 96.1747C45.2936 96.6406 45.9754 97.277 46.4489 98.0838C46.9223 98.8868 47.1591 99.7978 47.1591 100.817C47.1591 101.836 46.9223 102.749 46.4489 103.555C45.9716 104.358 45.2879 104.995 44.3977 105.464C43.5038 105.93 42.4318 106.163 41.1818 106.163C39.928 106.163 38.8561 105.93 37.9659 105.464C37.072 104.995 36.3883 104.358 35.9148 103.555C35.4413 102.749 35.2045 101.836 35.2045 100.817C35.2045 99.7978 35.4413 98.8868 35.9148 98.0838C36.3883 97.277 37.072 96.6406 37.9659 96.1747C38.8561 95.705 39.928 95.4702 41.1818 95.4702ZM41.1818 97.5895C40.2992 97.5895 39.5549 97.7277 38.9489 98.0043C38.339 98.277 37.8788 98.6558 37.5682 99.1406C37.2538 99.6255 37.0966 100.184 37.0966 100.817C37.0966 101.449 37.2538 102.008 37.5682 102.493C37.8788 102.978 38.339 103.358 38.9489 103.635C39.5549 103.908 40.2992 104.044 41.1818 104.044C42.0644 104.044 42.8106 103.908 43.4205 103.635C44.0265 103.358 44.4867 102.978 44.8011 102.493C45.1117 102.008 45.267 101.449 45.267 100.817C45.267 100.184 45.1117 99.6255 44.8011 99.1406C44.4867 98.6558 44.0265 98.277 43.4205 98.0043C42.8106 97.7277 42.0644 97.5895 41.1818 97.5895Z" fill="#3B415C"/>
<path d="M99.0314 7.40137H99.9338C100.376 7.40137 100.74 7.32845 101.028 7.18262C101.319 7.03223 101.536 6.82943 101.677 6.57422C101.823 6.31445 101.896 6.02279 101.896 5.69922C101.896 5.31641 101.832 4.99512 101.704 4.73535C101.577 4.47559 101.385 4.27962 101.13 4.14746C100.875 4.0153 100.551 3.94922 100.159 3.94922C99.8039 3.94922 99.4895 4.01986 99.216 4.16113C98.9471 4.29785 98.7352 4.49382 98.5803 4.74902C98.4299 5.00423 98.3547 5.30501 98.3547 5.65137H97.09C97.09 5.14551 97.2176 4.68522 97.4729 4.27051C97.7281 3.85579 98.0858 3.52539 98.5461 3.2793C99.0109 3.0332 99.5487 2.91016 100.159 2.91016C100.761 2.91016 101.287 3.01725 101.738 3.23145C102.19 3.44108 102.541 3.75553 102.791 4.1748C103.042 4.58952 103.167 5.10677 103.167 5.72656C103.167 5.97721 103.108 6.24609 102.989 6.5332C102.876 6.81576 102.696 7.08008 102.449 7.32617C102.208 7.57227 101.893 7.77507 101.506 7.93457C101.119 8.08952 100.654 8.16699 100.112 8.16699H99.0314V7.40137ZM99.0314 8.44043V7.68164H100.112C100.745 7.68164 101.269 7.75684 101.684 7.90723C102.099 8.05762 102.424 8.25814 102.661 8.50879C102.903 8.75944 103.071 9.03516 103.167 9.33594C103.267 9.63216 103.318 9.92839 103.318 10.2246C103.318 10.6895 103.238 11.1019 103.078 11.4619C102.923 11.8219 102.702 12.1273 102.415 12.3779C102.133 12.6286 101.8 12.8177 101.417 12.9453C101.034 13.0729 100.617 13.1367 100.166 13.1367C99.7333 13.1367 99.3254 13.0752 98.9426 12.9521C98.5643 12.8291 98.2294 12.6514 97.9377 12.4189C97.646 12.182 97.4182 11.8926 97.2541 11.5508C97.09 11.2044 97.008 10.8102 97.008 10.3682H98.2727C98.2727 10.7145 98.3479 11.0176 98.4982 11.2773C98.6532 11.5371 98.8719 11.7399 99.1545 11.8857C99.4416 12.027 99.7788 12.0977 100.166 12.0977C100.554 12.0977 100.886 12.0316 101.164 11.8994C101.447 11.7627 101.663 11.5576 101.814 11.2842C101.969 11.0107 102.046 10.6667 102.046 10.252C102.046 9.83724 101.96 9.49772 101.786 9.2334C101.613 8.96452 101.367 8.76628 101.048 8.63867C100.734 8.50651 100.362 8.44043 99.9338 8.44043H99.0314ZM105.818 12.3301C105.818 12.1159 105.884 11.9359 106.016 11.79C106.153 11.6396 106.349 11.5645 106.604 11.5645C106.859 11.5645 107.053 11.6396 107.185 11.79C107.322 11.9359 107.39 12.1159 107.39 12.3301C107.39 12.5397 107.322 12.7174 107.185 12.8633C107.053 13.0091 106.859 13.082 106.604 13.082C106.349 13.082 106.153 13.0091 106.016 12.8633C105.884 12.7174 105.818 12.5397 105.818 12.3301ZM116.474 11.9609V13H109.959V12.0908L113.22 8.46094C113.621 8.01432 113.931 7.63607 114.149 7.32617C114.373 7.01172 114.528 6.73145 114.614 6.48535C114.705 6.2347 114.751 5.97949 114.751 5.71973C114.751 5.3916 114.683 5.09538 114.546 4.83105C114.414 4.56217 114.218 4.34798 113.958 4.18848C113.698 4.02897 113.384 3.94922 113.015 3.94922C112.573 3.94922 112.203 4.03581 111.907 4.20898C111.616 4.3776 111.397 4.61458 111.251 4.91992C111.105 5.22526 111.032 5.57617 111.032 5.97266H109.768C109.768 5.41211 109.891 4.89941 110.137 4.43457C110.383 3.96973 110.747 3.60059 111.23 3.32715C111.714 3.04915 112.308 2.91016 113.015 2.91016C113.644 2.91016 114.181 3.02181 114.628 3.24512C115.075 3.46387 115.416 3.77376 115.653 4.1748C115.895 4.57129 116.016 5.03613 116.016 5.56934C116.016 5.861 115.965 6.15723 115.865 6.45801C115.77 6.75423 115.635 7.05046 115.462 7.34668C115.293 7.6429 115.095 7.93457 114.867 8.22168C114.644 8.50879 114.405 8.79134 114.149 9.06934L111.483 11.9609H116.474Z" fill="#111111"/>
<path d="M103.707 66.2109V67.25H97.1926V66.3408L100.453 62.7109C100.854 62.2643 101.164 61.8861 101.383 61.5762C101.606 61.2617 101.761 60.9814 101.848 60.7354C101.939 60.4847 101.985 60.2295 101.985 59.9697C101.985 59.6416 101.916 59.3454 101.779 59.0811C101.647 58.8122 101.451 58.598 101.192 58.4385C100.932 58.279 100.617 58.1992 100.248 58.1992C99.8062 58.1992 99.437 58.2858 99.1408 58.459C98.8492 58.6276 98.6304 58.8646 98.4846 59.1699C98.3387 59.4753 98.2658 59.8262 98.2658 60.2227H97.0012C97.0012 59.6621 97.1242 59.1494 97.3703 58.6846C97.6164 58.2197 97.981 57.8506 98.4641 57.5771C98.9471 57.2992 99.5419 57.1602 100.248 57.1602C100.877 57.1602 101.415 57.2718 101.862 57.4951C102.308 57.7139 102.65 58.0238 102.887 58.4248C103.128 58.8213 103.249 59.2861 103.249 59.8193C103.249 60.111 103.199 60.4072 103.099 60.708C103.003 61.0042 102.869 61.3005 102.696 61.5967C102.527 61.8929 102.329 62.1846 102.101 62.4717C101.877 62.7588 101.638 63.0413 101.383 63.3193L98.717 66.2109H103.707ZM105.818 66.5801C105.818 66.3659 105.884 66.1859 106.016 66.04C106.153 65.8896 106.349 65.8145 106.604 65.8145C106.859 65.8145 107.053 65.8896 107.185 66.04C107.322 66.1859 107.39 66.3659 107.39 66.5801C107.39 66.7897 107.322 66.9674 107.185 67.1133C107.053 67.2591 106.859 67.332 106.604 67.332C106.349 67.332 106.153 67.2591 106.016 67.1133C105.884 66.9674 105.818 66.7897 105.818 66.5801ZM116.228 64.5566C116.228 65.1628 116.086 65.6777 115.804 66.1016C115.526 66.5208 115.147 66.8398 114.669 67.0586C114.195 67.2773 113.66 67.3867 113.062 67.3867C112.465 67.3867 111.928 67.2773 111.449 67.0586C110.971 66.8398 110.592 66.5208 110.314 66.1016C110.036 65.6777 109.897 65.1628 109.897 64.5566C109.897 64.1602 109.973 63.7979 110.123 63.4697C110.278 63.137 110.494 62.8477 110.772 62.6016C111.055 62.3555 111.388 62.1663 111.771 62.0342C112.158 61.8975 112.584 61.8291 113.049 61.8291C113.66 61.8291 114.204 61.9476 114.683 62.1846C115.161 62.417 115.537 62.7383 115.811 63.1484C116.089 63.5586 116.228 64.028 116.228 64.5566ZM114.956 64.5293C114.956 64.1602 114.876 63.8343 114.717 63.5518C114.557 63.2646 114.334 63.0413 114.047 62.8818C113.76 62.7223 113.427 62.6426 113.049 62.6426C112.661 62.6426 112.326 62.7223 112.044 62.8818C111.766 63.0413 111.549 63.2646 111.395 63.5518C111.24 63.8343 111.162 64.1602 111.162 64.5293C111.162 64.9121 111.237 65.2402 111.388 65.5137C111.543 65.7826 111.761 65.9899 112.044 66.1357C112.331 66.277 112.671 66.3477 113.062 66.3477C113.454 66.3477 113.792 66.277 114.074 66.1357C114.357 65.9899 114.573 65.7826 114.724 65.5137C114.879 65.2402 114.956 64.9121 114.956 64.5293ZM115.995 59.8877C115.995 60.3708 115.868 60.806 115.612 61.1934C115.357 61.5807 115.008 61.8861 114.566 62.1094C114.124 62.3327 113.623 62.4443 113.062 62.4443C112.493 62.4443 111.985 62.3327 111.538 62.1094C111.096 61.8861 110.75 61.5807 110.499 61.1934C110.248 60.806 110.123 60.3708 110.123 59.8877C110.123 59.3089 110.248 58.8167 110.499 58.4111C110.754 58.0055 111.103 57.6956 111.545 57.4814C111.987 57.2673 112.491 57.1602 113.056 57.1602C113.625 57.1602 114.131 57.2673 114.573 57.4814C115.015 57.6956 115.362 58.0055 115.612 58.4111C115.868 58.8167 115.995 59.3089 115.995 59.8877ZM114.73 59.9082C114.73 59.5755 114.66 59.2816 114.519 59.0264C114.377 58.7712 114.181 58.5706 113.931 58.4248C113.68 58.2744 113.388 58.1992 113.056 58.1992C112.723 58.1992 112.431 58.2699 112.181 58.4111C111.935 58.5479 111.741 58.7438 111.6 58.999C111.463 59.2542 111.395 59.5573 111.395 59.9082C111.395 60.25 111.463 60.5485 111.6 60.8037C111.741 61.0589 111.937 61.2572 112.188 61.3984C112.438 61.5397 112.73 61.6104 113.062 61.6104C113.395 61.6104 113.685 61.5397 113.931 61.3984C114.181 61.2572 114.377 61.0589 114.519 60.8037C114.66 60.5485 114.73 60.25 114.73 59.9082Z" fill="#111111"/>
<path d="M103.707 120.461V121.5H97.1926V120.591L100.453 116.961C100.854 116.514 101.164 116.136 101.383 115.826C101.606 115.512 101.761 115.231 101.848 114.985C101.939 114.735 101.985 114.479 101.985 114.22C101.985 113.892 101.916 113.595 101.779 113.331C101.647 113.062 101.451 112.848 101.192 112.688C100.932 112.529 100.617 112.449 100.248 112.449C99.8062 112.449 99.437 112.536 99.1408 112.709C98.8492 112.878 98.6304 113.115 98.4846 113.42C98.3387 113.725 98.2658 114.076 98.2658 114.473H97.0012C97.0012 113.912 97.1242 113.399 97.3703 112.935C97.6164 112.47 97.981 112.101 98.4641 111.827C98.9471 111.549 99.5419 111.41 100.248 111.41C100.877 111.41 101.415 111.522 101.862 111.745C102.308 111.964 102.65 112.274 102.887 112.675C103.128 113.071 103.249 113.536 103.249 114.069C103.249 114.361 103.199 114.657 103.099 114.958C103.003 115.254 102.869 115.55 102.696 115.847C102.527 116.143 102.329 116.435 102.101 116.722C101.877 117.009 101.638 117.291 101.383 117.569L98.717 120.461H103.707ZM105.818 120.83C105.818 120.616 105.884 120.436 106.016 120.29C106.153 120.14 106.349 120.064 106.604 120.064C106.859 120.064 107.053 120.14 107.185 120.29C107.322 120.436 107.39 120.616 107.39 120.83C107.39 121.04 107.322 121.217 107.185 121.363C107.053 121.509 106.859 121.582 106.604 121.582C106.349 121.582 106.153 121.509 106.016 121.363C105.884 121.217 105.818 121.04 105.818 120.83ZM116.679 118.15V119.189H109.487V118.444L113.944 111.547H114.977L113.869 113.543L110.923 118.15H116.679ZM115.291 111.547V121.5H114.026V111.547H115.291Z" fill="#111111"/>
<path d="M103.434 169.98V171.498C103.434 172.314 103.361 173.002 103.215 173.562C103.069 174.123 102.86 174.574 102.586 174.916C102.313 175.258 101.982 175.506 101.595 175.661C101.212 175.812 100.779 175.887 100.296 175.887C99.9133 175.887 99.5601 175.839 99.2365 175.743C98.913 175.647 98.6213 175.495 98.3615 175.285C98.1063 175.071 97.8876 174.793 97.7053 174.451C97.523 174.109 97.384 173.695 97.2883 173.207C97.1926 172.719 97.1447 172.15 97.1447 171.498V169.98C97.1447 169.165 97.2176 168.481 97.3635 167.93C97.5139 167.378 97.7258 166.936 97.9992 166.604C98.2727 166.266 98.6008 166.025 98.9836 165.879C99.371 165.733 99.8039 165.66 100.282 165.66C100.67 165.66 101.025 165.708 101.349 165.804C101.677 165.895 101.969 166.043 102.224 166.248C102.479 166.449 102.696 166.717 102.873 167.055C103.056 167.387 103.195 167.795 103.29 168.278C103.386 168.761 103.434 169.329 103.434 169.98ZM102.162 171.703V169.769C102.162 169.322 102.135 168.93 102.08 168.593C102.03 168.251 101.955 167.959 101.855 167.718C101.754 167.476 101.627 167.28 101.472 167.13C101.321 166.979 101.146 166.87 100.946 166.802C100.75 166.729 100.529 166.692 100.282 166.692C99.9816 166.692 99.715 166.749 99.4826 166.863C99.2502 166.973 99.0542 167.148 98.8947 167.39C98.7398 167.631 98.6213 167.948 98.5393 168.34C98.4572 168.732 98.4162 169.208 98.4162 169.769V171.703C98.4162 172.15 98.4413 172.544 98.4914 172.886C98.5461 173.228 98.6258 173.524 98.7307 173.774C98.8355 174.021 98.9631 174.223 99.1135 174.383C99.2639 174.542 99.437 174.661 99.633 174.738C99.8335 174.811 100.055 174.848 100.296 174.848C100.606 174.848 100.877 174.788 101.11 174.67C101.342 174.551 101.536 174.367 101.691 174.116C101.85 173.861 101.969 173.535 102.046 173.139C102.124 172.738 102.162 172.259 102.162 171.703ZM105.818 175.08C105.818 174.866 105.884 174.686 106.016 174.54C106.153 174.39 106.349 174.314 106.604 174.314C106.859 174.314 107.053 174.39 107.185 174.54C107.322 174.686 107.39 174.866 107.39 175.08C107.39 175.29 107.322 175.467 107.185 175.613C107.053 175.759 106.859 175.832 106.604 175.832C106.349 175.832 106.153 175.759 106.016 175.613C105.884 175.467 105.818 175.29 105.818 175.08ZM114.806 165.783H114.915V166.856H114.806C114.136 166.856 113.575 166.966 113.124 167.185C112.673 167.399 112.315 167.688 112.051 168.053C111.786 168.413 111.595 168.818 111.477 169.27C111.363 169.721 111.306 170.179 111.306 170.644V172.106C111.306 172.549 111.358 172.94 111.463 173.282C111.568 173.619 111.711 173.904 111.894 174.137C112.076 174.369 112.281 174.545 112.509 174.663C112.741 174.782 112.983 174.841 113.233 174.841C113.525 174.841 113.785 174.786 114.013 174.677C114.241 174.563 114.432 174.406 114.587 174.205C114.746 174 114.867 173.758 114.949 173.48C115.031 173.202 115.072 172.897 115.072 172.564C115.072 172.268 115.036 171.983 114.963 171.71C114.89 171.432 114.778 171.186 114.628 170.972C114.478 170.753 114.288 170.582 114.061 170.459C113.837 170.331 113.571 170.268 113.261 170.268C112.91 170.268 112.582 170.354 112.276 170.527C111.976 170.696 111.727 170.919 111.531 171.197C111.34 171.471 111.23 171.769 111.203 172.093L110.533 172.086C110.597 171.576 110.715 171.14 110.889 170.78C111.066 170.416 111.285 170.119 111.545 169.892C111.809 169.659 112.103 169.491 112.427 169.386C112.755 169.276 113.101 169.222 113.466 169.222C113.963 169.222 114.391 169.315 114.751 169.502C115.111 169.689 115.407 169.939 115.64 170.254C115.872 170.564 116.043 170.915 116.152 171.307C116.266 171.694 116.323 172.093 116.323 172.503C116.323 172.972 116.257 173.412 116.125 173.822C115.993 174.232 115.795 174.592 115.53 174.902C115.271 175.212 114.949 175.454 114.566 175.627C114.184 175.8 113.739 175.887 113.233 175.887C112.696 175.887 112.226 175.777 111.825 175.559C111.424 175.335 111.091 175.039 110.827 174.67C110.563 174.301 110.365 173.891 110.232 173.439C110.1 172.988 110.034 172.53 110.034 172.065V171.471C110.034 170.769 110.105 170.081 110.246 169.406C110.387 168.732 110.631 168.121 110.978 167.574C111.328 167.027 111.814 166.592 112.434 166.269C113.053 165.945 113.844 165.783 114.806 165.783Z" fill="#111111"/>
<path d="M116.2 224.23V225.748C116.2 226.564 116.127 227.252 115.981 227.812C115.836 228.373 115.626 228.824 115.353 229.166C115.079 229.508 114.749 229.756 114.361 229.911C113.979 230.062 113.546 230.137 113.062 230.137C112.68 230.137 112.326 230.089 112.003 229.993C111.679 229.897 111.388 229.745 111.128 229.535C110.873 229.321 110.654 229.043 110.472 228.701C110.289 228.359 110.15 227.945 110.055 227.457C109.959 226.969 109.911 226.4 109.911 225.748V224.23C109.911 223.415 109.984 222.731 110.13 222.18C110.28 221.628 110.492 221.186 110.766 220.854C111.039 220.516 111.367 220.275 111.75 220.129C112.137 219.983 112.57 219.91 113.049 219.91C113.436 219.91 113.792 219.958 114.115 220.054C114.443 220.145 114.735 220.293 114.99 220.498C115.245 220.699 115.462 220.967 115.64 221.305C115.822 221.637 115.961 222.045 116.057 222.528C116.152 223.011 116.2 223.579 116.2 224.23ZM114.929 225.953V224.019C114.929 223.572 114.901 223.18 114.847 222.843C114.797 222.501 114.721 222.209 114.621 221.968C114.521 221.726 114.393 221.53 114.238 221.38C114.088 221.229 113.912 221.12 113.712 221.052C113.516 220.979 113.295 220.942 113.049 220.942C112.748 220.942 112.481 220.999 112.249 221.113C112.017 221.223 111.821 221.398 111.661 221.64C111.506 221.881 111.388 222.198 111.306 222.59C111.224 222.982 111.183 223.458 111.183 224.019V225.953C111.183 226.4 111.208 226.794 111.258 227.136C111.312 227.478 111.392 227.774 111.497 228.024C111.602 228.271 111.729 228.473 111.88 228.633C112.03 228.792 112.203 228.911 112.399 228.988C112.6 229.061 112.821 229.098 113.062 229.098C113.372 229.098 113.644 229.038 113.876 228.92C114.108 228.801 114.302 228.617 114.457 228.366C114.617 228.111 114.735 227.785 114.812 227.389C114.89 226.988 114.929 226.509 114.929 225.953Z" fill="#111111"/>
<path d="M129 10H1153" stroke="#F5F5F5"/>
<path d="M129 65.5H1153" stroke="#F5F5F5"/>
<path d="M129 121H1153" stroke="#F5F5F5"/>
<path d="M129 176.5H1153" stroke="#F5F5F5"/>
<path d="M129 232H1153" stroke="#F5F5F5" stroke-width="2"/>
<line x1="129.5" y1="10" x2="129.5" y2="232" stroke="#F5F5F5"/>
<line x1="324" y1="10" x2="324" y2="232" stroke="#F5F5F5" stroke-width="2"/>
<line x1="515.5" y1="10" x2="515.5" y2="232" stroke="#F5F5F5"/>
<line x1="707.5" y1="10" x2="707.5" y2="232" stroke="#F5F5F5"/>
<line x1="899.5" y1="10" x2="899.5" y2="232" stroke="#F5F5F5"/>
<line x1="1091.5" y1="10" x2="1091.5" y2="232" stroke="#F5F5F5"/>
<line x1="1152.5" y1="10" x2="1152.5" y2="232" stroke="#F5F5F5"/>
<path d="M318.641 261.65V262.689H311.45V261.944L315.907 255.047H316.939L315.832 257.043L312.885 261.65H318.641ZM317.254 255.047V265H315.989V255.047H317.254ZM326.911 263.961V265H320.396V264.091L323.657 260.461C324.058 260.014 324.368 259.636 324.587 259.326C324.81 259.012 324.965 258.731 325.052 258.485C325.143 258.235 325.188 257.979 325.188 257.72C325.188 257.392 325.12 257.095 324.983 256.831C324.851 256.562 324.655 256.348 324.396 256.188C324.136 256.029 323.821 255.949 323.452 255.949C323.01 255.949 322.641 256.036 322.345 256.209C322.053 256.378 321.834 256.615 321.688 256.92C321.543 257.225 321.47 257.576 321.47 257.973H320.205C320.205 257.412 320.328 256.899 320.574 256.435C320.82 255.97 321.185 255.601 321.668 255.327C322.151 255.049 322.746 254.91 323.452 254.91C324.081 254.91 324.619 255.022 325.065 255.245C325.512 255.464 325.854 255.774 326.091 256.175C326.332 256.571 326.453 257.036 326.453 257.569C326.453 257.861 326.403 258.157 326.303 258.458C326.207 258.754 326.073 259.05 325.899 259.347C325.731 259.643 325.533 259.935 325.305 260.222C325.081 260.509 324.842 260.791 324.587 261.069L321.921 263.961H326.911ZM335.113 259.23V260.748C335.113 261.564 335.04 262.252 334.894 262.812C334.748 263.373 334.538 263.824 334.265 264.166C333.992 264.508 333.661 264.756 333.274 264.911C332.891 265.062 332.458 265.137 331.975 265.137C331.592 265.137 331.239 265.089 330.915 264.993C330.592 264.897 330.3 264.745 330.04 264.535C329.785 264.321 329.566 264.043 329.384 263.701C329.202 263.359 329.063 262.945 328.967 262.457C328.871 261.969 328.824 261.4 328.824 260.748V259.23C328.824 258.415 328.897 257.731 329.042 257.18C329.193 256.628 329.405 256.186 329.678 255.854C329.952 255.516 330.28 255.275 330.663 255.129C331.05 254.983 331.483 254.91 331.961 254.91C332.349 254.91 332.704 254.958 333.028 255.054C333.356 255.145 333.648 255.293 333.903 255.498C334.158 255.699 334.374 255.967 334.552 256.305C334.734 256.637 334.873 257.045 334.969 257.528C335.065 258.011 335.113 258.579 335.113 259.23ZM333.841 260.953V259.019C333.841 258.572 333.814 258.18 333.759 257.843C333.709 257.501 333.634 257.209 333.534 256.968C333.433 256.726 333.306 256.53 333.151 256.38C333 256.229 332.825 256.12 332.624 256.052C332.428 255.979 332.207 255.942 331.961 255.942C331.661 255.942 331.394 255.999 331.162 256.113C330.929 256.223 330.733 256.398 330.574 256.64C330.419 256.881 330.3 257.198 330.218 257.59C330.136 257.982 330.095 258.458 330.095 259.019V260.953C330.095 261.4 330.12 261.794 330.17 262.136C330.225 262.478 330.305 262.774 330.41 263.024C330.514 263.271 330.642 263.473 330.792 263.633C330.943 263.792 331.116 263.911 331.312 263.988C331.512 264.061 331.733 264.098 331.975 264.098C332.285 264.098 332.556 264.038 332.788 263.92C333.021 263.801 333.215 263.617 333.37 263.366C333.529 263.111 333.648 262.785 333.725 262.389C333.802 261.988 333.841 261.509 333.841 260.953Z" fill="#111111"/>
<path d="M510.641 261.65V262.689H503.45V261.944L507.907 255.047H508.939L507.832 257.043L504.885 261.65H510.641ZM509.254 255.047V265H507.989V255.047H509.254ZM514.235 259.401H515.138C515.58 259.401 515.944 259.328 516.231 259.183C516.523 259.032 516.74 258.829 516.881 258.574C517.027 258.314 517.1 258.023 517.1 257.699C517.1 257.316 517.036 256.995 516.908 256.735C516.781 256.476 516.589 256.28 516.334 256.147C516.079 256.015 515.755 255.949 515.363 255.949C515.008 255.949 514.693 256.02 514.42 256.161C514.151 256.298 513.939 256.494 513.784 256.749C513.634 257.004 513.559 257.305 513.559 257.651H512.294C512.294 257.146 512.422 256.685 512.677 256.271C512.932 255.856 513.29 255.525 513.75 255.279C514.215 255.033 514.753 254.91 515.363 254.91C515.965 254.91 516.491 255.017 516.942 255.231C517.394 255.441 517.744 255.756 517.995 256.175C518.246 256.59 518.371 257.107 518.371 257.727C518.371 257.977 518.312 258.246 518.193 258.533C518.079 258.816 517.899 259.08 517.653 259.326C517.412 259.572 517.097 259.775 516.71 259.935C516.323 260.09 515.858 260.167 515.315 260.167H514.235V259.401ZM514.235 260.44V259.682H515.315C515.949 259.682 516.473 259.757 516.888 259.907C517.302 260.058 517.628 260.258 517.865 260.509C518.107 260.759 518.275 261.035 518.371 261.336C518.471 261.632 518.521 261.928 518.521 262.225C518.521 262.689 518.442 263.102 518.282 263.462C518.127 263.822 517.906 264.127 517.619 264.378C517.337 264.629 517.004 264.818 516.621 264.945C516.238 265.073 515.821 265.137 515.37 265.137C514.937 265.137 514.529 265.075 514.146 264.952C513.768 264.829 513.433 264.651 513.142 264.419C512.85 264.182 512.622 263.893 512.458 263.551C512.294 263.204 512.212 262.81 512.212 262.368H513.477C513.477 262.715 513.552 263.018 513.702 263.277C513.857 263.537 514.076 263.74 514.358 263.886C514.646 264.027 514.983 264.098 515.37 264.098C515.757 264.098 516.09 264.032 516.368 263.899C516.651 263.763 516.867 263.558 517.018 263.284C517.173 263.011 517.25 262.667 517.25 262.252C517.25 261.837 517.163 261.498 516.99 261.233C516.817 260.965 516.571 260.766 516.252 260.639C515.938 260.507 515.566 260.44 515.138 260.44H514.235ZM527.113 259.23V260.748C527.113 261.564 527.04 262.252 526.894 262.812C526.748 263.373 526.538 263.824 526.265 264.166C525.992 264.508 525.661 264.756 525.274 264.911C524.891 265.062 524.458 265.137 523.975 265.137C523.592 265.137 523.239 265.089 522.915 264.993C522.592 264.897 522.3 264.745 522.04 264.535C521.785 264.321 521.566 264.043 521.384 263.701C521.202 263.359 521.063 262.945 520.967 262.457C520.871 261.969 520.824 261.4 520.824 260.748V259.23C520.824 258.415 520.897 257.731 521.042 257.18C521.193 256.628 521.405 256.186 521.678 255.854C521.952 255.516 522.28 255.275 522.663 255.129C523.05 254.983 523.483 254.91 523.961 254.91C524.349 254.91 524.704 254.958 525.028 255.054C525.356 255.145 525.648 255.293 525.903 255.498C526.158 255.699 526.374 255.967 526.552 256.305C526.734 256.637 526.873 257.045 526.969 257.528C527.065 258.011 527.113 258.579 527.113 259.23ZM525.841 260.953V259.019C525.841 258.572 525.814 258.18 525.759 257.843C525.709 257.501 525.634 257.209 525.534 256.968C525.433 256.726 525.306 256.53 525.151 256.38C525 256.229 524.825 256.12 524.624 256.052C524.428 255.979 524.207 255.942 523.961 255.942C523.661 255.942 523.394 255.999 523.162 256.113C522.929 256.223 522.733 256.398 522.574 256.64C522.419 256.881 522.3 257.198 522.218 257.59C522.136 257.982 522.095 258.458 522.095 259.019V260.953C522.095 261.4 522.12 261.794 522.17 262.136C522.225 262.478 522.305 262.774 522.41 263.024C522.514 263.271 522.642 263.473 522.792 263.633C522.943 263.792 523.116 263.911 523.312 263.988C523.512 264.061 523.733 264.098 523.975 264.098C524.285 264.098 524.556 264.038 524.788 263.92C525.021 263.801 525.215 263.617 525.37 263.366C525.529 263.111 525.648 262.785 525.725 262.389C525.802 261.988 525.841 261.509 525.841 260.953Z" fill="#111111"/>
<path d="M702.641 261.65V262.689H695.45V261.944L699.907 255.047H700.939L699.832 257.043L696.885 261.65H702.641ZM701.254 255.047V265H699.989V255.047H701.254ZM711.116 261.65V262.689H703.925V261.944L708.382 255.047H709.414L708.307 257.043L705.36 261.65H711.116ZM709.729 255.047V265H708.464V255.047H709.729ZM719.113 259.23V260.748C719.113 261.564 719.04 262.252 718.894 262.812C718.748 263.373 718.538 263.824 718.265 264.166C717.992 264.508 717.661 264.756 717.274 264.911C716.891 265.062 716.458 265.137 715.975 265.137C715.592 265.137 715.239 265.089 714.915 264.993C714.592 264.897 714.3 264.745 714.04 264.535C713.785 264.321 713.566 264.043 713.384 263.701C713.202 263.359 713.063 262.945 712.967 262.457C712.871 261.969 712.824 261.4 712.824 260.748V259.23C712.824 258.415 712.897 257.731 713.042 257.18C713.193 256.628 713.405 256.186 713.678 255.854C713.952 255.516 714.28 255.275 714.663 255.129C715.05 254.983 715.483 254.91 715.961 254.91C716.349 254.91 716.704 254.958 717.028 255.054C717.356 255.145 717.648 255.293 717.903 255.498C718.158 255.699 718.374 255.967 718.552 256.305C718.734 256.637 718.873 257.045 718.969 257.528C719.065 258.011 719.113 258.579 719.113 259.23ZM717.841 260.953V259.019C717.841 258.572 717.814 258.18 717.759 257.843C717.709 257.501 717.634 257.209 717.534 256.968C717.433 256.726 717.306 256.53 717.151 256.38C717 256.229 716.825 256.12 716.624 256.052C716.428 255.979 716.207 255.942 715.961 255.942C715.661 255.942 715.394 255.999 715.162 256.113C714.929 256.223 714.733 256.398 714.574 256.64C714.419 256.881 714.3 257.198 714.218 257.59C714.136 257.982 714.095 258.458 714.095 259.019V260.953C714.095 261.4 714.12 261.794 714.17 262.136C714.225 262.478 714.305 262.774 714.41 263.024C714.514 263.271 714.642 263.473 714.792 263.633C714.943 263.792 715.116 263.911 715.312 263.988C715.512 264.061 715.733 264.098 715.975 264.098C716.285 264.098 716.556 264.038 716.788 263.92C717.021 263.801 717.215 263.617 717.37 263.366C717.529 263.111 717.648 262.785 717.725 262.389C717.802 261.988 717.841 261.509 717.841 260.953Z" fill="#111111"/>
<path d="M894.641 261.65V262.689H887.45V261.944L891.907 255.047H892.939L891.832 257.043L888.885 261.65H894.641ZM893.254 255.047V265H891.989V255.047H893.254ZM897.989 260.263L896.978 260.003L897.477 255.047H902.583V256.216H898.55L898.249 258.923C898.431 258.818 898.661 258.72 898.939 258.629C899.222 258.538 899.546 258.492 899.91 258.492C900.37 258.492 900.783 258.572 901.147 258.731C901.512 258.886 901.822 259.11 902.077 259.401C902.337 259.693 902.535 260.044 902.672 260.454C902.809 260.864 902.877 261.322 902.877 261.828C902.877 262.307 902.811 262.746 902.679 263.147C902.551 263.549 902.357 263.899 902.098 264.2C901.838 264.496 901.51 264.727 901.113 264.891C900.721 265.055 900.259 265.137 899.726 265.137C899.325 265.137 898.944 265.082 898.584 264.973C898.229 264.859 897.91 264.688 897.627 264.46C897.349 264.228 897.121 263.94 896.943 263.599C896.77 263.252 896.661 262.847 896.615 262.382H897.818C897.873 262.756 897.982 263.07 898.146 263.325C898.311 263.58 898.525 263.774 898.789 263.906C899.058 264.034 899.37 264.098 899.726 264.098C900.026 264.098 900.293 264.045 900.525 263.94C900.758 263.836 900.954 263.685 901.113 263.489C901.273 263.293 901.394 263.056 901.476 262.778C901.562 262.5 901.605 262.188 901.605 261.842C901.605 261.527 901.562 261.236 901.476 260.967C901.389 260.698 901.259 260.463 901.086 260.263C900.917 260.062 900.71 259.907 900.464 259.798C900.218 259.684 899.935 259.627 899.616 259.627C899.192 259.627 898.871 259.684 898.652 259.798C898.438 259.912 898.217 260.067 897.989 260.263ZM911.113 259.23V260.748C911.113 261.564 911.04 262.252 910.894 262.812C910.748 263.373 910.538 263.824 910.265 264.166C909.992 264.508 909.661 264.756 909.274 264.911C908.891 265.062 908.458 265.137 907.975 265.137C907.592 265.137 907.239 265.089 906.915 264.993C906.592 264.897 906.3 264.745 906.04 264.535C905.785 264.321 905.566 264.043 905.384 263.701C905.202 263.359 905.063 262.945 904.967 262.457C904.871 261.969 904.824 261.4 904.824 260.748V259.23C904.824 258.415 904.897 257.731 905.042 257.18C905.193 256.628 905.405 256.186 905.678 255.854C905.952 255.516 906.28 255.275 906.663 255.129C907.05 254.983 907.483 254.91 907.961 254.91C908.349 254.91 908.704 254.958 909.028 255.054C909.356 255.145 909.648 255.293 909.903 255.498C910.158 255.699 910.374 255.967 910.552 256.305C910.734 256.637 910.873 257.045 910.969 257.528C911.065 258.011 911.113 258.579 911.113 259.23ZM909.841 260.953V259.019C909.841 258.572 909.814 258.18 909.759 257.843C909.709 257.501 909.634 257.209 909.534 256.968C909.433 256.726 909.306 256.53 909.151 256.38C909 256.229 908.825 256.12 908.624 256.052C908.428 255.979 908.207 255.942 907.961 255.942C907.661 255.942 907.394 255.999 907.162 256.113C906.929 256.223 906.733 256.398 906.574 256.64C906.419 256.881 906.3 257.198 906.218 257.59C906.136 257.982 906.095 258.458 906.095 259.019V260.953C906.095 261.4 906.12 261.794 906.17 262.136C906.225 262.478 906.305 262.774 906.41 263.024C906.514 263.271 906.642 263.473 906.792 263.633C906.943 263.792 907.116 263.911 907.312 263.988C907.512 264.061 907.733 264.098 907.975 264.098C908.285 264.098 908.556 264.038 908.788 263.92C909.021 263.801 909.215 263.617 909.37 263.366C909.529 263.111 909.648 262.785 909.725 262.389C909.802 261.988 909.841 261.509 909.841 260.953Z" fill="#111111"/>
<path d="M1086.64 261.65V262.689H1079.45V261.944L1083.91 255.047H1084.94L1083.83 257.043L1080.89 261.65H1086.64ZM1085.25 255.047V265H1083.99V255.047H1085.25ZM1093.24 255.033H1093.35V256.106H1093.24C1092.57 256.106 1092.01 256.216 1091.56 256.435C1091.11 256.649 1090.75 256.938 1090.49 257.303C1090.22 257.663 1090.03 258.068 1089.91 258.52C1089.8 258.971 1089.74 259.429 1089.74 259.894V261.356C1089.74 261.799 1089.8 262.19 1089.9 262.532C1090.01 262.869 1090.15 263.154 1090.33 263.387C1090.51 263.619 1090.72 263.795 1090.95 263.913C1091.18 264.032 1091.42 264.091 1091.67 264.091C1091.96 264.091 1092.22 264.036 1092.45 263.927C1092.68 263.813 1092.87 263.656 1093.02 263.455C1093.18 263.25 1093.3 263.008 1093.39 262.73C1093.47 262.452 1093.51 262.147 1093.51 261.814C1093.51 261.518 1093.47 261.233 1093.4 260.96C1093.33 260.682 1093.22 260.436 1093.07 260.222C1092.92 260.003 1092.73 259.832 1092.5 259.709C1092.27 259.581 1092.01 259.518 1091.7 259.518C1091.35 259.518 1091.02 259.604 1090.71 259.777C1090.41 259.946 1090.16 260.169 1089.97 260.447C1089.78 260.721 1089.67 261.019 1089.64 261.343L1088.97 261.336C1089.03 260.826 1089.15 260.39 1089.33 260.03C1089.5 259.666 1089.72 259.369 1089.98 259.142C1090.25 258.909 1090.54 258.741 1090.86 258.636C1091.19 258.526 1091.54 258.472 1091.9 258.472C1092.4 258.472 1092.83 258.565 1093.19 258.752C1093.55 258.939 1093.84 259.189 1094.08 259.504C1094.31 259.814 1094.48 260.165 1094.59 260.557C1094.7 260.944 1094.76 261.343 1094.76 261.753C1094.76 262.222 1094.69 262.662 1094.56 263.072C1094.43 263.482 1094.23 263.842 1093.97 264.152C1093.71 264.462 1093.39 264.704 1093 264.877C1092.62 265.05 1092.18 265.137 1091.67 265.137C1091.13 265.137 1090.66 265.027 1090.26 264.809C1089.86 264.585 1089.53 264.289 1089.26 263.92C1089 263.551 1088.8 263.141 1088.67 262.689C1088.54 262.238 1088.47 261.78 1088.47 261.315V260.721C1088.47 260.019 1088.54 259.331 1088.68 258.656C1088.82 257.982 1089.07 257.371 1089.42 256.824C1089.77 256.277 1090.25 255.842 1090.87 255.519C1091.49 255.195 1092.28 255.033 1093.24 255.033ZM1103.11 259.23V260.748C1103.11 261.564 1103.04 262.252 1102.89 262.812C1102.75 263.373 1102.54 263.824 1102.27 264.166C1101.99 264.508 1101.66 264.756 1101.27 264.911C1100.89 265.062 1100.46 265.137 1099.98 265.137C1099.59 265.137 1099.24 265.089 1098.92 264.993C1098.59 264.897 1098.3 264.745 1098.04 264.535C1097.79 264.321 1097.57 264.043 1097.38 263.701C1097.2 263.359 1097.06 262.945 1096.97 262.457C1096.87 261.969 1096.82 261.4 1096.82 260.748V259.23C1096.82 258.415 1096.9 257.731 1097.04 257.18C1097.19 256.628 1097.4 256.186 1097.68 255.854C1097.95 255.516 1098.28 255.275 1098.66 255.129C1099.05 254.983 1099.48 254.91 1099.96 254.91C1100.35 254.91 1100.7 254.958 1101.03 255.054C1101.36 255.145 1101.65 255.293 1101.9 255.498C1102.16 255.699 1102.37 255.967 1102.55 256.305C1102.73 256.637 1102.87 257.045 1102.97 257.528C1103.06 258.011 1103.11 258.579 1103.11 259.23ZM1101.84 260.953V259.019C1101.84 258.572 1101.81 258.18 1101.76 257.843C1101.71 257.501 1101.63 257.209 1101.53 256.968C1101.43 256.726 1101.31 256.53 1101.15 256.38C1101 256.229 1100.82 256.12 1100.62 256.052C1100.43 255.979 1100.21 255.942 1099.96 255.942C1099.66 255.942 1099.39 255.999 1099.16 256.113C1098.93 256.223 1098.73 256.398 1098.57 256.64C1098.42 256.881 1098.3 257.198 1098.22 257.59C1098.14 257.982 1098.1 258.458 1098.1 259.019V260.953C1098.1 261.4 1098.12 261.794 1098.17 262.136C1098.23 262.478 1098.3 262.774 1098.41 263.024C1098.51 263.271 1098.64 263.473 1098.79 263.633C1098.94 263.792 1099.12 263.911 1099.31 263.988C1099.51 264.061 1099.73 264.098 1099.98 264.098C1100.28 264.098 1100.56 264.038 1100.79 263.92C1101.02 263.801 1101.21 263.617 1101.37 263.366C1101.53 263.111 1101.65 262.785 1101.73 262.389C1101.8 261.988 1101.84 261.509 1101.84 260.953Z" fill="#111111"/>
<path d="M129 175L222.227 95L277.066 146.824L332.902 115.126L432.111 166.95L557.743 115.126L609.092 160.912L632.523 103.553L647.48 129.214L669.914 103.553L793.551 166.95L911.206 122.17L981.999 146.824L1108.63 115.126L1152 160.912" stroke="#D36611" stroke-width="2"/>
<circle cx="222.5" cy="95.5" r="4" fill="#1E202F" stroke="#D36611"/>
<circle cx="248.5" cy="120.5" r="4" fill="#1E202F" stroke="#D36611"/>
<circle cx="277.5" cy="145.5" r="4" fill="#1E202F" stroke="#D36611"/>
<circle cx="318.5" cy="123.5" r="4" fill="#1E202F" stroke="#D36611"/>
<circle cx="333.5" cy="115.5" r="4" fill="#1E202F" stroke="#D36611"/>
<circle cx="373.5" cy="136.5" r="4" fill="#1E202F" stroke="#D36611"/>
<circle cx="431.5" cy="166.5" r="4" fill="#1E202F" stroke="#D36611"/>
<circle cx="478.5" cy="147.5" r="4" fill="#1E202F" stroke="#D36611"/>
<circle cx="516.5" cy="131.5" r="4" fill="#1E202F" stroke="#D36611"/>
<circle cx="557.5" cy="115.5" r="4" fill="#1E202F" stroke="#D36611"/>
<circle cx="572.5" cy="128.5" r="4" fill="#1E202F" stroke="#D36611"/>
<circle cx="589.5" cy="143.5" r="4" fill="#1E202F" stroke="#D36611"/>
<circle cx="609.5" cy="160.5" r="4" fill="#1E202F" stroke="#D36611"/>
<circle cx="618.5" cy="137.5" r="4" fill="#1E202F" stroke="#D36611"/>
<circle cx="632.5" cy="103.5" r="4" fill="#1E202F" stroke="#D36611"/>
<circle cx="647.5" cy="128.5" r="4" fill="#1E202F" stroke="#D36611"/>
<circle cx="669.5" cy="104.5" r="4" fill="#1E202F" stroke="#D36611"/>
<circle cx="703.5" cy="120.5" r="4" fill="#1E202F" stroke="#D36611"/>
<circle cx="747.5" cy="143.5" r="4" fill="#1E202F" stroke="#D36611"/>
<circle cx="793.5" cy="166.5" r="4" fill="#1E202F" stroke="#D36611"/>
<circle cx="828.5" cy="153.5" r="4" fill="#1E202F" stroke="#D36611"/>
<circle cx="857.5" cy="142.5" r="4" fill="#1E202F" stroke="#D36611"/>
<circle cx="884.5" cy="131.5" r="4" fill="#1E202F" stroke="#D36611"/>
<circle cx="911.5" cy="122.5" r="4" fill="#1E202F" stroke="#D36611"/>
<circle cx="951.5" cy="136.5" r="4" fill="#1E202F" stroke="#D36611"/>
<circle cx="982.5" cy="146.5" r="4" fill="#1E202F" stroke="#D36611"/>
<circle cx="1036.5" cy="132.5" r="4" fill="#1E202F" stroke="#D36611"/>
<circle cx="1108.5" cy="115.5" r="4" fill="#1E202F" stroke="#D36611"/>
<circle cx="1132.5" cy="139.5" r="4" fill="#1E202F" stroke="#D36611"/>
<circle cx="180.5" cy="130.5" r="4" fill="#1E202F" stroke="#D36611"/>
<circle cx="153.5" cy="153.5" r="4" fill="#1E202F" stroke="#D36611"/>
</svg>
