<svg width="24" height="24" viewBox="0 0 24 24" fill="none" xmlns="http://www.w3.org/2000/svg">
<path d="M12 24C18.6274 24 24 18.6274 24 12C24 5.37258 18.6274 0 12 0C5.37258 0 0 5.37258 0 12C0 18.6274 5.37258 24 12 24Z" fill="#1F1F22"/>
<path fill-rule="evenodd" clip-rule="evenodd" d="M16.6864 17.4654C17.8034 16.5081 18.6004 15.2315 18.97 13.8075C19.3396 12.3835 19.2641 10.8805 18.7537 9.50073C18.2433 8.12094 17.3225 6.93062 16.1152 6.08995C14.9079 5.24928 13.4721 4.79862 12.0009 4.79862C10.5297 4.79862 9.09388 5.24928 7.88658 6.08995C6.67928 6.93062 5.75847 8.12094 5.24808 9.50073C4.73769 10.8805 4.66222 12.3835 5.03183 13.8075C5.40143 15.2315 6.19837 16.5081 7.3154 17.4654L5.7524 19.2874C4.69997 18.387 3.85531 17.2691 3.27663 16.0107C2.69794 14.7524 2.399 13.3835 2.4004 11.9984C2.4004 9.45236 3.41182 7.01056 5.21217 5.21021C7.01252 3.40986 9.45432 2.39844 12.0004 2.39844C13.2611 2.39844 14.5094 2.64675 15.6742 3.12919C16.8389 3.61164 17.8972 4.31877 18.7886 5.21021C19.6801 6.10165 20.3872 7.15995 20.8696 8.32468C21.3521 9.4894 21.6004 10.7377 21.6004 11.9984C21.6019 13.3837 21.3031 14.7527 20.7244 16.0113C20.1457 17.2698 19.3009 18.3879 18.2484 19.2884L16.6864 17.4654Z" fill="#CDCDCD" fill-opacity="0.1"/>
<path fill-rule="evenodd" clip-rule="evenodd" d="M16.6864 17.4654C17.8034 16.5081 18.6004 15.2315 18.97 13.8075C19.3396 12.3835 19.2641 10.8805 18.7537 9.50073C18.2433 8.12094 17.3225 6.93062 16.1152 6.08995C14.9079 5.24928 13.4721 4.79862 12.0009 4.79862C10.5297 4.79862 9.09388 5.24928 7.88658 6.08995C6.67928 6.93062 5.75847 8.12094 5.24808 9.50073C4.73769 10.8805 4.66222 12.3835 5.03183 13.8075C5.40143 15.2315 6.19837 16.5081 7.3154 17.4654L5.7524 19.2874C4.69997 18.387 3.85531 17.2691 3.27663 16.0107C2.69794 14.7524 2.399 13.3835 2.4004 11.9984C2.4004 9.45236 3.41182 7.01056 5.21217 5.21021C7.01252 3.40986 9.45432 2.39844 12.0004 2.39844C13.2611 2.39844 14.5094 2.64675 15.6742 3.12919C16.8389 3.61164 17.8972 4.31877 18.7886 5.21021C19.6801 6.10165 20.3872 7.15995 20.8696 8.32468C21.3521 9.4894 21.6004 10.7377 21.6004 11.9984C21.6019 13.3837 21.3031 14.7527 20.7244 16.0113C20.1457 17.2698 19.3009 18.3879 18.2484 19.2884L16.6864 17.4654Z" fill="#FE1F00"/>
<path d="M9.23309 10.2323L7.74609 11.0563V10.0223L9.46809 8.94728H10.4591V14.3993H9.23309V10.2323ZM13.8281 14.4833C13.5821 14.4833 13.3801 14.4743 13.2241 14.4583C13.0507 14.4383 12.8791 14.4045 12.7111 14.3573C12.5422 14.3125 12.3848 14.2324 12.2491 14.1223C12.1179 13.9952 12.0173 13.84 11.9551 13.6683C11.8657 13.4499 11.8228 13.2152 11.8291 12.9793V10.3673C11.8291 10.1093 11.8691 9.88228 11.9471 9.68728C12.0113 9.51203 12.1146 9.3537 12.2491 9.22428C12.3561 9.12928 12.5011 9.05428 12.6861 8.99828C12.8656 8.93766 13.0515 8.89806 13.2401 8.88028C13.4531 8.86928 13.6501 8.86328 13.8281 8.86328C14.0801 8.86328 14.2821 8.87228 14.4331 8.88828C14.6042 8.90381 14.7732 8.93767 14.9371 8.98928C15.1391 9.05128 15.2981 9.13228 15.4161 9.23328C15.5341 9.33328 15.6341 9.47928 15.7181 9.67028C15.8021 9.86028 15.8441 10.0923 15.8441 10.3673V12.9793C15.8441 13.2373 15.8021 13.4643 15.7181 13.6593C15.6553 13.8326 15.5517 13.9883 15.4161 14.1133C15.2791 14.2214 15.1221 14.3013 14.9541 14.3483C14.7641 14.4103 14.5821 14.4463 14.4081 14.4583C14.2153 14.4767 14.0217 14.485 13.8281 14.4833ZM13.8451 13.6933C14.0801 13.6933 14.2481 13.6793 14.3491 13.6513C14.3939 13.6392 14.4354 13.6171 14.4704 13.5866C14.5054 13.5561 14.533 13.518 14.5511 13.4753C14.5841 13.3913 14.6011 13.2543 14.6011 13.0633V10.2833C14.6011 10.0933 14.5841 9.95528 14.5511 9.87128C14.5336 9.82899 14.506 9.79159 14.4709 9.76232C14.4357 9.73305 14.3939 9.71279 14.3491 9.70328C14.2491 9.67028 14.0801 9.65328 13.8451 9.65328C13.6051 9.65328 13.4311 9.67028 13.3251 9.70328C13.2803 9.71279 13.2385 9.73305 13.2033 9.76232C13.1681 9.79159 13.1406 9.82899 13.1231 9.87128C13.0891 9.95528 13.0731 10.0923 13.0731 10.2833V13.0633C13.0731 13.2533 13.0891 13.3913 13.1231 13.4753C13.1561 13.5593 13.2231 13.6183 13.3241 13.6513C13.4311 13.6793 13.6041 13.6933 13.8451 13.6933Z" fill="#FE1F00"/>
</svg>
