<svg width="1157" height="295" viewBox="0 0 1157 295" fill="none" xmlns="http://www.w3.org/2000/svg">
<path d="M35.3636 201.852V199.273L43.7955 195.818V195.682L35.3636 192.227V189.648H47V191.67H39.0057V191.778L46.9659 194.994V196.506L38.9886 199.722V199.83H47V201.852H35.3636ZM47 185.858V188.108L35.3636 184.011V181.409L47 177.307V179.557L37.75 182.665V182.756L47 185.858ZM42.4375 185.784V179.648H44.1307V185.784H42.4375ZM37.1307 177.692H35.3636V168.408H37.1307V172.004H47V174.095H37.1307V177.692ZM39.2898 157.173V159.298C38.9413 159.359 38.6326 159.471 38.3636 159.634C38.0909 159.796 37.8598 159.999 37.6705 160.241C37.4811 160.484 37.339 160.76 37.2443 161.071C37.1458 161.378 37.0966 161.709 37.0966 162.065C37.0966 162.698 37.2557 163.259 37.5739 163.747C37.8883 164.236 38.3504 164.618 38.9602 164.895C39.5663 165.171 40.3068 165.31 41.1818 165.31C42.072 165.31 42.822 165.171 43.4318 164.895C44.0379 164.615 44.4962 164.232 44.8068 163.747C45.1136 163.259 45.267 162.7 45.267 162.071C45.267 161.723 45.2216 161.397 45.1307 161.094C45.036 160.787 44.8977 160.512 44.7159 160.27C44.5341 160.024 44.3106 159.817 44.0455 159.651C43.7803 159.48 43.4773 159.363 43.1364 159.298L43.1477 157.173C43.7008 157.253 44.2197 157.425 44.7045 157.69C45.1894 157.952 45.6174 158.295 45.9886 158.719C46.3561 159.143 46.6439 159.639 46.8523 160.207C47.0568 160.776 47.1591 161.406 47.1591 162.099C47.1591 163.122 46.9223 164.035 46.4489 164.838C45.9754 165.641 45.2917 166.274 44.3977 166.736C43.5038 167.198 42.4318 167.429 41.1818 167.429C39.928 167.429 38.8561 167.196 37.9659 166.73C37.072 166.264 36.3883 165.63 35.9148 164.827C35.4413 164.024 35.2045 163.115 35.2045 162.099C35.2045 161.452 35.2955 160.849 35.4773 160.293C35.6591 159.736 35.9261 159.24 36.2784 158.804C36.6269 158.368 37.0549 158.01 37.5625 157.73C38.0663 157.446 38.642 157.26 39.2898 157.173ZM47 155.243H35.3636V153.135H40.2898V147.743H35.3636V145.629H47V147.743H42.0568V153.135H47V155.243ZM47 143.337H35.3636L35.3636 135.768H37.1307V141.229H40.2898V136.161H42.0568V141.229H45.233V135.723H47V143.337ZM38.5625 127.294C38.0663 127.347 37.6799 127.571 37.4034 127.964C37.1269 128.355 36.9886 128.862 36.9886 129.487C36.9886 129.927 37.0549 130.304 37.1875 130.618C37.3201 130.932 37.5 131.173 37.7273 131.339C37.9545 131.506 38.214 131.591 38.5057 131.595C38.7481 131.595 38.9583 131.54 39.1364 131.43C39.3144 131.317 39.4659 131.163 39.5909 130.97C39.7121 130.777 39.8144 130.563 39.8977 130.328C39.9811 130.093 40.0511 129.857 40.108 129.618L40.3807 128.527C40.483 128.088 40.6212 127.665 40.7955 127.26C40.9697 126.851 41.1894 126.485 41.4545 126.163C41.7197 125.838 42.0398 125.58 42.4148 125.391C42.7898 125.201 43.2292 125.107 43.733 125.107C44.4148 125.107 45.0152 125.281 45.5341 125.629C46.0492 125.978 46.4527 126.482 46.7443 127.141C47.0322 127.796 47.1761 128.589 47.1761 129.521C47.1761 130.427 47.036 131.213 46.7557 131.879C46.4754 132.542 46.0663 133.061 45.5284 133.436C44.9905 133.807 44.3352 134.008 43.5625 134.038V131.964C43.9678 131.934 44.3049 131.809 44.5739 131.589C44.8428 131.37 45.0436 131.084 45.1761 130.732C45.3087 130.375 45.375 129.978 45.375 129.538C45.375 129.08 45.3068 128.679 45.1705 128.334C45.0303 127.985 44.8371 127.713 44.5909 127.516C44.3409 127.319 44.0492 127.218 43.7159 127.214C43.4129 127.218 43.1629 127.307 42.9659 127.482C42.7652 127.656 42.5985 127.9 42.4659 128.214C42.3295 128.525 42.2083 128.889 42.1023 129.305L41.7614 130.629C41.5152 131.588 41.142 132.345 40.642 132.902C40.1383 133.455 39.4697 133.732 38.6364 133.732C37.9508 133.732 37.3504 133.546 36.8352 133.175C36.3201 132.8 35.9205 132.29 35.6364 131.646C35.3485 131.002 35.2045 130.273 35.2045 129.459C35.2045 128.633 35.3485 127.91 35.6364 127.288C35.9205 126.663 36.3163 126.173 36.8239 125.817C37.3277 125.461 37.9072 125.277 38.5625 125.266V127.294ZM47 119.259H35.3636V114.895C35.3636 114.001 35.5303 113.251 35.8636 112.645C36.197 112.035 36.6553 111.575 37.2386 111.264C37.8182 110.95 38.4773 110.793 39.2159 110.793C39.9621 110.793 40.625 110.95 41.2045 111.264C41.7841 111.579 42.2405 112.043 42.5739 112.656C42.9034 113.27 43.0682 114.026 43.0682 114.923V117.815H41.3352V115.207C41.3352 114.685 41.2443 114.257 41.0625 113.923C40.8807 113.59 40.6307 113.344 40.3125 113.185C39.9943 113.022 39.6288 112.94 39.2159 112.94C38.803 112.94 38.4394 113.022 38.125 113.185C37.8106 113.344 37.5663 113.592 37.392 113.929C37.214 114.262 37.125 114.692 37.125 115.219V117.151H47V119.259ZM47 108.962H35.3636V106.854H45.233V101.729H47V108.962ZM47 97.9673V100.217L35.3636 96.1207V93.5185L47 89.4162V91.6662L37.75 94.7741V94.8651L47 97.9673ZM42.4375 97.8935V91.7571H44.1307V97.8935H42.4375ZM35.3636 89.8665V87.4858L40.5114 84.6392V84.5256L35.3636 81.679V79.2983L42.6591 83.5312H47V85.6335H42.6591L35.3636 89.8665ZM47 77.8054H35.3636V70.2372H37.1307V75.6974H40.2898V70.6293H42.0568V75.6974H45.233V70.1918H47V77.8054ZM47 64.1435V68.0866H35.3636V64.0639C35.3636 62.9086 35.5966 61.9162 36.0625 61.0866C36.5246 60.2533 37.1894 59.6132 38.0568 59.1662C38.9242 58.7192 39.9621 58.4957 41.1705 58.4957C42.3826 58.4957 43.4242 58.7211 44.2955 59.1719C45.1667 59.6188 45.8352 60.2647 46.3011 61.1094C46.767 61.9503 47 62.9616 47 64.1435ZM45.1761 65.9787V64.2457C45.1761 63.4351 45.0284 62.759 44.733 62.2173C44.4337 61.6757 43.9886 61.2685 43.3977 60.9957C42.803 60.723 42.0606 60.5866 41.1705 60.5866C40.2803 60.5866 39.5417 60.723 38.9545 60.9957C38.3636 61.2685 37.9223 61.6719 37.6307 62.206C37.3352 62.7363 37.1875 63.3954 37.1875 64.1832V65.9787H45.1761Z" fill="#3B415C"/>
<path d="M107.21 12.9404H107.34C108.069 12.9404 108.661 12.8379 109.117 12.6328C109.573 12.4277 109.924 12.152 110.17 11.8057C110.416 11.4593 110.585 11.0697 110.676 10.6367C110.767 10.1992 110.812 9.75033 110.812 9.29004V7.76562C110.812 7.31445 110.76 6.91341 110.655 6.5625C110.555 6.21159 110.414 5.91764 110.231 5.68066C110.054 5.44368 109.851 5.26367 109.623 5.14062C109.395 5.01758 109.154 4.95605 108.898 4.95605C108.607 4.95605 108.345 5.0153 108.112 5.13379C107.884 5.24772 107.691 5.40951 107.531 5.61914C107.376 5.82878 107.258 6.07487 107.176 6.35742C107.094 6.63997 107.053 6.94759 107.053 7.28027C107.053 7.5765 107.089 7.86361 107.162 8.1416C107.235 8.4196 107.347 8.67025 107.497 8.89355C107.647 9.11686 107.834 9.2946 108.058 9.42676C108.285 9.55436 108.552 9.61816 108.857 9.61816C109.14 9.61816 109.404 9.56348 109.65 9.4541C109.901 9.34017 110.122 9.1875 110.313 8.99609C110.509 8.80013 110.664 8.5791 110.778 8.33301C110.897 8.08691 110.965 7.82943 110.983 7.56055H111.585C111.585 7.9388 111.51 8.3125 111.359 8.68164C111.214 9.04622 111.008 9.37891 110.744 9.67969C110.48 9.98047 110.17 10.222 109.814 10.4043C109.459 10.582 109.072 10.6709 108.652 10.6709C108.16 10.6709 107.734 10.5752 107.374 10.3838C107.014 10.1924 106.718 9.93717 106.485 9.61816C106.257 9.29915 106.087 8.94368 105.973 8.55176C105.863 8.15527 105.809 7.75423 105.809 7.34863C105.809 6.87467 105.875 6.43034 106.007 6.01562C106.139 5.60091 106.335 5.23633 106.595 4.92188C106.854 4.60286 107.176 4.35449 107.559 4.17676C107.946 3.99902 108.393 3.91016 108.898 3.91016C109.468 3.91016 109.953 4.02409 110.354 4.25195C110.756 4.47982 111.081 4.78516 111.332 5.16797C111.587 5.55078 111.774 5.98145 111.893 6.45996C112.011 6.93848 112.07 7.43066 112.07 7.93652V8.39453C112.07 8.90951 112.036 9.43359 111.968 9.9668C111.904 10.4954 111.779 11.0013 111.592 11.4844C111.41 11.9674 111.143 12.4004 110.792 12.7832C110.441 13.1615 109.983 13.4622 109.418 13.6855C108.857 13.9043 108.165 14.0137 107.34 14.0137H107.21V12.9404Z" fill="#111111"/>
<path d="M112.228 38.3066C112.228 38.9128 112.086 39.4277 111.804 39.8516C111.526 40.2708 111.147 40.5898 110.669 40.8086C110.195 41.0273 109.66 41.1367 109.062 41.1367C108.465 41.1367 107.928 41.0273 107.449 40.8086C106.971 40.5898 106.592 40.2708 106.314 39.8516C106.036 39.4277 105.897 38.9128 105.897 38.3066C105.897 37.9102 105.973 37.5479 106.123 37.2197C106.278 36.887 106.494 36.5977 106.772 36.3516C107.055 36.1055 107.388 35.9163 107.771 35.7842C108.158 35.6475 108.584 35.5791 109.049 35.5791C109.66 35.5791 110.204 35.6976 110.683 35.9346C111.161 36.167 111.537 36.4883 111.811 36.8984C112.089 37.3086 112.228 37.778 112.228 38.3066ZM110.956 38.2793C110.956 37.9102 110.876 37.5843 110.717 37.3018C110.557 37.0146 110.334 36.7913 110.047 36.6318C109.76 36.4723 109.427 36.3926 109.049 36.3926C108.661 36.3926 108.326 36.4723 108.044 36.6318C107.766 36.7913 107.549 37.0146 107.395 37.3018C107.24 37.5843 107.162 37.9102 107.162 38.2793C107.162 38.6621 107.237 38.9902 107.388 39.2637C107.543 39.5326 107.761 39.7399 108.044 39.8857C108.331 40.027 108.671 40.0977 109.062 40.0977C109.454 40.0977 109.792 40.027 110.074 39.8857C110.357 39.7399 110.573 39.5326 110.724 39.2637C110.879 38.9902 110.956 38.6621 110.956 38.2793ZM111.995 33.6377C111.995 34.1208 111.868 34.556 111.612 34.9434C111.357 35.3307 111.008 35.6361 110.566 35.8594C110.124 36.0827 109.623 36.1943 109.062 36.1943C108.493 36.1943 107.985 36.0827 107.538 35.8594C107.096 35.6361 106.75 35.3307 106.499 34.9434C106.248 34.556 106.123 34.1208 106.123 33.6377C106.123 33.0589 106.248 32.5667 106.499 32.1611C106.754 31.7555 107.103 31.4456 107.545 31.2314C107.987 31.0173 108.491 30.9102 109.056 30.9102C109.625 30.9102 110.131 31.0173 110.573 31.2314C111.015 31.4456 111.362 31.7555 111.612 32.1611C111.868 32.5667 111.995 33.0589 111.995 33.6377ZM110.73 33.6582C110.73 33.3255 110.66 33.0316 110.519 32.7764C110.377 32.5212 110.181 32.3206 109.931 32.1748C109.68 32.0244 109.388 31.9492 109.056 31.9492C108.723 31.9492 108.431 32.0199 108.181 32.1611C107.935 32.2979 107.741 32.4938 107.6 32.749C107.463 33.0042 107.395 33.3073 107.395 33.6582C107.395 34 107.463 34.2985 107.6 34.5537C107.741 34.8089 107.937 35.0072 108.188 35.1484C108.438 35.2897 108.73 35.3604 109.062 35.3604C109.395 35.3604 109.685 35.2897 109.931 35.1484C110.181 35.0072 110.377 34.8089 110.519 34.5537C110.66 34.2985 110.73 34 110.73 33.6582Z" fill="#111111"/>
<path d="M112.385 58.0469V58.7578L108.263 68H106.93L111.045 59.0859H105.658V58.0469H112.385Z" fill="#111111"/>
<path d="M110.806 85.0332H110.915V86.1064H110.806C110.136 86.1064 109.575 86.2158 109.124 86.4346C108.673 86.6488 108.315 86.9382 108.051 87.3027C107.786 87.6628 107.595 88.0684 107.477 88.5195C107.363 88.9707 107.306 89.4287 107.306 89.8936V91.3564C107.306 91.7985 107.358 92.1904 107.463 92.5322C107.568 92.8695 107.711 93.1543 107.894 93.3867C108.076 93.6191 108.281 93.7946 108.509 93.9131C108.741 94.0316 108.983 94.0908 109.233 94.0908C109.525 94.0908 109.785 94.0361 110.013 93.9268C110.241 93.8128 110.432 93.6556 110.587 93.4551C110.746 93.25 110.867 93.0085 110.949 92.7305C111.031 92.4525 111.072 92.1471 111.072 91.8145C111.072 91.5182 111.036 91.2334 110.963 90.96C110.89 90.682 110.778 90.4359 110.628 90.2217C110.478 90.0029 110.288 89.832 110.061 89.709C109.837 89.5814 109.571 89.5176 109.261 89.5176C108.91 89.5176 108.582 89.6042 108.276 89.7773C107.976 89.946 107.727 90.1693 107.531 90.4473C107.34 90.7207 107.23 91.0192 107.203 91.3428L106.533 91.3359C106.597 90.8255 106.715 90.3903 106.889 90.0303C107.066 89.6657 107.285 89.3695 107.545 89.1416C107.809 88.9092 108.103 88.7406 108.427 88.6357C108.755 88.5264 109.101 88.4717 109.466 88.4717C109.963 88.4717 110.391 88.5651 110.751 88.752C111.111 88.9388 111.407 89.1895 111.64 89.5039C111.872 89.8138 112.043 90.1647 112.152 90.5566C112.266 90.944 112.323 91.3428 112.323 91.7529C112.323 92.2223 112.257 92.6621 112.125 93.0723C111.993 93.4824 111.795 93.8424 111.53 94.1523C111.271 94.4622 110.949 94.7038 110.566 94.877C110.184 95.0501 109.739 95.1367 109.233 95.1367C108.696 95.1367 108.226 95.0273 107.825 94.8086C107.424 94.5853 107.091 94.2891 106.827 93.9199C106.563 93.5508 106.365 93.1406 106.232 92.6895C106.1 92.2383 106.034 91.7803 106.034 91.3154V90.7207C106.034 90.0189 106.105 89.3307 106.246 88.6562C106.387 87.9818 106.631 87.3711 106.978 86.8242C107.328 86.2773 107.814 85.8421 108.434 85.5186C109.053 85.195 109.844 85.0332 110.806 85.0332Z" fill="#111111"/>
<path d="M107.552 117.263L106.54 117.003L107.039 112.047H112.146V113.216H108.112L107.812 115.923C107.994 115.818 108.224 115.72 108.502 115.629C108.785 115.538 109.108 115.492 109.473 115.492C109.933 115.492 110.345 115.572 110.71 115.731C111.075 115.886 111.384 116.11 111.64 116.401C111.899 116.693 112.098 117.044 112.234 117.454C112.371 117.864 112.439 118.322 112.439 118.828C112.439 119.307 112.373 119.746 112.241 120.147C112.114 120.549 111.92 120.899 111.66 121.2C111.4 121.496 111.072 121.727 110.676 121.891C110.284 122.055 109.821 122.137 109.288 122.137C108.887 122.137 108.507 122.082 108.146 121.973C107.791 121.859 107.472 121.688 107.189 121.46C106.911 121.228 106.684 120.94 106.506 120.599C106.333 120.252 106.223 119.847 106.178 119.382H107.381C107.436 119.756 107.545 120.07 107.709 120.325C107.873 120.58 108.087 120.774 108.352 120.906C108.62 121.034 108.933 121.098 109.288 121.098C109.589 121.098 109.855 121.045 110.088 120.94C110.32 120.836 110.516 120.685 110.676 120.489C110.835 120.293 110.956 120.056 111.038 119.778C111.125 119.5 111.168 119.188 111.168 118.842C111.168 118.527 111.125 118.236 111.038 117.967C110.951 117.698 110.822 117.463 110.648 117.263C110.48 117.062 110.272 116.907 110.026 116.798C109.78 116.684 109.498 116.627 109.179 116.627C108.755 116.627 108.434 116.684 108.215 116.798C108.001 116.912 107.78 117.067 107.552 117.263Z" fill="#111111"/>
<path d="M112.679 145.65V146.689H105.487V145.944L109.944 139.047H110.977L109.869 141.043L106.923 145.65H112.679ZM111.291 139.047V149H110.026V139.047H111.291Z" fill="#111111"/>
<path d="M107.798 170.401H108.7C109.142 170.401 109.507 170.328 109.794 170.183C110.086 170.032 110.302 169.829 110.443 169.574C110.589 169.314 110.662 169.023 110.662 168.699C110.662 168.316 110.598 167.995 110.471 167.735C110.343 167.476 110.152 167.28 109.896 167.147C109.641 167.015 109.318 166.949 108.926 166.949C108.57 166.949 108.256 167.02 107.982 167.161C107.714 167.298 107.502 167.494 107.347 167.749C107.196 168.004 107.121 168.305 107.121 168.651H105.856C105.856 168.146 105.984 167.685 106.239 167.271C106.494 166.856 106.852 166.525 107.312 166.279C107.777 166.033 108.315 165.91 108.926 165.91C109.527 165.91 110.054 166.017 110.505 166.231C110.956 166.441 111.307 166.756 111.558 167.175C111.808 167.59 111.934 168.107 111.934 168.727C111.934 168.977 111.874 169.246 111.756 169.533C111.642 169.816 111.462 170.08 111.216 170.326C110.974 170.572 110.66 170.775 110.272 170.935C109.885 171.09 109.42 171.167 108.878 171.167H107.798V170.401ZM107.798 171.44V170.682H108.878C109.511 170.682 110.035 170.757 110.45 170.907C110.865 171.058 111.191 171.258 111.428 171.509C111.669 171.759 111.838 172.035 111.934 172.336C112.034 172.632 112.084 172.928 112.084 173.225C112.084 173.689 112.004 174.102 111.845 174.462C111.69 174.822 111.469 175.127 111.182 175.378C110.899 175.629 110.566 175.818 110.184 175.945C109.801 176.073 109.384 176.137 108.933 176.137C108.5 176.137 108.092 176.075 107.709 175.952C107.331 175.829 106.996 175.651 106.704 175.419C106.412 175.182 106.185 174.893 106.021 174.551C105.856 174.204 105.774 173.81 105.774 173.368H107.039C107.039 173.715 107.114 174.018 107.265 174.277C107.42 174.537 107.638 174.74 107.921 174.886C108.208 175.027 108.545 175.098 108.933 175.098C109.32 175.098 109.653 175.032 109.931 174.899C110.213 174.763 110.43 174.558 110.58 174.284C110.735 174.011 110.812 173.667 110.812 173.252C110.812 172.837 110.726 172.498 110.553 172.233C110.38 171.965 110.133 171.766 109.814 171.639C109.5 171.507 109.129 171.44 108.7 171.44H107.798Z" fill="#111111"/>
<path d="M112.474 201.961V203H105.959V202.091L109.22 198.461C109.621 198.014 109.931 197.636 110.149 197.326C110.373 197.012 110.528 196.731 110.614 196.485C110.705 196.235 110.751 195.979 110.751 195.72C110.751 195.392 110.683 195.095 110.546 194.831C110.414 194.562 110.218 194.348 109.958 194.188C109.698 194.029 109.384 193.949 109.015 193.949C108.573 193.949 108.203 194.036 107.907 194.209C107.616 194.378 107.397 194.615 107.251 194.92C107.105 195.225 107.032 195.576 107.032 195.973H105.768C105.768 195.412 105.891 194.899 106.137 194.435C106.383 193.97 106.747 193.601 107.23 193.327C107.714 193.049 108.308 192.91 109.015 192.91C109.644 192.91 110.181 193.022 110.628 193.245C111.075 193.464 111.416 193.774 111.653 194.175C111.895 194.571 112.016 195.036 112.016 195.569C112.016 195.861 111.965 196.157 111.865 196.458C111.77 196.754 111.635 197.05 111.462 197.347C111.293 197.643 111.095 197.935 110.867 198.222C110.644 198.509 110.405 198.791 110.149 199.069L107.483 201.961H112.474Z" fill="#111111"/>
<path d="M110.108 219.992V230H108.844V221.571L106.294 222.501V221.359L109.91 219.992H110.108Z" fill="#111111"/>
<path d="M112.2 251.23V252.748C112.2 253.564 112.127 254.252 111.981 254.812C111.836 255.373 111.626 255.824 111.353 256.166C111.079 256.508 110.749 256.756 110.361 256.911C109.979 257.062 109.546 257.137 109.062 257.137C108.68 257.137 108.326 257.089 108.003 256.993C107.679 256.897 107.388 256.745 107.128 256.535C106.873 256.321 106.654 256.043 106.472 255.701C106.289 255.359 106.15 254.945 106.055 254.457C105.959 253.969 105.911 253.4 105.911 252.748V251.23C105.911 250.415 105.984 249.731 106.13 249.18C106.28 248.628 106.492 248.186 106.766 247.854C107.039 247.516 107.367 247.275 107.75 247.129C108.137 246.983 108.57 246.91 109.049 246.91C109.436 246.91 109.792 246.958 110.115 247.054C110.443 247.145 110.735 247.293 110.99 247.498C111.245 247.699 111.462 247.967 111.64 248.305C111.822 248.637 111.961 249.045 112.057 249.528C112.152 250.011 112.2 250.579 112.2 251.23ZM110.929 252.953V251.019C110.929 250.572 110.901 250.18 110.847 249.843C110.797 249.501 110.721 249.209 110.621 248.968C110.521 248.726 110.393 248.53 110.238 248.38C110.088 248.229 109.912 248.12 109.712 248.052C109.516 247.979 109.295 247.942 109.049 247.942C108.748 247.942 108.481 247.999 108.249 248.113C108.017 248.223 107.821 248.398 107.661 248.64C107.506 248.881 107.388 249.198 107.306 249.59C107.224 249.982 107.183 250.458 107.183 251.019V252.953C107.183 253.4 107.208 253.794 107.258 254.136C107.312 254.478 107.392 254.774 107.497 255.024C107.602 255.271 107.729 255.473 107.88 255.633C108.03 255.792 108.203 255.911 108.399 255.988C108.6 256.061 108.821 256.098 109.062 256.098C109.372 256.098 109.644 256.038 109.876 255.92C110.108 255.801 110.302 255.617 110.457 255.366C110.617 255.111 110.735 254.785 110.812 254.389C110.89 253.988 110.929 253.509 110.929 252.953Z" fill="#111111"/>
<path d="M129 10H1153" stroke="#F5F5F5"/>
<path d="M129 37H1153" stroke="#F5F5F5"/>
<path d="M129 64H1153" stroke="#F5F5F5"/>
<path d="M129 91H1153" stroke="#F5F5F5"/>
<path d="M129 118H1153" stroke="#F5F5F5"/>
<path d="M129 145H1153" stroke="#F5F5F5"/>
<path d="M129 172H1153" stroke="#F5F5F5"/>
<path d="M129 199H1153" stroke="#F5F5F5"/>
<path d="M129 226H1153" stroke="#F5F5F5"/>
<path d="M129 253H1153" stroke="#F5F5F5"/>
<rect x="129" y="132" width="10" height="121" fill="#D36611"/>
<rect x="129" y="206" width="10" height="47" fill="#3B415C"/>
<rect x="230" y="132" width="10" height="121" fill="#D36611"/>
<rect x="230" y="206" width="10" height="47" fill="#3B415C"/>
<rect x="199" y="90" width="10" height="163" fill="#D36611"/>
<rect x="171" y="212" width="10" height="41" fill="#D36611"/>
<rect x="143" y="132" width="10" height="121" fill="#D36611"/>
<rect x="143" y="186" width="10" height="67" fill="#3B415C"/>
<rect x="244" y="173" width="10" height="80" fill="#D36611"/>
<rect x="244" y="186" width="10" height="67" fill="#3B415C"/>
<rect x="213" y="132" width="10" height="121" fill="#D36611"/>
<rect x="258" y="132" width="10" height="121" fill="#D36611"/>
<rect x="185" y="212" width="10" height="41" fill="#D36611"/>
<rect x="300" y="132" width="10" height="121" fill="#D36611"/>
<rect x="300" y="206" width="10" height="47" fill="#3B415C"/>
<rect x="401" y="132" width="10" height="121" fill="#D36611"/>
<rect x="401" y="206" width="10" height="47" fill="#3B415C"/>
<rect x="370" y="90" width="10" height="163" fill="#D36611"/>
<rect x="342" y="212" width="10" height="41" fill="#D36611"/>
<rect x="314" y="132" width="10" height="121" fill="#D36611"/>
<rect x="314" y="186" width="10" height="67" fill="#3B415C"/>
<rect x="415" y="173" width="10" height="80" fill="#D36611"/>
<rect x="415" y="186" width="10" height="67" fill="#3B415C"/>
<rect x="384" y="132" width="10" height="121" fill="#D36611"/>
<rect x="429" y="132" width="10" height="121" fill="#D36611"/>
<rect x="356" y="212" width="10" height="41" fill="#D36611"/>
<rect x="471" y="132" width="10" height="121" fill="#D36611"/>
<rect x="471" y="206" width="10" height="47" fill="#3B415C"/>
<rect x="572" y="132" width="10" height="121" fill="#D36611"/>
<rect x="572" y="206" width="10" height="47" fill="#3B415C"/>
<rect x="541" y="24" width="10" height="229" fill="#D36611"/>
<rect x="513" y="212" width="10" height="41" fill="#D36611"/>
<rect x="485" y="132" width="10" height="121" fill="#D36611"/>
<rect x="485" y="186" width="10" height="67" fill="#3B415C"/>
<rect x="586" y="173" width="10" height="80" fill="#D36611"/>
<rect x="586" y="186" width="10" height="67" fill="#3B415C"/>
<rect x="555" y="132" width="10" height="121" fill="#D36611"/>
<rect x="600" y="132" width="10" height="121" fill="#D36611"/>
<rect x="527" y="212" width="10" height="41" fill="#D36611"/>
<rect x="642" y="84" width="10" height="169" fill="#D36611"/>
<rect x="642" y="206" width="10" height="47" fill="#3B415C"/>
<rect x="743" y="132" width="10" height="121" fill="#D36611"/>
<rect x="743" y="206" width="10" height="47" fill="#3B415C"/>
<rect x="712" y="57" width="10" height="196" fill="#D36611"/>
<rect x="684" y="212" width="10" height="41" fill="#D36611"/>
<rect x="656" y="84" width="10" height="169" fill="#D36611"/>
<rect x="656" y="186" width="10" height="67" fill="#3B415C"/>
<rect x="757" y="173" width="10" height="80" fill="#D36611"/>
<rect x="757" y="186" width="10" height="67" fill="#3B415C"/>
<rect x="726" y="132" width="10" height="121" fill="#D36611"/>
<rect x="771" y="132" width="10" height="121" fill="#D36611"/>
<rect x="698" y="212" width="10" height="41" fill="#D36611"/>
<rect x="813" y="132" width="10" height="121" fill="#D36611"/>
<rect x="813" y="206" width="10" height="47" fill="#3B415C"/>
<rect x="914" y="65" width="10" height="188" fill="#D36611"/>
<rect x="914" y="206" width="10" height="47" fill="#3B415C"/>
<rect x="883" y="90" width="10" height="163" fill="#D36611"/>
<rect x="855" y="212" width="10" height="41" fill="#D36611"/>
<rect x="827" y="132" width="10" height="121" fill="#D36611"/>
<rect x="827" y="186" width="10" height="67" fill="#3B415C"/>
<rect x="928" y="173" width="10" height="80" fill="#D36611"/>
<rect x="928" y="186" width="10" height="67" fill="#3B415C"/>
<rect x="897" y="132" width="10" height="121" fill="#D36611"/>
<rect x="942" y="65" width="10" height="188" fill="#D36611"/>
<rect x="869" y="212" width="10" height="41" fill="#D36611"/>
<rect x="984" y="62" width="10" height="191" fill="#D36611"/>
<rect x="984" y="206" width="10" height="47" fill="#3B415C"/>
<rect x="1054" y="90" width="10" height="163" fill="#D36611"/>
<rect x="1026" y="212" width="10" height="41" fill="#D36611"/>
<rect x="998" y="62" width="10" height="191" fill="#D36611"/>
<rect x="998" y="186" width="10" height="67" fill="#3B415C"/>
<rect x="1068" y="132" width="10" height="121" fill="#D36611"/>
<rect x="1040" y="212" width="10" height="41" fill="#D36611"/>
<path d="M198.759 282.273H201.034L203.438 288.136H203.54L205.943 282.273H208.219V291H206.429V285.32H206.357L204.098 290.957H202.879L200.621 285.298H200.548V291H198.759V282.273ZM211.159 291H209.182L212.195 282.273H214.573L217.581 291H215.604L213.418 284.267H213.35L211.159 291ZM211.036 287.57H215.706V289.01H211.036V287.57ZM217.146 282.273H219.212L221.202 286.031H221.288L223.278 282.273H225.344L222.161 287.915V291H220.329V287.915L217.146 282.273Z" fill="#464646"/>
<path d="M615.253 282.273H617.077V288.358C617.077 288.92 616.95 289.409 616.697 289.824C616.447 290.239 616.099 290.558 615.653 290.783C615.207 291.007 614.689 291.119 614.098 291.119C613.572 291.119 613.095 291.027 612.666 290.842C612.24 290.655 611.902 290.371 611.652 289.99C611.402 289.607 611.278 289.125 611.281 288.545H613.118C613.124 288.776 613.17 288.973 613.259 289.138C613.349 289.3 613.473 289.425 613.629 289.513C613.788 289.598 613.976 289.641 614.192 289.641C614.419 289.641 614.611 289.592 614.767 289.496C614.926 289.396 615.047 289.251 615.129 289.061C615.212 288.871 615.253 288.636 615.253 288.358V282.273ZM623.909 282.273H625.754V287.94C625.754 288.577 625.602 289.134 625.298 289.611C624.997 290.088 624.575 290.46 624.032 290.727C623.49 290.991 622.858 291.124 622.136 291.124C621.412 291.124 620.778 290.991 620.236 290.727C619.693 290.46 619.271 290.088 618.97 289.611C618.669 289.134 618.518 288.577 618.518 287.94V282.273H620.363V287.783C620.363 288.115 620.436 288.411 620.581 288.669C620.729 288.928 620.936 289.131 621.203 289.278C621.47 289.426 621.781 289.5 622.136 289.5C622.494 289.5 622.805 289.426 623.069 289.278C623.336 289.131 623.542 288.928 623.687 288.669C623.835 288.411 623.909 288.115 623.909 287.783V282.273ZM634.488 282.273V291H632.894L629.097 285.507H629.033V291H627.188V282.273H628.807L632.575 287.761H632.651V282.273H634.488ZM635.928 291V282.273H641.809V283.794H637.774V285.874H641.507V287.395H637.774V289.479H641.826V291H635.928Z" fill="#464646"/>
<path d="M1032.25 282.273H1034.08V288.358C1034.08 288.92 1033.95 289.409 1033.7 289.824C1033.45 290.239 1033.1 290.558 1032.65 290.783C1032.21 291.007 1031.69 291.119 1031.1 291.119C1030.57 291.119 1030.1 291.027 1029.67 290.842C1029.24 290.655 1028.9 290.371 1028.65 289.99C1028.4 289.607 1028.28 289.125 1028.28 288.545H1030.12C1030.12 288.776 1030.17 288.973 1030.26 289.138C1030.35 289.3 1030.47 289.425 1030.63 289.513C1030.79 289.598 1030.98 289.641 1031.19 289.641C1031.42 289.641 1031.61 289.592 1031.77 289.496C1031.93 289.396 1032.05 289.251 1032.13 289.061C1032.21 288.871 1032.25 288.636 1032.25 288.358V282.273ZM1040.91 282.273H1042.75V287.94C1042.75 288.577 1042.6 289.134 1042.3 289.611C1042 290.088 1041.58 290.46 1041.03 290.727C1040.49 290.991 1039.86 291.124 1039.14 291.124C1038.41 291.124 1037.78 290.991 1037.24 290.727C1036.69 290.46 1036.27 290.088 1035.97 289.611C1035.67 289.134 1035.52 288.577 1035.52 287.94V282.273H1037.36V287.783C1037.36 288.115 1037.44 288.411 1037.58 288.669C1037.73 288.928 1037.94 289.131 1038.2 289.278C1038.47 289.426 1038.78 289.5 1039.14 289.5C1039.49 289.5 1039.81 289.426 1040.07 289.278C1040.34 289.131 1040.54 288.928 1040.69 288.669C1040.84 288.411 1040.91 288.115 1040.91 287.783V282.273ZM1044.19 291V282.273H1046.03V289.479H1049.77V291H1044.19ZM1049.29 282.273H1051.35L1053.34 286.031H1053.43L1055.42 282.273H1057.49L1054.3 287.915V291H1052.47V287.915L1049.29 282.273Z" fill="#464646"/>
</svg>
