<svg width="25" height="24" viewBox="0 0 25 24" fill="none" xmlns="http://www.w3.org/2000/svg">
<path d="M12.7446 9.81824V14.4655H19.3347C19.0453 15.9601 18.1769 17.2256 16.8745 18.0765L20.8485 21.0983C23.164 19.0038 24.4998 15.9274 24.4998 12.2729C24.4998 11.422 24.4219 10.6037 24.2771 9.81837L12.7446 9.81824Z" fill="#4285F4"/>
<path d="M5.8824 14.2841L4.98611 14.9564L1.81348 17.3782C3.82834 21.2945 7.95795 24 12.7446 24C16.0507 24 18.8225 22.9309 20.8485 21.0983L16.8745 18.0764C15.7835 18.7964 14.392 19.2328 12.7446 19.2328C9.56091 19.2328 6.85595 17.1274 5.88741 14.291L5.8824 14.2841Z" fill="#34A853"/>
<path d="M1.81346 6.62207C0.97862 8.23655 0.5 10.0584 0.5 12.0002C0.5 13.942 0.97862 15.7638 1.81346 17.3783C1.81346 17.3891 5.88779 14.2801 5.88779 14.2801C5.64289 13.5601 5.49814 12.7965 5.49814 12.0001C5.49814 11.2036 5.64289 10.44 5.88779 9.72L1.81346 6.62207Z" fill="#FBBC05"/>
<path d="M12.7449 4.77818C14.5482 4.77818 16.1512 5.38907 17.4314 6.56727L20.9379 3.13095C18.8117 1.18917 16.0511 0 12.7449 0C7.9582 0 3.82834 2.69454 1.81348 6.62183L5.88768 9.72001C6.85609 6.88362 9.56116 4.77818 12.7449 4.77818Z" fill="#EA4335"/>
</svg>
