<svg width="637" height="224" viewBox="0 0 637 224" fill="none" xmlns="http://www.w3.org/2000/svg">
<path d="M2.26278 12H0.285511L3.2983 3.27273H5.67614L8.68466 12H6.70739L4.52131 5.26705H4.45312L2.26278 12ZM2.1392 8.5696H6.80966V10.0099H2.1392V8.5696ZM11.4963 3.27273V12H9.65109V3.27273H11.4963ZM12.9304 3.27273H15.2059L17.6093 9.13636H17.7116L20.115 3.27273H22.3906V12H20.6008V6.3196H20.5284L18.2699 11.9574H17.0511L14.7926 6.2983H14.7201V12H12.9304V3.27273Z" fill="#464646"/>
<path d="M521.865 3.15341C522.314 3.15341 522.746 3.22869 523.161 3.37926C523.578 3.52983 523.95 3.76989 524.277 4.09943C524.607 4.42898 524.866 4.86648 525.057 5.41193C525.25 5.95455 525.348 6.62074 525.351 7.41051C525.351 8.15199 525.267 8.81392 525.099 9.39631C524.935 9.97585 524.697 10.4688 524.388 10.875C524.078 11.2812 523.705 11.5909 523.267 11.804C522.83 12.0142 522.341 12.1193 521.801 12.1193C521.219 12.1193 520.705 12.0071 520.259 11.7827C519.813 11.5554 519.453 11.2472 519.18 10.858C518.911 10.4659 518.747 10.0256 518.69 9.53693H520.51C520.581 9.85511 520.73 10.1023 520.957 10.2784C521.185 10.4517 521.466 10.5384 521.801 10.5384C522.369 10.5384 522.801 10.2912 523.097 9.79688C523.392 9.29972 523.541 8.61932 523.544 7.75568H523.484C523.354 8.01136 523.178 8.23153 522.956 8.41619C522.734 8.59801 522.48 8.73864 522.193 8.83807C521.909 8.9375 521.607 8.98722 521.286 8.98722C520.771 8.98722 520.312 8.86648 519.909 8.625C519.506 8.38352 519.188 8.05114 518.955 7.62784C518.722 7.20455 518.605 6.72159 518.605 6.17898C518.602 5.59375 518.737 5.07244 519.01 4.61506C519.283 4.15767 519.663 3.79972 520.152 3.54119C520.643 3.27983 521.214 3.15057 521.865 3.15341ZM521.878 4.60227C521.591 4.60227 521.335 4.67045 521.111 4.80682C520.889 4.94318 520.713 5.12642 520.582 5.35653C520.455 5.58665 520.392 5.84375 520.395 6.12784C520.395 6.41477 520.457 6.6733 520.582 6.90341C520.71 7.13068 520.884 7.3125 521.102 7.44886C521.324 7.58239 521.577 7.64915 521.861 7.64915C522.074 7.64915 522.271 7.60937 522.453 7.52983C522.635 7.45028 522.793 7.34091 522.926 7.2017C523.063 7.05966 523.169 6.89631 523.246 6.71165C523.322 6.52699 523.361 6.33097 523.361 6.12358C523.358 5.84801 523.293 5.59517 523.165 5.36506C523.037 5.13494 522.861 4.95028 522.636 4.81108C522.412 4.67187 522.159 4.60227 521.878 4.60227ZM529.801 12.1193C529.145 12.1193 528.561 12.0128 528.05 11.7997C527.541 11.5838 527.142 11.2898 526.852 10.9176C526.562 10.5455 526.417 10.1236 526.417 9.65199C526.417 9.28835 526.5 8.95455 526.665 8.65057C526.832 8.34375 527.059 8.08949 527.346 7.88778C527.633 7.68324 527.954 7.55256 528.309 7.49574V7.43608C527.844 7.34233 527.466 7.11648 527.176 6.75852C526.886 6.39773 526.741 5.97869 526.741 5.50142C526.741 5.04972 526.873 4.64773 527.138 4.29545C527.402 3.94034 527.764 3.66193 528.224 3.46023C528.687 3.25568 529.213 3.15341 529.801 3.15341C530.389 3.15341 530.913 3.25568 531.373 3.46023C531.836 3.66477 532.2 3.9446 532.464 4.29972C532.729 4.65199 532.862 5.05256 532.865 5.50142C532.862 5.98153 532.714 6.40057 532.422 6.75852C532.129 7.11648 531.754 7.34233 531.297 7.43608V7.49574C531.646 7.55256 531.963 7.68324 532.247 7.88778C532.534 8.08949 532.761 8.34375 532.929 8.65057C533.099 8.95455 533.186 9.28835 533.189 9.65199C533.186 10.1236 533.04 10.5455 532.75 10.9176C532.46 11.2898 532.059 11.5838 531.548 11.7997C531.04 12.0128 530.457 12.1193 529.801 12.1193ZM529.801 10.7642C530.094 10.7642 530.349 10.7116 530.568 10.6065C530.787 10.4986 530.957 10.3509 531.079 10.1634C531.204 9.97301 531.267 9.75426 531.267 9.5071C531.267 9.25426 531.203 9.03125 531.075 8.83807C530.947 8.64205 530.774 8.48864 530.555 8.37784C530.336 8.2642 530.085 8.20739 529.801 8.20739C529.52 8.20739 529.268 8.2642 529.047 8.37784C528.825 8.48864 528.65 8.64205 528.523 8.83807C528.398 9.03125 528.335 9.25426 528.335 9.5071C528.335 9.75426 528.396 9.97301 528.518 10.1634C528.64 10.3509 528.812 10.4986 529.034 10.6065C529.255 10.7116 529.511 10.7642 529.801 10.7642ZM529.801 6.86506C530.045 6.86506 530.263 6.81534 530.453 6.71591C530.643 6.61648 530.792 6.47869 530.9 6.30256C531.008 6.12642 531.062 5.9233 531.062 5.69318C531.062 5.46591 531.008 5.26705 530.9 5.09659C530.792 4.9233 530.645 4.78835 530.457 4.69176C530.27 4.59233 530.051 4.54261 529.801 4.54261C529.554 4.54261 529.335 4.59233 529.145 4.69176C528.954 4.78835 528.805 4.9233 528.697 5.09659C528.592 5.26705 528.54 5.46591 528.54 5.69318C528.54 5.9233 528.594 6.12642 528.702 6.30256C528.809 6.47869 528.959 6.61648 529.149 6.71591C529.339 6.81534 529.557 6.86506 529.801 6.86506Z" fill="#464646"/>
<path d="M550 10L546 6L542 10" stroke="black" stroke-width="2" stroke-linecap="round" stroke-linejoin="round"/>
<path d="M0 25C0 23.3431 1.34315 22 3 22H551C552.657 22 554 23.3431 554 25C554 26.6569 552.657 28 551 28H2.99999C1.34313 28 0 26.6569 0 25Z" fill="#464646"/>
<path d="M0 25C0 23.3431 1.34315 22 3 22H460C461.657 22 463 23.3431 463 25C463 26.6569 461.657 28 460 28H3.00001C1.34316 28 0 26.6569 0 25Z" fill="#BEBEBE"/>
<rect x="414.594" y="18" width="2" height="14" fill="#111111"/>
<path d="M6.14915 51.2727H7.99432V56.9403C7.99432 57.5767 7.84233 58.1335 7.53835 58.6108C7.23722 59.0881 6.81534 59.4602 6.27273 59.7273C5.73011 59.9915 5.09801 60.1236 4.37642 60.1236C3.65199 60.1236 3.01847 59.9915 2.47585 59.7273C1.93324 59.4602 1.51136 59.0881 1.21023 58.6108C0.909091 58.1335 0.758523 57.5767 0.758523 56.9403V51.2727H2.60369V56.7827C2.60369 57.1151 2.67614 57.4105 2.82102 57.669C2.96875 57.9276 3.17614 58.1307 3.44318 58.2784C3.71023 58.4261 4.02131 58.5 4.37642 58.5C4.73438 58.5 5.04545 58.4261 5.30966 58.2784C5.5767 58.1307 5.78267 57.9276 5.92756 57.669C6.07528 57.4105 6.14915 57.1151 6.14915 56.7827V51.2727ZM9.09604 52.794V51.2727H16.2637V52.794H13.5918V60H11.7679V52.794H9.09604ZM19.2052 51.2727V60H17.3601V51.2727H19.2052ZM20.6393 60V51.2727H22.4845V58.4787H26.226V60H20.6393ZM29.2091 51.2727V60H27.3639V51.2727H29.2091ZM30.3108 52.794V51.2727H37.4784V52.794H34.8066V60H32.9827V52.794H30.3108ZM38.0635 51.2727H40.1302L42.1203 55.0312H42.2055L44.1956 51.2727H46.2623L43.0791 56.9148V60H41.2467V56.9148L38.0635 51.2727Z" fill="#464646"/>
<path d="M520.053 60L523.67 52.8409V52.7812H519.456V51.2727H525.58V52.8026L521.957 60H520.053ZM529.922 60.1193C529.473 60.1165 529.04 60.0412 528.622 59.8935C528.208 59.7457 527.835 59.5057 527.506 59.1733C527.176 58.8409 526.915 58.4006 526.722 57.8523C526.531 57.304 526.436 56.6307 526.436 55.8324C526.439 55.0994 526.523 54.4446 526.688 53.8679C526.855 53.2884 527.094 52.7969 527.404 52.3935C527.716 51.9901 528.09 51.6832 528.524 51.473C528.959 51.2599 529.446 51.1534 529.986 51.1534C530.568 51.1534 531.083 51.267 531.529 51.4943C531.975 51.7187 532.333 52.0241 532.602 52.4105C532.875 52.7969 533.04 53.2301 533.097 53.7102H531.277C531.206 53.4062 531.057 53.1676 530.83 52.9943C530.602 52.821 530.321 52.7344 529.986 52.7344C529.418 52.7344 528.986 52.9815 528.691 53.4759C528.398 53.9702 528.249 54.642 528.243 55.4915H528.303C528.433 55.233 528.61 55.0128 528.831 54.831C529.056 54.6463 529.31 54.5057 529.594 54.4091C529.881 54.3097 530.183 54.2599 530.502 54.2599C531.019 54.2599 531.479 54.3821 531.882 54.6264C532.286 54.8679 532.604 55.2003 532.837 55.6236C533.07 56.0469 533.186 56.5312 533.186 57.0767C533.186 57.6676 533.048 58.1932 532.773 58.6534C532.5 59.1136 532.118 59.4744 531.627 59.7358C531.138 59.9943 530.57 60.1222 529.922 60.1193ZM529.914 58.6705C530.198 58.6705 530.452 58.6023 530.676 58.4659C530.901 58.3295 531.077 58.1449 531.205 57.9119C531.333 57.679 531.396 57.4176 531.396 57.1278C531.396 56.8381 531.333 56.5781 531.205 56.348C531.08 56.1179 530.906 55.9347 530.685 55.7983C530.463 55.6619 530.21 55.5938 529.926 55.5938C529.713 55.5938 529.516 55.6335 529.334 55.7131C529.155 55.7926 528.997 55.9034 528.861 56.0455C528.727 56.1875 528.622 56.3523 528.546 56.5398C528.469 56.7244 528.431 56.9219 528.431 57.1321C528.431 57.4134 528.494 57.6705 528.622 57.9034C528.753 58.1364 528.929 58.3224 529.151 58.4616C529.375 58.6009 529.629 58.6705 529.914 58.6705Z" fill="#464646"/>
<path d="M550 58L546 54L542 58" stroke="black" stroke-width="2" stroke-linecap="round" stroke-linejoin="round"/>
<path d="M0 73C0 71.3431 1.34315 70 3 70H551C552.657 70 554 71.3431 554 73C554 74.6569 552.657 76 551 76H2.99999C1.34313 76 0 74.6569 0 73Z" fill="#464646"/>
<path d="M0 73C0 71.3431 1.34315 70 3 70H388C389.657 70 391 71.3431 391 73C391 74.6569 389.657 76 388 76H2.99999C1.34314 76 0 74.6569 0 73Z" fill="#BEBEBE"/>
<rect x="334.594" y="66" width="2" height="14" fill="#111111"/>
<path d="M0.758523 108V99.2727H4.2017C4.86364 99.2727 5.42756 99.3991 5.89347 99.652C6.35938 99.902 6.71449 100.25 6.95881 100.696C7.20597 101.139 7.32955 101.651 7.32955 102.23C7.32955 102.81 7.20455 103.321 6.95455 103.764C6.70455 104.207 6.34233 104.553 5.8679 104.8C5.39631 105.047 4.82528 105.17 4.15483 105.17H1.96023V103.692H3.85653C4.21165 103.692 4.50426 103.631 4.73438 103.509C4.96733 103.384 5.14063 103.212 5.25426 102.993C5.37074 102.771 5.42898 102.517 5.42898 102.23C5.42898 101.94 5.37074 101.687 5.25426 101.472C5.14063 101.253 4.96733 101.084 4.73438 100.964C4.50142 100.842 4.20597 100.781 3.84801 100.781H2.60369V108H0.758523ZM16.4639 103.636C16.4639 104.588 16.2835 105.398 15.9227 106.065C15.5648 106.733 15.0762 107.243 14.4568 107.595C13.8404 107.945 13.1472 108.119 12.3773 108.119C11.6017 108.119 10.9057 107.943 10.2892 107.591C9.67275 107.239 9.18553 106.729 8.82758 106.061C8.46962 105.393 8.29064 104.585 8.29064 103.636C8.29064 102.685 8.46962 101.875 8.82758 101.207C9.18553 100.54 9.67275 100.031 10.2892 99.6818C10.9057 99.3295 11.6017 99.1534 12.3773 99.1534C13.1472 99.1534 13.8404 99.3295 14.4568 99.6818C15.0762 100.031 15.5648 100.54 15.9227 101.207C16.2835 101.875 16.4639 102.685 16.4639 103.636ZM14.5932 103.636C14.5932 103.02 14.5009 102.5 14.3162 102.077C14.1344 101.653 13.8773 101.332 13.5449 101.114C13.2125 100.895 12.8233 100.786 12.3773 100.786C11.9313 100.786 11.5421 100.895 11.2097 101.114C10.8773 101.332 10.6188 101.653 10.4341 102.077C10.2523 102.5 10.1614 103.02 10.1614 103.636C10.1614 104.253 10.2523 104.773 10.4341 105.196C10.6188 105.619 10.8773 105.94 11.2097 106.159C11.5421 106.378 11.9313 106.487 12.3773 106.487C12.8233 106.487 13.2125 106.378 13.5449 106.159C13.8773 105.94 14.1344 105.619 14.3162 105.196C14.5009 104.773 14.5932 104.253 14.5932 103.636ZM22.4811 101.783C22.4471 101.439 22.3008 101.172 22.0422 100.982C21.7837 100.791 21.4329 100.696 20.9897 100.696C20.6885 100.696 20.4343 100.739 20.2269 100.824C20.0195 100.906 19.8604 101.021 19.7496 101.169C19.6417 101.317 19.5877 101.484 19.5877 101.672C19.582 101.828 19.6147 101.964 19.6857 102.081C19.7596 102.197 19.8604 102.298 19.9883 102.384C20.1161 102.466 20.2638 102.538 20.4314 102.601C20.599 102.661 20.778 102.712 20.9684 102.754L21.7525 102.942C22.1331 103.027 22.4826 103.141 22.8008 103.283C23.1189 103.425 23.3945 103.599 23.6275 103.807C23.8604 104.014 24.0408 104.259 24.1686 104.54C24.2993 104.821 24.3661 105.143 24.3689 105.507C24.3661 106.041 24.2297 106.504 23.9598 106.896C23.6928 107.286 23.3064 107.588 22.8008 107.804C22.2979 108.017 21.6914 108.124 20.9811 108.124C20.2766 108.124 19.663 108.016 19.1402 107.8C18.6204 107.584 18.2141 107.264 17.9215 106.841C17.6317 106.415 17.4797 105.888 17.4655 105.26H19.251C19.2709 105.553 19.3547 105.797 19.5025 105.993C19.653 106.186 19.8533 106.332 20.1033 106.432C20.3561 106.528 20.6417 106.577 20.9598 106.577C21.2723 106.577 21.5436 106.531 21.7738 106.44C22.0067 106.349 22.1871 106.223 22.315 106.061C22.4428 105.899 22.5067 105.713 22.5067 105.503C22.5067 105.307 22.4485 105.142 22.332 105.009C22.2184 104.875 22.0508 104.761 21.8292 104.668C21.6104 104.574 21.3419 104.489 21.0238 104.412L20.0735 104.173C19.3377 103.994 18.7567 103.714 18.3306 103.334C17.9044 102.953 17.6928 102.44 17.6956 101.795C17.6928 101.267 17.8334 100.805 18.1175 100.411C18.4044 100.016 18.7979 99.7074 19.2979 99.4858C19.7979 99.2642 20.3661 99.1534 21.0025 99.1534C21.6502 99.1534 22.2155 99.2642 22.6985 99.4858C23.1843 99.7074 23.5621 100.016 23.832 100.411C24.1019 100.805 24.2411 101.263 24.2496 101.783H22.4811ZM27.3712 99.2727V108H25.5261V99.2727H27.3712ZM28.4729 100.794V99.2727H35.6406V100.794H32.9687V108H31.1448V100.794H28.4729ZM38.5821 99.2727V108H36.737V99.2727H38.5821ZM48.0361 103.636C48.0361 104.588 47.8557 105.398 47.4949 106.065C47.137 106.733 46.6483 107.243 46.029 107.595C45.4125 107.945 44.7194 108.119 43.9495 108.119C43.1739 108.119 42.4779 107.943 41.8614 107.591C41.2449 107.239 40.7577 106.729 40.3998 106.061C40.0418 105.393 39.8628 104.585 39.8628 103.636C39.8628 102.685 40.0418 101.875 40.3998 101.207C40.7577 100.54 41.2449 100.031 41.8614 99.6818C42.4779 99.3295 43.1739 99.1534 43.9495 99.1534C44.7194 99.1534 45.4125 99.3295 46.029 99.6818C46.6483 100.031 47.137 100.54 47.4949 101.207C47.8557 101.875 48.0361 102.685 48.0361 103.636ZM46.1654 103.636C46.1654 103.02 46.0731 102.5 45.8884 102.077C45.7066 101.653 45.4495 101.332 45.1171 101.114C44.7847 100.895 44.3955 100.786 43.9495 100.786C43.5035 100.786 43.1143 100.895 42.7819 101.114C42.4495 101.332 42.191 101.653 42.0063 102.077C41.8245 102.5 41.7336 103.02 41.7336 103.636C41.7336 104.253 41.8245 104.773 42.0063 105.196C42.191 105.619 42.4495 105.94 42.7819 106.159C43.1143 106.378 43.5035 106.487 43.9495 106.487C44.3955 106.487 44.7847 106.378 45.1171 106.159C45.4495 105.94 45.7066 105.619 45.8884 105.196C46.0731 104.773 46.1654 104.253 46.1654 103.636ZM56.6187 99.2727V108H55.0249L51.228 102.507H51.1641V108H49.319V99.2727H50.9383L54.7053 104.761H54.782V99.2727H56.6187ZM59.9043 99.2727V108H58.0592V99.2727H59.9043ZM68.6382 99.2727V108H67.0444L63.2476 102.507H63.1836V108H61.3385V99.2727H62.9578L66.7248 104.761H66.8015V99.2727H68.6382ZM75.8656 102.094C75.806 101.886 75.7221 101.703 75.6142 101.544C75.5062 101.382 75.3741 101.246 75.2179 101.135C75.0645 101.021 74.8883 100.935 74.6895 100.875C74.4935 100.815 74.2761 100.786 74.0375 100.786C73.5915 100.786 73.1994 100.896 72.8614 101.118C72.5261 101.339 72.2648 101.662 72.0773 102.085C71.8898 102.506 71.796 103.02 71.796 103.628C71.796 104.236 71.8883 104.753 72.073 105.179C72.2577 105.605 72.519 105.93 72.8571 106.155C73.1952 106.376 73.5943 106.487 74.0545 106.487C74.4721 106.487 74.8287 106.413 75.1241 106.266C75.4224 106.115 75.6497 105.903 75.806 105.631C75.965 105.358 76.0446 105.036 76.0446 104.663L76.4196 104.719H74.1696V103.33H77.8216V104.429C77.8216 105.196 77.6596 105.855 77.3358 106.406C77.0119 106.955 76.5659 107.378 75.9977 107.676C75.4295 107.972 74.779 108.119 74.046 108.119C73.2278 108.119 72.5091 107.939 71.8898 107.578C71.2704 107.214 70.7875 106.699 70.4409 106.031C70.0971 105.361 69.9253 104.565 69.9253 103.645C69.9253 102.937 70.0275 102.307 70.2321 101.753C70.4395 101.196 70.7293 100.724 71.1014 100.338C71.4736 99.9517 71.9068 99.6577 72.4011 99.456C72.8954 99.2543 73.431 99.1534 74.0077 99.1534C74.502 99.1534 74.9622 99.2259 75.3883 99.3707C75.8145 99.5128 76.1923 99.7145 76.5219 99.9759C76.8543 100.237 77.1256 100.548 77.3358 100.909C77.546 101.267 77.681 101.662 77.7406 102.094H75.8656Z" fill="#464646"/>
<path d="M522.057 108.119C521.608 108.116 521.175 108.041 520.757 107.893C520.342 107.746 519.97 107.506 519.641 107.173C519.311 106.841 519.05 106.401 518.857 105.852C518.666 105.304 518.571 104.631 518.571 103.832C518.574 103.099 518.658 102.445 518.822 101.868C518.99 101.288 519.229 100.797 519.538 100.393C519.851 99.9901 520.224 99.6832 520.659 99.473C521.094 99.2599 521.581 99.1534 522.121 99.1534C522.703 99.1534 523.217 99.267 523.663 99.4943C524.109 99.7187 524.467 100.024 524.737 100.411C525.01 100.797 525.175 101.23 525.232 101.71H523.412C523.341 101.406 523.192 101.168 522.964 100.994C522.737 100.821 522.456 100.734 522.121 100.734C521.553 100.734 521.121 100.982 520.825 101.476C520.533 101.97 520.384 102.642 520.378 103.491H520.438C520.568 103.233 520.744 103.013 520.966 102.831C521.19 102.646 521.445 102.506 521.729 102.409C522.016 102.31 522.318 102.26 522.636 102.26C523.153 102.26 523.614 102.382 524.017 102.626C524.42 102.868 524.739 103.2 524.972 103.624C525.205 104.047 525.321 104.531 525.321 105.077C525.321 105.668 525.183 106.193 524.908 106.653C524.635 107.114 524.253 107.474 523.761 107.736C523.273 107.994 522.705 108.122 522.057 108.119ZM522.048 106.67C522.332 106.67 522.587 106.602 522.811 106.466C523.036 106.33 523.212 106.145 523.339 105.912C523.467 105.679 523.531 105.418 523.531 105.128C523.531 104.838 523.467 104.578 523.339 104.348C523.214 104.118 523.041 103.935 522.82 103.798C522.598 103.662 522.345 103.594 522.061 103.594C521.848 103.594 521.651 103.634 521.469 103.713C521.29 103.793 521.132 103.903 520.996 104.045C520.862 104.187 520.757 104.352 520.68 104.54C520.604 104.724 520.565 104.922 520.565 105.132C520.565 105.413 520.629 105.67 520.757 105.903C520.888 106.136 521.064 106.322 521.286 106.462C521.51 106.601 521.764 106.67 522.048 106.67ZM529.733 108.119C529.13 108.119 528.594 108.009 528.122 107.787C527.653 107.565 527.281 107.26 527.005 106.871C526.73 106.482 526.586 106.036 526.575 105.533H528.365C528.385 105.871 528.527 106.145 528.791 106.355C529.055 106.565 529.369 106.67 529.733 106.67C530.023 106.67 530.278 106.607 530.5 106.479C530.724 106.348 530.899 106.168 531.024 105.938C531.152 105.705 531.216 105.437 531.216 105.136C531.216 104.83 531.15 104.56 531.02 104.327C530.892 104.094 530.714 103.912 530.487 103.781C530.26 103.651 530 103.584 529.707 103.581C529.452 103.581 529.203 103.634 528.961 103.739C528.723 103.844 528.537 103.987 528.403 104.169L526.763 103.875L527.176 99.2727H532.511V100.781H528.697L528.471 102.967H528.523C528.676 102.751 528.907 102.572 529.217 102.43C529.527 102.288 529.873 102.217 530.257 102.217C530.782 102.217 531.251 102.341 531.663 102.588C532.075 102.835 532.4 103.175 532.639 103.607C532.878 104.036 532.996 104.53 532.993 105.089C532.996 105.678 532.859 106.2 532.584 106.658C532.311 107.112 531.929 107.47 531.437 107.732C530.949 107.99 530.38 108.119 529.733 108.119Z" fill="#464646"/>
<path d="M550 106L546 102L542 106" stroke="black" stroke-width="2" stroke-linecap="round" stroke-linejoin="round"/>
<path d="M0 121C0 119.343 1.34315 118 3 118H551C552.657 118 554 119.343 554 121C554 122.657 552.657 124 551 124H2.99999C1.34313 124 0 122.657 0 121Z" fill="#464646"/>
<path d="M0 121C0 119.343 1.34315 118 3 118H312C313.657 118 315 119.343 315 121C315 122.657 313.657 124 312 124H3C1.34315 124 0 122.657 0 121Z" fill="#BEBEBE"/>
<rect x="313.594" y="114" width="2" height="14" fill="#111111"/>
<path d="M8.77841 151.636C8.77841 152.588 8.59801 153.398 8.23722 154.065C7.87926 154.733 7.39063 155.243 6.77131 155.595C6.15483 155.945 5.46165 156.119 4.69176 156.119C3.91619 156.119 3.22017 155.943 2.60369 155.591C1.98722 155.239 1.5 154.729 1.14205 154.061C0.784091 153.393 0.605114 152.585 0.605114 151.636C0.605114 150.685 0.784091 149.875 1.14205 149.207C1.5 148.54 1.98722 148.031 2.60369 147.682C3.22017 147.33 3.91619 147.153 4.69176 147.153C5.46165 147.153 6.15483 147.33 6.77131 147.682C7.39063 148.031 7.87926 148.54 8.23722 149.207C8.59801 149.875 8.77841 150.685 8.77841 151.636ZM6.90767 151.636C6.90767 151.02 6.81534 150.5 6.63068 150.077C6.44886 149.653 6.19176 149.332 5.85938 149.114C5.52699 148.895 5.13778 148.786 4.69176 148.786C4.24574 148.786 3.85653 148.895 3.52415 149.114C3.19176 149.332 2.93324 149.653 2.74858 150.077C2.56676 150.5 2.47585 151.02 2.47585 151.636C2.47585 152.253 2.56676 152.773 2.74858 153.196C2.93324 153.619 3.19176 153.94 3.52415 154.159C3.85653 154.378 4.24574 154.487 4.69176 154.487C5.13778 154.487 5.52699 154.378 5.85938 154.159C6.19176 153.94 6.44886 153.619 6.63068 153.196C6.81534 152.773 6.90767 152.253 6.90767 151.636ZM10.0612 156V147.273H13.5044C14.1664 147.273 14.7303 147.399 15.1962 147.652C15.6621 147.902 16.0172 148.25 16.2615 148.696C16.5087 149.139 16.6323 149.651 16.6323 150.23C16.6323 150.81 16.5073 151.321 16.2573 151.764C16.0073 152.207 15.645 152.553 15.1706 152.8C14.699 153.047 14.128 153.17 13.4575 153.17H11.2629V151.692H13.1593C13.5144 151.692 13.807 151.631 14.0371 151.509C14.27 151.384 14.4433 151.212 14.557 150.993C14.6735 150.771 14.7317 150.517 14.7317 150.23C14.7317 149.94 14.6735 149.687 14.557 149.472C14.4433 149.253 14.27 149.084 14.0371 148.964C13.8041 148.842 13.5087 148.781 13.1507 148.781H11.9064V156H10.0612ZM17.7468 156V147.273H23.6275V148.794H19.5919V150.874H23.3249V152.395H19.5919V154.479H23.6445V156H17.7468ZM32.3101 147.273V156H30.7164L26.9195 150.507H26.8556V156H25.0104V147.273H26.6297L30.3968 152.761H30.4735V147.273H32.3101ZM35.5958 147.273V156H33.7506V147.273H35.5958ZM44.3296 147.273V156H42.7359L38.939 150.507H38.8751V156H37.0299V147.273H38.6492L42.4163 152.761H42.493V147.273H44.3296ZM51.5571 150.094C51.4974 149.886 51.4136 149.703 51.3057 149.544C51.1977 149.382 51.0656 149.246 50.9094 149.135C50.7559 149.021 50.5798 148.935 50.3809 148.875C50.1849 148.815 49.9676 148.786 49.729 148.786C49.2829 148.786 48.8909 148.896 48.5528 149.118C48.2176 149.339 47.9562 149.662 47.7687 150.085C47.5812 150.506 47.4875 151.02 47.4875 151.628C47.4875 152.236 47.5798 152.753 47.7645 153.179C47.9491 153.605 48.2105 153.93 48.5486 154.155C48.8866 154.376 49.2858 154.487 49.746 154.487C50.1636 154.487 50.5201 154.413 50.8156 154.266C51.1139 154.115 51.3412 153.903 51.4974 153.631C51.6565 153.358 51.7361 153.036 51.7361 152.663L52.1111 152.719H49.8611V151.33H53.513V152.429C53.513 153.196 53.3511 153.855 53.0272 154.406C52.7034 154.955 52.2574 155.378 51.6892 155.676C51.121 155.972 50.4704 156.119 49.7375 156.119C48.9193 156.119 48.2005 155.939 47.5812 155.578C46.9619 155.214 46.479 154.699 46.1324 154.031C45.7886 153.361 45.6167 152.565 45.6167 151.645C45.6167 150.937 45.719 150.307 45.9236 149.753C46.1309 149.196 46.4207 148.724 46.7929 148.338C47.165 147.952 47.5983 147.658 48.0926 147.456C48.5869 147.254 49.1224 147.153 49.6991 147.153C50.1934 147.153 50.6537 147.226 51.0798 147.371C51.5059 147.513 51.8838 147.714 52.2133 147.976C52.5457 148.237 52.817 148.548 53.0272 148.909C53.2375 149.267 53.3724 149.662 53.4321 150.094H51.5571ZM60.6021 156H57.5084V147.273H60.6277C61.5056 147.273 62.2612 147.447 62.8948 147.797C63.5283 148.143 64.0155 148.642 64.3564 149.293C64.7002 149.943 64.872 150.722 64.872 151.628C64.872 152.537 64.7002 153.318 64.3564 153.972C64.0155 154.625 63.5254 155.126 62.8862 155.476C62.2499 155.825 61.4885 156 60.6021 156ZM59.3536 154.419H60.5254C61.0709 154.419 61.5297 154.322 61.9019 154.129C62.2769 153.933 62.5581 153.631 62.7456 153.222C62.936 152.81 63.0311 152.278 63.0311 151.628C63.0311 150.983 62.936 150.456 62.7456 150.047C62.5581 149.638 62.2783 149.337 61.9061 149.143C61.534 148.95 61.0752 148.854 60.5297 148.854H59.3536V154.419ZM71.5455 147.273H73.3907V152.94C73.3907 153.577 73.2387 154.134 72.9347 154.611C72.6336 155.088 72.2117 155.46 71.6691 155.727C71.1265 155.991 70.4944 156.124 69.7728 156.124C69.0483 156.124 68.4148 155.991 67.8722 155.727C67.3296 155.46 66.9077 155.088 66.6066 154.611C66.3054 154.134 66.1549 153.577 66.1549 152.94V147.273H68V152.783C68 153.115 68.0725 153.411 68.2174 153.669C68.3651 153.928 68.5725 154.131 68.8395 154.278C69.1066 154.426 69.4177 154.5 69.7728 154.5C70.1307 154.5 70.4418 154.426 70.706 154.278C70.9731 154.131 71.179 153.928 71.3239 153.669C71.4716 153.411 71.5455 153.115 71.5455 152.783V147.273ZM74.8248 156V147.273H80.7055V148.794H76.6699V150.874H80.4029V152.395H76.6699V154.479H80.7225V156H74.8248ZM82.0884 156V147.273H83.9336V154.479H87.6751V156H82.0884ZM93.5474 149.783C93.5133 149.439 93.367 149.172 93.1085 148.982C92.85 148.791 92.4991 148.696 92.0559 148.696C91.7548 148.696 91.5005 148.739 91.2931 148.824C91.0857 148.906 90.9267 149.021 90.8159 149.169C90.7079 149.317 90.6539 149.484 90.6539 149.672C90.6482 149.828 90.6809 149.964 90.7519 150.081C90.8258 150.197 90.9267 150.298 91.0545 150.384C91.1823 150.466 91.3301 150.538 91.4977 150.601C91.6653 150.661 91.8443 150.712 92.0346 150.754L92.8187 150.942C93.1994 151.027 93.5488 151.141 93.867 151.283C94.1852 151.425 94.4607 151.599 94.6937 151.807C94.9267 152.014 95.1071 152.259 95.2349 152.54C95.3656 152.821 95.4323 153.143 95.4352 153.507C95.4323 154.041 95.296 154.504 95.0261 154.896C94.759 155.286 94.3727 155.588 93.867 155.804C93.3642 156.017 92.7576 156.124 92.0474 156.124C91.3428 156.124 90.7292 156.016 90.2065 155.8C89.6866 155.584 89.2803 155.264 88.9877 154.841C88.698 154.415 88.546 153.888 88.5318 153.26H90.3173C90.3372 153.553 90.421 153.797 90.5687 153.993C90.7193 154.186 90.9196 154.332 91.1696 154.432C91.4224 154.528 91.7079 154.577 92.0261 154.577C92.3386 154.577 92.6099 154.531 92.84 154.44C93.073 154.349 93.2534 154.223 93.3812 154.061C93.509 153.899 93.573 153.713 93.573 153.503C93.573 153.307 93.5147 153.142 93.3982 153.009C93.2846 152.875 93.117 152.761 92.8954 152.668C92.6767 152.574 92.4082 152.489 92.09 152.412L91.1397 152.173C90.4039 151.994 89.823 151.714 89.3968 151.334C88.9707 150.953 88.759 150.44 88.7619 149.795C88.759 149.267 88.8997 148.805 89.1838 148.411C89.4707 148.016 89.8642 147.707 90.3642 147.486C90.8642 147.264 91.4323 147.153 92.0687 147.153C92.7164 147.153 93.2818 147.264 93.7647 147.486C94.2505 147.707 94.6284 148.016 94.8982 148.411C95.1681 148.805 95.3073 149.263 95.3159 149.783H93.5474Z" fill="#464646"/>
<path d="M503.315 154.67V148.636H504.841V154.67H503.315ZM501.061 152.416V150.891H507.095V152.416H501.061ZM512.202 156.192C511.469 156.189 510.838 156.009 510.309 155.651C509.784 155.293 509.379 154.774 509.095 154.095C508.814 153.416 508.675 152.599 508.677 151.645C508.677 150.693 508.818 149.882 509.099 149.212C509.383 148.541 509.788 148.031 510.314 147.682C510.842 147.33 511.471 147.153 512.202 147.153C512.932 147.153 513.559 147.33 514.085 147.682C514.613 148.034 515.02 148.545 515.304 149.216C515.588 149.884 515.729 150.693 515.726 151.645C515.726 152.602 515.584 153.42 515.3 154.099C515.018 154.778 514.615 155.297 514.089 155.655C513.564 156.013 512.934 156.192 512.202 156.192ZM512.202 154.662C512.702 154.662 513.101 154.411 513.399 153.908C513.697 153.405 513.845 152.651 513.842 151.645C513.842 150.983 513.774 150.432 513.638 149.991C513.504 149.551 513.314 149.22 513.067 148.999C512.822 148.777 512.534 148.666 512.202 148.666C511.704 148.666 511.307 148.915 511.008 149.412C510.71 149.909 510.559 150.653 510.557 151.645C510.557 152.315 510.623 152.875 510.757 153.324C510.893 153.77 511.085 154.105 511.332 154.33C511.579 154.551 511.869 154.662 512.202 154.662ZM517.684 156.111C517.403 156.111 517.161 156.011 516.959 155.812C516.761 155.611 516.661 155.369 516.661 155.088C516.661 154.81 516.761 154.571 516.959 154.372C517.161 154.173 517.403 154.074 517.684 154.074C517.957 154.074 518.195 154.173 518.4 154.372C518.604 154.571 518.707 154.81 518.707 155.088C518.707 155.276 518.658 155.447 518.562 155.604C518.468 155.757 518.344 155.881 518.191 155.974C518.038 156.065 517.869 156.111 517.684 156.111ZM520.113 156L523.731 148.841V148.781H519.516V147.273H525.64V148.803L522.018 156H520.113ZM526.821 156V154.67L529.927 151.794C530.191 151.538 530.413 151.308 530.592 151.104C530.774 150.899 530.912 150.699 531.005 150.503C531.099 150.304 531.146 150.089 531.146 149.859C531.146 149.604 531.088 149.384 530.971 149.199C530.855 149.011 530.696 148.868 530.494 148.768C530.292 148.666 530.064 148.615 529.808 148.615C529.541 148.615 529.308 148.669 529.109 148.777C528.91 148.885 528.757 149.04 528.649 149.241C528.541 149.443 528.487 149.683 528.487 149.962H526.735C526.735 149.391 526.865 148.895 527.123 148.474C527.382 148.054 527.744 147.729 528.21 147.499C528.676 147.268 529.213 147.153 529.821 147.153C530.446 147.153 530.99 147.264 531.453 147.486C531.919 147.705 532.281 148.009 532.539 148.398C532.798 148.787 532.927 149.233 532.927 149.736C532.927 150.065 532.862 150.391 532.731 150.712C532.603 151.033 532.375 151.389 532.045 151.781C531.715 152.17 531.251 152.638 530.652 153.183L529.377 154.432V154.491H533.042V156H526.821Z" fill="#464646"/>
<path d="M542 150L546 154L550 150" stroke="black" stroke-width="2" stroke-linecap="round" stroke-linejoin="round"/>
<path d="M0 169C0 167.343 1.34315 166 3 166H551C552.657 166 554 167.343 554 169C554 170.657 552.657 172 551 172H2.99999C1.34313 172 0 170.657 0 169Z" fill="#464646"/>
<path d="M0 169C0 167.343 1.34315 166 3 166H270C271.657 166 273 167.343 273 169C273 170.657 271.657 172 270 172H3C1.34315 172 0 170.657 0 169Z" fill="#BEBEBE"/>
<rect x="272.594" y="162" width="2" height="14" fill="#111111"/>
<path d="M8.45881 198.328H6.59233C6.55824 198.087 6.48864 197.872 6.38352 197.685C6.27841 197.494 6.14347 197.332 5.97869 197.199C5.81392 197.065 5.62358 196.963 5.40767 196.892C5.1946 196.821 4.96307 196.786 4.71307 196.786C4.26136 196.786 3.8679 196.898 3.53267 197.122C3.19744 197.344 2.9375 197.668 2.75284 198.094C2.56818 198.517 2.47585 199.031 2.47585 199.636C2.47585 200.259 2.56818 200.781 2.75284 201.205C2.94034 201.628 3.2017 201.947 3.53693 202.163C3.87216 202.379 4.25994 202.487 4.70028 202.487C4.94744 202.487 5.17614 202.455 5.38636 202.389C5.59943 202.324 5.78835 202.229 5.95312 202.104C6.1179 201.976 6.25426 201.821 6.36222 201.639C6.47301 201.457 6.54972 201.25 6.59233 201.017L8.45881 201.026C8.41051 201.426 8.28977 201.812 8.09659 202.185C7.90625 202.554 7.64915 202.885 7.32528 203.178C7.00426 203.467 6.62074 203.697 6.17472 203.868C5.73153 204.036 5.23011 204.119 4.67045 204.119C3.89205 204.119 3.19602 203.943 2.58239 203.591C1.97159 203.239 1.48864 202.729 1.13352 202.061C0.78125 201.393 0.605114 200.585 0.605114 199.636C0.605114 198.685 0.784091 197.875 1.14205 197.207C1.5 196.54 1.9858 196.031 2.59943 195.682C3.21307 195.33 3.90341 195.153 4.67045 195.153C5.17614 195.153 5.64489 195.224 6.0767 195.366C6.51136 195.509 6.89631 195.716 7.23153 195.989C7.56676 196.259 7.83949 196.589 8.04972 196.982C8.26278 197.374 8.39915 197.822 8.45881 198.328ZM9.69796 204V195.273H11.5431V202.479H15.2846V204H9.69796ZM21.8132 195.273H23.6583V200.94C23.6583 201.577 23.5064 202.134 23.2024 202.611C22.9012 203.088 22.4794 203.46 21.9368 203.727C21.3941 203.991 20.762 204.124 20.0405 204.124C19.316 204.124 18.6825 203.991 18.1399 203.727C17.5973 203.46 17.1754 203.088 16.8743 202.611C16.5731 202.134 16.4226 201.577 16.4226 200.94V195.273H18.2677V200.783C18.2677 201.115 18.3402 201.411 18.4851 201.669C18.6328 201.928 18.8402 202.131 19.1072 202.278C19.3743 202.426 19.6853 202.5 20.0405 202.5C20.3984 202.5 20.7095 202.426 20.9737 202.278C21.2407 202.131 21.4467 201.928 21.5916 201.669C21.7393 201.411 21.8132 201.115 21.8132 200.783V195.273ZM24.7601 196.794V195.273H31.9277V196.794H29.2558V204H27.4319V196.794H24.7601ZM40.3259 198.328H38.4595C38.4254 198.087 38.3558 197.872 38.2506 197.685C38.1455 197.494 38.0106 197.332 37.8458 197.199C37.681 197.065 37.4907 196.963 37.2748 196.892C37.0617 196.821 36.8302 196.786 36.5802 196.786C36.1285 196.786 35.735 196.898 35.3998 197.122C35.0646 197.344 34.8046 197.668 34.62 198.094C34.4353 198.517 34.343 199.031 34.343 199.636C34.343 200.259 34.4353 200.781 34.62 201.205C34.8075 201.628 35.0688 201.947 35.4041 202.163C35.7393 202.379 36.1271 202.487 36.5674 202.487C36.8146 202.487 37.0433 202.455 37.2535 202.389C37.4666 202.324 37.6555 202.229 37.8202 202.104C37.985 201.976 38.1214 201.821 38.2293 201.639C38.3401 201.457 38.4168 201.25 38.4595 201.017L40.3259 201.026C40.2776 201.426 40.1569 201.812 39.9637 202.185C39.7734 202.554 39.5163 202.885 39.1924 203.178C38.8714 203.467 38.4879 203.697 38.0418 203.868C37.5987 204.036 37.0972 204.119 36.5376 204.119C35.7592 204.119 35.0631 203.943 34.4495 203.591C33.8387 203.239 33.3558 202.729 33.0006 202.061C32.6484 201.393 32.4722 200.585 32.4722 199.636C32.4722 198.685 32.6512 197.875 33.0092 197.207C33.3671 196.54 33.8529 196.031 34.4666 195.682C35.0802 195.33 35.7705 195.153 36.5376 195.153C37.0433 195.153 37.512 195.224 37.9438 195.366C38.3785 195.509 38.7634 195.716 39.0987 195.989C39.4339 196.259 39.7066 196.589 39.9168 196.982C40.1299 197.374 40.2663 197.822 40.3259 198.328ZM41.5651 204V195.273H43.4103V198.874H47.156V195.273H48.9969V204H47.156V200.395H43.4103V204H41.5651ZM52.2794 195.273V204H50.4342V195.273H52.2794ZM61.0132 195.273V204H59.4195L55.6226 198.507H55.5587V204H53.7135V195.273H55.3328L59.0999 200.761H59.1766V195.273H61.0132ZM68.2406 198.094C68.181 197.886 68.0972 197.703 67.9892 197.544C67.8813 197.382 67.7492 197.246 67.5929 197.135C67.4395 197.021 67.2634 196.935 67.0645 196.875C66.8685 196.815 66.6512 196.786 66.4125 196.786C65.9665 196.786 65.5744 196.896 65.2364 197.118C64.9012 197.339 64.6398 197.662 64.4523 198.085C64.2648 198.506 64.171 199.02 64.171 199.628C64.171 200.236 64.2634 200.753 64.448 201.179C64.6327 201.605 64.8941 201.93 65.2321 202.155C65.5702 202.376 65.9693 202.487 66.4296 202.487C66.8472 202.487 67.2037 202.413 67.4992 202.266C67.7975 202.115 68.0247 201.903 68.181 201.631C68.3401 201.358 68.4196 201.036 68.4196 200.663L68.7946 200.719H66.5446V199.33H70.1966V200.429C70.1966 201.196 70.0347 201.855 69.7108 202.406C69.3869 202.955 68.9409 203.378 68.3727 203.676C67.8046 203.972 67.154 204.119 66.421 204.119C65.6029 204.119 64.8841 203.939 64.2648 203.578C63.6455 203.214 63.1625 202.699 62.8159 202.031C62.4722 201.361 62.3003 200.565 62.3003 199.645C62.3003 198.937 62.4026 198.307 62.6071 197.753C62.8145 197.196 63.1043 196.724 63.4764 196.338C63.8486 195.952 64.2818 195.658 64.7762 195.456C65.2705 195.254 65.806 195.153 66.3827 195.153C66.877 195.153 67.3372 195.226 67.7634 195.371C68.1895 195.513 68.5673 195.714 68.8969 195.976C69.2293 196.237 69.5006 196.548 69.7108 196.909C69.921 197.267 70.056 197.662 70.1156 198.094H68.2406Z" fill="#464646"/>
<path d="M499.315 202.67V196.636H500.841V202.67H499.315ZM497.061 200.416V198.891H503.095V200.416H497.061ZM508.577 195.273V204H506.731V197.024H506.68L504.682 198.277V196.641L506.842 195.273H508.577ZM513.754 204.119C513.152 204.119 512.615 204.009 512.143 203.787C511.675 203.565 511.303 203.26 511.027 202.871C510.751 202.482 510.608 202.036 510.597 201.533H512.386C512.406 201.871 512.548 202.145 512.812 202.355C513.077 202.565 513.391 202.67 513.754 202.67C514.044 202.67 514.3 202.607 514.521 202.479C514.746 202.348 514.92 202.168 515.045 201.938C515.173 201.705 515.237 201.437 515.237 201.136C515.237 200.83 515.172 200.56 515.041 200.327C514.913 200.094 514.736 199.912 514.508 199.781C514.281 199.651 514.021 199.584 513.729 199.581C513.473 199.581 513.224 199.634 512.983 199.739C512.744 199.844 512.558 199.987 512.425 200.169L510.784 199.875L511.197 195.273H516.533V196.781H512.719L512.493 198.967H512.544C512.697 198.751 512.929 198.572 513.239 198.43C513.548 198.288 513.895 198.217 514.278 198.217C514.804 198.217 515.273 198.341 515.685 198.588C516.097 198.835 516.422 199.175 516.66 199.607C516.899 200.036 517.017 200.53 517.014 201.089C517.017 201.678 516.881 202.2 516.605 202.658C516.332 203.112 515.95 203.47 515.459 203.732C514.97 203.99 514.402 204.119 513.754 204.119ZM519.014 204.111C518.733 204.111 518.491 204.011 518.29 203.812C518.091 203.611 517.991 203.369 517.991 203.088C517.991 202.81 518.091 202.571 518.29 202.372C518.491 202.173 518.733 202.074 519.014 202.074C519.287 202.074 519.525 202.173 519.73 202.372C519.934 202.571 520.037 202.81 520.037 203.088C520.037 203.276 519.988 203.447 519.892 203.604C519.798 203.757 519.674 203.881 519.521 203.974C519.368 204.065 519.199 204.111 519.014 204.111ZM524.133 195.273V204H522.288V197.024H522.237L520.238 198.277V196.641L522.399 195.273H524.133ZM529.545 204.192C528.812 204.189 528.182 204.009 527.653 203.651C527.128 203.293 526.723 202.774 526.439 202.095C526.157 201.416 526.018 200.599 526.021 199.645C526.021 198.693 526.162 197.882 526.443 197.212C526.727 196.541 527.132 196.031 527.657 195.682C528.186 195.33 528.815 195.153 529.545 195.153C530.275 195.153 530.903 195.33 531.429 195.682C531.957 196.034 532.363 196.545 532.647 197.216C532.932 197.884 533.072 198.693 533.069 199.645C533.069 200.602 532.927 201.42 532.643 202.099C532.362 202.778 531.959 203.297 531.433 203.655C530.907 204.013 530.278 204.192 529.545 204.192ZM529.545 202.662C530.045 202.662 530.444 202.411 530.743 201.908C531.041 201.405 531.189 200.651 531.186 199.645C531.186 198.983 531.118 198.432 530.981 197.991C530.848 197.551 530.657 197.22 530.41 196.999C530.166 196.777 529.878 196.666 529.545 196.666C529.048 196.666 528.65 196.915 528.352 197.412C528.054 197.909 527.903 198.653 527.9 199.645C527.9 200.315 527.967 200.875 528.101 201.324C528.237 201.77 528.429 202.105 528.676 202.33C528.923 202.551 529.213 202.662 529.545 202.662Z" fill="#464646"/>
<path d="M550 202L546 198L542 202" stroke="black" stroke-width="2" stroke-linecap="round" stroke-linejoin="round"/>
<path d="M0 217C0 215.343 1.34315 214 3 214H551C552.657 214 554 215.343 554 217C554 218.657 552.657 220 551 220H2.99999C1.34313 220 0 218.657 0 217Z" fill="#464646"/>
<path d="M0 217C0 215.343 1.34315 214 3 214H457C458.657 214 460 215.343 460 217C460 218.657 458.657 220 457 220H3.00001C1.34316 220 0 218.657 0 217Z" fill="#BEBEBE"/>
<rect x="272.594" y="210" width="2" height="14" fill="#111111"/>
<line x1="578.5" y1="-2.18557e-08" x2="578.5" y2="224" stroke="#BEBEBE"/>
<path d="M624.963 12.1193C624.307 12.1193 623.723 12.0128 623.212 11.7997C622.703 11.5838 622.304 11.2898 622.014 10.9176C621.724 10.5455 621.58 10.1236 621.58 9.65199C621.58 9.28835 621.662 8.95455 621.827 8.65057C621.994 8.34375 622.222 8.08949 622.509 7.88778C622.795 7.68324 623.116 7.55256 623.472 7.49574V7.43608C623.006 7.34233 622.628 7.11648 622.338 6.75852C622.048 6.39773 621.903 5.97869 621.903 5.50142C621.903 5.04972 622.036 4.64773 622.3 4.29545C622.564 3.94034 622.926 3.66193 623.386 3.46023C623.849 3.25568 624.375 3.15341 624.963 3.15341C625.551 3.15341 626.075 3.25568 626.536 3.46023C626.999 3.66477 627.362 3.9446 627.626 4.29972C627.891 4.65199 628.024 5.05256 628.027 5.50142C628.024 5.98153 627.876 6.40057 627.584 6.75852C627.291 7.11648 626.916 7.34233 626.459 7.43608V7.49574C626.808 7.55256 627.125 7.68324 627.409 7.88778C627.696 8.08949 627.923 8.34375 628.091 8.65057C628.261 8.95455 628.348 9.28835 628.351 9.65199C628.348 10.1236 628.202 10.5455 627.912 10.9176C627.622 11.2898 627.222 11.5838 626.71 11.7997C626.202 12.0128 625.619 12.1193 624.963 12.1193ZM624.963 10.7642C625.256 10.7642 625.511 10.7116 625.73 10.6065C625.949 10.4986 626.119 10.3509 626.241 10.1634C626.366 9.97301 626.429 9.75426 626.429 9.5071C626.429 9.25426 626.365 9.03125 626.237 8.83807C626.109 8.64205 625.936 8.48864 625.717 8.37784C625.499 8.2642 625.247 8.20739 624.963 8.20739C624.682 8.20739 624.43 8.2642 624.209 8.37784C623.987 8.48864 623.813 8.64205 623.685 8.83807C623.56 9.03125 623.497 9.25426 623.497 9.5071C623.497 9.75426 623.558 9.97301 623.68 10.1634C623.803 10.3509 623.974 10.4986 624.196 10.6065C624.418 10.7116 624.673 10.7642 624.963 10.7642ZM624.963 6.86506C625.207 6.86506 625.425 6.81534 625.615 6.71591C625.805 6.61648 625.955 6.47869 626.062 6.30256C626.17 6.12642 626.224 5.9233 626.224 5.69318C626.224 5.46591 626.17 5.26705 626.062 5.09659C625.955 4.9233 625.807 4.78835 625.619 4.69176C625.432 4.59233 625.213 4.54261 624.963 4.54261C624.716 4.54261 624.497 4.59233 624.307 4.69176C624.116 4.78835 623.967 4.9233 623.859 5.09659C623.754 5.26705 623.702 5.46591 623.702 5.69318C623.702 5.9233 623.756 6.12642 623.864 6.30256C623.972 6.47869 624.121 6.61648 624.311 6.71591C624.501 6.81534 624.719 6.86506 624.963 6.86506ZM629.425 10.4659V9.01278L633.068 3.27273H634.321V5.28409H633.58L631.283 8.91903V8.98722H636.46V10.4659H629.425ZM633.614 12V10.0227L633.648 9.37926V3.27273H635.378V12H633.614Z" fill="#464646"/>
<path d="M627.057 60.1193C626.608 60.1165 626.175 60.0412 625.757 59.8935C625.342 59.7457 624.97 59.5057 624.641 59.1733C624.311 58.8409 624.05 58.4006 623.857 57.8523C623.666 57.304 623.571 56.6307 623.571 55.8324C623.574 55.0994 623.658 54.4446 623.822 53.8679C623.99 53.2884 624.229 52.7969 624.538 52.3935C624.851 51.9901 625.224 51.6832 625.659 51.473C626.094 51.2599 626.581 51.1534 627.121 51.1534C627.703 51.1534 628.217 51.267 628.663 51.4943C629.109 51.7187 629.467 52.0241 629.737 52.4105C630.01 52.7969 630.175 53.2301 630.232 53.7102H628.412C628.341 53.4062 628.192 53.1676 627.964 52.9943C627.737 52.821 627.456 52.7344 627.121 52.7344C626.553 52.7344 626.121 52.9815 625.825 53.4759C625.533 53.9702 625.384 54.642 625.378 55.4915H625.438C625.568 55.233 625.744 55.0128 625.966 54.831C626.19 54.6463 626.445 54.5057 626.729 54.4091C627.016 54.3097 627.318 54.2599 627.636 54.2599C628.153 54.2599 628.614 54.3821 629.017 54.6264C629.42 54.8679 629.739 55.2003 629.972 55.6236C630.205 56.0469 630.321 56.5312 630.321 57.0767C630.321 57.6676 630.183 58.1932 629.908 58.6534C629.635 59.1136 629.253 59.4744 628.761 59.7358C628.273 59.9943 627.705 60.1222 627.057 60.1193ZM627.048 58.6705C627.332 58.6705 627.587 58.6023 627.811 58.4659C628.036 58.3295 628.212 58.1449 628.339 57.9119C628.467 57.679 628.531 57.4176 628.531 57.1278C628.531 56.8381 628.467 56.5781 628.339 56.348C628.214 56.1179 628.041 55.9347 627.82 55.7983C627.598 55.6619 627.345 55.5938 627.061 55.5938C626.848 55.5938 626.651 55.6335 626.469 55.7131C626.29 55.7926 626.132 55.9034 625.996 56.0455C625.862 56.1875 625.757 56.3523 625.68 56.5398C625.604 56.7244 625.565 56.9219 625.565 57.1321C625.565 57.4134 625.629 57.6705 625.757 57.9034C625.888 58.1364 626.064 58.3224 626.286 58.4616C626.51 58.6009 626.764 58.6705 627.048 58.6705ZM635.342 51.2727V60H633.497V53.0241H633.446L631.447 54.277V52.6406L633.608 51.2727H635.342Z" fill="#464646"/>
<path d="M625.057 108.119C624.608 108.116 624.175 108.041 623.757 107.893C623.342 107.746 622.97 107.506 622.641 107.173C622.311 106.841 622.05 106.401 621.857 105.852C621.666 105.304 621.571 104.631 621.571 103.832C621.574 103.099 621.658 102.445 621.822 101.868C621.99 101.288 622.229 100.797 622.538 100.393C622.851 99.9901 623.224 99.6832 623.659 99.473C624.094 99.2599 624.581 99.1534 625.121 99.1534C625.703 99.1534 626.217 99.267 626.663 99.4943C627.109 99.7187 627.467 100.024 627.737 100.411C628.01 100.797 628.175 101.23 628.232 101.71H626.412C626.341 101.406 626.192 101.168 625.964 100.994C625.737 100.821 625.456 100.734 625.121 100.734C624.553 100.734 624.121 100.982 623.825 101.476C623.533 101.97 623.384 102.642 623.378 103.491H623.438C623.568 103.233 623.744 103.013 623.966 102.831C624.19 102.646 624.445 102.506 624.729 102.409C625.016 102.31 625.318 102.26 625.636 102.26C626.153 102.26 626.614 102.382 627.017 102.626C627.42 102.868 627.739 103.2 627.972 103.624C628.205 104.047 628.321 104.531 628.321 105.077C628.321 105.668 628.183 106.193 627.908 106.653C627.635 107.114 627.253 107.474 626.761 107.736C626.273 107.994 625.705 108.122 625.057 108.119ZM625.048 106.67C625.332 106.67 625.587 106.602 625.811 106.466C626.036 106.33 626.212 106.145 626.339 105.912C626.467 105.679 626.531 105.418 626.531 105.128C626.531 104.838 626.467 104.578 626.339 104.348C626.214 104.118 626.041 103.935 625.82 103.798C625.598 103.662 625.345 103.594 625.061 103.594C624.848 103.594 624.651 103.634 624.469 103.713C624.29 103.793 624.132 103.903 623.996 104.045C623.862 104.187 623.757 104.352 623.68 104.54C623.604 104.724 623.565 104.922 623.565 105.132C623.565 105.413 623.629 105.67 623.757 105.903C623.888 106.136 624.064 106.322 624.286 106.462C624.51 106.601 624.764 106.67 625.048 106.67ZM632.733 108.119C632.13 108.119 631.594 108.009 631.122 107.787C630.653 107.565 630.281 107.26 630.005 106.871C629.73 106.482 629.586 106.036 629.575 105.533H631.365C631.385 105.871 631.527 106.145 631.791 106.355C632.055 106.565 632.369 106.67 632.733 106.67C633.023 106.67 633.278 106.607 633.5 106.479C633.724 106.348 633.899 106.168 634.024 105.938C634.152 105.705 634.216 105.437 634.216 105.136C634.216 104.83 634.15 104.56 634.02 104.327C633.892 104.094 633.714 103.912 633.487 103.781C633.26 103.651 633 103.584 632.707 103.581C632.452 103.581 632.203 103.634 631.961 103.739C631.723 103.844 631.537 103.987 631.403 104.169L629.763 103.875L630.176 99.2727H635.511V100.781H631.697L631.471 102.967H631.523C631.676 102.751 631.907 102.572 632.217 102.43C632.527 102.288 632.873 102.217 633.257 102.217C633.782 102.217 634.251 102.341 634.663 102.588C635.075 102.835 635.4 103.175 635.639 103.607C635.878 104.036 635.996 104.53 635.993 105.089C635.996 105.678 635.859 106.2 635.584 106.658C635.311 107.112 634.929 107.47 634.437 107.732C633.949 107.99 633.38 108.119 632.733 108.119Z" fill="#464646"/>
<path d="M607.315 154.67V148.636H608.841V154.67H607.315ZM605.061 152.416V150.891H611.095V152.416H605.061ZM616.577 147.273V156H614.731V149.024H614.68L612.682 150.277V148.641L614.842 147.273H616.577ZM619.176 156.111C618.895 156.111 618.653 156.011 618.452 155.812C618.253 155.611 618.153 155.369 618.153 155.088C618.153 154.81 618.253 154.571 618.452 154.372C618.653 154.173 618.895 154.074 619.176 154.074C619.449 154.074 619.687 154.173 619.892 154.372C620.097 154.571 620.199 154.81 620.199 155.088C620.199 155.276 620.151 155.447 620.054 155.604C619.96 155.757 619.837 155.881 619.683 155.974C619.53 156.065 619.361 156.111 619.176 156.111ZM624.705 156.119C624.103 156.119 623.566 156.009 623.095 155.787C622.626 155.565 622.254 155.26 621.978 154.871C621.703 154.482 621.559 154.036 621.548 153.533H623.337C623.357 153.871 623.499 154.145 623.764 154.355C624.028 154.565 624.342 154.67 624.705 154.67C624.995 154.67 625.251 154.607 625.472 154.479C625.697 154.348 625.872 154.168 625.997 153.938C626.124 153.705 626.188 153.437 626.188 153.136C626.188 152.83 626.123 152.56 625.992 152.327C625.864 152.094 625.687 151.912 625.46 151.781C625.232 151.651 624.972 151.584 624.68 151.581C624.424 151.581 624.176 151.634 623.934 151.739C623.695 151.844 623.509 151.987 623.376 152.169L621.735 151.875L622.149 147.273H627.484V148.781H623.67L623.444 150.967H623.495C623.649 150.751 623.88 150.572 624.19 150.43C624.499 150.288 624.846 150.217 625.23 150.217C625.755 150.217 626.224 150.341 626.636 150.588C627.048 150.835 627.373 151.175 627.612 151.607C627.85 152.036 627.968 152.53 627.965 153.089C627.968 153.678 627.832 154.2 627.556 154.658C627.284 155.112 626.901 155.47 626.41 155.732C625.921 155.99 625.353 156.119 624.705 156.119ZM632.394 156.119C631.758 156.119 631.191 156.01 630.694 155.791C630.2 155.57 629.809 155.266 629.522 154.879C629.238 154.49 629.092 154.041 629.083 153.533H630.941C630.952 153.746 631.022 153.933 631.15 154.095C631.28 154.254 631.454 154.378 631.67 154.466C631.886 154.554 632.128 154.598 632.398 154.598C632.68 154.598 632.928 154.548 633.144 154.449C633.36 154.349 633.529 154.212 633.651 154.036C633.773 153.859 633.834 153.656 633.834 153.426C633.834 153.193 633.769 152.987 633.638 152.808C633.511 152.626 633.326 152.484 633.084 152.382C632.846 152.28 632.562 152.229 632.232 152.229H631.418V150.874H632.232C632.511 150.874 632.756 150.825 632.969 150.729C633.185 150.632 633.353 150.499 633.472 150.328C633.592 150.155 633.651 149.953 633.651 149.723C633.651 149.504 633.599 149.312 633.494 149.148C633.391 148.98 633.246 148.849 633.059 148.756C632.874 148.662 632.658 148.615 632.411 148.615C632.161 148.615 631.932 148.661 631.725 148.751C631.518 148.839 631.351 148.966 631.226 149.131C631.101 149.295 631.035 149.489 631.026 149.71H629.258C629.266 149.207 629.41 148.764 629.688 148.381C629.967 147.997 630.342 147.697 630.813 147.482C631.288 147.263 631.823 147.153 632.42 147.153C633.022 147.153 633.549 147.263 634.001 147.482C634.452 147.7 634.803 147.996 635.053 148.368C635.306 148.737 635.431 149.152 635.428 149.612C635.431 150.101 635.279 150.509 634.972 150.835C634.668 151.162 634.272 151.369 633.783 151.457V151.526C634.425 151.608 634.914 151.831 635.249 152.195C635.587 152.555 635.755 153.007 635.752 153.55C635.755 154.047 635.611 154.489 635.322 154.875C635.035 155.261 634.638 155.565 634.133 155.787C633.627 156.009 633.048 156.119 632.394 156.119Z" fill="#464646"/>
<path d="M605.315 202.67V196.636H606.841V202.67H605.315ZM603.061 200.416V198.891H609.095V200.416H603.061ZM614.035 204.119C613.379 204.119 612.795 204.013 612.284 203.8C611.775 203.584 611.376 203.29 611.086 202.918C610.797 202.545 610.652 202.124 610.652 201.652C610.652 201.288 610.734 200.955 610.899 200.651C611.067 200.344 611.294 200.089 611.581 199.888C611.868 199.683 612.189 199.553 612.544 199.496V199.436C612.078 199.342 611.7 199.116 611.41 198.759C611.121 198.398 610.976 197.979 610.976 197.501C610.976 197.05 611.108 196.648 611.372 196.295C611.636 195.94 611.998 195.662 612.459 195.46C612.922 195.256 613.447 195.153 614.035 195.153C614.623 195.153 615.148 195.256 615.608 195.46C616.071 195.665 616.434 195.945 616.699 196.3C616.963 196.652 617.096 197.053 617.099 197.501C617.096 197.982 616.949 198.401 616.656 198.759C616.363 199.116 615.988 199.342 615.531 199.436V199.496C615.88 199.553 616.197 199.683 616.481 199.888C616.768 200.089 616.996 200.344 617.163 200.651C617.334 200.955 617.42 201.288 617.423 201.652C617.42 202.124 617.274 202.545 616.984 202.918C616.694 203.29 616.294 203.584 615.782 203.8C615.274 204.013 614.692 204.119 614.035 204.119ZM614.035 202.764C614.328 202.764 614.584 202.712 614.802 202.607C615.021 202.499 615.192 202.351 615.314 202.163C615.439 201.973 615.501 201.754 615.501 201.507C615.501 201.254 615.437 201.031 615.309 200.838C615.182 200.642 615.008 200.489 614.79 200.378C614.571 200.264 614.319 200.207 614.035 200.207C613.754 200.207 613.503 200.264 613.281 200.378C613.059 200.489 612.885 200.642 612.757 200.838C612.632 201.031 612.569 201.254 612.569 201.507C612.569 201.754 612.63 201.973 612.753 202.163C612.875 202.351 613.047 202.499 613.268 202.607C613.49 202.712 613.746 202.764 614.035 202.764ZM614.035 198.865C614.28 198.865 614.497 198.815 614.687 198.716C614.878 198.616 615.027 198.479 615.135 198.303C615.243 198.126 615.297 197.923 615.297 197.693C615.297 197.466 615.243 197.267 615.135 197.097C615.027 196.923 614.879 196.788 614.692 196.692C614.504 196.592 614.285 196.543 614.035 196.543C613.788 196.543 613.569 196.592 613.379 196.692C613.189 196.788 613.04 196.923 612.932 197.097C612.827 197.267 612.774 197.466 612.774 197.693C612.774 197.923 612.828 198.126 612.936 198.303C613.044 198.479 613.193 198.616 613.383 198.716C613.574 198.815 613.791 198.865 614.035 198.865ZM619.461 204.111C619.18 204.111 618.939 204.011 618.737 203.812C618.538 203.611 618.439 203.369 618.439 203.088C618.439 202.81 618.538 202.571 618.737 202.372C618.939 202.173 619.18 202.074 619.461 202.074C619.734 202.074 619.973 202.173 620.177 202.372C620.382 202.571 620.484 202.81 620.484 203.088C620.484 203.276 620.436 203.447 620.339 203.604C620.245 203.757 620.122 203.881 619.968 203.974C619.815 204.065 619.646 204.111 619.461 204.111ZM624.871 204.119C624.422 204.116 623.989 204.041 623.572 203.893C623.157 203.746 622.785 203.506 622.455 203.173C622.125 202.841 621.864 202.401 621.671 201.852C621.481 201.304 621.385 200.631 621.385 199.832C621.388 199.099 621.472 198.445 621.637 197.868C621.804 197.288 622.043 196.797 622.353 196.393C622.665 195.99 623.039 195.683 623.473 195.473C623.908 195.26 624.395 195.153 624.935 195.153C625.518 195.153 626.032 195.267 626.478 195.494C626.924 195.719 627.282 196.024 627.552 196.411C627.824 196.797 627.989 197.23 628.046 197.71H626.226C626.155 197.406 626.006 197.168 625.779 196.994C625.552 196.821 625.27 196.734 624.935 196.734C624.367 196.734 623.935 196.982 623.64 197.476C623.347 197.97 623.198 198.642 623.192 199.491H623.252C623.383 199.233 623.559 199.013 623.78 198.831C624.005 198.646 624.259 198.506 624.543 198.409C624.83 198.31 625.133 198.26 625.451 198.26C625.968 198.26 626.428 198.382 626.831 198.626C627.235 198.868 627.553 199.2 627.786 199.624C628.019 200.047 628.135 200.531 628.135 201.077C628.135 201.668 627.998 202.193 627.722 202.653C627.449 203.114 627.067 203.474 626.576 203.736C626.087 203.994 625.519 204.122 624.871 204.119ZM624.863 202.67C625.147 202.67 625.401 202.602 625.625 202.466C625.85 202.33 626.026 202.145 626.154 201.912C626.282 201.679 626.346 201.418 626.346 201.128C626.346 200.838 626.282 200.578 626.154 200.348C626.029 200.118 625.856 199.935 625.634 199.798C625.412 199.662 625.16 199.594 624.875 199.594C624.662 199.594 624.465 199.634 624.283 199.713C624.104 199.793 623.947 199.903 623.81 200.045C623.677 200.187 623.572 200.352 623.495 200.54C623.418 200.724 623.38 200.922 623.38 201.132C623.38 201.413 623.444 201.67 623.572 201.903C623.702 202.136 623.878 202.322 624.1 202.462C624.324 202.601 624.579 202.67 624.863 202.67ZM632.615 204.119C631.959 204.119 631.375 204.013 630.864 203.8C630.355 203.584 629.956 203.29 629.666 202.918C629.377 202.545 629.232 202.124 629.232 201.652C629.232 201.288 629.314 200.955 629.479 200.651C629.647 200.344 629.874 200.089 630.161 199.888C630.448 199.683 630.769 199.553 631.124 199.496V199.436C630.658 199.342 630.28 199.116 629.99 198.759C629.701 198.398 629.556 197.979 629.556 197.501C629.556 197.05 629.688 196.648 629.952 196.295C630.216 195.94 630.578 195.662 631.039 195.46C631.502 195.256 632.027 195.153 632.615 195.153C633.203 195.153 633.728 195.256 634.188 195.46C634.651 195.665 635.014 195.945 635.279 196.3C635.543 196.652 635.676 197.053 635.679 197.501C635.676 197.982 635.529 198.401 635.236 198.759C634.943 199.116 634.568 199.342 634.111 199.436V199.496C634.461 199.553 634.777 199.683 635.061 199.888C635.348 200.089 635.576 200.344 635.743 200.651C635.914 200.955 636 201.288 636.003 201.652C636 202.124 635.854 202.545 635.564 202.918C635.274 203.29 634.874 203.584 634.363 203.8C633.854 204.013 633.272 204.119 632.615 204.119ZM632.615 202.764C632.908 202.764 633.164 202.712 633.382 202.607C633.601 202.499 633.772 202.351 633.894 202.163C634.019 201.973 634.081 201.754 634.081 201.507C634.081 201.254 634.017 201.031 633.889 200.838C633.762 200.642 633.588 200.489 633.37 200.378C633.151 200.264 632.899 200.207 632.615 200.207C632.334 200.207 632.083 200.264 631.861 200.378C631.639 200.489 631.465 200.642 631.337 200.838C631.212 201.031 631.149 201.254 631.149 201.507C631.149 201.754 631.211 201.973 631.333 202.163C631.455 202.351 631.627 202.499 631.848 202.607C632.07 202.712 632.326 202.764 632.615 202.764ZM632.615 198.865C632.86 198.865 633.077 198.815 633.267 198.716C633.458 198.616 633.607 198.479 633.715 198.303C633.823 198.126 633.877 197.923 633.877 197.693C633.877 197.466 633.823 197.267 633.715 197.097C633.607 196.923 633.459 196.788 633.272 196.692C633.084 196.592 632.865 196.543 632.615 196.543C632.368 196.543 632.149 196.592 631.959 196.692C631.769 196.788 631.62 196.923 631.512 197.097C631.407 197.267 631.354 197.466 631.354 197.693C631.354 197.923 631.408 198.126 631.516 198.303C631.624 198.479 631.773 198.616 631.963 198.716C632.154 198.815 632.371 198.865 632.615 198.865Z" fill="#464646"/>
</svg>
