<svg width="18" height="12" viewBox="0 0 18 12" fill="none" xmlns="http://www.w3.org/2000/svg">
<g clip-path="url(#clip0_60_8476)">
<path d="M6.80319 2.60644C6.80319 2.02084 7.03582 1.45923 7.4499 1.04515C7.86398 0.631065 8.42559 0.398438 9.01119 0.398438C9.59679 0.398438 10.1584 0.631065 10.5725 1.04515C10.9866 1.45923 11.2192 2.02084 11.2192 2.60644C11.2192 3.19204 10.9866 3.75365 10.5725 4.16773C10.1584 4.58181 9.59679 4.81444 9.01119 4.81444C8.42559 4.81444 7.86398 4.58181 7.4499 4.16773C7.03582 3.75365 6.80319 3.19204 6.80319 2.60644ZM12.6832 7.86844C12.5392 6.84844 10.9612 6.05044 9.03519 6.05044C7.10919 6.05044 5.53119 6.84244 5.38719 7.86244H5.37519V11.5464C5.37519 11.5464 5.36319 11.6544 5.45319 11.6544H12.6052C12.6052 11.6544 12.6952 11.6784 12.6952 11.5524V7.86244H12.6832V7.86844ZM6.11319 1.56844C5.75563 1.50872 5.38873 1.54204 5.04778 1.66518C4.70683 1.78833 4.40332 1.99717 4.16646 2.27159C3.92959 2.54601 3.76735 2.87677 3.69534 3.23206C3.62333 3.58734 3.64398 3.95518 3.75531 4.30017C3.86663 4.64516 4.06488 4.95569 4.33098 5.20187C4.59707 5.44805 4.92205 5.6216 5.27464 5.70581C5.62723 5.79002 5.99556 5.78205 6.34418 5.68269C6.6928 5.58332 7.00998 5.39589 7.26519 5.13844C7.26519 5.13844 6.32919 4.48444 6.05319 3.53644C5.78319 2.59444 6.11319 1.56844 6.11319 1.56844ZM4.24119 10.8624H2.11719V8.40244H2.13519C2.25519 7.52044 3.43119 6.79444 4.97919 6.59044C4.97919 6.59044 4.24119 7.08244 4.24119 7.74244V10.8624ZM13.6252 10.8144H15.7312V8.36044H15.7192C15.5932 7.47844 14.4232 6.75244 12.8692 6.54844C12.8692 6.54844 13.6252 6.81844 13.6252 7.70044V10.8204V10.8144Z" fill="black"/>
<path d="M11.8384 1.52495C12.1959 1.46523 12.5629 1.49855 12.9038 1.6217C13.2447 1.74485 13.5483 1.95368 13.7851 2.2281C14.022 2.50252 14.1842 2.83329 14.2562 3.18857C14.3282 3.54385 14.3076 3.91169 14.1963 4.25668C14.0849 4.60167 13.8867 4.9122 13.6206 5.15838C13.3545 5.40456 13.0295 5.57811 12.6769 5.66232C12.3243 5.74653 11.956 5.73857 11.6074 5.6392C11.2588 5.53983 10.9416 5.3524 10.6864 5.09495C10.6864 5.09495 11.6284 4.44095 11.8984 3.49295C12.1744 2.55095 11.8384 1.52495 11.8384 1.52495ZM16.6504 10.441H17.6524V8.58095H17.6404C17.5504 7.90295 17.2564 7.35695 16.0804 7.20095C16.0804 7.20095 16.6504 7.40495 16.6504 8.07695V10.441ZM15.2224 3.35495C15.4709 3.31364 15.7259 3.33691 15.9629 3.42253C16.1999 3.50815 16.4109 3.65325 16.5756 3.84389C16.7404 4.03453 16.8534 4.26431 16.9037 4.51119C16.9541 4.75807 16.9402 5.01375 16.8633 5.25369C16.7864 5.49364 16.6491 5.70979 16.4646 5.8814C16.2801 6.05301 16.0546 6.17431 15.8097 6.23368C15.5649 6.29304 15.3088 6.28847 15.0663 6.2204C14.8237 6.15233 14.6026 6.02304 14.4244 5.84495C14.4244 5.84495 15.0784 5.38895 15.2644 4.72295C15.4564 4.06895 15.2224 3.35495 15.2224 3.35495ZM1.15239 10.435H0.150391V8.56295H0.156391C0.252391 7.89695 0.546391 7.34495 1.72239 7.18295C1.72239 7.18295 1.15239 7.39295 1.15239 8.06495V10.435ZM2.58039 3.34295C2.33184 3.30164 2.07684 3.32491 1.83987 3.41053C1.6029 3.49615 1.39191 3.64125 1.22716 3.83189C1.06241 4.02253 0.949431 4.25231 0.899061 4.49919C0.84869 4.74607 0.862623 5.00175 0.93952 5.24169C1.01642 5.48164 1.1537 5.69778 1.33819 5.86939C1.52267 6.041 1.74818 6.16231 1.99305 6.22168C2.23792 6.28104 2.49394 6.27647 2.73653 6.2084C2.97912 6.14033 3.20015 6.01104 3.37839 5.83295C3.37839 5.83295 2.72439 5.37695 2.53839 4.71695C2.34639 4.05695 2.57439 3.34295 2.57439 3.34295H2.58039Z" fill="black"/>
</g>
<defs>
<clipPath id="clip0_60_8476">
<rect width="18" height="12" fill="white"/>
</clipPath>
</defs>
</svg>
