<svg width="25" height="24" viewBox="0 0 25 24" fill="none" xmlns="http://www.w3.org/2000/svg">
<g clip-path="url(#clip0_380_6059)">
<path d="M12.0586 0.179688C7.12373 0.179688 5.68046 0.184778 5.39991 0.208051C4.38718 0.292233 3.757 0.451687 3.07046 0.793506C2.54136 1.05623 2.12409 1.36078 1.71227 1.78769C0.962274 2.56623 0.507729 3.52405 0.343183 4.6626C0.263183 5.21532 0.23991 5.32805 0.235183 8.15132C0.233365 9.09242 0.235183 10.331 0.235183 11.9922C0.235183 16.9231 0.240638 18.365 0.264274 18.645C0.346092 19.6304 0.500638 20.2504 0.82791 20.9286C1.45336 22.2268 2.64791 23.2013 4.05518 23.565C4.54246 23.6904 5.08064 23.7595 5.77155 23.7922C6.06427 23.805 9.04791 23.8141 12.0334 23.8141C15.0188 23.8141 18.0043 23.8104 18.2897 23.7959C19.0897 23.7582 19.5543 23.6959 20.0679 23.5631C21.4843 23.1977 22.657 22.2377 23.2952 20.9213C23.6161 20.2595 23.7788 19.6159 23.8525 18.6819C23.8685 18.4782 23.8752 15.2315 23.8752 11.9891C23.8752 8.74623 23.8679 5.50551 23.8519 5.30187C23.7774 4.35278 23.6146 3.7146 23.2834 3.04005C23.0115 2.48787 22.7097 2.07551 22.2715 1.65387C21.4895 0.90696 20.5332 0.452415 19.3935 0.288051C18.8414 0.208233 18.7314 0.184597 15.9059 0.179688H12.0586Z" fill="url(#paint0_radial_380_6059)"/>
<path d="M12.0586 0.179688C7.12373 0.179688 5.68046 0.184778 5.39991 0.208051C4.38718 0.292233 3.757 0.451687 3.07046 0.793506C2.54136 1.05623 2.12409 1.36078 1.71227 1.78769C0.962274 2.56623 0.507729 3.52405 0.343183 4.6626C0.263183 5.21532 0.23991 5.32805 0.235183 8.15132C0.233365 9.09242 0.235183 10.331 0.235183 11.9922C0.235183 16.9231 0.240638 18.365 0.264274 18.645C0.346092 19.6304 0.500638 20.2504 0.82791 20.9286C1.45336 22.2268 2.64791 23.2013 4.05518 23.565C4.54246 23.6904 5.08064 23.7595 5.77155 23.7922C6.06427 23.805 9.04791 23.8141 12.0334 23.8141C15.0188 23.8141 18.0043 23.8104 18.2897 23.7959C19.0897 23.7582 19.5543 23.6959 20.0679 23.5631C21.4843 23.1977 22.657 22.2377 23.2952 20.9213C23.6161 20.2595 23.7788 19.6159 23.8525 18.6819C23.8685 18.4782 23.8752 15.2315 23.8752 11.9891C23.8752 8.74623 23.8679 5.50551 23.8519 5.30187C23.7774 4.35278 23.6146 3.7146 23.2834 3.04005C23.0115 2.48787 22.7097 2.07551 22.2715 1.65387C21.4895 0.90696 20.5332 0.452415 19.3935 0.288051C18.8414 0.208233 18.7314 0.184597 15.9059 0.179688H12.0586Z" fill="url(#paint1_radial_380_6059)"/>
<path d="M12.0542 3.27344C9.68399 3.27344 9.38654 3.2838 8.45563 3.32616C7.52654 3.36871 6.89235 3.5158 6.33744 3.73162C5.76344 3.95453 5.27654 4.25271 4.79144 4.73798C4.30599 5.22307 4.00781 5.70998 3.78417 6.2838C3.56781 6.83889 3.42054 7.47326 3.37872 8.40198C3.33708 9.33289 3.32617 9.63053 3.32617 12.0007C3.32617 14.3709 3.33672 14.6674 3.3789 15.5983C3.42163 16.5274 3.56872 17.1616 3.78435 17.7165C4.00744 18.2905 4.30563 18.7774 4.7909 19.2625C5.27581 19.748 5.76272 20.0469 6.33635 20.2698C6.89163 20.4856 7.52599 20.6327 8.4549 20.6753C9.38581 20.7176 9.68308 20.728 12.0531 20.728C14.4234 20.728 14.72 20.7176 15.6509 20.6753C16.58 20.6327 17.2149 20.4856 17.7702 20.2698C18.344 20.0469 18.8302 19.748 19.3151 19.2625C19.8005 18.7774 20.0987 18.2905 20.3224 17.7167C20.5369 17.1616 20.6842 16.5273 20.7278 15.5985C20.7696 14.6676 20.7805 14.3709 20.7805 12.0007C20.7805 9.63053 20.7696 9.33307 20.7278 8.40216C20.6842 7.47307 20.5369 6.83889 20.3224 6.28398C20.0987 5.70998 19.8005 5.22307 19.3151 4.73798C18.8296 4.25253 18.3442 3.95435 17.7696 3.73162C17.2133 3.5158 16.5787 3.36871 15.6496 3.32616C14.7187 3.2838 14.4224 3.27344 12.0514 3.27344H12.0542ZM11.2713 4.84616C11.5036 4.8458 11.7629 4.84616 12.0542 4.84616C14.3844 4.84616 14.6605 4.85453 15.5807 4.89635C16.4316 4.93526 16.8934 5.07744 17.2011 5.19689C17.6084 5.35507 17.8987 5.54416 18.204 5.84962C18.5094 6.15507 18.6985 6.44598 18.8571 6.85326C18.9765 7.16053 19.1189 7.62235 19.1576 8.47326C19.1994 9.39326 19.2085 9.66962 19.2085 11.9987C19.2085 14.3278 19.1994 14.6042 19.1576 15.5242C19.1187 16.3751 18.9765 16.8369 18.8571 17.1442C18.6989 17.5514 18.5094 17.8414 18.204 18.1467C17.8985 18.4522 17.6085 18.6413 17.2011 18.7994C16.8938 18.9194 16.4316 19.0613 15.5807 19.1002C14.6607 19.142 14.3844 19.1511 12.0542 19.1511C9.72381 19.1511 9.44763 19.142 8.52763 19.1002C7.67672 19.0609 7.2149 18.9187 6.90708 18.7993C6.49981 18.6411 6.2089 18.452 5.90344 18.1465C5.59799 17.8411 5.4089 17.5509 5.25035 17.1434C5.1309 16.8362 4.98854 16.3743 4.94981 15.5234C4.90799 14.6034 4.89963 14.3271 4.89963 11.9965C4.89963 9.66598 4.90799 9.39107 4.94981 8.47107C4.98872 7.62017 5.1309 7.15835 5.25035 6.85071C5.40854 6.44344 5.59799 6.15253 5.90344 5.84707C6.2089 5.54162 6.49981 5.35253 6.90708 5.19398C7.21472 5.07398 7.67672 4.93217 8.52763 4.89307C9.33272 4.85671 9.64472 4.8458 11.2713 4.84398V4.84616ZM16.7127 6.29526C16.1345 6.29526 15.6654 6.7638 15.6654 7.34216C15.6654 7.92035 16.1345 8.38944 16.7127 8.38944C17.2909 8.38944 17.76 7.92035 17.76 7.34216C17.76 6.76398 17.2909 6.29489 16.7127 6.29489V6.29526ZM12.0542 7.51889C9.57908 7.51889 7.57235 9.52562 7.57235 12.0007C7.57235 14.4758 9.57908 16.4816 12.0542 16.4816C14.5293 16.4816 16.5353 14.4758 16.5353 12.0007C16.5353 9.52562 14.5293 7.51889 12.0542 7.51889ZM12.0542 9.09162C13.6607 9.09162 14.9633 10.394 14.9633 12.0007C14.9633 13.6073 13.6607 14.9098 12.0542 14.9098C10.4474 14.9098 9.14508 13.6073 9.14508 12.0007C9.14508 10.394 10.4474 9.09162 12.0542 9.09162Z" fill="white"/>
</g>
<defs>
<radialGradient id="paint0_radial_380_6059" cx="0" cy="0" r="1" gradientUnits="userSpaceOnUse" gradientTransform="translate(6.51399 25.6344) rotate(-90) scale(23.4234 21.7915)">
<stop stop-color="#FFDD55"/>
<stop offset="0.1" stop-color="#FFDD55"/>
<stop offset="0.5" stop-color="#FF543E"/>
<stop offset="1" stop-color="#C837AB"/>
</radialGradient>
<radialGradient id="paint1_radial_380_6059" cx="0" cy="0" r="1" gradientUnits="userSpaceOnUse" gradientTransform="translate(-3.72559 1.88227) rotate(78.6776) scale(10.4705 43.1706)">
<stop stop-color="#3771C8"/>
<stop offset="0.128" stop-color="#3771C8"/>
<stop offset="1" stop-color="#6600FF" stop-opacity="0"/>
</radialGradient>
<clipPath id="clip0_380_6059">
<rect width="24.0007" height="24" fill="white" transform="translate(0.0527344)"/>
</clipPath>
</defs>
</svg>
