<svg width="100" height="21" viewBox="0 0 100 21" fill="none" xmlns="http://www.w3.org/2000/svg">
<g clip-path="url(#clip0_380_6049)">
<path d="M35.8024 12.2522H35.1374C34.8273 12.2522 34.576 11.9991 34.576 11.6867C34.576 11.6456 34.5804 11.6046 34.5892 11.5645L34.8631 10.3179C34.9315 10.0072 35.2049 9.78594 35.521 9.78594H36.3421C36.8402 8.251 37.6488 7.02089 38.7682 6.09557C40.049 5.03679 41.5755 4.50739 43.3477 4.50739C44.9428 4.50739 46.1471 4.9187 46.9606 5.74129C47.7742 6.56388 48.1809 7.69189 48.1809 9.12533C48.1809 9.66286 48.1165 10.2737 47.9876 10.9578L47.8299 11.6664C47.7976 11.8293 47.713 11.9678 47.576 12.0818C47.4391 12.1958 47.282 12.2528 47.1048 12.2528H39.0944C39.0461 12.546 39.0219 12.8229 39.0219 13.0836C39.0219 13.7677 39.1951 14.3256 39.5415 14.7572C39.8879 15.1889 40.3914 15.4047 41.0518 15.4047C41.9703 15.4047 42.8 15.0301 43.541 14.2808C43.7183 14.1016 43.8552 13.9917 43.9518 13.9509C44.0485 13.9102 44.1935 13.8899 44.3868 13.8899H46.5135C46.6585 13.8899 46.7712 13.9387 46.8518 14.0365C46.9324 14.1342 46.9566 14.2564 46.9243 14.403C46.8116 14.7939 46.4692 15.25 45.8973 15.7712C45.3253 16.2924 44.5762 16.7445 43.6498 17.1272C42.7234 17.5101 41.7045 17.7015 40.5927 17.7015C39.0461 17.7015 37.8539 17.3106 37.0161 16.5287C36.1784 15.7468 35.7595 14.631 35.7595 13.1813C35.7595 12.8514 35.7738 12.5417 35.8024 12.2522ZM39.6089 9.78594H41.0285V9.79071C42.5952 9.79029 44.8978 9.78708 44.8984 9.7835C44.944 9.52101 44.9669 9.25276 44.9669 8.97873C44.9669 8.29458 44.7897 7.75299 44.4351 7.3539C44.0808 6.95482 43.5652 6.75528 42.8886 6.75528C42.0669 6.75528 41.358 7.04441 40.7618 7.62266C40.1962 8.1714 39.8119 8.8925 39.6089 9.78594ZM29.2378 17.4572C29.0607 17.4572 28.9278 17.4001 28.8391 17.2861C28.7506 17.1722 28.7224 17.0336 28.7545 16.8708L32.1862 0.695781C32.2184 0.516603 32.299 0.374082 32.4278 0.268202C32.5568 0.162323 32.7017 0.109375 32.8628 0.109375H34.917C35.0781 0.109375 35.203 0.166383 35.2916 0.280416C35.3801 0.394433 35.4084 0.532893 35.3762 0.695781L31.9687 16.8708C31.9364 17.0336 31.856 17.1722 31.727 17.2861C31.5981 17.4001 31.4531 17.4572 31.2921 17.4572H29.2378ZM53.9506 17.7015C52.404 17.7015 51.2118 17.3106 50.3739 16.5287C49.5363 15.7468 49.1173 14.631 49.1173 13.1813C49.1173 12.6275 49.1576 12.1307 49.2382 11.6908C49.2542 11.5768 49.3429 11.1696 49.504 10.4692C49.9712 8.61222 50.8452 7.15437 52.1261 6.09557C53.4068 5.03679 54.9334 4.50739 56.7056 4.50739C58.3005 4.50739 59.5048 4.9187 60.3184 5.74129C61.1321 6.56388 61.5388 7.69189 61.5388 9.12533C61.5388 9.66286 61.4744 10.2737 61.3455 10.9578L61.1824 11.6664C61.1502 11.8293 61.0657 11.9678 60.9286 12.0818C60.7917 12.1958 60.6347 12.2528 60.4574 12.2528H52.4523C52.404 12.546 52.3798 12.8229 52.3798 13.0836C52.3798 13.7677 52.5529 14.3256 52.8994 14.7572C53.2458 15.1889 53.7491 15.4047 54.4097 15.4047C55.3281 15.4047 56.1577 15.0301 56.8989 14.2808C57.0762 14.1016 57.213 13.9917 57.3097 13.9509C57.4064 13.9102 57.5514 13.8899 57.7447 13.8899H59.8714C60.0164 13.8899 60.1291 13.9387 60.2097 14.0365C60.2903 14.1342 60.3145 14.2564 60.2822 14.403C60.1695 14.7939 59.827 15.25 59.2552 15.7712C58.6831 16.2924 57.934 16.7445 57.0076 17.1272C56.0812 17.5101 55.0622 17.7015 53.9506 17.7015ZM58.2633 9.78617C58.307 9.52901 58.3246 9.24694 58.3246 8.97873C58.3246 8.29458 58.1475 7.75299 57.793 7.3539C57.4386 6.95482 56.9231 6.75528 56.2464 6.75528C55.4248 6.75528 54.7159 7.04441 54.1197 7.62266C53.5634 8.16239 53.1692 8.91298 52.9638 9.78617H58.2633ZM67.4534 17.4572C66.1162 17.4572 65.1294 17.2006 64.493 16.6874C63.8566 16.1744 63.5385 15.4047 63.5385 14.3785C63.5385 13.8899 63.5949 13.393 63.7076 12.8881L64.8917 7.36611H62.9827C62.8054 7.36611 62.6765 7.3091 62.596 7.19508C62.5154 7.08107 62.4913 6.94261 62.5235 6.77972L62.8135 5.33814C62.8456 5.17525 62.9302 5.03679 63.0672 4.92278C63.2041 4.80874 63.3612 4.75173 63.5385 4.75173H65.4234L66.2935 0.695781C66.3256 0.516603 66.4062 0.374082 66.5351 0.268202C66.6639 0.162323 66.8091 0.109375 66.9701 0.109375H68.9758C69.1531 0.109375 69.286 0.166383 69.3747 0.280416C69.4633 0.394433 69.4914 0.532893 69.4593 0.695781L68.5892 4.75173H76.106C76.2833 4.75173 76.4122 4.80874 76.4929 4.92278C76.5733 5.03679 76.5975 5.17525 76.5653 5.33814L76.251 6.77972C76.235 6.94261 76.1585 7.08107 76.0215 7.19508C75.8846 7.3091 75.7275 7.36611 75.5502 7.36611H68.0576L66.9218 12.6193C66.8251 13.0591 66.7768 13.4338 66.7768 13.7433C66.7768 14.0853 66.8653 14.3378 67.0426 14.5007C67.2199 14.6636 67.5259 14.745 67.9609 14.745H69.7251C69.9022 14.745 70.0312 14.802 70.1118 14.9161C70.1922 15.0301 70.2164 15.1685 70.1843 15.3314L69.8701 16.8708C69.8378 17.0499 69.7533 17.1925 69.6164 17.2983C69.4793 17.4043 69.3304 17.4572 69.1692 17.4572H67.4534ZM75.3514 3.1402C75.1901 3.1402 75.0653 3.08319 74.9766 2.96918C74.8881 2.85514 74.8599 2.7167 74.8921 2.55381L75.2789 0.770167C75.2949 0.607263 75.3714 0.464742 75.5084 0.342572C75.6453 0.220402 75.8024 0.159317 75.9797 0.159317H78.2029C78.3641 0.159317 78.4928 0.216342 78.5895 0.330358C78.6862 0.444375 78.7184 0.590973 78.6863 0.770151L78.2995 2.55381C78.2674 2.7167 78.1828 2.85514 78.0458 2.96918C77.9089 3.08319 77.7599 3.1402 77.5987 3.1402H75.3514ZM72.4558 17.4572C72.2787 17.4572 72.1458 17.4001 72.0571 17.2861C71.9685 17.1722 71.9404 17.0336 71.9725 16.8708L74.4134 5.33814C74.4456 5.15896 74.5302 5.01643 74.6671 4.91055C74.804 4.80468 74.9531 4.75173 75.1142 4.75173H77.1684C77.3294 4.75173 77.4502 4.80874 77.5308 4.92278C77.6113 5.03679 77.6356 5.17525 77.6033 5.33814L75.1866 16.8708C75.1544 17.0336 75.0739 17.1722 74.945 17.2861C74.8161 17.4001 74.6711 17.4572 74.51 17.4572H72.4558ZM79.603 17.4572C79.4418 17.4572 79.317 17.4001 79.2283 17.2861C79.1398 17.1722 79.1116 17.0336 79.1437 16.8708L81.1496 7.36611H79.1921C79.0149 7.36611 78.886 7.3091 78.8054 7.19508C78.725 7.08107 78.7008 6.94261 78.7329 6.77972L79.0229 5.33814C79.0552 5.17525 79.1397 5.03679 79.2766 4.92278C79.4137 4.80874 79.5708 4.75173 79.748 4.75173H81.6812L81.7323 4.50829C82.3607 1.57626 84.1571 0.110254 87.1215 0.110254H89.079C89.2561 0.110254 89.3851 0.167279 89.4657 0.281311C89.5461 0.395312 89.5703 0.533772 89.5382 0.69666L89.224 2.13824C89.1917 2.30113 89.1072 2.43959 88.9701 2.5536C88.8332 2.66764 88.6843 2.72465 88.5231 2.72465H87.0731C86.4448 2.72465 85.9534 2.88346 85.599 3.20109C85.2445 3.51873 85.0029 3.99518 84.8739 4.63046L84.8471 4.75173H87.8679C88.0452 4.75173 88.1739 4.80874 88.2545 4.92278C88.3351 5.03679 88.3593 5.17525 88.327 5.33814L88.0129 6.77972C87.9968 6.94261 87.9202 7.08107 87.7833 7.19508C87.6463 7.3091 87.4892 7.36611 87.3121 7.36611H84.3154L82.3095 16.8708C82.2774 17.0499 82.1929 17.1925 82.0558 17.2983C81.9189 17.4043 81.7698 17.4572 81.6087 17.4572H79.603ZM87.9494 20.1955C87.8366 20.1955 87.744 20.1588 87.6715 20.0856C87.599 20.0122 87.5628 19.9187 87.5628 19.8045C87.5628 19.6416 87.603 19.5113 87.6836 19.4136L89.3415 16.6264L86.9731 5.43587C86.9409 5.25669 86.9771 5.09788 87.0819 4.95942C87.1867 4.82096 87.3598 4.75173 87.6014 4.75173H89.4382C89.7603 4.75173 89.9536 4.90649 90.0181 5.21597L91.613 13.1813L96.6156 5.21597C96.7927 4.90649 97.0506 4.75173 97.3889 4.75173H99.4913C99.6202 4.75173 99.725 4.78839 99.8056 4.86169C99.886 4.93499 99.9264 5.03679 99.9264 5.1671C99.9264 5.26484 99.8941 5.37072 99.8297 5.48474L90.8011 19.7313C90.6239 20.0408 90.3661 20.1955 90.0277 20.1955H87.9494Z" fill="#464646"/>
<path d="M9.66943 5.49659L10.8293 0H23.8523C24.5501 0 25.1156 0.569684 25.1156 1.27241C25.1156 1.36169 25.1062 1.45074 25.0878 1.53806L21.9048 16.5566C21.7388 17.3394 21.0522 17.899 20.2576 17.899H15.0612L17.4453 6.72847C17.5627 6.17884 17.2154 5.6375 16.6698 5.51932C16.6 5.50421 16.5288 5.49659 16.4574 5.49659H9.66943Z" fill="#BF3B68"/>
<path d="M8.23514 6.43039C8.22883 6.45346 8.22315 6.4767 8.21812 6.50009L7.27431 10.8969C7.17603 11.3548 7.46486 11.8063 7.91948 11.9053C7.97795 11.918 8.03761 11.9245 8.09744 11.9245H11.0711C11.5362 11.9245 11.9132 12.3042 11.9132 12.7727C11.9132 12.8324 11.907 12.892 11.8946 12.9504L10.8424 17.899H1.26323C0.565564 17.899 2.95738e-09 17.3292 2.95738e-09 16.6266C-6.06465e-06 16.5373 0.0093245 16.4482 0.0278378 16.3609L3.21092 1.34233C3.37684 0.559532 4.06342 0 4.85811 0H9.58451L8.23514 6.43039Z" fill="#F84982"/>
</g>
<defs>
<clipPath id="clip0_380_6049">
<rect width="100" height="20.303" fill="white"/>
</clipPath>
</defs>
</svg>
