<svg width="24" height="24" viewBox="0 0 24 24" fill="none" xmlns="http://www.w3.org/2000/svg">
<path d="M0.11377 1.71921C0.11377 0.769972 0.902788 0 1.87614 0H22.2001C23.1734 0 23.9625 0.769972 23.9625 1.71921V22.2808C23.9625 23.2303 23.1734 24 22.2001 24H1.87614C0.902788 24 0.11377 23.2303 0.11377 22.2808V1.71921Z" fill="#006699"/>
<path fill-rule="evenodd" clip-rule="evenodd" d="M7.3429 20.0898V9.2525H3.74077V20.0898H7.3429ZM5.54182 7.77284C6.79795 7.77284 7.5798 6.94066 7.5798 5.90066C7.55639 4.83726 6.79796 4.02817 5.56565 4.02817C4.33347 4.02817 3.52783 4.83726 3.52783 5.90066C3.52783 6.94066 4.30951 7.77284 5.51834 7.77284H5.54182Z" fill="white"/>
<path fill-rule="evenodd" clip-rule="evenodd" d="M9.33643 20.0898H12.9385V14.0378C12.9385 13.7139 12.9619 13.3903 13.057 13.1588C13.3174 12.5117 13.9101 11.8414 14.9052 11.8414C16.2087 11.8414 16.7301 12.8352 16.7301 14.2921V20.0898H20.3319V13.8759C20.3319 10.5471 18.5548 8.9982 16.1849 8.9982C14.2416 8.9982 13.3885 10.0844 12.9146 10.8242H12.9386V9.2525H9.33652C9.38379 10.2694 9.33643 20.0898 9.33643 20.0898Z" fill="white"/>
</svg>
