<svg width="101" height="100" viewBox="0 0 101 100" fill="none" xmlns="http://www.w3.org/2000/svg">
<path d="M24.8161 22.0948C26.4636 20.5761 28.2736 19.1861 30.1974 17.9636L31.1836 17.3361L25.1599 6.90234L24.0899 7.57234C21.3411 9.28859 18.7424 11.2886 16.3636 13.5148L15.4424 14.3748L23.9549 22.8873L24.8161 22.0948Z" fill="#4D526A"/>
<path d="M13.4763 58.2973C12.9813 56.0861 12.6838 53.8248 12.5913 51.5711L12.5438 50.4023H0.5L0.54125 51.6611C0.64875 54.9186 1.075 58.1711 1.81 61.3286L2.09625 62.5548L13.7325 59.4373L13.4763 58.2973Z" fill="#4D526A"/>
<path d="M32.9099 16.3899C34.9387 15.3237 37.0462 14.4449 39.1724 13.7787L40.2887 13.4299L37.1712 1.79492L35.9649 2.16242C32.8574 3.10867 29.8262 4.36742 26.9562 5.90617L25.8462 6.50117L31.8724 16.9374L32.9099 16.3899ZM35.4737 4.87742L37.3324 11.8174C35.8074 12.3462 34.2974 12.9762 32.8212 13.6999L29.2274 7.47367C31.2437 6.46117 33.3362 5.59117 35.4737 4.87742Z" fill="#3B415C"/>
<path d="M39.1738 1.30875L37.9463 1.595L41.0638 13.2312L42.2063 12.975C44.415 12.48 46.6788 12.1825 48.9338 12.09L50.1038 12.0425V0L48.845 0.04125C45.5838 0.1475 42.3313 0.575 39.1738 1.30875ZM47.6638 9.71875C46.0413 9.8325 44.4188 10.0462 42.8188 10.3562L40.96 3.415C43.1638 2.965 45.41 2.67125 47.665 2.53625L47.6638 9.71875Z" fill="#3B415C"/>
<path d="M14.2789 38.67C14.9464 36.5413 15.8252 34.4337 16.8914 32.4075L17.4364 31.37L7.00144 25.3438L6.40645 26.4525C4.86895 29.3213 3.60894 32.3525 2.66144 35.4625L2.29395 36.6687L13.9289 39.7863L14.2789 38.67Z" fill="#4D526A"/>
<path d="M12.5913 48.4345C12.6838 46.1782 12.9813 43.912 13.4763 41.7007L13.7325 40.5582L2.09625 37.4395L1.81 38.667C1.075 41.8282 0.6475 45.082 0.54125 48.342L0.5 49.6045H12.5425L12.5913 48.4345Z" fill="#4D526A"/>
<path d="M18.4662 29.6945C19.6887 27.7732 21.0787 25.962 22.5975 24.3132L23.39 23.452L14.8788 14.9395L14.0175 15.8582C11.7912 18.237 9.79125 20.8357 8.075 23.5845L7.40625 24.6545L17.84 30.6795L18.4662 29.6945Z" fill="#4D526A"/>
<path d="M78.405 24.3171C79.9225 25.9621 81.3113 27.7734 82.5363 29.6971L83.1638 30.6821L93.5975 24.6584L92.9288 23.5884C91.2113 20.8384 89.2113 18.2396 86.9888 15.8634L86.1263 14.9434L77.6138 23.4571L78.405 24.3171ZM86.0563 18.4621C87.5525 20.1484 88.9338 21.9434 90.175 23.8171L83.9513 27.4109C83.035 26.0559 82.04 24.7596 80.98 23.5384L86.0563 18.4621Z" fill="#3B415C"/>
<path d="M84.1112 32.4134C85.1774 34.4421 86.0549 36.5471 86.7212 38.6734L87.0712 39.7896L98.7074 36.6721L98.3399 35.4659C97.3937 32.3609 96.1337 29.3296 94.5974 26.4596L94.0012 25.3496L83.5649 31.3771L84.1112 32.4134ZM93.0262 28.7284C94.0387 30.7446 94.9087 32.8371 95.6212 34.9734L88.6799 36.8321C88.1512 35.3096 87.5212 33.7996 86.7987 32.3246L93.0262 28.7284Z" fill="#3B415C"/>
<path d="M58.7988 12.9763L59.9413 13.2325L63.0588 1.59625L61.8313 1.31C58.6763 0.57625 55.4226 0.14875 52.1638 0.04125L50.9026 0V12.0425L52.0726 12.09C54.3276 12.1838 56.5888 12.4813 58.7988 12.9763ZM53.3413 2.5375C55.5976 2.67125 57.8438 2.96625 60.0451 3.41625L58.1851 10.3575C56.5851 10.0462 54.9638 9.83375 53.3413 9.71875V2.5375Z" fill="#3B415C"/>
<path d="M70.8063 17.968C72.7325 19.193 74.5425 20.583 76.1863 22.098L77.0463 22.8918L85.56 14.378L84.6413 13.5168C82.2638 11.2918 79.6663 9.29305 76.9175 7.5743L75.8463 6.9043L69.8225 17.3393L70.8063 17.968ZM76.6863 10.3268C78.56 11.5693 80.355 12.9493 82.0413 14.4468L76.965 19.523C75.7438 18.4643 74.4488 17.468 73.0913 16.5505L76.6863 10.3268Z" fill="#3B415C"/>
<path d="M61.8313 13.7785C63.9576 14.4448 66.0651 15.3223 68.0926 16.3898L69.1301 16.9348L75.1551 6.49727L74.0463 5.90227C71.1776 4.36477 68.1476 3.10602 65.0388 2.15852L63.8326 1.79102L60.7151 13.4273L61.8313 13.7785ZM65.5313 4.87727C67.6688 5.59227 69.7613 6.46102 71.7763 7.47352L68.1813 13.6998C66.7063 12.976 65.1963 12.346 63.6713 11.8185L65.5313 4.87727Z" fill="#3B415C"/>
<path d="M87.5236 41.706C88.0186 43.9135 88.3161 46.1773 88.4086 48.4335L88.4561 49.6035H100.5L100.459 48.3435C100.352 45.0873 99.9249 41.8335 99.1899 38.6748L98.9049 37.4473L87.2661 40.5648L87.5236 41.706ZM97.0849 40.4598C97.5349 42.6635 97.8299 44.9098 97.9636 47.1648H90.7799C90.6649 45.5423 90.4524 43.9198 90.1424 42.321L97.0849 40.4598Z" fill="#3B415C"/>
<path d="M82.5336 70.3035C81.3099 72.226 79.9199 74.036 78.4036 75.6848L77.6099 76.5448L86.1224 85.0585L86.9836 84.1398C89.2074 81.766 91.2061 79.166 92.9249 76.4173L93.5936 75.346L83.1599 69.3223L82.5336 70.3035Z" fill="#4D526A"/>
<path d="M68.0901 83.6068C66.0601 84.6743 63.9526 85.553 61.8301 86.2168L60.7139 86.5668L63.8301 98.2031L65.0364 97.8355C68.1451 96.8905 71.1751 95.6293 74.0426 94.0918L75.1514 93.4981L69.1276 83.0605L68.0901 83.6068Z" fill="#4D526A"/>
<path d="M76.1823 77.9038C74.5373 79.4201 72.7273 80.8088 70.8036 82.0338L69.8186 82.6601L75.8424 93.0951L76.9123 92.4263C79.6611 90.7088 82.2598 88.7101 84.6373 86.4863L85.5561 85.6238L77.0411 77.1113L76.1823 77.9038Z" fill="#4D526A"/>
<path d="M16.8926 67.5898C15.8251 65.5623 14.9464 63.4561 14.2814 61.3323L13.9314 60.2148L2.29639 63.3323L2.66389 64.5373C3.61139 67.6486 4.87014 70.6773 6.40639 73.5436L7.00139 74.6536L17.4376 68.6273L16.8926 67.5898Z" fill="#4D526A"/>
<path d="M88.4076 51.5718C88.3163 53.818 88.0188 56.0793 87.5238 58.2955L87.2676 59.4368L98.9051 62.5543L99.1913 61.328C99.9263 58.173 100.353 54.9205 100.459 51.663L100.5 50.4043H88.4563L88.4076 51.5718Z" fill="#4D526A"/>
<path d="M86.72 61.3298C86.0538 63.4561 85.1763 65.5623 84.1088 67.5898L83.5613 68.6286L94 74.6536L94.5963 73.5461C96.1325 70.6761 97.3925 67.6461 98.3388 64.5373L98.7063 63.3323L87.07 60.2148L86.72 61.3298Z" fill="#4D526A"/>
<path d="M22.5975 75.6873C21.08 74.0398 19.69 72.231 18.4675 70.3085L17.8412 69.3223L7.40625 75.346L8.07625 76.4173C9.7925 79.166 11.7925 81.7623 14.0163 84.1398L14.8775 85.0585L23.39 76.5448L22.5975 75.6873Z" fill="#4D526A"/>
<path d="M30.1974 82.0326C28.2761 80.8101 26.4674 79.4213 24.8186 77.9038L23.9574 77.1113L15.4436 85.6238L16.3636 86.4838C18.7411 88.7101 21.3386 90.7088 24.0874 92.4263L25.1586 93.0926L31.1824 82.6576L30.1974 82.0326Z" fill="#4D526A"/>
<path d="M39.1726 86.2182C37.0501 85.5544 34.9438 84.6782 32.9126 83.6107L31.8751 83.0645L25.8501 93.4995L26.9588 94.0957C29.8238 95.6319 32.8538 96.8894 35.9638 97.8369L37.1713 98.2045L40.2901 86.5682L39.1726 86.2182Z" fill="#4D526A"/>
<path d="M42.2063 87.0231L41.0638 86.7656L37.9463 98.4044L39.1738 98.6906C42.3263 99.4244 45.5788 99.8506 48.84 99.9581L50.1 99.9994V87.9544L48.93 87.9069C46.6763 87.8144 44.4125 87.5169 42.2063 87.0231Z" fill="#4D526A"/>
<path d="M58.7964 87.0244C56.5864 87.5181 54.3264 87.8156 52.0714 87.9081L50.9014 87.9556V100.001L52.1614 99.9581C55.4214 99.8506 58.6751 99.4244 61.8276 98.6906L63.0551 98.4044L59.9376 86.7656L58.7964 87.0244Z" fill="#4D526A"/>
</svg>
