<svg width="39" height="32" viewBox="0 0 39 32" fill="none" xmlns="http://www.w3.org/2000/svg">
<g clip-path="url(#clip0_32_6197)">
<path d="M34.8161 8.04596C34.8396 8.38635 34.8396 8.72674 34.8396 9.07027C34.8396 19.5377 26.871 31.6099 12.3 31.6099V31.6036C7.99566 31.6099 3.78076 30.3769 0.157227 28.0522C0.783109 28.1275 1.41213 28.1652 2.04272 28.1667C5.60978 28.1699 9.07487 26.973 11.8811 24.7691C8.49134 24.7048 5.5188 22.4946 4.48036 19.2679C5.66781 19.4969 6.89134 19.4499 8.05683 19.1315C4.36115 18.3848 1.70232 15.1377 1.70232 11.3667V11.2664C2.8035 11.8797 4.03644 12.2201 5.29762 12.2577C1.81683 9.93145 0.743893 5.30086 2.84585 1.68047C6.86782 6.62949 12.8019 9.63812 19.1721 9.95655C18.5337 7.20518 19.4059 4.32204 21.4639 2.38792C24.6545 -0.611296 29.6725 -0.45757 32.6717 2.73145C34.4459 2.38165 36.1462 1.73067 37.7023 0.808312C37.111 2.64204 35.8733 4.19969 34.22 5.18949C35.7902 5.00439 37.3243 4.584 38.769 3.94243C37.7055 5.53616 36.3659 6.92439 34.8161 8.04596Z" fill="#464646"/>
</g>
<defs>
<clipPath id="clip0_32_6197">
<rect width="38.902" height="32" fill="white"/>
</clipPath>
</defs>
</svg>
