<svg width="30" height="24" viewBox="0 0 30 24" fill="none" xmlns="http://www.w3.org/2000/svg">
<path d="M26.001 6.02983C26.0185 6.28513 26.0185 6.54042 26.0185 6.79807C26.0185 14.6487 20.0674 23.7028 9.18559 23.7028V23.6981C5.97106 23.7028 2.8233 22.7781 0.117188 21.0345C0.584607 21.091 1.05437 21.1192 1.5253 21.1204C4.18924 21.1228 6.77703 20.2251 8.87281 18.5722C6.34125 18.5239 4.1213 16.8663 3.34578 14.4463C4.23259 14.6181 5.14634 14.5828 6.01675 14.3439C3.25675 13.7839 1.27109 11.3487 1.27109 8.52042V8.44512C2.09347 8.90512 3.01425 9.16042 3.95612 9.18865C1.35661 7.44395 0.55532 3.97101 2.1251 1.25571C5.12877 4.96748 9.56046 7.22395 14.3178 7.46277C13.841 5.39924 14.4924 3.23689 16.0294 1.7863C18.4121 -0.46311 22.1597 -0.347816 24.3996 2.04395C25.7245 1.7816 26.9944 1.29336 28.1565 0.601596C27.7148 1.97689 26.7906 3.14513 25.5558 3.88748C26.7285 3.74865 27.8742 3.43336 28.9531 2.95218C28.1588 4.14748 27.1584 5.18865 26.001 6.02983Z" fill="#1D9BF0"/>
</svg>
