<svg width="37" height="26" viewBox="0 0 37 26" fill="none" xmlns="http://www.w3.org/2000/svg">
<path d="M14.2446 7.98434L15.9533 0H35.1388C36.1667 0 36.9998 0.827522 36.9998 1.8483C36.9998 1.97799 36.986 2.10734 36.9588 2.23418L32.2697 24.05C32.0251 25.1872 31.0136 26 29.843 26H22.1877L25.7 9.77377C25.8729 8.97537 25.3613 8.18902 24.5575 8.01736C24.4547 7.99541 24.3498 7.98434 24.2446 7.98434H14.2446Z" fill="#BF3B68"/>
<path d="M12.1319 9.34077C12.1226 9.37428 12.1143 9.40804 12.1069 9.44202L10.7165 15.8289C10.5717 16.494 10.9972 17.1498 11.6669 17.2936C11.7531 17.3121 11.8409 17.3215 11.9291 17.3215H16.3099C16.995 17.3215 17.5505 17.8731 17.5505 18.5536C17.5505 18.6404 17.5413 18.7269 17.523 18.8117L15.9729 26H1.86098C0.833185 26 4.35679e-09 25.1724 4.35679e-09 24.1517C-8.9344e-06 24.022 0.0137368 23.8927 0.0410105 23.7658L4.7303 1.94987C4.97473 0.812776 5.9862 0 7.15693 0H14.1198L12.1319 9.34077Z" fill="#F84982"/>
</svg>
