<svg width="25" height="24" viewBox="0 0 25 24" fill="none" xmlns="http://www.w3.org/2000/svg">
<path d="M12.1816 24C18.8091 24 24.1816 18.6274 24.1816 12C24.1816 5.37258 18.8091 0 12.1816 0C5.55422 0 0.181641 5.37258 0.181641 12C0.181641 18.6274 5.55422 24 12.1816 24Z" fill="#FF4500"/>
<path d="M20.1845 12.0017C20.1487 11.0353 19.3374 10.2806 18.3679 10.3134C17.9384 10.3283 17.5297 10.5043 17.2195 10.7996C15.8534 9.86896 14.2486 9.35889 12.5991 9.3231L13.3776 5.57962L15.9459 6.11952C16.0174 6.77873 16.608 7.25598 17.2673 7.18439C17.9265 7.11281 18.4037 6.5222 18.3321 5.86299C18.2605 5.20378 17.6699 4.72653 17.0107 4.79812C16.6319 4.83689 16.2919 5.05762 16.1039 5.38574L13.1629 4.79812C12.963 4.75337 12.7632 4.87865 12.7184 5.08149C12.7184 5.08447 12.7184 5.08447 12.7184 5.08745L11.8325 9.25151C10.1621 9.27835 8.53646 9.7914 7.15242 10.728C6.44846 10.0658 5.33884 10.0986 4.67665 10.8056C4.01446 11.5095 4.04727 12.6191 4.75421 13.2813C4.89142 13.4096 5.04951 13.52 5.2255 13.5975C5.21356 13.7735 5.21356 13.9495 5.2255 14.1255C5.2255 16.813 8.35749 18.9995 12.2203 18.9995C16.0831 18.9995 19.2151 16.816 19.2151 14.1255C19.227 13.9495 19.227 13.7735 19.2151 13.5975C19.8176 13.2963 20.1964 12.6758 20.1845 12.0017ZM8.18448 13.2038C8.18448 12.5416 8.72438 12.0017 9.38657 12.0017C10.0488 12.0017 10.5887 12.5416 10.5887 13.2038C10.5887 13.866 10.0488 14.4059 9.38657 14.4059C8.72139 14.3999 8.18448 13.866 8.18448 13.2038ZM15.1554 16.5028C14.3023 17.1441 13.2583 17.4722 12.1904 17.4275C11.1226 17.4722 10.0786 17.1441 9.2255 16.5028C9.11215 16.3656 9.13303 16.1598 9.27024 16.0464C9.38955 15.948 9.55957 15.948 9.68187 16.0464C10.4037 16.5744 11.2837 16.8429 12.1785 16.8011C13.0734 16.8488 13.9563 16.5923 14.6871 16.0703C14.8183 15.942 15.0331 15.945 15.1614 16.0763C15.2896 16.2075 15.2866 16.4223 15.1554 16.5505V16.5028ZM14.9406 14.4476C14.2784 14.4476 13.7385 13.9077 13.7385 13.2455C13.7385 12.5834 14.2784 12.0435 14.9406 12.0435C15.6028 12.0435 16.1427 12.5834 16.1427 13.2455C16.1696 13.9077 15.6535 14.4655 14.9913 14.4924C14.9705 14.4924 14.9526 14.4924 14.9317 14.4924L14.9406 14.4476Z" fill="white"/>
</svg>
