<svg width="33" height="32" viewBox="0 0 33 32" fill="none" xmlns="http://www.w3.org/2000/svg">
<g clip-path="url(#clip0_32_6199)">
<path d="M16.902 32C25.7385 32 32.902 24.8366 32.902 16C32.902 7.16344 25.7385 0 16.902 0C8.06542 0 0.901978 7.16344 0.901978 16C0.901978 24.8366 8.06542 32 16.902 32Z" fill="#464646"/>
<path d="M27.574 16.0002C27.5772 16.2194 27.55 16.4382 27.4924 16.6498C27.4348 16.8614 27.3476 17.0642 27.2332 17.2514C27.1192 17.4386 26.9792 17.609 26.8176 17.7574C26.656 17.9058 26.4744 18.0306 26.278 18.1282C26.2824 18.1866 26.286 18.2454 26.288 18.3042C26.2928 18.4214 26.2928 18.5389 26.288 18.6562C26.286 18.715 26.2824 18.7738 26.278 18.8322C26.278 22.4162 22.102 25.3282 16.95 25.3282C11.798 25.3282 7.62197 22.4162 7.62197 18.8322C7.61757 18.7738 7.61397 18.715 7.61197 18.6562C7.60716 18.5389 7.60716 18.4214 7.61197 18.3042C7.61397 18.2454 7.61757 18.1866 7.62197 18.1282C7.31427 17.9867 7.04098 17.7801 6.82101 17.5226C6.60104 17.2652 6.43963 16.963 6.34797 16.637C6.25646 16.3108 6.23697 15.9687 6.29085 15.6342C6.34472 15.2998 6.47067 14.9811 6.65997 14.7002C6.84911 14.4193 7.09709 14.1829 7.38671 14.0075C7.67633 13.832 8.00065 13.7217 8.33717 13.6842C8.67374 13.6464 9.01449 13.6823 9.3358 13.7894C9.6571 13.8965 9.95129 14.0721 10.198 14.3042C10.6559 13.9938 11.1357 13.7169 11.6336 13.4758C12.1316 13.235 12.6464 13.0302 13.174 12.8638C13.7016 12.6974 14.2408 12.5698 14.7868 12.4814C15.3328 12.393 15.8848 12.3446 16.438 12.3362L17.622 6.78416C17.6352 6.71976 17.6612 6.65896 17.6984 6.60456C17.7352 6.55056 17.7828 6.50416 17.8376 6.46856C17.8928 6.43296 17.9544 6.40856 18.0192 6.39656C18.0836 6.38496 18.15 6.38616 18.214 6.40016L22.134 7.18416C22.5296 6.50456 23.36 6.21336 24.0932 6.49656C24.8264 6.77976 25.2456 7.55376 25.0816 8.32256C24.918 9.09136 24.2196 9.62736 23.4348 9.58696C22.6496 9.54656 22.01 8.94176 21.926 8.16016L18.502 7.44016L17.462 12.4322C18.0084 12.4438 18.5536 12.495 19.0928 12.585C20.1726 12.7649 21.2207 13.0999 22.2048 13.5794C22.6963 13.8186 23.1699 14.0929 23.622 14.4002C23.947 14.0881 24.3555 13.8768 24.798 13.7918C25.2405 13.7064 25.6982 13.751 26.116 13.9202C26.5337 14.0892 26.8937 14.3755 27.1524 14.7446C27.4111 15.1136 27.5576 15.5497 27.574 16.0002ZM11.6956 18.2126C11.7764 18.4066 11.894 18.583 12.0428 18.7314C12.1912 18.8802 12.3676 18.9978 12.5616 19.0786C12.7558 19.1589 12.9638 19.2002 13.174 19.2002C13.8212 19.2002 14.4044 18.8102 14.6524 18.2126C14.9 17.6146 14.7628 16.9266 14.3052 16.469C13.8476 16.0114 13.1596 15.8742 12.5616 16.1218C11.964 16.3698 11.574 16.953 11.574 17.6002C11.574 17.8102 11.6152 18.0182 11.6956 18.2126ZM20.8596 22.0534C20.9416 21.9734 20.9884 21.8642 20.99 21.7498C20.9916 21.635 20.9472 21.5246 20.8672 21.4426C20.7872 21.3606 20.678 21.3138 20.5636 21.3122C20.4488 21.3106 20.3384 21.355 20.246 21.4242C20.0054 21.5967 19.7506 21.7486 19.4844 21.8782C19.2181 22.0078 18.9414 22.1147 18.6572 22.1978C18.3732 22.2806 18.0824 22.3394 17.7884 22.3734C17.494 22.4074 17.1976 22.4162 16.902 22.4002C16.6068 22.4134 16.3108 22.4014 16.0176 22.3646C15.7243 22.3281 15.4347 22.2666 15.152 22.1806C14.8688 22.095 14.594 21.9854 14.3296 21.8534C14.0652 21.7214 13.8124 21.567 13.574 21.3922C13.4912 21.3242 13.386 21.2894 13.2788 21.2946C13.1716 21.2998 13.0704 21.345 12.9944 21.4206C12.9188 21.4966 12.8736 21.5978 12.8684 21.705C12.8632 21.8122 12.898 21.9174 12.966 22.0002C13.2472 22.2122 13.546 22.3994 13.8592 22.5602C14.1724 22.721 14.4992 22.8542 14.8352 22.959C15.1712 23.0638 15.5156 23.1394 15.8648 23.1854C16.214 23.231 16.5664 23.2466 16.918 23.2322C17.2696 23.2466 17.622 23.231 17.9712 23.1854C18.6706 23.0934 19.349 22.8819 19.9768 22.5602C20.29 22.3994 20.5888 22.2122 20.87 22.0002L20.8596 22.0534ZM20.566 19.3282C20.7828 19.3306 20.998 19.2886 21.1984 19.2054C21.3988 19.1218 21.58 18.9986 21.7312 18.843C21.8824 18.6874 22 18.5026 22.0776 18.2998C22.1552 18.0972 22.1908 17.8809 22.182 17.6642C22.182 17.017 21.792 16.4338 21.1944 16.1858C20.5964 15.9382 19.9084 16.0754 19.4508 16.533C18.9932 16.9906 18.856 17.6786 19.1036 18.2766C19.3516 18.8742 19.9348 19.2642 20.582 19.2642L20.566 19.3282Z" fill="#F5F5F5"/>
</g>
<defs>
<clipPath id="clip0_32_6199">
<rect width="32" height="32" fill="white" transform="translate(0.901978)"/>
</clipPath>
</defs>
</svg>
