<svg width="32" height="32" viewBox="0 0 32 32" fill="none" xmlns="http://www.w3.org/2000/svg">
<rect width="32" height="32" fill="white" fill-opacity="0.01"/>
<path d="M19.3638 20.8764C17.8074 22.0586 15.8612 22.6047 13.9184 22.4044C11.9757 22.2042 10.1812 21.2724 8.89774 19.7974C7.61428 18.3225 6.93753 16.4143 7.00426 14.4586C7.07099 12.5029 7.87624 10.6456 9.25724 9.26187C10.6382 7.87818 12.492 7.07138 14.4439 7.00451C16.3958 6.93765 18.3003 7.61571 19.7724 8.90167C21.2445 10.1876 22.1744 11.9856 22.3743 13.9321C22.5742 15.8787 22.0291 17.8287 20.8492 19.388L24.5586 23.1047C24.9692 23.516 25.3014 23.9331 24.5586 24.593C23.8159 25.2529 23.4838 25.0044 23.0732 24.593L19.3638 20.8764ZM14.707 20.3386C16.1937 20.3386 17.6195 19.7469 18.6707 18.6936C19.7219 17.6403 20.3125 16.2118 20.3125 14.7222C20.3125 13.2327 19.7219 11.8041 18.6707 10.7509C17.6195 9.69759 16.1937 9.10587 14.707 9.10587C13.2203 9.10587 11.7946 9.69759 10.7433 10.7509C9.69211 11.8041 9.10154 13.2327 9.10154 14.7222C9.10154 16.2118 9.69211 17.6403 10.7433 18.6936C11.7946 19.7469 13.2203 20.3386 14.707 20.3386Z" fill="white"/>
</svg>
