<svg width="44" height="44" viewBox="0 0 44 44" fill="none" xmlns="http://www.w3.org/2000/svg">
<rect width="44" height="44" fill="white" fill-opacity="0.01"/>
<path d="M27.1754 29.119C25.1393 30.6626 22.5932 31.3757 20.0516 31.1142C17.5099 30.8527 15.1623 29.6361 13.4833 27.7102C11.8042 25.7843 10.9188 23.2928 11.0061 20.7393C11.0934 18.1857 12.1469 15.7605 13.9536 13.9538C15.7603 12.1471 18.1855 11.0937 20.739 11.0064C23.2926 10.9191 25.7841 11.8044 27.71 13.4835C29.6358 15.1626 30.8525 17.5102 31.114 20.0518C31.3755 22.5934 30.6623 25.1396 29.1187 27.1756L33.9716 32.0285C34.5087 32.5656 34.9432 33.1101 33.9716 33.9718C32.9999 34.8335 32.5654 34.509 32.0282 33.9718L27.1754 29.119ZM21.0832 28.4168C23.0281 28.4168 24.8934 27.6442 26.2687 26.2689C27.6439 24.8937 28.4166 23.0284 28.4166 21.0835C28.4166 19.1385 27.6439 17.2733 26.2687 15.898C24.8934 14.5228 23.0281 13.7501 21.0832 13.7501C19.1383 13.7501 17.273 14.5228 15.8978 15.898C14.5225 17.2733 13.7499 19.1385 13.7499 21.0835C13.7499 23.0284 14.5225 24.8937 15.8978 26.2689C17.273 27.6442 19.1383 28.4168 21.0832 28.4168Z" fill="white"/>
</svg>
