<svg width="701" height="352" viewBox="0 0 701 352" fill="none" xmlns="http://www.w3.org/2000/svg">
<path d="M37.0455 57H33.2784V45.3636H37.1648C38.3049 45.3636 39.2841 45.5966 40.1023 46.0625C40.9205 46.5246 41.5473 47.1894 41.983 48.0568C42.4223 48.9205 42.642 49.9564 42.642 51.1648C42.642 52.3769 42.4205 53.4186 41.9773 54.2898C41.5379 55.161 40.9015 55.8314 40.0682 56.3011C39.2348 56.767 38.2273 57 37.0455 57ZM35.0341 55.4659H36.9489C37.8352 55.4659 38.572 55.2992 39.1591 54.9659C39.7462 54.6288 40.1856 54.142 40.4773 53.5057C40.7689 52.8655 40.9148 52.0852 40.9148 51.1648C40.9148 50.2519 40.7689 49.4773 40.4773 48.8409C40.1894 48.2045 39.7595 47.7216 39.1875 47.392C38.6155 47.0625 37.9053 46.8977 37.0568 46.8977H35.0341V55.4659ZM47.2287 57.1932C46.6757 57.1932 46.1757 57.0909 45.7287 56.8864C45.2817 56.678 44.9276 56.3769 44.6662 55.983C44.4086 55.589 44.2798 55.1061 44.2798 54.5341C44.2798 54.0417 44.3745 53.6364 44.5639 53.3182C44.7533 53 45.009 52.7481 45.331 52.5625C45.6529 52.3769 46.0128 52.2367 46.4105 52.142C46.8082 52.0473 47.2135 51.9754 47.6264 51.9261C48.1491 51.8655 48.5734 51.8163 48.8991 51.7784C49.2249 51.7367 49.4616 51.6705 49.6094 51.5795C49.7571 51.4886 49.831 51.3409 49.831 51.1364V51.0966C49.831 50.6004 49.6908 50.2159 49.4105 49.9432C49.134 49.6705 48.7211 49.5341 48.1719 49.5341C47.5999 49.5341 47.1491 49.661 46.8196 49.9148C46.4938 50.1648 46.2685 50.4432 46.1435 50.75L44.5469 50.3864C44.7363 49.8561 45.0128 49.428 45.3764 49.1023C45.7438 48.7727 46.1662 48.5341 46.6435 48.3864C47.1207 48.2348 47.6226 48.1591 48.1491 48.1591C48.4976 48.1591 48.867 48.2008 49.2571 48.2841C49.651 48.3636 50.0185 48.5114 50.3594 48.7273C50.7041 48.9432 50.9863 49.2519 51.206 49.6534C51.4257 50.0511 51.5355 50.5682 51.5355 51.2045V57H49.8764V55.8068H49.8082C49.6984 56.0265 49.5336 56.2424 49.3139 56.4545C49.0942 56.6667 48.812 56.8428 48.4673 56.983C48.1226 57.1231 47.7098 57.1932 47.2287 57.1932ZM47.598 55.8295C48.0677 55.8295 48.4692 55.7367 48.8026 55.5511C49.1397 55.3655 49.3954 55.1231 49.5696 54.8239C49.7476 54.5208 49.8366 54.197 49.8366 53.8523V52.7273C49.776 52.7879 49.6586 52.8447 49.4844 52.8977C49.3139 52.947 49.1188 52.9905 48.8991 53.0284C48.6795 53.0625 48.4654 53.0947 48.2571 53.125C48.0488 53.1515 47.8745 53.1742 47.7344 53.1932C47.4048 53.2348 47.1037 53.3049 46.831 53.4034C46.562 53.5019 46.3461 53.6439 46.1832 53.8295C46.0241 54.0114 45.9446 54.2538 45.9446 54.5568C45.9446 54.9773 46.0999 55.2955 46.4105 55.5114C46.7211 55.7235 47.117 55.8295 47.598 55.8295ZM57.8722 48.2727V49.6364H53.1051V48.2727H57.8722ZM54.3835 46.1818H56.0824V54.4375C56.0824 54.767 56.1316 55.0152 56.2301 55.1818C56.3286 55.3447 56.4555 55.4564 56.6108 55.517C56.7699 55.5739 56.9422 55.6023 57.1278 55.6023C57.2642 55.6023 57.3835 55.5928 57.4858 55.5739C57.5881 55.5549 57.6676 55.5398 57.7244 55.5284L58.0312 56.9318C57.9328 56.9697 57.7926 57.0076 57.6108 57.0455C57.429 57.0871 57.2017 57.1098 56.929 57.1136C56.482 57.1212 56.0653 57.0417 55.679 56.875C55.2926 56.7083 54.9801 56.4508 54.7415 56.1023C54.5028 55.7538 54.3835 55.3163 54.3835 54.7898V46.1818ZM62.2912 57.1932C61.7382 57.1932 61.2382 57.0909 60.7912 56.8864C60.3442 56.678 59.9901 56.3769 59.7287 55.983C59.4711 55.589 59.3423 55.1061 59.3423 54.5341C59.3423 54.0417 59.437 53.6364 59.6264 53.3182C59.8158 53 60.0715 52.7481 60.3935 52.5625C60.7154 52.3769 61.0753 52.2367 61.473 52.142C61.8707 52.0473 62.276 51.9754 62.6889 51.9261C63.2116 51.8655 63.6359 51.8163 63.9616 51.7784C64.2874 51.7367 64.5241 51.6705 64.6719 51.5795C64.8196 51.4886 64.8935 51.3409 64.8935 51.1364V51.0966C64.8935 50.6004 64.7533 50.2159 64.473 49.9432C64.1965 49.6705 63.7836 49.5341 63.2344 49.5341C62.6624 49.5341 62.2116 49.661 61.8821 49.9148C61.5563 50.1648 61.331 50.4432 61.206 50.75L59.6094 50.3864C59.7988 49.8561 60.0753 49.428 60.4389 49.1023C60.8063 48.7727 61.2287 48.5341 61.706 48.3864C62.1832 48.2348 62.6851 48.1591 63.2116 48.1591C63.5601 48.1591 63.9295 48.2008 64.3196 48.2841C64.7135 48.3636 65.081 48.5114 65.4219 48.7273C65.7666 48.9432 66.0488 49.2519 66.2685 49.6534C66.4882 50.0511 66.598 50.5682 66.598 51.2045V57H64.9389V55.8068H64.8707C64.7609 56.0265 64.5961 56.2424 64.3764 56.4545C64.1567 56.6667 63.8745 56.8428 63.5298 56.983C63.1851 57.1231 62.7723 57.1932 62.2912 57.1932ZM62.6605 55.8295C63.1302 55.8295 63.5317 55.7367 63.8651 55.5511C64.2022 55.3655 64.4579 55.1231 64.6321 54.8239C64.8101 54.5208 64.8991 54.197 64.8991 53.8523V52.7273C64.8385 52.7879 64.7211 52.8447 64.5469 52.8977C64.3764 52.947 64.1813 52.9905 63.9616 53.0284C63.742 53.0625 63.5279 53.0947 63.3196 53.125C63.1113 53.1515 62.937 53.1742 62.7969 53.1932C62.4673 53.2348 62.1662 53.3049 61.8935 53.4034C61.6245 53.5019 61.4086 53.6439 61.2457 53.8295C61.0866 54.0114 61.0071 54.2538 61.0071 54.5568C61.0071 54.9773 61.1624 55.2955 61.473 55.5114C61.7836 55.7235 62.1795 55.8295 62.6605 55.8295ZM77.2486 48.2727V49.6364H72.3168V48.2727H77.2486ZM73.669 57V47.2614C73.669 46.7159 73.7884 46.2633 74.027 45.9034C74.2656 45.5398 74.5819 45.2689 74.9759 45.0909C75.3698 44.9091 75.7978 44.8182 76.2599 44.8182C76.6009 44.8182 76.8925 44.8466 77.1349 44.9034C77.3774 44.9564 77.5573 45.0057 77.6747 45.0511L77.277 46.4261C77.1974 46.4034 77.0952 46.3769 76.9702 46.3466C76.8452 46.3125 76.6937 46.2955 76.5156 46.2955C76.1027 46.2955 75.8073 46.3977 75.6293 46.6023C75.455 46.8068 75.3679 47.1023 75.3679 47.4886V57H73.669ZM79.0014 57V48.2727H80.6435V49.6591H80.7344C80.8935 49.1894 81.1738 48.8201 81.5753 48.5511C81.9806 48.2784 82.4389 48.142 82.9503 48.142C83.0563 48.142 83.1813 48.1458 83.3253 48.1534C83.473 48.161 83.5885 48.1705 83.6719 48.1818V49.8068C83.6037 49.7879 83.4825 49.767 83.3082 49.7443C83.134 49.7178 82.9598 49.7045 82.7855 49.7045C82.384 49.7045 82.026 49.7898 81.7116 49.9602C81.401 50.1269 81.1548 50.3598 80.973 50.6591C80.7912 50.9545 80.7003 51.2917 80.7003 51.6705V57H79.0014ZM88.5057 57.1761C87.6875 57.1761 86.9735 56.9886 86.3636 56.6136C85.7538 56.2386 85.2803 55.714 84.9432 55.0398C84.6061 54.3655 84.4375 53.5777 84.4375 52.6761C84.4375 51.7708 84.6061 50.9792 84.9432 50.3011C85.2803 49.6231 85.7538 49.0966 86.3636 48.7216C86.9735 48.3466 87.6875 48.1591 88.5057 48.1591C89.3239 48.1591 90.0379 48.3466 90.6477 48.7216C91.2576 49.0966 91.7311 49.6231 92.0682 50.3011C92.4053 50.9792 92.5739 51.7708 92.5739 52.6761C92.5739 53.5777 92.4053 54.3655 92.0682 55.0398C91.7311 55.714 91.2576 56.2386 90.6477 56.6136C90.0379 56.9886 89.3239 57.1761 88.5057 57.1761ZM88.5114 55.75C89.0417 55.75 89.4811 55.6098 89.8295 55.3295C90.178 55.0492 90.4356 54.6761 90.6023 54.2102C90.7727 53.7443 90.858 53.2311 90.858 52.6705C90.858 52.1136 90.7727 51.6023 90.6023 51.1364C90.4356 50.6667 90.178 50.2898 89.8295 50.0057C89.4811 49.7216 89.0417 49.5795 88.5114 49.5795C87.9773 49.5795 87.5341 49.7216 87.1818 50.0057C86.8333 50.2898 86.5739 50.6667 86.4034 51.1364C86.2367 51.6023 86.1534 52.1136 86.1534 52.6705C86.1534 53.2311 86.2367 53.7443 86.4034 54.2102C86.5739 54.6761 86.8333 55.0492 87.1818 55.3295C87.5341 55.6098 87.9773 55.75 88.5114 55.75ZM94.4702 57V48.2727H96.1009V49.6932H96.2088C96.3906 49.2121 96.688 48.8371 97.1009 48.5682C97.5137 48.2955 98.008 48.1591 98.5838 48.1591C99.1671 48.1591 99.6558 48.2955 100.05 48.5682C100.447 48.8409 100.741 49.2159 100.93 49.6932H101.021C101.23 49.2273 101.561 48.8561 102.016 48.5795C102.47 48.2992 103.012 48.1591 103.641 48.1591C104.432 48.1591 105.078 48.4072 105.578 48.9034C106.082 49.3996 106.334 50.1477 106.334 51.1477V57H104.635V51.3068C104.635 50.7159 104.474 50.2879 104.152 50.0227C103.83 49.7576 103.446 49.625 102.999 49.625C102.446 49.625 102.016 49.7955 101.709 50.1364C101.402 50.4735 101.249 50.9072 101.249 51.4375V57H99.5554V51.1989C99.5554 50.7254 99.4077 50.3447 99.1122 50.0568C98.8168 49.7689 98.4323 49.625 97.9588 49.625C97.6368 49.625 97.3395 49.7102 97.0668 49.8807C96.7978 50.0473 96.58 50.2803 96.4134 50.5795C96.2505 50.8788 96.169 51.2254 96.169 51.6193V57H94.4702ZM114.544 45.3636V57H112.845V45.3636H114.544ZM119.369 57.1932C118.816 57.1932 118.316 57.0909 117.869 56.8864C117.422 56.678 117.068 56.3769 116.807 55.983C116.549 55.589 116.42 55.1061 116.42 54.5341C116.42 54.0417 116.515 53.6364 116.705 53.3182C116.894 53 117.15 52.7481 117.472 52.5625C117.794 52.3769 118.153 52.2367 118.551 52.142C118.949 52.0473 119.354 51.9754 119.767 51.9261C120.29 51.8655 120.714 51.8163 121.04 51.7784C121.366 51.7367 121.602 51.6705 121.75 51.5795C121.898 51.4886 121.972 51.3409 121.972 51.1364V51.0966C121.972 50.6004 121.831 50.2159 121.551 49.9432C121.275 49.6705 120.862 49.5341 120.312 49.5341C119.741 49.5341 119.29 49.661 118.96 49.9148C118.634 50.1648 118.409 50.4432 118.284 50.75L116.688 50.3864C116.877 49.8561 117.153 49.428 117.517 49.1023C117.884 48.7727 118.307 48.5341 118.784 48.3864C119.261 48.2348 119.763 48.1591 120.29 48.1591C120.638 48.1591 121.008 48.2008 121.398 48.2841C121.792 48.3636 122.159 48.5114 122.5 48.7273C122.845 48.9432 123.127 49.2519 123.347 49.6534C123.566 50.0511 123.676 50.5682 123.676 51.2045V57H122.017V55.8068H121.949C121.839 56.0265 121.674 56.2424 121.455 56.4545C121.235 56.6667 120.953 56.8428 120.608 56.983C120.263 57.1231 119.85 57.1932 119.369 57.1932ZM119.739 55.8295C120.208 55.8295 120.61 55.7367 120.943 55.5511C121.28 55.3655 121.536 55.1231 121.71 54.8239C121.888 54.5208 121.977 54.197 121.977 53.8523V52.7273C121.917 52.7879 121.799 52.8447 121.625 52.8977C121.455 52.947 121.259 52.9905 121.04 53.0284C120.82 53.0625 120.606 53.0947 120.398 53.125C120.189 53.1515 120.015 53.1742 119.875 53.1932C119.545 53.2348 119.244 53.3049 118.972 53.4034C118.703 53.5019 118.487 53.6439 118.324 53.8295C118.165 54.0114 118.085 54.2538 118.085 54.5568C118.085 54.9773 118.241 55.2955 118.551 55.5114C118.862 55.7235 119.258 55.8295 119.739 55.8295ZM132.479 50.4034L130.939 50.6761C130.875 50.4792 130.772 50.2917 130.632 50.1136C130.496 49.9356 130.31 49.7898 130.075 49.6761C129.84 49.5625 129.547 49.5057 129.195 49.5057C128.714 49.5057 128.312 49.6136 127.99 49.8295C127.668 50.0417 127.507 50.3163 127.507 50.6534C127.507 50.9451 127.615 51.1799 127.831 51.358C128.047 51.536 128.395 51.6818 128.876 51.7955L130.263 52.1136C131.066 52.2992 131.664 52.5852 132.058 52.9716C132.452 53.358 132.649 53.8598 132.649 54.4773C132.649 55 132.498 55.4659 132.195 55.875C131.895 56.2803 131.477 56.5985 130.939 56.8295C130.405 57.0606 129.786 57.1761 129.081 57.1761C128.104 57.1761 127.306 56.9678 126.689 56.5511C126.071 56.1307 125.693 55.5341 125.553 54.7614L127.195 54.5114C127.297 54.9394 127.507 55.2633 127.825 55.483C128.143 55.6989 128.558 55.8068 129.07 55.8068C129.626 55.8068 130.071 55.6913 130.405 55.4602C130.738 55.2254 130.905 54.9394 130.905 54.6023C130.905 54.3295 130.803 54.1004 130.598 53.9148C130.397 53.7292 130.089 53.589 129.672 53.4943L128.195 53.1705C127.38 52.9848 126.778 52.6894 126.388 52.2841C126.001 51.8788 125.808 51.3655 125.808 50.7443C125.808 50.2292 125.952 49.7784 126.24 49.392C126.528 49.0057 126.926 48.7045 127.433 48.4886C127.941 48.2689 128.522 48.1591 129.178 48.1591C130.121 48.1591 130.863 48.3636 131.405 48.7727C131.946 49.178 132.304 49.7216 132.479 50.4034ZM138.591 48.2727V49.6364H133.824V48.2727H138.591ZM135.102 46.1818H136.801V54.4375C136.801 54.767 136.85 55.0152 136.949 55.1818C137.047 55.3447 137.174 55.4564 137.33 55.517C137.489 55.5739 137.661 55.6023 137.847 55.6023C137.983 55.6023 138.102 55.5928 138.205 55.5739C138.307 55.5549 138.386 55.5398 138.443 55.5284L138.75 56.9318C138.652 56.9697 138.511 57.0076 138.33 57.0455C138.148 57.0871 137.92 57.1098 137.648 57.1136C137.201 57.1212 136.784 57.0417 136.398 56.875C136.011 56.7083 135.699 56.4508 135.46 56.1023C135.222 55.7538 135.102 55.3163 135.102 54.7898V46.1818ZM148.733 57.1591C147.953 57.1591 147.256 57.0246 146.642 56.7557C146.032 56.4867 145.549 56.1136 145.193 55.6364C144.841 55.1553 144.652 54.5985 144.625 53.9659H146.409C146.432 54.3106 146.547 54.6098 146.756 54.8636C146.968 55.1136 147.244 55.3068 147.585 55.4432C147.926 55.5795 148.305 55.6477 148.722 55.6477C149.18 55.6477 149.585 55.5682 149.938 55.4091C150.294 55.25 150.572 55.0284 150.773 54.7443C150.973 54.4564 151.074 54.125 151.074 53.75C151.074 53.3598 150.973 53.017 150.773 52.7216C150.576 52.4223 150.286 52.1875 149.903 52.017C149.525 51.8466 149.066 51.7614 148.528 51.7614H147.545V50.3295H148.528C148.96 50.3295 149.339 50.2519 149.665 50.0966C149.994 49.9413 150.252 49.7254 150.438 49.4489C150.623 49.1686 150.716 48.8409 150.716 48.4659C150.716 48.1061 150.634 47.7936 150.472 47.5284C150.313 47.2595 150.085 47.0492 149.79 46.8977C149.498 46.7462 149.153 46.6705 148.756 46.6705C148.377 46.6705 148.023 46.7405 147.693 46.8807C147.367 47.017 147.102 47.214 146.898 47.4716C146.693 47.7254 146.583 48.0303 146.568 48.3864H144.869C144.888 47.7576 145.074 47.2045 145.426 46.7273C145.782 46.25 146.252 45.8769 146.835 45.608C147.419 45.339 148.066 45.2045 148.778 45.2045C149.525 45.2045 150.169 45.3504 150.71 45.642C151.256 45.9299 151.676 46.3144 151.972 46.7955C152.271 47.2765 152.419 47.803 152.415 48.375C152.419 49.0265 152.237 49.5795 151.869 50.0341C151.506 50.4886 151.021 50.7936 150.415 50.9489V51.0398C151.188 51.1572 151.786 51.464 152.21 51.9602C152.638 52.4564 152.85 53.072 152.847 53.8068C152.85 54.447 152.672 55.0208 152.312 55.5284C151.956 56.036 151.47 56.4356 150.852 56.7273C150.235 57.0152 149.528 57.1591 148.733 57.1591ZM159.045 57.1932C158.148 57.1894 157.381 56.9527 156.744 56.483C156.108 56.0133 155.621 55.3295 155.284 54.4318C154.947 53.5341 154.778 52.4527 154.778 51.1875C154.778 49.9261 154.947 48.8485 155.284 47.9545C155.625 47.0606 156.114 46.3788 156.75 45.9091C157.39 45.4394 158.155 45.2045 159.045 45.2045C159.936 45.2045 160.699 45.4413 161.335 45.9148C161.972 46.3845 162.458 47.0663 162.795 47.9602C163.136 48.8504 163.307 49.9261 163.307 51.1875C163.307 52.4564 163.138 53.5398 162.801 54.4375C162.464 55.3314 161.977 56.0152 161.341 56.4886C160.705 56.9583 159.939 57.1932 159.045 57.1932ZM159.045 55.6761C159.833 55.6761 160.449 55.2917 160.892 54.5227C161.339 53.7538 161.562 52.642 161.562 51.1875C161.562 50.2216 161.46 49.4053 161.256 48.7386C161.055 48.0682 160.765 47.5606 160.386 47.2159C160.011 46.8674 159.564 46.6932 159.045 46.6932C158.261 46.6932 157.646 47.0795 157.199 47.8523C156.752 48.625 156.527 49.7367 156.523 51.1875C156.523 52.1572 156.623 52.9773 156.824 53.6477C157.028 54.3144 157.318 54.8201 157.693 55.1648C158.068 55.5057 158.519 55.6761 159.045 55.6761ZM169.58 57V48.2727H171.21V49.6932H171.318C171.5 49.2121 171.797 48.8371 172.21 48.5682C172.623 48.2955 173.117 48.1591 173.693 48.1591C174.277 48.1591 174.765 48.2955 175.159 48.5682C175.557 48.8409 175.85 49.2159 176.04 49.6932H176.131C176.339 49.2273 176.67 48.8561 177.125 48.5795C177.58 48.2992 178.121 48.1591 178.75 48.1591C179.542 48.1591 180.188 48.4072 180.688 48.9034C181.191 49.3996 181.443 50.1477 181.443 51.1477V57H179.744V51.3068C179.744 50.7159 179.583 50.2879 179.261 50.0227C178.939 49.7576 178.555 49.625 178.108 49.625C177.555 49.625 177.125 49.7955 176.818 50.1364C176.511 50.4735 176.358 50.9072 176.358 51.4375V57H174.665V51.1989C174.665 50.7254 174.517 50.3447 174.222 50.0568C173.926 49.7689 173.542 49.625 173.068 49.625C172.746 49.625 172.449 49.7102 172.176 49.8807C171.907 50.0473 171.689 50.2803 171.523 50.5795C171.36 50.8788 171.278 51.2254 171.278 51.6193V57H169.58ZM186.26 57.1932C185.707 57.1932 185.207 57.0909 184.76 56.8864C184.313 56.678 183.959 56.3769 183.697 55.983C183.44 55.589 183.311 55.1061 183.311 54.5341C183.311 54.0417 183.406 53.6364 183.595 53.3182C183.785 53 184.04 52.7481 184.362 52.5625C184.684 52.3769 185.044 52.2367 185.442 52.142C185.839 52.0473 186.245 51.9754 186.658 51.9261C187.18 51.8655 187.605 51.8163 187.93 51.7784C188.256 51.7367 188.493 51.6705 188.641 51.5795C188.788 51.4886 188.862 51.3409 188.862 51.1364V51.0966C188.862 50.6004 188.722 50.2159 188.442 49.9432C188.165 49.6705 187.752 49.5341 187.203 49.5341C186.631 49.5341 186.18 49.661 185.851 49.9148C185.525 50.1648 185.3 50.4432 185.175 50.75L183.578 50.3864C183.768 49.8561 184.044 49.428 184.408 49.1023C184.775 48.7727 185.197 48.5341 185.675 48.3864C186.152 48.2348 186.654 48.1591 187.18 48.1591C187.529 48.1591 187.898 48.2008 188.288 48.2841C188.682 48.3636 189.05 48.5114 189.391 48.7273C189.735 48.9432 190.018 49.2519 190.237 49.6534C190.457 50.0511 190.567 50.5682 190.567 51.2045V57H188.908V55.8068H188.839C188.73 56.0265 188.565 56.2424 188.345 56.4545C188.125 56.6667 187.843 56.8428 187.499 56.983C187.154 57.1231 186.741 57.1932 186.26 57.1932ZM186.629 55.8295C187.099 55.8295 187.5 55.7367 187.834 55.5511C188.171 55.3655 188.427 55.1231 188.601 54.8239C188.779 54.5208 188.868 54.197 188.868 53.8523V52.7273C188.807 52.7879 188.69 52.8447 188.516 52.8977C188.345 52.947 188.15 52.9905 187.93 53.0284C187.711 53.0625 187.497 53.0947 187.288 53.125C187.08 53.1515 186.906 53.1742 186.766 53.1932C186.436 53.2348 186.135 53.3049 185.862 53.4034C185.593 53.5019 185.377 53.6439 185.214 53.8295C185.055 54.0114 184.976 54.2538 184.976 54.5568C184.976 54.9773 185.131 55.2955 185.442 55.5114C185.752 55.7235 186.148 55.8295 186.629 55.8295ZM196.903 48.2727V49.6364H192.136V48.2727H196.903ZM193.415 46.1818H195.114V54.4375C195.114 54.767 195.163 55.0152 195.261 55.1818C195.36 55.3447 195.487 55.4564 195.642 55.517C195.801 55.5739 195.973 55.6023 196.159 55.6023C196.295 55.6023 196.415 55.5928 196.517 55.5739C196.619 55.5549 196.699 55.5398 196.756 55.5284L197.062 56.9318C196.964 56.9697 196.824 57.0076 196.642 57.0455C196.46 57.0871 196.233 57.1098 195.96 57.1136C195.513 57.1212 195.097 57.0417 194.71 56.875C194.324 56.7083 194.011 56.4508 193.773 56.1023C193.534 55.7538 193.415 55.3163 193.415 54.7898V46.1818ZM202.365 57.1761C201.52 57.1761 200.793 56.9848 200.183 56.6023C199.577 56.2159 199.111 55.6837 198.786 55.0057C198.46 54.3277 198.297 53.5511 198.297 52.6761C198.297 51.7898 198.464 51.0076 198.797 50.3295C199.13 49.6477 199.6 49.1155 200.206 48.733C200.812 48.3504 201.526 48.1591 202.348 48.1591C203.011 48.1591 203.602 48.2822 204.121 48.5284C204.64 48.7708 205.058 49.1117 205.376 49.5511C205.698 49.9905 205.89 50.5038 205.95 51.0909H204.297C204.206 50.6818 203.998 50.3295 203.672 50.0341C203.35 49.7386 202.918 49.5909 202.376 49.5909C201.903 49.5909 201.488 49.7159 201.132 49.9659C200.78 50.2121 200.505 50.5644 200.308 51.0227C200.111 51.4773 200.013 52.0152 200.013 52.6364C200.013 53.2727 200.109 53.822 200.303 54.2841C200.496 54.7462 200.768 55.1042 201.121 55.358C201.477 55.6117 201.895 55.7386 202.376 55.7386C202.698 55.7386 202.99 55.6799 203.251 55.5625C203.517 55.4413 203.738 55.2689 203.916 55.0455C204.098 54.822 204.225 54.553 204.297 54.2386H205.95C205.89 54.803 205.706 55.3068 205.399 55.75C205.092 56.1932 204.681 56.5417 204.166 56.7955C203.655 57.0492 203.054 57.1761 202.365 57.1761ZM209.466 51.8182V57H207.767V45.3636H209.443V49.6932H209.551C209.756 49.2235 210.068 48.8504 210.489 48.5739C210.909 48.2973 211.458 48.1591 212.136 48.1591C212.735 48.1591 213.258 48.2822 213.705 48.5284C214.155 48.7746 214.504 49.142 214.75 49.6307C215 50.1155 215.125 50.7216 215.125 51.4489V57H213.426V51.6534C213.426 51.0133 213.261 50.517 212.932 50.1648C212.602 49.8087 212.144 49.6307 211.557 49.6307C211.155 49.6307 210.795 49.7159 210.477 49.8864C210.163 50.0568 209.915 50.3068 209.733 50.6364C209.555 50.9621 209.466 51.3561 209.466 51.8182ZM221.153 57.1761C220.294 57.1761 219.553 56.9924 218.932 56.625C218.314 56.2538 217.837 55.733 217.5 55.0625C217.167 54.3883 217 53.5985 217 52.6932C217 51.7992 217.167 51.0114 217.5 50.3295C217.837 49.6477 218.307 49.1155 218.909 48.733C219.515 48.3504 220.223 48.1591 221.034 48.1591C221.527 48.1591 222.004 48.2405 222.466 48.4034C222.928 48.5663 223.343 48.822 223.71 49.1705C224.078 49.5189 224.367 49.9716 224.58 50.5284C224.792 51.0814 224.898 51.7538 224.898 52.5455V53.1477H217.96V51.875H223.233C223.233 51.428 223.142 51.0322 222.96 50.6875C222.778 50.339 222.523 50.0644 222.193 49.8636C221.867 49.6629 221.485 49.5625 221.045 49.5625C220.568 49.5625 220.152 49.6799 219.795 49.9148C219.443 50.1458 219.17 50.4489 218.977 50.8239C218.788 51.1951 218.693 51.5985 218.693 52.0341V53.0284C218.693 53.6117 218.795 54.108 219 54.517C219.208 54.9261 219.498 55.2386 219.869 55.4545C220.241 55.6667 220.674 55.7727 221.17 55.7727C221.492 55.7727 221.786 55.7273 222.051 55.6364C222.316 55.5417 222.545 55.4015 222.739 55.2159C222.932 55.0303 223.08 54.8011 223.182 54.5284L224.79 54.8182C224.661 55.2917 224.43 55.7064 224.097 56.0625C223.767 56.4148 223.352 56.6894 222.852 56.8864C222.356 57.0795 221.79 57.1761 221.153 57.1761ZM233.322 50.4034L231.783 50.6761C231.718 50.4792 231.616 50.2917 231.476 50.1136C231.339 49.9356 231.154 49.7898 230.919 49.6761C230.684 49.5625 230.391 49.5057 230.038 49.5057C229.557 49.5057 229.156 49.6136 228.834 49.8295C228.512 50.0417 228.351 50.3163 228.351 50.6534C228.351 50.9451 228.459 51.1799 228.675 51.358C228.891 51.536 229.239 51.6818 229.72 51.7955L231.107 52.1136C231.91 52.2992 232.508 52.5852 232.902 52.9716C233.296 53.358 233.493 53.8598 233.493 54.4773C233.493 55 233.341 55.4659 233.038 55.875C232.739 56.2803 232.321 56.5985 231.783 56.8295C231.249 57.0606 230.629 57.1761 229.925 57.1761C228.947 57.1761 228.15 56.9678 227.533 56.5511C226.915 56.1307 226.536 55.5341 226.396 54.7614L228.038 54.5114C228.141 54.9394 228.351 55.2633 228.669 55.483C228.987 55.6989 229.402 55.8068 229.913 55.8068C230.47 55.8068 230.915 55.6913 231.249 55.4602C231.582 55.2254 231.749 54.9394 231.749 54.6023C231.749 54.3295 231.646 54.1004 231.442 53.9148C231.241 53.7292 230.932 53.589 230.516 53.4943L229.038 53.1705C228.224 52.9848 227.622 52.6894 227.232 52.2841C226.845 51.8788 226.652 51.3655 226.652 50.7443C226.652 50.2292 226.796 49.7784 227.084 49.392C227.372 49.0057 227.769 48.7045 228.277 48.4886C228.785 48.2689 229.366 48.1591 230.021 48.1591C230.964 48.1591 231.707 48.3636 232.249 48.7727C232.79 49.178 233.148 49.7216 233.322 50.4034Z" fill="#3B415C"/>
<path d="M34.2628 90H32.2855L35.2983 81.2727H37.6761L40.6847 90H38.7074L36.5213 83.267H36.4531L34.2628 90ZM34.1392 86.5696H38.8097V88.0099H34.1392V86.5696ZM43.4963 81.2727V90H41.6511V81.2727H43.4963ZM44.9304 81.2727H47.2059L49.6093 87.1364H49.7116L52.115 81.2727H54.3906V90H52.6008V84.3196H52.5284L50.2699 89.9574H49.0511L46.7926 84.2983H46.7201V90H44.9304V81.2727Z" fill="#464646"/>
<path d="M557.865 81.1534C558.314 81.1534 558.746 81.2287 559.161 81.3793C559.578 81.5298 559.95 81.7699 560.277 82.0994C560.607 82.429 560.866 82.8665 561.057 83.4119C561.25 83.9545 561.348 84.6207 561.351 85.4105C561.351 86.152 561.267 86.8139 561.099 87.3963C560.935 87.9759 560.697 88.4688 560.388 88.875C560.078 89.2812 559.705 89.5909 559.267 89.804C558.83 90.0142 558.341 90.1193 557.801 90.1193C557.219 90.1193 556.705 90.0071 556.259 89.7827C555.813 89.5554 555.453 89.2472 555.18 88.858C554.911 88.4659 554.747 88.0256 554.69 87.5369H556.51C556.581 87.8551 556.73 88.1023 556.957 88.2784C557.185 88.4517 557.466 88.5384 557.801 88.5384C558.369 88.5384 558.801 88.2912 559.097 87.7969C559.392 87.2997 559.541 86.6193 559.544 85.7557H559.484C559.354 86.0114 559.178 86.2315 558.956 86.4162C558.734 86.598 558.48 86.7386 558.193 86.8381C557.909 86.9375 557.607 86.9872 557.286 86.9872C556.771 86.9872 556.312 86.8665 555.909 86.625C555.506 86.3835 555.188 86.0511 554.955 85.6278C554.722 85.2045 554.605 84.7216 554.605 84.179C554.602 83.5938 554.737 83.0724 555.01 82.6151C555.283 82.1577 555.663 81.7997 556.152 81.5412C556.643 81.2798 557.214 81.1506 557.865 81.1534ZM557.878 82.6023C557.591 82.6023 557.335 82.6705 557.111 82.8068C556.889 82.9432 556.713 83.1264 556.582 83.3565C556.455 83.5866 556.392 83.8437 556.395 84.1278C556.395 84.4148 556.457 84.6733 556.582 84.9034C556.71 85.1307 556.884 85.3125 557.102 85.4489C557.324 85.5824 557.577 85.6491 557.861 85.6491C558.074 85.6491 558.271 85.6094 558.453 85.5298C558.635 85.4503 558.793 85.3409 558.926 85.2017C559.063 85.0597 559.169 84.8963 559.246 84.7116C559.322 84.527 559.361 84.331 559.361 84.1236C559.358 83.848 559.293 83.5952 559.165 83.3651C559.037 83.1349 558.861 82.9503 558.636 82.8111C558.412 82.6719 558.159 82.6023 557.878 82.6023ZM565.801 90.1193C565.145 90.1193 564.561 90.0128 564.05 89.7997C563.541 89.5838 563.142 89.2898 562.852 88.9176C562.562 88.5455 562.417 88.1236 562.417 87.652C562.417 87.2884 562.5 86.9545 562.665 86.6506C562.832 86.3438 563.059 86.0895 563.346 85.8878C563.633 85.6832 563.954 85.5526 564.309 85.4957V85.4361C563.844 85.3423 563.466 85.1165 563.176 84.7585C562.886 84.3977 562.741 83.9787 562.741 83.5014C562.741 83.0497 562.873 82.6477 563.138 82.2955C563.402 81.9403 563.764 81.6619 564.224 81.4602C564.687 81.2557 565.213 81.1534 565.801 81.1534C566.389 81.1534 566.913 81.2557 567.373 81.4602C567.836 81.6648 568.2 81.9446 568.464 82.2997C568.729 82.652 568.862 83.0526 568.865 83.5014C568.862 83.9815 568.714 84.4006 568.422 84.7585C568.129 85.1165 567.754 85.3423 567.297 85.4361V85.4957C567.646 85.5526 567.963 85.6832 568.247 85.8878C568.534 86.0895 568.761 86.3438 568.929 86.6506C569.099 86.9545 569.186 87.2884 569.189 87.652C569.186 88.1236 569.04 88.5455 568.75 88.9176C568.46 89.2898 568.059 89.5838 567.548 89.7997C567.04 90.0128 566.457 90.1193 565.801 90.1193ZM565.801 88.7642C566.094 88.7642 566.349 88.7116 566.568 88.6065C566.787 88.4986 566.957 88.3509 567.079 88.1634C567.204 87.973 567.267 87.7543 567.267 87.5071C567.267 87.2543 567.203 87.0312 567.075 86.8381C566.947 86.642 566.774 86.4886 566.555 86.3778C566.336 86.2642 566.085 86.2074 565.801 86.2074C565.52 86.2074 565.268 86.2642 565.047 86.3778C564.825 86.4886 564.65 86.642 564.523 86.8381C564.398 87.0312 564.335 87.2543 564.335 87.5071C564.335 87.7543 564.396 87.973 564.518 88.1634C564.64 88.3509 564.812 88.4986 565.034 88.6065C565.255 88.7116 565.511 88.7642 565.801 88.7642ZM565.801 84.8651C566.045 84.8651 566.263 84.8153 566.453 84.7159C566.643 84.6165 566.792 84.4787 566.9 84.3026C567.008 84.1264 567.062 83.9233 567.062 83.6932C567.062 83.4659 567.008 83.267 566.9 83.0966C566.792 82.9233 566.645 82.7884 566.457 82.6918C566.27 82.5923 566.051 82.5426 565.801 82.5426C565.554 82.5426 565.335 82.5923 565.145 82.6918C564.954 82.7884 564.805 82.9233 564.697 83.0966C564.592 83.267 564.54 83.4659 564.54 83.6932C564.54 83.9233 564.594 84.1264 564.702 84.3026C564.809 84.4787 564.959 84.6165 565.149 84.7159C565.339 84.8153 565.557 84.8651 565.801 84.8651Z" fill="#111111"/>
<g clip-path="url(#clip0_244_62478)">
<path d="M580 83.2016L574 89.6016H586L580 83.2016Z" fill="#03D28D"/>
</g>
<path d="M32 103C32 101.343 33.3431 100 35 100H583C584.657 100 586 101.343 586 103C586 104.657 584.657 106 583 106H35C33.3431 106 32 104.657 32 103Z" fill="#1E202F"/>
<path d="M32 103C32 101.343 33.3431 100 35 100H492C493.657 100 495 101.343 495 103C495 104.657 493.657 106 492 106H35C33.3432 106 32 104.657 32 103Z" fill="#FBC707"/>
<rect x="446.594" y="96" width="2" height="14" fill="#111111"/>
<path d="M38.1491 129.273H39.9943V134.94C39.9943 135.577 39.8423 136.134 39.5384 136.611C39.2372 137.088 38.8153 137.46 38.2727 137.727C37.7301 137.991 37.098 138.124 36.3764 138.124C35.652 138.124 35.0185 137.991 34.4759 137.727C33.9332 137.46 33.5114 137.088 33.2102 136.611C32.9091 136.134 32.7585 135.577 32.7585 134.94V129.273H34.6037V134.783C34.6037 135.115 34.6761 135.411 34.821 135.669C34.9688 135.928 35.1761 136.131 35.4432 136.278C35.7102 136.426 36.0213 136.5 36.3764 136.5C36.7344 136.5 37.0455 136.426 37.3097 136.278C37.5767 136.131 37.7827 135.928 37.9276 135.669C38.0753 135.411 38.1491 135.115 38.1491 134.783V129.273ZM41.096 130.794V129.273H48.2637V130.794H45.5918V138H43.7679V130.794H41.096ZM51.2052 129.273V138H49.3601V129.273H51.2052ZM52.6393 138V129.273H54.4845V136.479H58.226V138H52.6393ZM61.2091 129.273V138H59.3639V129.273H61.2091ZM62.3108 130.794V129.273H69.4784V130.794H66.8066V138H64.9827V130.794H62.3108ZM70.0635 129.273H72.1302L74.1203 133.031H74.2055L76.1956 129.273H78.2623L75.0791 134.915V138H73.2467V134.915L70.0635 129.273Z" fill="#464646"/>
<path d="M556.053 138L559.67 130.841V130.781H555.456V129.273H561.58V130.803L557.957 138H556.053ZM565.922 138.119C565.473 138.116 565.04 138.041 564.622 137.893C564.208 137.746 563.835 137.506 563.506 137.173C563.176 136.841 562.915 136.401 562.722 135.852C562.531 135.304 562.436 134.631 562.436 133.832C562.439 133.099 562.523 132.445 562.688 131.868C562.855 131.288 563.094 130.797 563.404 130.393C563.716 129.99 564.09 129.683 564.524 129.473C564.959 129.26 565.446 129.153 565.986 129.153C566.568 129.153 567.083 129.267 567.529 129.494C567.975 129.719 568.333 130.024 568.602 130.411C568.875 130.797 569.04 131.23 569.097 131.71H567.277C567.206 131.406 567.057 131.168 566.83 130.994C566.602 130.821 566.321 130.734 565.986 130.734C565.418 130.734 564.986 130.982 564.691 131.476C564.398 131.97 564.249 132.642 564.243 133.491H564.303C564.433 133.233 564.61 133.013 564.831 132.831C565.056 132.646 565.31 132.506 565.594 132.409C565.881 132.31 566.183 132.26 566.502 132.26C567.019 132.26 567.479 132.382 567.882 132.626C568.286 132.868 568.604 133.2 568.837 133.624C569.07 134.047 569.186 134.531 569.186 135.077C569.186 135.668 569.048 136.193 568.773 136.653C568.5 137.114 568.118 137.474 567.627 137.736C567.138 137.994 566.57 138.122 565.922 138.119ZM565.914 136.67C566.198 136.67 566.452 136.602 566.676 136.466C566.901 136.33 567.077 136.145 567.205 135.912C567.333 135.679 567.396 135.418 567.396 135.128C567.396 134.838 567.333 134.578 567.205 134.348C567.08 134.118 566.906 133.935 566.685 133.798C566.463 133.662 566.21 133.594 565.926 133.594C565.713 133.594 565.516 133.634 565.334 133.713C565.155 133.793 564.997 133.903 564.861 134.045C564.727 134.187 564.622 134.352 564.546 134.54C564.469 134.724 564.431 134.922 564.431 135.132C564.431 135.413 564.494 135.67 564.622 135.903C564.753 136.136 564.929 136.322 565.151 136.462C565.375 136.601 565.629 136.67 565.914 136.67Z" fill="#111111"/>
<g clip-path="url(#clip1_244_62478)">
<path d="M580 131.202L574 137.602H586L580 131.202Z" fill="#03D28D"/>
</g>
<path d="M32 151C32 149.343 33.3431 148 35 148H583C584.657 148 586 149.343 586 151C586 152.657 584.657 154 583 154H35C33.3431 154 32 152.657 32 151Z" fill="#1E202F"/>
<path d="M32 151C32 149.343 33.3431 148 35 148H420C421.657 148 423 149.343 423 151C423 152.657 421.657 154 420 154H35C33.3431 154 32 152.657 32 151Z" fill="#FBC707"/>
<rect x="366.594" y="144" width="2" height="14" fill="#111111"/>
<path d="M32.7585 186V177.273H36.2017C36.8636 177.273 37.4276 177.399 37.8935 177.652C38.3594 177.902 38.7145 178.25 38.9588 178.696C39.206 179.139 39.3295 179.651 39.3295 180.23C39.3295 180.81 39.2045 181.321 38.9545 181.764C38.7045 182.207 38.3423 182.553 37.8679 182.8C37.3963 183.047 36.8253 183.17 36.1548 183.17H33.9602V181.692H35.8565C36.2116 181.692 36.5043 181.631 36.7344 181.509C36.9673 181.384 37.1406 181.212 37.2543 180.993C37.3707 180.771 37.429 180.517 37.429 180.23C37.429 179.94 37.3707 179.687 37.2543 179.472C37.1406 179.253 36.9673 179.084 36.7344 178.964C36.5014 178.842 36.206 178.781 35.848 178.781H34.6037V186H32.7585ZM48.4639 181.636C48.4639 182.588 48.2835 183.398 47.9227 184.065C47.5648 184.733 47.0762 185.243 46.4568 185.595C45.8404 185.945 45.1472 186.119 44.3773 186.119C43.6017 186.119 42.9057 185.943 42.2892 185.591C41.6727 185.239 41.1855 184.729 40.8276 184.061C40.4696 183.393 40.2906 182.585 40.2906 181.636C40.2906 180.685 40.4696 179.875 40.8276 179.207C41.1855 178.54 41.6727 178.031 42.2892 177.682C42.9057 177.33 43.6017 177.153 44.3773 177.153C45.1472 177.153 45.8404 177.33 46.4568 177.682C47.0762 178.031 47.5648 178.54 47.9227 179.207C48.2835 179.875 48.4639 180.685 48.4639 181.636ZM46.5932 181.636C46.5932 181.02 46.5009 180.5 46.3162 180.077C46.1344 179.653 45.8773 179.332 45.5449 179.114C45.2125 178.895 44.8233 178.786 44.3773 178.786C43.9313 178.786 43.5421 178.895 43.2097 179.114C42.8773 179.332 42.6188 179.653 42.4341 180.077C42.2523 180.5 42.1614 181.02 42.1614 181.636C42.1614 182.253 42.2523 182.773 42.4341 183.196C42.6188 183.619 42.8773 183.94 43.2097 184.159C43.5421 184.378 43.9313 184.487 44.3773 184.487C44.8233 184.487 45.2125 184.378 45.5449 184.159C45.8773 183.94 46.1344 183.619 46.3162 183.196C46.5009 182.773 46.5932 182.253 46.5932 181.636ZM54.4811 179.783C54.4471 179.439 54.3008 179.172 54.0422 178.982C53.7837 178.791 53.4329 178.696 52.9897 178.696C52.6885 178.696 52.4343 178.739 52.2269 178.824C52.0195 178.906 51.8604 179.021 51.7496 179.169C51.6417 179.317 51.5877 179.484 51.5877 179.672C51.582 179.828 51.6147 179.964 51.6857 180.081C51.7596 180.197 51.8604 180.298 51.9883 180.384C52.1161 180.466 52.2638 180.538 52.4314 180.601C52.599 180.661 52.778 180.712 52.9684 180.754L53.7525 180.942C54.1331 181.027 54.4826 181.141 54.8008 181.283C55.1189 181.425 55.3945 181.599 55.6275 181.807C55.8604 182.014 56.0408 182.259 56.1686 182.54C56.2993 182.821 56.3661 183.143 56.3689 183.507C56.3661 184.041 56.2297 184.504 55.9598 184.896C55.6928 185.286 55.3064 185.588 54.8008 185.804C54.2979 186.017 53.6914 186.124 52.9811 186.124C52.2766 186.124 51.663 186.016 51.1402 185.8C50.6204 185.584 50.2141 185.264 49.9215 184.841C49.6317 184.415 49.4797 183.888 49.4655 183.26H51.251C51.2709 183.553 51.3547 183.797 51.5025 183.993C51.653 184.186 51.8533 184.332 52.1033 184.432C52.3561 184.528 52.6417 184.577 52.9598 184.577C53.2723 184.577 53.5436 184.531 53.7738 184.44C54.0067 184.349 54.1871 184.223 54.315 184.061C54.4428 183.899 54.5067 183.713 54.5067 183.503C54.5067 183.307 54.4485 183.142 54.332 183.009C54.2184 182.875 54.0508 182.761 53.8292 182.668C53.6104 182.574 53.3419 182.489 53.0238 182.412L52.0735 182.173C51.3377 181.994 50.7567 181.714 50.3306 181.334C49.9044 180.953 49.6928 180.44 49.6956 179.795C49.6928 179.267 49.8334 178.805 50.1175 178.411C50.4044 178.016 50.7979 177.707 51.2979 177.486C51.7979 177.264 52.3661 177.153 53.0025 177.153C53.6502 177.153 54.2155 177.264 54.6985 177.486C55.1843 177.707 55.5621 178.016 55.832 178.411C56.1019 178.805 56.2411 179.263 56.2496 179.783H54.4811ZM59.3712 177.273V186H57.5261V177.273H59.3712ZM60.4729 178.794V177.273H67.6406V178.794H64.9687V186H63.1448V178.794H60.4729ZM70.5821 177.273V186H68.737V177.273H70.5821ZM80.0361 181.636C80.0361 182.588 79.8557 183.398 79.4949 184.065C79.137 184.733 78.6483 185.243 78.029 185.595C77.4125 185.945 76.7194 186.119 75.9495 186.119C75.1739 186.119 74.4779 185.943 73.8614 185.591C73.2449 185.239 72.7577 184.729 72.3998 184.061C72.0418 183.393 71.8628 182.585 71.8628 181.636C71.8628 180.685 72.0418 179.875 72.3998 179.207C72.7577 178.54 73.2449 178.031 73.8614 177.682C74.4779 177.33 75.1739 177.153 75.9495 177.153C76.7194 177.153 77.4125 177.33 78.029 177.682C78.6483 178.031 79.137 178.54 79.4949 179.207C79.8557 179.875 80.0361 180.685 80.0361 181.636ZM78.1654 181.636C78.1654 181.02 78.0731 180.5 77.8884 180.077C77.7066 179.653 77.4495 179.332 77.1171 179.114C76.7847 178.895 76.3955 178.786 75.9495 178.786C75.5035 178.786 75.1143 178.895 74.7819 179.114C74.4495 179.332 74.191 179.653 74.0063 180.077C73.8245 180.5 73.7336 181.02 73.7336 181.636C73.7336 182.253 73.8245 182.773 74.0063 183.196C74.191 183.619 74.4495 183.94 74.7819 184.159C75.1143 184.378 75.5035 184.487 75.9495 184.487C76.3955 184.487 76.7847 184.378 77.1171 184.159C77.4495 183.94 77.7066 183.619 77.8884 183.196C78.0731 182.773 78.1654 182.253 78.1654 181.636ZM88.6187 177.273V186H87.0249L83.228 180.507H83.1641V186H81.319V177.273H82.9383L86.7053 182.761H86.782V177.273H88.6187ZM91.9043 177.273V186H90.0592V177.273H91.9043ZM100.638 177.273V186H99.0444L95.2476 180.507H95.1836V186H93.3385V177.273H94.9578L98.7248 182.761H98.8015V177.273H100.638ZM107.866 180.094C107.806 179.886 107.722 179.703 107.614 179.544C107.506 179.382 107.374 179.246 107.218 179.135C107.064 179.021 106.888 178.935 106.689 178.875C106.493 178.815 106.276 178.786 106.037 178.786C105.591 178.786 105.199 178.896 104.861 179.118C104.526 179.339 104.265 179.662 104.077 180.085C103.89 180.506 103.796 181.02 103.796 181.628C103.796 182.236 103.888 182.753 104.073 183.179C104.258 183.605 104.519 183.93 104.857 184.155C105.195 184.376 105.594 184.487 106.055 184.487C106.472 184.487 106.829 184.413 107.124 184.266C107.422 184.115 107.65 183.903 107.806 183.631C107.965 183.358 108.045 183.036 108.045 182.663L108.42 182.719H106.17V181.33H109.822V182.429C109.822 183.196 109.66 183.855 109.336 184.406C109.012 184.955 108.566 185.378 107.998 185.676C107.43 185.972 106.779 186.119 106.046 186.119C105.228 186.119 104.509 185.939 103.89 185.578C103.27 185.214 102.787 184.699 102.441 184.031C102.097 183.361 101.925 182.565 101.925 181.645C101.925 180.937 102.028 180.307 102.232 179.753C102.439 179.196 102.729 178.724 103.101 178.338C103.474 177.952 103.907 177.658 104.401 177.456C104.895 177.254 105.431 177.153 106.008 177.153C106.502 177.153 106.962 177.226 107.388 177.371C107.814 177.513 108.192 177.714 108.522 177.976C108.854 178.237 109.126 178.548 109.336 178.909C109.546 179.267 109.681 179.662 109.741 180.094H107.866Z" fill="#464646"/>
<path d="M558.057 186.119C557.608 186.116 557.175 186.041 556.757 185.893C556.342 185.746 555.97 185.506 555.641 185.173C555.311 184.841 555.05 184.401 554.857 183.852C554.666 183.304 554.571 182.631 554.571 181.832C554.574 181.099 554.658 180.445 554.822 179.868C554.99 179.288 555.229 178.797 555.538 178.393C555.851 177.99 556.224 177.683 556.659 177.473C557.094 177.26 557.581 177.153 558.121 177.153C558.703 177.153 559.217 177.267 559.663 177.494C560.109 177.719 560.467 178.024 560.737 178.411C561.01 178.797 561.175 179.23 561.232 179.71H559.412C559.341 179.406 559.192 179.168 558.964 178.994C558.737 178.821 558.456 178.734 558.121 178.734C557.553 178.734 557.121 178.982 556.825 179.476C556.533 179.97 556.384 180.642 556.378 181.491H556.438C556.568 181.233 556.744 181.013 556.966 180.831C557.19 180.646 557.445 180.506 557.729 180.409C558.016 180.31 558.318 180.26 558.636 180.26C559.153 180.26 559.614 180.382 560.017 180.626C560.42 180.868 560.739 181.2 560.972 181.624C561.205 182.047 561.321 182.531 561.321 183.077C561.321 183.668 561.183 184.193 560.908 184.653C560.635 185.114 560.253 185.474 559.761 185.736C559.273 185.994 558.705 186.122 558.057 186.119ZM558.048 184.67C558.332 184.67 558.587 184.602 558.811 184.466C559.036 184.33 559.212 184.145 559.339 183.912C559.467 183.679 559.531 183.418 559.531 183.128C559.531 182.838 559.467 182.578 559.339 182.348C559.214 182.118 559.041 181.935 558.82 181.798C558.598 181.662 558.345 181.594 558.061 181.594C557.848 181.594 557.651 181.634 557.469 181.713C557.29 181.793 557.132 181.903 556.996 182.045C556.862 182.187 556.757 182.352 556.68 182.54C556.604 182.724 556.565 182.922 556.565 183.132C556.565 183.413 556.629 183.67 556.757 183.903C556.888 184.136 557.064 184.322 557.286 184.462C557.51 184.601 557.764 184.67 558.048 184.67ZM565.733 186.119C565.13 186.119 564.594 186.009 564.122 185.787C563.653 185.565 563.281 185.26 563.005 184.871C562.73 184.482 562.586 184.036 562.575 183.533H564.365C564.385 183.871 564.527 184.145 564.791 184.355C565.055 184.565 565.369 184.67 565.733 184.67C566.023 184.67 566.278 184.607 566.5 184.479C566.724 184.348 566.899 184.168 567.024 183.938C567.152 183.705 567.216 183.437 567.216 183.136C567.216 182.83 567.15 182.56 567.02 182.327C566.892 182.094 566.714 181.912 566.487 181.781C566.26 181.651 566 181.584 565.707 181.581C565.452 181.581 565.203 181.634 564.961 181.739C564.723 181.844 564.537 181.987 564.403 182.169L562.763 181.875L563.176 177.273H568.511V178.781H564.697L564.471 180.967H564.523C564.676 180.751 564.907 180.572 565.217 180.43C565.527 180.288 565.873 180.217 566.257 180.217C566.782 180.217 567.251 180.341 567.663 180.588C568.075 180.835 568.4 181.175 568.639 181.607C568.878 182.036 568.996 182.53 568.993 183.089C568.996 183.678 568.859 184.2 568.584 184.658C568.311 185.112 567.929 185.47 567.437 185.732C566.949 185.99 566.38 186.119 565.733 186.119Z" fill="#111111"/>
<g clip-path="url(#clip2_244_62478)">
<path d="M580 179.202L574 185.602H586L580 179.202Z" fill="#03D28D"/>
</g>
<path d="M32 199C32 197.343 33.3431 196 35 196H583C584.657 196 586 197.343 586 199C586 200.657 584.657 202 583 202H35C33.3431 202 32 200.657 32 199Z" fill="#1E202F"/>
<path d="M32 199C32 197.343 33.3431 196 35 196H344C345.657 196 347 197.343 347 199C347 200.657 345.657 202 344 202H35C33.3431 202 32 200.657 32 199Z" fill="#FBC707"/>
<rect x="345.594" y="192" width="2" height="14" fill="#111111"/>
<path d="M40.7784 229.636C40.7784 230.588 40.598 231.398 40.2372 232.065C39.8793 232.733 39.3906 233.243 38.7713 233.595C38.1548 233.945 37.4616 234.119 36.6918 234.119C35.9162 234.119 35.2202 233.943 34.6037 233.591C33.9872 233.239 33.5 232.729 33.142 232.061C32.7841 231.393 32.6051 230.585 32.6051 229.636C32.6051 228.685 32.7841 227.875 33.142 227.207C33.5 226.54 33.9872 226.031 34.6037 225.682C35.2202 225.33 35.9162 225.153 36.6918 225.153C37.4616 225.153 38.1548 225.33 38.7713 225.682C39.3906 226.031 39.8793 226.54 40.2372 227.207C40.598 227.875 40.7784 228.685 40.7784 229.636ZM38.9077 229.636C38.9077 229.02 38.8153 228.5 38.6307 228.077C38.4489 227.653 38.1918 227.332 37.8594 227.114C37.527 226.895 37.1378 226.786 36.6918 226.786C36.2457 226.786 35.8565 226.895 35.5241 227.114C35.1918 227.332 34.9332 227.653 34.7486 228.077C34.5668 228.5 34.4759 229.02 34.4759 229.636C34.4759 230.253 34.5668 230.773 34.7486 231.196C34.9332 231.619 35.1918 231.94 35.5241 232.159C35.8565 232.378 36.2457 232.487 36.6918 232.487C37.1378 232.487 37.527 232.378 37.8594 232.159C38.1918 231.94 38.4489 231.619 38.6307 231.196C38.8153 230.773 38.9077 230.253 38.9077 229.636ZM42.0612 234V225.273H45.5044C46.1664 225.273 46.7303 225.399 47.1962 225.652C47.6621 225.902 48.0172 226.25 48.2615 226.696C48.5087 227.139 48.6323 227.651 48.6323 228.23C48.6323 228.81 48.5073 229.321 48.2573 229.764C48.0073 230.207 47.645 230.553 47.1706 230.8C46.699 231.047 46.128 231.17 45.4575 231.17H43.2629V229.692H45.1593C45.5144 229.692 45.807 229.631 46.0371 229.509C46.27 229.384 46.4433 229.212 46.557 228.993C46.6735 228.771 46.7317 228.517 46.7317 228.23C46.7317 227.94 46.6735 227.687 46.557 227.472C46.4433 227.253 46.27 227.084 46.0371 226.964C45.8041 226.842 45.5087 226.781 45.1507 226.781H43.9064V234H42.0612ZM49.7468 234V225.273H55.6275V226.794H51.5919V228.874H55.3249V230.395H51.5919V232.479H55.6445V234H49.7468ZM64.3101 225.273V234H62.7164L58.9195 228.507H58.8556V234H57.0104V225.273H58.6297L62.3968 230.761H62.4735V225.273H64.3101ZM67.5958 225.273V234H65.7506V225.273H67.5958ZM76.3296 225.273V234H74.7359L70.939 228.507H70.8751V234H69.0299V225.273H70.6492L74.4163 230.761H74.493V225.273H76.3296ZM83.5571 228.094C83.4974 227.886 83.4136 227.703 83.3057 227.544C83.1977 227.382 83.0656 227.246 82.9094 227.135C82.7559 227.021 82.5798 226.935 82.3809 226.875C82.1849 226.815 81.9676 226.786 81.729 226.786C81.2829 226.786 80.8909 226.896 80.5528 227.118C80.2176 227.339 79.9562 227.662 79.7687 228.085C79.5812 228.506 79.4875 229.02 79.4875 229.628C79.4875 230.236 79.5798 230.753 79.7645 231.179C79.9491 231.605 80.2105 231.93 80.5486 232.155C80.8866 232.376 81.2858 232.487 81.746 232.487C82.1636 232.487 82.5201 232.413 82.8156 232.266C83.1139 232.115 83.3412 231.903 83.4974 231.631C83.6565 231.358 83.7361 231.036 83.7361 230.663L84.1111 230.719H81.8611V229.33H85.513V230.429C85.513 231.196 85.3511 231.855 85.0272 232.406C84.7034 232.955 84.2574 233.378 83.6892 233.676C83.121 233.972 82.4704 234.119 81.7375 234.119C80.9193 234.119 80.2005 233.939 79.5812 233.578C78.9619 233.214 78.479 232.699 78.1324 232.031C77.7886 231.361 77.6167 230.565 77.6167 229.645C77.6167 228.937 77.719 228.307 77.9236 227.753C78.1309 227.196 78.4207 226.724 78.7929 226.338C79.165 225.952 79.5983 225.658 80.0926 225.456C80.5869 225.254 81.1224 225.153 81.6991 225.153C82.1934 225.153 82.6537 225.226 83.0798 225.371C83.5059 225.513 83.8838 225.714 84.2133 225.976C84.5457 226.237 84.817 226.548 85.0272 226.909C85.2375 227.267 85.3724 227.662 85.4321 228.094H83.5571ZM92.6021 234H89.5084V225.273H92.6277C93.5056 225.273 94.2612 225.447 94.8948 225.797C95.5283 226.143 96.0155 226.642 96.3564 227.293C96.7002 227.943 96.872 228.722 96.872 229.628C96.872 230.537 96.7002 231.318 96.3564 231.972C96.0155 232.625 95.5254 233.126 94.8862 233.476C94.2499 233.825 93.4885 234 92.6021 234ZM91.3536 232.419H92.5254C93.0709 232.419 93.5297 232.322 93.9019 232.129C94.2769 231.933 94.5581 231.631 94.7456 231.222C94.936 230.81 95.0311 230.278 95.0311 229.628C95.0311 228.983 94.936 228.456 94.7456 228.047C94.5581 227.638 94.2783 227.337 93.9061 227.143C93.534 226.95 93.0752 226.854 92.5297 226.854H91.3536V232.419ZM103.545 225.273H105.391V230.94C105.391 231.577 105.239 232.134 104.935 232.611C104.634 233.088 104.212 233.46 103.669 233.727C103.126 233.991 102.494 234.124 101.773 234.124C101.048 234.124 100.415 233.991 99.8722 233.727C99.3296 233.46 98.9077 233.088 98.6066 232.611C98.3054 232.134 98.1549 231.577 98.1549 230.94V225.273H100V230.783C100 231.115 100.072 231.411 100.217 231.669C100.365 231.928 100.572 232.131 100.84 232.278C101.107 232.426 101.418 232.5 101.773 232.5C102.131 232.5 102.442 232.426 102.706 232.278C102.973 232.131 103.179 231.928 103.324 231.669C103.472 231.411 103.545 231.115 103.545 230.783V225.273ZM106.825 234V225.273H112.705V226.794H108.67V228.874H112.403V230.395H108.67V232.479H112.723V234H106.825ZM114.088 234V225.273H115.934V232.479H119.675V234H114.088ZM125.547 227.783C125.513 227.439 125.367 227.172 125.108 226.982C124.85 226.791 124.499 226.696 124.056 226.696C123.755 226.696 123.501 226.739 123.293 226.824C123.086 226.906 122.927 227.021 122.816 227.169C122.708 227.317 122.654 227.484 122.654 227.672C122.648 227.828 122.681 227.964 122.752 228.081C122.826 228.197 122.927 228.298 123.054 228.384C123.182 228.466 123.33 228.538 123.498 228.601C123.665 228.661 123.844 228.712 124.035 228.754L124.819 228.942C125.199 229.027 125.549 229.141 125.867 229.283C126.185 229.425 126.461 229.599 126.694 229.807C126.927 230.014 127.107 230.259 127.235 230.54C127.366 230.821 127.432 231.143 127.435 231.507C127.432 232.041 127.296 232.504 127.026 232.896C126.759 233.286 126.373 233.588 125.867 233.804C125.364 234.017 124.758 234.124 124.047 234.124C123.343 234.124 122.729 234.016 122.206 233.8C121.687 233.584 121.28 233.264 120.988 232.841C120.698 232.415 120.546 231.888 120.532 231.26H122.317C122.337 231.553 122.421 231.797 122.569 231.993C122.719 232.186 122.92 232.332 123.17 232.432C123.422 232.528 123.708 232.577 124.026 232.577C124.339 232.577 124.61 232.531 124.84 232.44C125.073 232.349 125.253 232.223 125.381 232.061C125.509 231.899 125.573 231.713 125.573 231.503C125.573 231.307 125.515 231.142 125.398 231.009C125.285 230.875 125.117 230.761 124.895 230.668C124.677 230.574 124.408 230.489 124.09 230.412L123.14 230.173C122.404 229.994 121.823 229.714 121.397 229.334C120.971 228.953 120.759 228.44 120.762 227.795C120.759 227.267 120.9 226.805 121.184 226.411C121.471 226.016 121.864 225.707 122.364 225.486C122.864 225.264 123.432 225.153 124.069 225.153C124.716 225.153 125.282 225.264 125.765 225.486C126.251 225.707 126.628 226.016 126.898 226.411C127.168 226.805 127.307 227.263 127.316 227.783H125.547Z" fill="#464646"/>
<path d="M539.315 232.67V226.636H540.841V232.67H539.315ZM537.061 230.416V228.891H543.095V230.416H537.061ZM548.202 234.192C547.469 234.189 546.838 234.009 546.309 233.651C545.784 233.293 545.379 232.774 545.095 232.095C544.814 231.416 544.675 230.599 544.677 229.645C544.677 228.693 544.818 227.882 545.099 227.212C545.383 226.541 545.788 226.031 546.314 225.682C546.842 225.33 547.471 225.153 548.202 225.153C548.932 225.153 549.559 225.33 550.085 225.682C550.613 226.034 551.02 226.545 551.304 227.216C551.588 227.884 551.729 228.693 551.726 229.645C551.726 230.602 551.584 231.42 551.3 232.099C551.018 232.778 550.615 233.297 550.089 233.655C549.564 234.013 548.934 234.192 548.202 234.192ZM548.202 232.662C548.702 232.662 549.101 232.411 549.399 231.908C549.697 231.405 549.845 230.651 549.842 229.645C549.842 228.983 549.774 228.432 549.638 227.991C549.504 227.551 549.314 227.22 549.067 226.999C548.822 226.777 548.534 226.666 548.202 226.666C547.704 226.666 547.307 226.915 547.008 227.412C546.71 227.909 546.559 228.653 546.557 229.645C546.557 230.315 546.623 230.875 546.757 231.324C546.893 231.77 547.085 232.105 547.332 232.33C547.579 232.551 547.869 232.662 548.202 232.662ZM553.684 234.111C553.403 234.111 553.161 234.011 552.959 233.812C552.761 233.611 552.661 233.369 552.661 233.088C552.661 232.81 552.761 232.571 552.959 232.372C553.161 232.173 553.403 232.074 553.684 232.074C553.957 232.074 554.195 232.173 554.4 232.372C554.604 232.571 554.707 232.81 554.707 233.088C554.707 233.276 554.658 233.447 554.562 233.604C554.468 233.757 554.344 233.881 554.191 233.974C554.038 234.065 553.869 234.111 553.684 234.111ZM556.113 234L559.731 226.841V226.781H555.516V225.273H561.64V226.803L558.018 234H556.113ZM562.821 234V232.67L565.927 229.794C566.191 229.538 566.413 229.308 566.592 229.104C566.774 228.899 566.912 228.699 567.005 228.503C567.099 228.304 567.146 228.089 567.146 227.859C567.146 227.604 567.088 227.384 566.971 227.199C566.855 227.011 566.696 226.868 566.494 226.768C566.292 226.666 566.064 226.615 565.808 226.615C565.541 226.615 565.308 226.669 565.109 226.777C564.91 226.885 564.757 227.04 564.649 227.241C564.541 227.443 564.487 227.683 564.487 227.962H562.735C562.735 227.391 562.865 226.895 563.123 226.474C563.382 226.054 563.744 225.729 564.21 225.499C564.676 225.268 565.213 225.153 565.821 225.153C566.446 225.153 566.99 225.264 567.453 225.486C567.919 225.705 568.281 226.009 568.539 226.398C568.798 226.787 568.927 227.233 568.927 227.736C568.927 228.065 568.862 228.391 568.731 228.712C568.603 229.033 568.375 229.389 568.045 229.781C567.715 230.17 567.251 230.638 566.652 231.183L565.377 232.432V232.491H569.042V234H562.821Z" fill="#111111"/>
<path d="M580 233.599L574 227.199H586L580 233.599Z" fill="#FF4444"/>
<path d="M32 247C32 245.343 33.3431 244 35 244H583C584.657 244 586 245.343 586 247C586 248.657 584.657 250 583 250H35C33.3431 250 32 248.657 32 247Z" fill="#1E202F"/>
<path d="M32 247C32 245.343 33.3431 244 35 244H302C303.657 244 305 245.343 305 247C305 248.657 303.657 250 302 250H35C33.3431 250 32 248.657 32 247Z" fill="#FBC707"/>
<rect x="304.594" y="240" width="2" height="14" fill="#111111"/>
<path d="M40.4588 276.328H38.5923C38.5582 276.087 38.4886 275.872 38.3835 275.685C38.2784 275.494 38.1435 275.332 37.9787 275.199C37.8139 275.065 37.6236 274.963 37.4077 274.892C37.1946 274.821 36.9631 274.786 36.7131 274.786C36.2614 274.786 35.8679 274.898 35.5327 275.122C35.1974 275.344 34.9375 275.668 34.7528 276.094C34.5682 276.517 34.4759 277.031 34.4759 277.636C34.4759 278.259 34.5682 278.781 34.7528 279.205C34.9403 279.628 35.2017 279.947 35.5369 280.163C35.8722 280.379 36.2599 280.487 36.7003 280.487C36.9474 280.487 37.1761 280.455 37.3864 280.389C37.5994 280.324 37.7884 280.229 37.9531 280.104C38.1179 279.976 38.2543 279.821 38.3622 279.639C38.473 279.457 38.5497 279.25 38.5923 279.017L40.4588 279.026C40.4105 279.426 40.2898 279.812 40.0966 280.185C39.9063 280.554 39.6491 280.885 39.3253 281.178C39.0043 281.467 38.6207 281.697 38.1747 281.868C37.7315 282.036 37.2301 282.119 36.6705 282.119C35.892 282.119 35.196 281.943 34.5824 281.591C33.9716 281.239 33.4886 280.729 33.1335 280.061C32.7812 279.393 32.6051 278.585 32.6051 277.636C32.6051 276.685 32.7841 275.875 33.142 275.207C33.5 274.54 33.9858 274.031 34.5994 273.682C35.2131 273.33 35.9034 273.153 36.6705 273.153C37.1761 273.153 37.6449 273.224 38.0767 273.366C38.5114 273.509 38.8963 273.716 39.2315 273.989C39.5668 274.259 39.8395 274.589 40.0497 274.982C40.2628 275.374 40.3991 275.822 40.4588 276.328ZM41.698 282V273.273H43.5431V280.479H47.2846V282H41.698ZM53.8132 273.273H55.6583V278.94C55.6583 279.577 55.5064 280.134 55.2024 280.611C54.9012 281.088 54.4794 281.46 53.9368 281.727C53.3941 281.991 52.762 282.124 52.0405 282.124C51.316 282.124 50.6825 281.991 50.1399 281.727C49.5973 281.46 49.1754 281.088 48.8743 280.611C48.5731 280.134 48.4226 279.577 48.4226 278.94V273.273H50.2677V278.783C50.2677 279.115 50.3402 279.411 50.4851 279.669C50.6328 279.928 50.8402 280.131 51.1072 280.278C51.3743 280.426 51.6853 280.5 52.0405 280.5C52.3984 280.5 52.7095 280.426 52.9737 280.278C53.2407 280.131 53.4467 279.928 53.5916 279.669C53.7393 279.411 53.8132 279.115 53.8132 278.783V273.273ZM56.7601 274.794V273.273H63.9277V274.794H61.2558V282H59.4319V274.794H56.7601ZM72.3259 276.328H70.4595C70.4254 276.087 70.3558 275.872 70.2506 275.685C70.1455 275.494 70.0106 275.332 69.8458 275.199C69.681 275.065 69.4907 274.963 69.2748 274.892C69.0617 274.821 68.8302 274.786 68.5802 274.786C68.1285 274.786 67.735 274.898 67.3998 275.122C67.0646 275.344 66.8046 275.668 66.62 276.094C66.4353 276.517 66.343 277.031 66.343 277.636C66.343 278.259 66.4353 278.781 66.62 279.205C66.8075 279.628 67.0688 279.947 67.4041 280.163C67.7393 280.379 68.1271 280.487 68.5674 280.487C68.8146 280.487 69.0433 280.455 69.2535 280.389C69.4666 280.324 69.6555 280.229 69.8202 280.104C69.985 279.976 70.1214 279.821 70.2293 279.639C70.3401 279.457 70.4168 279.25 70.4595 279.017L72.3259 279.026C72.2776 279.426 72.1569 279.812 71.9637 280.185C71.7734 280.554 71.5163 280.885 71.1924 281.178C70.8714 281.467 70.4879 281.697 70.0418 281.868C69.5987 282.036 69.0972 282.119 68.5376 282.119C67.7592 282.119 67.0631 281.943 66.4495 281.591C65.8387 281.239 65.3558 280.729 65.0006 280.061C64.6484 279.393 64.4722 278.585 64.4722 277.636C64.4722 276.685 64.6512 275.875 65.0092 275.207C65.3671 274.54 65.8529 274.031 66.4666 273.682C67.0802 273.33 67.7705 273.153 68.5376 273.153C69.0433 273.153 69.512 273.224 69.9438 273.366C70.3785 273.509 70.7634 273.716 71.0987 273.989C71.4339 274.259 71.7066 274.589 71.9168 274.982C72.1299 275.374 72.2663 275.822 72.3259 276.328ZM73.5651 282V273.273H75.4103V276.874H79.156V273.273H80.9969V282H79.156V278.395H75.4103V282H73.5651ZM84.2794 273.273V282H82.4342V273.273H84.2794ZM93.0132 273.273V282H91.4195L87.6226 276.507H87.5587V282H85.7135V273.273H87.3328L91.0999 278.761H91.1766V273.273H93.0132ZM100.241 276.094C100.181 275.886 100.097 275.703 99.9892 275.544C99.8813 275.382 99.7492 275.246 99.5929 275.135C99.4395 275.021 99.2634 274.935 99.0645 274.875C98.8685 274.815 98.6512 274.786 98.4125 274.786C97.9665 274.786 97.5744 274.896 97.2364 275.118C96.9012 275.339 96.6398 275.662 96.4523 276.085C96.2648 276.506 96.171 277.02 96.171 277.628C96.171 278.236 96.2634 278.753 96.448 279.179C96.6327 279.605 96.8941 279.93 97.2321 280.155C97.5702 280.376 97.9693 280.487 98.4296 280.487C98.8472 280.487 99.2037 280.413 99.4992 280.266C99.7975 280.115 100.025 279.903 100.181 279.631C100.34 279.358 100.42 279.036 100.42 278.663L100.795 278.719H98.5446V277.33H102.197V278.429C102.197 279.196 102.035 279.855 101.711 280.406C101.387 280.955 100.941 281.378 100.373 281.676C99.8046 281.972 99.154 282.119 98.421 282.119C97.6029 282.119 96.8841 281.939 96.2648 281.578C95.6455 281.214 95.1625 280.699 94.8159 280.031C94.4722 279.361 94.3003 278.565 94.3003 277.645C94.3003 276.937 94.4026 276.307 94.6071 275.753C94.8145 275.196 95.1043 274.724 95.4764 274.338C95.8486 273.952 96.2818 273.658 96.7762 273.456C97.2705 273.254 97.806 273.153 98.3827 273.153C98.877 273.153 99.3372 273.226 99.7634 273.371C100.19 273.513 100.567 273.714 100.897 273.976C101.229 274.237 101.501 274.548 101.711 274.909C101.921 275.267 102.056 275.662 102.116 276.094H100.241Z" fill="#464646"/>
<path d="M535.315 280.67V274.636H536.841V280.67H535.315ZM533.061 278.416V276.891H539.095V278.416H533.061ZM544.577 273.273V282H542.731V275.024H542.68L540.682 276.277V274.641L542.842 273.273H544.577ZM549.754 282.119C549.152 282.119 548.615 282.009 548.143 281.787C547.675 281.565 547.303 281.26 547.027 280.871C546.751 280.482 546.608 280.036 546.597 279.533H548.386C548.406 279.871 548.548 280.145 548.812 280.355C549.077 280.565 549.391 280.67 549.754 280.67C550.044 280.67 550.3 280.607 550.521 280.479C550.746 280.348 550.92 280.168 551.045 279.938C551.173 279.705 551.237 279.437 551.237 279.136C551.237 278.83 551.172 278.56 551.041 278.327C550.913 278.094 550.736 277.912 550.508 277.781C550.281 277.651 550.021 277.584 549.729 277.581C549.473 277.581 549.224 277.634 548.983 277.739C548.744 277.844 548.558 277.987 548.425 278.169L546.784 277.875L547.197 273.273H552.533V274.781H548.719L548.493 276.967H548.544C548.697 276.751 548.929 276.572 549.239 276.43C549.548 276.288 549.895 276.217 550.278 276.217C550.804 276.217 551.273 276.341 551.685 276.588C552.097 276.835 552.422 277.175 552.66 277.607C552.899 278.036 553.017 278.53 553.014 279.089C553.017 279.678 552.881 280.2 552.605 280.658C552.332 281.112 551.95 281.47 551.459 281.732C550.97 281.99 550.402 282.119 549.754 282.119ZM555.014 282.111C554.733 282.111 554.491 282.011 554.29 281.812C554.091 281.611 553.991 281.369 553.991 281.088C553.991 280.81 554.091 280.571 554.29 280.372C554.491 280.173 554.733 280.074 555.014 280.074C555.287 280.074 555.525 280.173 555.73 280.372C555.934 280.571 556.037 280.81 556.037 281.088C556.037 281.276 555.988 281.447 555.892 281.604C555.798 281.757 555.674 281.881 555.521 281.974C555.368 282.065 555.199 282.111 555.014 282.111ZM560.133 273.273V282H558.288V275.024H558.237L556.238 276.277V274.641L558.399 273.273H560.133ZM565.545 282.192C564.812 282.189 564.182 282.009 563.653 281.651C563.128 281.293 562.723 280.774 562.439 280.095C562.157 279.416 562.018 278.599 562.021 277.645C562.021 276.693 562.162 275.882 562.443 275.212C562.727 274.541 563.132 274.031 563.657 273.682C564.186 273.33 564.815 273.153 565.545 273.153C566.275 273.153 566.903 273.33 567.429 273.682C567.957 274.034 568.363 274.545 568.647 275.216C568.932 275.884 569.072 276.693 569.069 277.645C569.069 278.602 568.927 279.42 568.643 280.099C568.362 280.778 567.959 281.297 567.433 281.655C566.907 282.013 566.278 282.192 565.545 282.192ZM565.545 280.662C566.045 280.662 566.444 280.411 566.743 279.908C567.041 279.405 567.189 278.651 567.186 277.645C567.186 276.983 567.118 276.432 566.981 275.991C566.848 275.551 566.657 275.22 566.41 274.999C566.166 274.777 565.878 274.666 565.545 274.666C565.048 274.666 564.65 274.915 564.352 275.412C564.054 275.909 563.903 276.653 563.9 277.645C563.9 278.315 563.967 278.875 564.101 279.324C564.237 279.77 564.429 280.105 564.676 280.33C564.923 280.551 565.213 280.662 565.545 280.662Z" fill="#111111"/>
<g clip-path="url(#clip3_244_62478)">
<path d="M580 275.202L574 281.602H586L580 275.202Z" fill="#03D28D"/>
</g>
<path d="M32 295C32 293.343 33.3431 292 35 292H583C584.657 292 586 293.343 586 295C586 296.657 584.657 298 583 298H35C33.3431 298 32 296.657 32 295Z" fill="#1E202F"/>
<path d="M32 295C32 293.343 33.3431 292 35 292H489C490.657 292 492 293.343 492 295C492 296.657 490.657 298 489 298H35C33.3432 298 32 296.657 32 295Z" fill="#FBC707"/>
<rect x="304.594" y="288" width="2" height="14" fill="#111111"/>
<rect width="59" height="281" transform="translate(610 19)" fill="#F4F5F7"/>
<g clip-path="url(#clip4_244_62478)">
<path d="M639.5 57C646.127 57 651.5 51.6274 651.5 45C651.5 38.3726 646.127 33 639.5 33C632.873 33 627.5 38.3726 627.5 45C627.5 51.6274 632.873 57 639.5 57Z" fill="#1F1F22"/>
<path fill-rule="evenodd" clip-rule="evenodd" d="M644.186 50.4654C645.303 49.5081 646.1 48.2315 646.47 46.8075C646.84 45.3835 646.764 43.8805 646.254 42.5007C645.743 41.1209 644.823 39.9306 643.615 39.0899C642.408 38.2493 640.972 37.7986 639.501 37.7986C638.03 37.7986 636.594 38.2493 635.387 39.0899C634.179 39.9306 633.258 41.1209 632.748 42.5007C632.238 43.8805 632.162 45.3835 632.532 46.8075C632.901 48.2315 633.698 49.5081 634.815 50.4654L633.252 52.2874C632.2 51.387 631.355 50.2691 630.777 49.0107C630.198 47.7524 629.899 46.3835 629.9 44.9984C629.9 42.4524 630.912 40.0106 632.712 38.2102C634.513 36.4099 636.954 35.3984 639.5 35.3984C640.761 35.3984 642.009 35.6467 643.174 36.1292C644.339 36.6116 645.397 37.3188 646.289 38.2102C647.18 39.1017 647.887 40.16 648.37 41.3247C648.852 42.4894 649.1 43.7377 649.1 44.9984C649.102 46.3837 648.803 47.7527 648.224 49.0113C647.646 50.2698 646.801 51.3879 645.748 52.2884L644.186 50.4654Z" fill="#CDCDCD" fill-opacity="0.1"/>
<path fill-rule="evenodd" clip-rule="evenodd" d="M644.186 50.4654C645.303 49.5081 646.1 48.2315 646.47 46.8075C646.84 45.3835 646.764 43.8805 646.254 42.5007C645.743 41.1209 644.823 39.9306 643.615 39.0899C642.408 38.2493 640.972 37.7986 639.501 37.7986C638.03 37.7986 636.594 38.2493 635.387 39.0899C634.179 39.9306 633.258 41.1209 632.748 42.5007C632.238 43.8805 632.162 45.3835 632.532 46.8075C632.901 48.2315 633.698 49.5081 634.815 50.4654L633.252 52.2874C632.2 51.387 631.355 50.2691 630.777 49.0107C630.198 47.7524 629.899 46.3835 629.9 44.9984C629.9 42.4524 630.912 40.0106 632.712 38.2102C634.513 36.4099 636.954 35.3984 639.5 35.3984C640.761 35.3984 642.009 35.6467 643.174 36.1292C644.339 36.6116 645.397 37.3188 646.289 38.2102C647.18 39.1017 647.887 40.16 648.37 41.3247C648.852 42.4894 649.1 43.7377 649.1 44.9984C649.102 46.3837 648.803 47.7527 648.224 49.0113C647.646 50.2698 646.801 51.3879 645.748 52.2884L644.186 50.4654Z" fill="#FE1F00"/>
<path d="M636.733 43.2323L635.246 44.0563V43.0223L636.968 41.9473H637.959V47.3993H636.733V43.2323ZM641.328 47.4833C641.082 47.4833 640.88 47.4743 640.724 47.4583C640.551 47.4383 640.379 47.4045 640.211 47.3573C640.042 47.3125 639.885 47.2324 639.749 47.1223C639.618 46.9952 639.517 46.84 639.455 46.6683C639.366 46.4499 639.323 46.2152 639.329 45.9793V43.3673C639.329 43.1093 639.369 42.8823 639.447 42.6873C639.511 42.512 639.615 42.3537 639.749 42.2243C639.856 42.1293 640.001 42.0543 640.186 41.9983C640.366 41.9377 640.551 41.8981 640.74 41.8803C640.953 41.8693 641.15 41.8633 641.328 41.8633C641.58 41.8633 641.782 41.8723 641.933 41.8883C642.104 41.9038 642.273 41.9377 642.437 41.9893C642.639 42.0513 642.798 42.1323 642.916 42.2333C643.034 42.3333 643.134 42.4793 643.218 42.6703C643.302 42.8603 643.344 43.0923 643.344 43.3673V45.9793C643.344 46.2373 643.302 46.4643 643.218 46.6593C643.155 46.8326 643.052 46.9883 642.916 47.1133C642.779 47.2214 642.622 47.3013 642.454 47.3483C642.264 47.4103 642.082 47.4463 641.908 47.4583C641.715 47.4767 641.522 47.485 641.328 47.4833ZM641.345 46.6933C641.58 46.6933 641.748 46.6793 641.849 46.6513C641.894 46.6392 641.935 46.6171 641.97 46.5866C642.005 46.5561 642.033 46.518 642.051 46.4753C642.084 46.3913 642.101 46.2543 642.101 46.0633V43.2833C642.101 43.0933 642.084 42.9553 642.051 42.8713C642.034 42.829 642.006 42.7916 641.971 42.7623C641.936 42.733 641.894 42.7128 641.849 42.7033C641.749 42.6703 641.58 42.6533 641.345 42.6533C641.105 42.6533 640.931 42.6703 640.825 42.7033C640.78 42.7128 640.739 42.733 640.703 42.7623C640.668 42.7916 640.641 42.829 640.623 42.8713C640.589 42.9553 640.573 43.0923 640.573 43.2833V46.0633C640.573 46.2533 640.589 46.3913 640.623 46.4753C640.656 46.5593 640.723 46.6183 640.824 46.6513C640.931 46.6793 641.104 46.6933 641.345 46.6933Z" fill="#FE1F00"/>
</g>
<path d="M635.463 90.1193C634.807 90.1193 634.223 90.0128 633.712 89.7997C633.203 89.5838 632.804 89.2898 632.514 88.9176C632.224 88.5455 632.08 88.1236 632.08 87.652C632.08 87.2884 632.162 86.9545 632.327 86.6506C632.494 86.3438 632.722 86.0895 633.009 85.8878C633.295 85.6832 633.616 85.5526 633.972 85.4957V85.4361C633.506 85.3423 633.128 85.1165 632.838 84.7585C632.548 84.3977 632.403 83.9787 632.403 83.5014C632.403 83.0497 632.536 82.6477 632.8 82.2955C633.064 81.9403 633.426 81.6619 633.886 81.4602C634.349 81.2557 634.875 81.1534 635.463 81.1534C636.051 81.1534 636.575 81.2557 637.036 81.4602C637.499 81.6648 637.862 81.9446 638.126 82.2997C638.391 82.652 638.524 83.0526 638.527 83.5014C638.524 83.9815 638.376 84.4006 638.084 84.7585C637.791 85.1165 637.416 85.3423 636.959 85.4361V85.4957C637.308 85.5526 637.625 85.6832 637.909 85.8878C638.196 86.0895 638.423 86.3438 638.591 86.6506C638.761 86.9545 638.848 87.2884 638.851 87.652C638.848 88.1236 638.702 88.5455 638.412 88.9176C638.122 89.2898 637.722 89.5838 637.21 89.7997C636.702 90.0128 636.119 90.1193 635.463 90.1193ZM635.463 88.7642C635.756 88.7642 636.011 88.7116 636.23 88.6065C636.449 88.4986 636.619 88.3509 636.741 88.1634C636.866 87.973 636.929 87.7543 636.929 87.5071C636.929 87.2543 636.865 87.0312 636.737 86.8381C636.609 86.642 636.436 86.4886 636.217 86.3778C635.999 86.2642 635.747 86.2074 635.463 86.2074C635.182 86.2074 634.93 86.2642 634.709 86.3778C634.487 86.4886 634.313 86.642 634.185 86.8381C634.06 87.0312 633.997 87.2543 633.997 87.5071C633.997 87.7543 634.058 87.973 634.18 88.1634C634.303 88.3509 634.474 88.4986 634.696 88.6065C634.918 88.7116 635.173 88.7642 635.463 88.7642ZM635.463 84.8651C635.707 84.8651 635.925 84.8153 636.115 84.7159C636.305 84.6165 636.455 84.4787 636.562 84.3026C636.67 84.1264 636.724 83.9233 636.724 83.6932C636.724 83.4659 636.67 83.267 636.562 83.0966C636.455 82.9233 636.307 82.7884 636.119 82.6918C635.932 82.5923 635.713 82.5426 635.463 82.5426C635.216 82.5426 634.997 82.5923 634.807 82.6918C634.616 82.7884 634.467 82.9233 634.359 83.0966C634.254 83.267 634.202 83.4659 634.202 83.6932C634.202 83.9233 634.256 84.1264 634.364 84.3026C634.472 84.4787 634.621 84.6165 634.811 84.7159C635.001 84.8153 635.219 84.8651 635.463 84.8651ZM639.925 88.4659V87.0128L643.568 81.2727H644.821V83.2841H644.08L641.783 86.919V86.9872H646.96V88.4659H639.925ZM644.114 90V88.0227L644.148 87.3793V81.2727H645.878V90H644.114Z" fill="#111111"/>
<path d="M636.557 138.119C636.108 138.116 635.675 138.041 635.257 137.893C634.842 137.746 634.47 137.506 634.141 137.173C633.811 136.841 633.55 136.401 633.357 135.852C633.166 135.304 633.071 134.631 633.071 133.832C633.074 133.099 633.158 132.445 633.322 131.868C633.49 131.288 633.729 130.797 634.038 130.393C634.351 129.99 634.724 129.683 635.159 129.473C635.594 129.26 636.081 129.153 636.621 129.153C637.203 129.153 637.717 129.267 638.163 129.494C638.609 129.719 638.967 130.024 639.237 130.411C639.51 130.797 639.675 131.23 639.732 131.71H637.912C637.841 131.406 637.692 131.168 637.464 130.994C637.237 130.821 636.956 130.734 636.621 130.734C636.053 130.734 635.621 130.982 635.325 131.476C635.033 131.97 634.884 132.642 634.878 133.491H634.938C635.068 133.233 635.244 133.013 635.466 132.831C635.69 132.646 635.945 132.506 636.229 132.409C636.516 132.31 636.818 132.26 637.136 132.26C637.653 132.26 638.114 132.382 638.517 132.626C638.92 132.868 639.239 133.2 639.472 133.624C639.705 134.047 639.821 134.531 639.821 135.077C639.821 135.668 639.683 136.193 639.408 136.653C639.135 137.114 638.753 137.474 638.261 137.736C637.773 137.994 637.205 138.122 636.557 138.119ZM636.548 136.67C636.832 136.67 637.087 136.602 637.311 136.466C637.536 136.33 637.712 136.145 637.839 135.912C637.967 135.679 638.031 135.418 638.031 135.128C638.031 134.838 637.967 134.578 637.839 134.348C637.714 134.118 637.541 133.935 637.32 133.798C637.098 133.662 636.845 133.594 636.561 133.594C636.348 133.594 636.151 133.634 635.969 133.713C635.79 133.793 635.632 133.903 635.496 134.045C635.362 134.187 635.257 134.352 635.18 134.54C635.104 134.724 635.065 134.922 635.065 135.132C635.065 135.413 635.129 135.67 635.257 135.903C635.388 136.136 635.564 136.322 635.786 136.462C636.01 136.601 636.264 136.67 636.548 136.67ZM644.842 129.273V138H642.997V131.024H642.946L640.947 132.277V130.641L643.108 129.273H644.842Z" fill="#111111"/>
<path d="M635.557 186.119C635.108 186.116 634.675 186.041 634.257 185.893C633.842 185.746 633.47 185.506 633.141 185.173C632.811 184.841 632.55 184.401 632.357 183.852C632.166 183.304 632.071 182.631 632.071 181.832C632.074 181.099 632.158 180.445 632.322 179.868C632.49 179.288 632.729 178.797 633.038 178.393C633.351 177.99 633.724 177.683 634.159 177.473C634.594 177.26 635.081 177.153 635.621 177.153C636.203 177.153 636.717 177.267 637.163 177.494C637.609 177.719 637.967 178.024 638.237 178.411C638.51 178.797 638.675 179.23 638.732 179.71H636.912C636.841 179.406 636.692 179.168 636.464 178.994C636.237 178.821 635.956 178.734 635.621 178.734C635.053 178.734 634.621 178.982 634.325 179.476C634.033 179.97 633.884 180.642 633.878 181.491H633.938C634.068 181.233 634.244 181.013 634.466 180.831C634.69 180.646 634.945 180.506 635.229 180.409C635.516 180.31 635.818 180.26 636.136 180.26C636.653 180.26 637.114 180.382 637.517 180.626C637.92 180.868 638.239 181.2 638.472 181.624C638.705 182.047 638.821 182.531 638.821 183.077C638.821 183.668 638.683 184.193 638.408 184.653C638.135 185.114 637.753 185.474 637.261 185.736C636.773 185.994 636.205 186.122 635.557 186.119ZM635.548 184.67C635.832 184.67 636.087 184.602 636.311 184.466C636.536 184.33 636.712 184.145 636.839 183.912C636.967 183.679 637.031 183.418 637.031 183.128C637.031 182.838 636.967 182.578 636.839 182.348C636.714 182.118 636.541 181.935 636.32 181.798C636.098 181.662 635.845 181.594 635.561 181.594C635.348 181.594 635.151 181.634 634.969 181.713C634.79 181.793 634.632 181.903 634.496 182.045C634.362 182.187 634.257 182.352 634.18 182.54C634.104 182.724 634.065 182.922 634.065 183.132C634.065 183.413 634.129 183.67 634.257 183.903C634.388 184.136 634.564 184.322 634.786 184.462C635.01 184.601 635.264 184.67 635.548 184.67ZM643.233 186.119C642.63 186.119 642.094 186.009 641.622 185.787C641.153 185.565 640.781 185.26 640.505 184.871C640.23 184.482 640.086 184.036 640.075 183.533H641.865C641.885 183.871 642.027 184.145 642.291 184.355C642.555 184.565 642.869 184.67 643.233 184.67C643.523 184.67 643.778 184.607 644 184.479C644.224 184.348 644.399 184.168 644.524 183.938C644.652 183.705 644.716 183.437 644.716 183.136C644.716 182.83 644.65 182.56 644.52 182.327C644.392 182.094 644.214 181.912 643.987 181.781C643.76 181.651 643.5 181.584 643.207 181.581C642.952 181.581 642.703 181.634 642.461 181.739C642.223 181.844 642.037 181.987 641.903 182.169L640.263 181.875L640.676 177.273H646.011V178.781H642.197L641.971 180.967H642.023C642.176 180.751 642.407 180.572 642.717 180.43C643.027 180.288 643.373 180.217 643.757 180.217C644.282 180.217 644.751 180.341 645.163 180.588C645.575 180.835 645.9 181.175 646.139 181.607C646.378 182.036 646.496 182.53 646.493 183.089C646.496 183.678 646.359 184.2 646.084 184.658C645.811 185.112 645.429 185.47 644.937 185.732C644.449 185.99 643.88 186.119 643.233 186.119Z" fill="#111111"/>
<path d="M626.315 232.67V226.636H627.841V232.67H626.315ZM624.061 230.416V228.891H630.095V230.416H624.061ZM635.577 225.273V234H633.731V227.024H633.68L631.682 228.277V226.641L633.842 225.273H635.577ZM638.176 234.111C637.895 234.111 637.653 234.011 637.452 233.812C637.253 233.611 637.153 233.369 637.153 233.088C637.153 232.81 637.253 232.571 637.452 232.372C637.653 232.173 637.895 232.074 638.176 232.074C638.449 232.074 638.687 232.173 638.892 232.372C639.097 232.571 639.199 232.81 639.199 233.088C639.199 233.276 639.151 233.447 639.054 233.604C638.96 233.757 638.837 233.881 638.683 233.974C638.53 234.065 638.361 234.111 638.176 234.111ZM643.705 234.119C643.103 234.119 642.566 234.009 642.095 233.787C641.626 233.565 641.254 233.26 640.978 232.871C640.703 232.482 640.559 232.036 640.548 231.533H642.337C642.357 231.871 642.499 232.145 642.764 232.355C643.028 232.565 643.342 232.67 643.705 232.67C643.995 232.67 644.251 232.607 644.472 232.479C644.697 232.348 644.872 232.168 644.997 231.938C645.124 231.705 645.188 231.437 645.188 231.136C645.188 230.83 645.123 230.56 644.992 230.327C644.864 230.094 644.687 229.912 644.46 229.781C644.232 229.651 643.972 229.584 643.68 229.581C643.424 229.581 643.176 229.634 642.934 229.739C642.695 229.844 642.509 229.987 642.376 230.169L640.735 229.875L641.149 225.273H646.484V226.781H642.67L642.444 228.967H642.495C642.649 228.751 642.88 228.572 643.19 228.43C643.499 228.288 643.846 228.217 644.23 228.217C644.755 228.217 645.224 228.341 645.636 228.588C646.048 228.835 646.373 229.175 646.612 229.607C646.85 230.036 646.968 230.53 646.965 231.089C646.968 231.678 646.832 232.2 646.556 232.658C646.284 233.112 645.901 233.47 645.41 233.732C644.921 233.99 644.353 234.119 643.705 234.119ZM651.394 234.119C650.758 234.119 650.191 234.01 649.694 233.791C649.2 233.57 648.809 233.266 648.522 232.879C648.238 232.49 648.092 232.041 648.083 231.533H649.941C649.952 231.746 650.022 231.933 650.15 232.095C650.28 232.254 650.454 232.378 650.67 232.466C650.886 232.554 651.128 232.598 651.398 232.598C651.68 232.598 651.928 232.548 652.144 232.449C652.36 232.349 652.529 232.212 652.651 232.036C652.773 231.859 652.834 231.656 652.834 231.426C652.834 231.193 652.769 230.987 652.638 230.808C652.511 230.626 652.326 230.484 652.084 230.382C651.846 230.28 651.562 230.229 651.232 230.229H650.418V228.874H651.232C651.511 228.874 651.756 228.825 651.969 228.729C652.185 228.632 652.353 228.499 652.472 228.328C652.592 228.155 652.651 227.953 652.651 227.723C652.651 227.504 652.599 227.312 652.494 227.148C652.391 226.98 652.246 226.849 652.059 226.756C651.874 226.662 651.658 226.615 651.411 226.615C651.161 226.615 650.932 226.661 650.725 226.751C650.518 226.839 650.351 226.966 650.226 227.131C650.101 227.295 650.035 227.489 650.026 227.71H648.258C648.266 227.207 648.41 226.764 648.688 226.381C648.967 225.997 649.342 225.697 649.813 225.482C650.288 225.263 650.823 225.153 651.42 225.153C652.022 225.153 652.549 225.263 653.001 225.482C653.452 225.7 653.803 225.996 654.053 226.368C654.306 226.737 654.431 227.152 654.428 227.612C654.431 228.101 654.279 228.509 653.972 228.835C653.668 229.162 653.272 229.369 652.783 229.457V229.526C653.425 229.608 653.914 229.831 654.249 230.195C654.587 230.555 654.755 231.007 654.752 231.55C654.755 232.047 654.611 232.489 654.322 232.875C654.035 233.261 653.638 233.565 653.133 233.787C652.627 234.009 652.048 234.119 651.394 234.119Z" fill="#111111"/>
<path d="M625.315 280.67V274.636H626.841V280.67H625.315ZM623.061 278.416V276.891H629.095V278.416H623.061ZM634.035 282.119C633.379 282.119 632.795 282.013 632.284 281.8C631.775 281.584 631.376 281.29 631.086 280.918C630.797 280.545 630.652 280.124 630.652 279.652C630.652 279.288 630.734 278.955 630.899 278.651C631.067 278.344 631.294 278.089 631.581 277.888C631.868 277.683 632.189 277.553 632.544 277.496V277.436C632.078 277.342 631.7 277.116 631.41 276.759C631.121 276.398 630.976 275.979 630.976 275.501C630.976 275.05 631.108 274.648 631.372 274.295C631.636 273.94 631.998 273.662 632.459 273.46C632.922 273.256 633.447 273.153 634.035 273.153C634.623 273.153 635.148 273.256 635.608 273.46C636.071 273.665 636.434 273.945 636.699 274.3C636.963 274.652 637.096 275.053 637.099 275.501C637.096 275.982 636.949 276.401 636.656 276.759C636.363 277.116 635.988 277.342 635.531 277.436V277.496C635.88 277.553 636.197 277.683 636.481 277.888C636.768 278.089 636.996 278.344 637.163 278.651C637.334 278.955 637.42 279.288 637.423 279.652C637.42 280.124 637.274 280.545 636.984 280.918C636.694 281.29 636.294 281.584 635.782 281.8C635.274 282.013 634.692 282.119 634.035 282.119ZM634.035 280.764C634.328 280.764 634.584 280.712 634.802 280.607C635.021 280.499 635.192 280.351 635.314 280.163C635.439 279.973 635.501 279.754 635.501 279.507C635.501 279.254 635.437 279.031 635.309 278.838C635.182 278.642 635.008 278.489 634.79 278.378C634.571 278.264 634.319 278.207 634.035 278.207C633.754 278.207 633.503 278.264 633.281 278.378C633.059 278.489 632.885 278.642 632.757 278.838C632.632 279.031 632.569 279.254 632.569 279.507C632.569 279.754 632.63 279.973 632.753 280.163C632.875 280.351 633.047 280.499 633.268 280.607C633.49 280.712 633.746 280.764 634.035 280.764ZM634.035 276.865C634.28 276.865 634.497 276.815 634.687 276.716C634.878 276.616 635.027 276.479 635.135 276.303C635.243 276.126 635.297 275.923 635.297 275.693C635.297 275.466 635.243 275.267 635.135 275.097C635.027 274.923 634.879 274.788 634.692 274.692C634.504 274.592 634.285 274.543 634.035 274.543C633.788 274.543 633.569 274.592 633.379 274.692C633.189 274.788 633.04 274.923 632.932 275.097C632.827 275.267 632.774 275.466 632.774 275.693C632.774 275.923 632.828 276.126 632.936 276.303C633.044 276.479 633.193 276.616 633.383 276.716C633.574 276.815 633.791 276.865 634.035 276.865ZM639.461 282.111C639.18 282.111 638.939 282.011 638.737 281.812C638.538 281.611 638.439 281.369 638.439 281.088C638.439 280.81 638.538 280.571 638.737 280.372C638.939 280.173 639.18 280.074 639.461 280.074C639.734 280.074 639.973 280.173 640.177 280.372C640.382 280.571 640.484 280.81 640.484 281.088C640.484 281.276 640.436 281.447 640.339 281.604C640.245 281.757 640.122 281.881 639.968 281.974C639.815 282.065 639.646 282.111 639.461 282.111ZM644.871 282.119C644.422 282.116 643.989 282.041 643.572 281.893C643.157 281.746 642.785 281.506 642.455 281.173C642.125 280.841 641.864 280.401 641.671 279.852C641.481 279.304 641.385 278.631 641.385 277.832C641.388 277.099 641.472 276.445 641.637 275.868C641.804 275.288 642.043 274.797 642.353 274.393C642.665 273.99 643.039 273.683 643.473 273.473C643.908 273.26 644.395 273.153 644.935 273.153C645.518 273.153 646.032 273.267 646.478 273.494C646.924 273.719 647.282 274.024 647.552 274.411C647.824 274.797 647.989 275.23 648.046 275.71H646.226C646.155 275.406 646.006 275.168 645.779 274.994C645.552 274.821 645.27 274.734 644.935 274.734C644.367 274.734 643.935 274.982 643.64 275.476C643.347 275.97 643.198 276.642 643.192 277.491H643.252C643.383 277.233 643.559 277.013 643.78 276.831C644.005 276.646 644.259 276.506 644.543 276.409C644.83 276.31 645.133 276.26 645.451 276.26C645.968 276.26 646.428 276.382 646.831 276.626C647.235 276.868 647.553 277.2 647.786 277.624C648.019 278.047 648.135 278.531 648.135 279.077C648.135 279.668 647.998 280.193 647.722 280.653C647.449 281.114 647.067 281.474 646.576 281.736C646.087 281.994 645.519 282.122 644.871 282.119ZM644.863 280.67C645.147 280.67 645.401 280.602 645.625 280.466C645.85 280.33 646.026 280.145 646.154 279.912C646.282 279.679 646.346 279.418 646.346 279.128C646.346 278.838 646.282 278.578 646.154 278.348C646.029 278.118 645.856 277.935 645.634 277.798C645.412 277.662 645.16 277.594 644.875 277.594C644.662 277.594 644.465 277.634 644.283 277.713C644.104 277.793 643.947 277.903 643.81 278.045C643.677 278.187 643.572 278.352 643.495 278.54C643.418 278.724 643.38 278.922 643.38 279.132C643.38 279.413 643.444 279.67 643.572 279.903C643.702 280.136 643.878 280.322 644.1 280.462C644.324 280.601 644.579 280.67 644.863 280.67ZM652.615 282.119C651.959 282.119 651.375 282.013 650.864 281.8C650.355 281.584 649.956 281.29 649.666 280.918C649.377 280.545 649.232 280.124 649.232 279.652C649.232 279.288 649.314 278.955 649.479 278.651C649.647 278.344 649.874 278.089 650.161 277.888C650.448 277.683 650.769 277.553 651.124 277.496V277.436C650.658 277.342 650.28 277.116 649.99 276.759C649.701 276.398 649.556 275.979 649.556 275.501C649.556 275.05 649.688 274.648 649.952 274.295C650.216 273.94 650.578 273.662 651.039 273.46C651.502 273.256 652.027 273.153 652.615 273.153C653.203 273.153 653.728 273.256 654.188 273.46C654.651 273.665 655.014 273.945 655.279 274.3C655.543 274.652 655.676 275.053 655.679 275.501C655.676 275.982 655.529 276.401 655.236 276.759C654.943 277.116 654.568 277.342 654.111 277.436V277.496C654.461 277.553 654.777 277.683 655.061 277.888C655.348 278.089 655.576 278.344 655.743 278.651C655.914 278.955 656 279.288 656.003 279.652C656 280.124 655.854 280.545 655.564 280.918C655.274 281.29 654.874 281.584 654.363 281.8C653.854 282.013 653.272 282.119 652.615 282.119ZM652.615 280.764C652.908 280.764 653.164 280.712 653.382 280.607C653.601 280.499 653.772 280.351 653.894 280.163C654.019 279.973 654.081 279.754 654.081 279.507C654.081 279.254 654.017 279.031 653.889 278.838C653.762 278.642 653.588 278.489 653.37 278.378C653.151 278.264 652.899 278.207 652.615 278.207C652.334 278.207 652.083 278.264 651.861 278.378C651.639 278.489 651.465 278.642 651.337 278.838C651.212 279.031 651.149 279.254 651.149 279.507C651.149 279.754 651.211 279.973 651.333 280.163C651.455 280.351 651.627 280.499 651.848 280.607C652.07 280.712 652.326 280.764 652.615 280.764ZM652.615 276.865C652.86 276.865 653.077 276.815 653.267 276.716C653.458 276.616 653.607 276.479 653.715 276.303C653.823 276.126 653.877 275.923 653.877 275.693C653.877 275.466 653.823 275.267 653.715 275.097C653.607 274.923 653.459 274.788 653.272 274.692C653.084 274.592 652.865 274.543 652.615 274.543C652.368 274.543 652.149 274.592 651.959 274.692C651.769 274.788 651.62 274.923 651.512 275.097C651.407 275.267 651.354 275.466 651.354 275.693C651.354 275.923 651.408 276.126 651.516 276.303C651.624 276.479 651.773 276.616 651.963 276.716C652.154 276.815 652.371 276.865 652.615 276.865Z" fill="#111111"/>
<rect x="0.5" y="0.5" width="700" height="351" rx="7.5" stroke="#F5F5F5"/>
<defs>
<clipPath id="clip0_244_62478">
<rect width="12" height="12" fill="white" transform="translate(574 80)"/>
</clipPath>
<clipPath id="clip1_244_62478">
<rect width="12" height="12" fill="white" transform="translate(574 128)"/>
</clipPath>
<clipPath id="clip2_244_62478">
<rect width="12" height="12" fill="white" transform="translate(574 176)"/>
</clipPath>
<clipPath id="clip3_244_62478">
<rect width="12" height="12" fill="white" transform="translate(574 272)"/>
</clipPath>
<clipPath id="clip4_244_62478">
<rect width="24" height="24" fill="white" transform="translate(627.5 33)"/>
</clipPath>
</defs>
</svg>
