<svg width="25" height="24" viewBox="0 0 25 24" fill="none" xmlns="http://www.w3.org/2000/svg">
<path d="M10.3899 15.955C10.6399 15.46 10.4449 14.86 9.95488 14.61L8.40988 13.825C8.72488 13.62 9.09988 13.5 9.49988 13.5C10.6049 13.5 11.4999 14.395 11.4999 15.5C11.4999 16.605 10.6049 17.5 9.49988 17.5C8.42988 17.5 7.55988 16.66 7.50488 15.605L9.04488 16.39C9.18988 16.465 9.34488 16.5 9.49988 16.5C9.86488 16.5 10.2149 16.3 10.3899 15.955Z" fill="#111111"/>
<path d="M15 6.5C13.345 6.5 12 7.845 12 9.5C12 11.155 13.345 12.5 15 12.5C16.655 12.5 18 11.155 18 9.5C18 7.845 16.655 6.5 15 6.5ZM15 11.5C13.895 11.5 13 10.605 13 9.5C13 8.395 13.895 7.5 15 7.5C16.105 7.5 17 8.395 17 9.5C17 10.605 16.105 11.5 15 11.5Z" fill="#111111"/>
<path d="M22.5001 12C22.5001 17.525 18.0251 22 12.5001 22C7.34506 22 3.10506 18.105 2.56006 13.095L6.53006 15.11C6.51006 15.24 6.50006 15.37 6.50006 15.5C6.50006 17.155 7.84506 18.5 9.50006 18.5C11.1551 18.5 12.5001 17.155 12.5001 15.5C12.5001 15.415 12.4951 15.335 12.4851 15.25C12.7001 15.12 12.9251 14.98 13.1651 14.835C13.8601 14.42 14.6251 13.95 15.2401 13.49C17.3351 13.365 19.0001 11.63 19.0001 9.5C19.0001 7.29 17.2101 5.5 15.0001 5.5C12.7901 5.5 11.0001 7.29 11.0001 9.5C11.0001 9.545 11.0051 9.59 11.0051 9.64C10.5951 10.21 10.1901 10.88 9.82506 11.49C9.59006 11.875 9.37006 12.24 9.18506 12.515C8.50506 12.585 7.90006 12.885 7.43006 13.33L2.56506 10.855C3.13506 5.87 7.36506 2 12.5001 2C18.0251 2 22.5001 6.475 22.5001 12Z" fill="black"/>
</svg>
