<svg width="16" height="17" viewBox="0 0 16 17" fill="none" xmlns="http://www.w3.org/2000/svg">
<rect width="16" height="16" transform="translate(0 0.5)" fill="white" fill-opacity="0.01"/>
<path fill-rule="evenodd" clip-rule="evenodd" d="M7.99996 13.8337C6.58547 13.8337 5.22892 13.2718 4.22872 12.2716C3.22853 11.2714 2.66663 9.91481 2.66663 8.50033C2.66663 7.08584 3.22853 5.72928 4.22872 4.72909C5.22892 3.7289 6.58547 3.16699 7.99996 3.16699C9.41445 3.16699 10.771 3.7289 11.7712 4.72909C12.7714 5.72928 13.3333 7.08584 13.3333 8.50033C13.3333 9.91481 12.7714 11.2714 11.7712 12.2716C10.771 13.2718 9.41445 13.8337 7.99996 13.8337ZM8.90929 6.52433L7.47463 9.26433L6.44596 8.33766C6.38087 8.27909 6.30488 8.23391 6.22233 8.20471C6.13978 8.17551 6.05228 8.16285 5.96484 8.16747C5.8774 8.17208 5.79172 8.19387 5.7127 8.23159C5.63368 8.26931 5.56286 8.32223 5.50429 8.38732C5.44572 8.45242 5.40055 8.52841 5.37135 8.61096C5.34214 8.69351 5.32949 8.781 5.3341 8.86844C5.33871 8.95589 5.3605 9.04156 5.39823 9.12058C5.43595 9.19961 5.48887 9.27042 5.55396 9.32899L7.22063 10.829C7.29614 10.897 7.3862 10.9468 7.48393 10.9747C7.58166 11.0026 7.68447 11.0077 7.7845 10.9898C7.88452 10.9718 7.97913 10.9313 8.06107 10.8712C8.14301 10.8111 8.21013 10.733 8.25729 10.643L10.0906 7.14299C10.1727 6.98634 10.1891 6.80351 10.1364 6.63473C10.0836 6.46594 9.96595 6.32503 9.80929 6.24299C9.65264 6.16095 9.46981 6.1445 9.30103 6.19726C9.13224 6.25002 8.99133 6.36767 8.90929 6.52433Z" fill="#00875A"/>
</svg>
