<svg width="32" height="33" viewBox="0 0 32 33" fill="none" xmlns="http://www.w3.org/2000/svg">
<path fill-rule="evenodd" clip-rule="evenodd" d="M4 16.5C4 15.9477 4.44772 15.5 5 15.5H27C27.5523 15.5 28 15.9477 28 16.5C28 17.0523 27.5523 17.5 27 17.5H5C4.44772 17.5 4 17.0523 4 16.5Z" fill="black"/>
<path fill-rule="evenodd" clip-rule="evenodd" d="M17.2929 6.79289C17.6834 6.40237 18.3166 6.40237 18.7071 6.79289L27.7071 15.7929C28.0976 16.1834 28.0976 16.8166 27.7071 17.2071L18.7071 26.2071C18.3166 26.5976 17.6834 26.5976 17.2929 26.2071C16.9024 25.8166 16.9024 25.1834 17.2929 24.7929L25.5858 16.5L17.2929 8.20711C16.9024 7.81658 16.9024 7.18342 17.2929 6.79289Z" fill="black"/>
</svg>
