<svg width="9" height="12" viewBox="0 0 9 12" fill="none" xmlns="http://www.w3.org/2000/svg">
<g clip-path="url(#clip0_60_8463)">
<path d="M1.65024 2.35C1.65024 1.05 2.80024 0 4.21024 0C5.62024 0 6.77024 1.05 6.77024 2.35C6.77024 3.65 5.62024 4.71 4.21024 4.71C2.80024 4.71 1.65024 3.65 1.65024 2.35ZM8.47024 7.96C8.30024 6.88 6.47024 6.02 4.24024 6.02C2.01024 6.02 0.180237 6.88 0.0202367 7.96H0.000236686V11.88C0.000236686 11.88 -0.00976332 12 0.100237 12H8.37024C8.37024 12 8.48024 12.02 8.48024 11.89V7.96H8.47024Z" fill="black"/>
</g>
<defs>
<clipPath id="clip0_60_8463">
<rect width="9" height="12" fill="white"/>
</clipPath>
</defs>
</svg>
