<svg width="33" height="32" viewBox="0 0 33 32" fill="none" xmlns="http://www.w3.org/2000/svg">
<path d="M9.32938 27.6754L9.85225 27.9348C11.9843 29.1933 14.4217 29.8511 16.9023 29.8375C24.5389 29.8202 30.8133 23.5785 30.8133 15.9997C30.8133 12.3371 29.3475 8.81968 26.741 6.22683C24.138 3.60717 20.5816 2.13086 16.8753 2.13086C9.27361 2.13086 3.01917 8.33883 3.01917 15.8821C3.01917 15.9418 3.01917 16.0006 3.02004 16.0603C3.04293 18.625 3.76572 21.1355 5.11154 23.3251L5.46011 23.844L4.06579 28.9467L9.32938 27.6754Z" fill="#464646"/>
<path d="M28.2918 4.67046C25.3245 1.66592 21.2539 -0.0196593 17.0152 0.000173049H16.9881C8.25882 0.000200142 1.07541 7.12926 1.07541 15.7925C1.07541 15.8332 1.07629 15.873 1.07629 15.9136C1.10917 18.668 1.82765 21.3716 3.16779 23.7838L0.901978 32L9.34639 29.8378C11.6792 31.1089 14.3018 31.764 16.9629 31.7406C25.7245 31.693 32.907 24.5233 32.9018 15.8271C32.9227 11.649 31.2626 7.63087 28.2918 4.67046ZM17.0152 29.0595C14.6563 29.0717 12.3389 28.4436 10.3137 27.2433L9.79081 26.9838L4.76252 28.2811L6.06969 23.3514L5.72113 22.8325C4.42631 20.7576 3.74033 18.3654 3.7403 15.9249C3.7403 8.72752 9.70803 2.80493 16.9603 2.80493C24.2125 2.80493 30.1802 8.72752 30.1802 15.9249C30.1802 20.4567 27.8142 24.679 23.9345 27.0703C21.8826 28.3748 19.4956 29.0653 17.0588 29.0595M24.7188 19.4595L23.7602 19.0271C23.7602 19.0271 22.3659 18.4217 21.4945 17.9893C21.4073 17.9893 21.3202 17.9028 21.233 17.9028C21.0182 17.9081 20.8082 17.9676 20.623 18.0758C20.4374 18.1839 20.5358 18.1623 19.3158 19.546C19.233 19.7078 19.0631 19.809 18.8801 19.8055H18.7929C18.6619 19.7837 18.5405 19.7235 18.4444 19.6325L18.0086 19.4595C17.0737 19.0667 16.2176 18.5101 15.4814 17.8163C15.3071 17.6433 15.0457 17.4703 14.8714 17.2974C14.2262 16.6841 13.6691 15.9856 13.2156 15.2217L13.1285 15.0488C13.0528 14.9431 12.994 14.8264 12.9542 14.7028C12.9314 14.553 12.9622 14.4 13.0413 14.2704C13.1206 14.1407 13.3899 13.8379 13.6513 13.5785C13.9128 13.3191 13.9128 13.1461 14.0871 12.9731C14.1767 12.8496 14.2386 12.7086 14.2686 12.5594C14.2987 12.4102 14.2962 12.2564 14.2614 12.1082C13.8552 10.9891 13.3898 9.89213 12.867 8.82178C12.7269 8.60551 12.5086 8.45075 12.257 8.38935H11.2984C11.1241 8.38935 10.9499 8.47583 10.7755 8.47583L10.6884 8.56231C10.5141 8.64879 10.3398 8.82178 10.1655 8.90826C9.99124 8.99475 9.9041 9.25422 9.72982 9.42718C9.1206 10.1912 8.78351 11.134 8.77121 12.1082C8.78086 12.7935 8.92902 13.47 9.20692 14.0974L9.29408 14.3569C10.0766 16.0172 11.1709 17.5142 12.5185 18.7677L12.867 19.1136C13.1207 19.3221 13.3541 19.5538 13.5642 19.8055C15.3698 21.3648 17.5145 22.4891 19.83 23.092C20.0914 23.1784 20.44 23.1784 20.7014 23.2649H21.5729C22.0284 23.2426 22.4739 23.1247 22.8801 22.919C23.0935 22.823 23.2975 22.7071 23.4901 22.573L23.6644 22.4001C23.8387 22.2271 24.013 22.1406 24.1872 21.9676C24.3576 21.817 24.5044 21.6422 24.623 21.4487C24.7903 21.0613 24.9079 20.6548 24.9716 20.2379V19.6325C24.8932 19.5627 24.8052 19.5044 24.7101 19.4595" fill="#C2C2C2"/>
</svg>
