<svg width="24" height="24" viewBox="0 0 24 24" fill="none" xmlns="http://www.w3.org/2000/svg">
<path d="M6.45417 20.756L6.84335 20.9506C8.43026 21.8945 10.2445 22.3879 12.0909 22.3776C17.775 22.3647 22.4452 17.6834 22.4452 11.9993C22.4452 9.25232 21.3542 6.61427 19.4141 4.66963C17.4766 2.70489 14.8295 1.59766 12.0708 1.59766C6.41265 1.59766 1.75732 6.25363 1.75732 11.9111C1.75732 11.9559 1.75732 12 1.75797 12.0447C1.77502 13.9682 2.313 15.8512 3.31473 17.4933L3.57417 17.8825L2.53635 21.7095L6.45417 20.756Z" fill="#00E676"/>
<path d="M20.5685 3.50285C18.3599 1.24944 15.33 -0.0147444 12.1751 0.000129786H12.1549C5.65751 0.000150106 0.310733 5.34695 0.310733 11.8444C0.310733 11.8749 0.311384 11.9047 0.311384 11.9352C0.335857 14.001 0.870639 16.0287 1.86814 17.8379L0.181641 24L6.46702 22.3784C8.20336 23.3317 10.1554 23.823 12.1361 23.8054C18.6576 23.7697 24.0038 18.3925 23.9999 11.8704C24.0154 8.73675 22.7798 5.72315 20.5685 3.50285ZM12.1751 21.7946C10.4193 21.8038 8.69442 21.3327 7.18699 20.4325L6.79781 20.2379L3.05513 21.2108L4.02809 17.5136L3.76865 17.1244C2.80489 15.5682 2.29429 13.7741 2.29427 11.9436C2.29427 6.54564 6.7362 2.10369 12.1342 2.10369C17.5322 2.10369 21.9741 6.54564 21.9741 11.9436C21.9741 15.3425 20.2131 18.5092 17.3253 20.3027C15.798 21.2811 14.0213 21.799 12.2075 21.7946M17.9091 14.5947L17.1956 14.2703C17.1956 14.2703 16.1577 13.8163 15.5091 13.492C15.4442 13.492 15.3794 13.4271 15.3145 13.4271C15.1546 13.4311 14.9983 13.4757 14.8604 13.5568C14.7223 13.6379 14.7956 13.6217 13.8875 14.6595C13.8259 14.7808 13.6994 14.8567 13.5632 14.8541H13.4983C13.4008 14.8378 13.3104 14.7926 13.2389 14.7244L12.9145 14.5947C12.2186 14.3 11.5814 13.8826 11.0334 13.3622C10.9037 13.2325 10.7091 13.1028 10.5794 12.973C10.0992 12.513 9.68453 11.9892 9.34699 11.4163L9.28211 11.2866C9.22576 11.2073 9.182 11.1198 9.15238 11.0271C9.13542 10.9148 9.15837 10.8 9.21725 10.7028C9.27627 10.6055 9.47671 10.3785 9.6713 10.1839C9.8659 9.98929 9.8659 9.85957 9.99562 9.72982C10.0623 9.63723 10.1084 9.53143 10.1307 9.41955C10.1531 9.30766 10.1513 9.19228 10.1253 9.08117C9.82306 8.24185 9.47663 7.4191 9.08752 6.61634C8.98323 6.45413 8.82073 6.33806 8.63347 6.29201H7.91996C7.79023 6.29201 7.66051 6.35687 7.53077 6.35687L7.46591 6.42173C7.33618 6.48659 7.20646 6.61634 7.07672 6.6812C6.947 6.74606 6.88213 6.94066 6.75241 7.07039C6.29895 7.64341 6.04805 8.35049 6.0389 9.08117C6.04608 9.59516 6.15636 10.1025 6.3632 10.5731L6.42808 10.7676C7.01051 12.0129 7.82506 13.1356 8.82808 14.0757L9.08752 14.3352C9.27633 14.4916 9.45006 14.6653 9.60643 14.8541C10.9504 16.0236 12.5467 16.8669 14.2702 17.319C14.4648 17.3838 14.7242 17.3838 14.9188 17.4487H15.5675C15.9065 17.432 16.2381 17.3435 16.5404 17.1892C16.6993 17.1172 16.8511 17.0303 16.9945 16.9298L17.1242 16.8C17.254 16.6703 17.3837 16.6055 17.5134 16.4757C17.6402 16.3628 17.7495 16.2316 17.8377 16.0865C17.9623 15.7959 18.0498 15.4911 18.0972 15.1784V14.7244C18.0389 14.672 17.9734 14.6283 17.9026 14.5947" fill="#F4F5F7"/>
</svg>
