<svg width="35" height="24" viewBox="0 0 35 24" fill="none" xmlns="http://www.w3.org/2000/svg">
<path d="M33.6205 3.74789C33.2254 2.27188 32.0654 1.11195 30.5894 0.716839C27.9169 2.14577e-07 17.1952 0 17.1952 0C17.1952 0 6.47373 2.14577e-07 3.8011 0.716839C2.3251 1.11195 1.16517 2.27188 0.770062 3.74789C0.0532229 6.4205 0.0532227 12 0.0532227 12C0.0532227 12 0.0532229 17.5795 0.770062 20.2522C1.16517 21.7282 2.3251 22.8881 3.8011 23.2831C6.47373 24 17.1952 24 17.1952 24C17.1952 24 27.9169 24 30.5894 23.2831C32.0654 22.8881 33.2254 21.7282 33.6205 20.2522C34.3373 17.5795 34.3373 12 34.3373 12C34.3373 12 34.3345 6.4205 33.6205 3.74789Z" fill="#FF0000"/>
<path d="M13.7637 17.1435L22.6706 12.0015L13.7637 6.85938V17.1435Z" fill="white"/>
</svg>
