<svg width="54" height="46" viewBox="0 0 54 46" fill="none" xmlns="http://www.w3.org/2000/svg">
<rect x="1" y="1" width="52" height="44" rx="2" fill="white"/>
<path d="M35 25.66V31C35 31.5304 34.7893 32.0391 34.4142 32.4142C34.0391 32.7893 33.5304 33 33 33H19C18.4696 33 17.9609 32.7893 17.5858 32.4142C17.2107 32.0391 17 31.5304 17 31V17C17 16.4696 17.2107 15.9609 17.5858 15.5858C17.9609 15.2107 18.4696 15 19 15H24.34M33 13L37 17L27 27H23V23L33 13Z" stroke="black" stroke-width="2" stroke-linecap="round" stroke-linejoin="round"/>
<rect x="1" y="1" width="52" height="44" rx="2" stroke="#F5F5F5"/>
</svg>
